G04 #@! TF.FileFunction,Copper,L1,Top,Signal*
%FSLAX46Y46*%
G04 Gerber Fmt 4.6, Leading zero omitted, Abs format (unit mm)*
G04 Created by KiCad (PCBNEW 4.0.2-stable) date 12/13/2018 9:00:56 AM*
%MOMM*%
G01*
G04 APERTURE LIST*
%ADD10C,0.100000*%
%ADD11R,1.700000X1.700000*%
%ADD12O,1.700000X1.700000*%
%ADD13C,1.700000*%
%ADD14C,1.600000*%
%ADD15O,1.600000X1.600000*%
%ADD16R,1.800000X1.800000*%
%ADD17C,1.800000*%
%ADD18R,1.600000X1.600000*%
%ADD19O,1.050000X1.500000*%
%ADD20R,1.050000X1.500000*%
%ADD21R,2.250000X1.727200*%
%ADD22O,2.250000X1.727200*%
%ADD23O,1.727200X1.727200*%
%ADD24R,1.550000X0.600000*%
%ADD25C,0.600000*%
%ADD26C,0.400000*%
%ADD27C,0.300000*%
%ADD28C,0.500000*%
%ADD29C,1.000000*%
%ADD30C,1.250000*%
%ADD31C,0.254000*%
G04 APERTURE END LIST*
D10*
D11*
X108966000Y-63246000D03*
D12*
X108966000Y-60706000D03*
D11*
X134620000Y-41402000D03*
D12*
X137160000Y-41402000D03*
X139700000Y-41402000D03*
X142240000Y-41402000D03*
X144780000Y-41402000D03*
X147320000Y-41402000D03*
X150495000Y-85344000D03*
X147955000Y-87884000D03*
X150495000Y-87884000D03*
X147955000Y-90424000D03*
X150495000Y-90424000D03*
X147955000Y-92964000D03*
X150495000Y-92964000D03*
X147955000Y-95504000D03*
X150495000Y-95504000D03*
X147955000Y-98044000D03*
X150495000Y-98044000D03*
X147955000Y-100584000D03*
X150495000Y-100584000D03*
X147955000Y-103124000D03*
X150495000Y-103124000D03*
X147955000Y-105664000D03*
X150495000Y-105664000D03*
X147955000Y-108204000D03*
X150495000Y-108204000D03*
X147955000Y-110744000D03*
X150495000Y-110744000D03*
X147955000Y-113284000D03*
X150495000Y-113284000D03*
X147955000Y-115824000D03*
X150495000Y-115824000D03*
X147955000Y-118364000D03*
X150495000Y-118364000D03*
X147955000Y-120904000D03*
X150495000Y-120904000D03*
X147955000Y-123444000D03*
X150495000Y-123444000D03*
X147955000Y-125984000D03*
X150495000Y-125984000D03*
X147955000Y-128524000D03*
X150495000Y-128524000D03*
X147955000Y-131064000D03*
X150495000Y-131064000D03*
D13*
X168402000Y-80264000D03*
D12*
X170942000Y-80264000D03*
X168402000Y-82804000D03*
X170942000Y-82804000D03*
X168402000Y-85344000D03*
X170942000Y-85344000D03*
X168402000Y-87884000D03*
X170942000Y-87884000D03*
X168402000Y-90424000D03*
X170942000Y-90424000D03*
X168402000Y-92964000D03*
X170942000Y-92964000D03*
X168402000Y-95504000D03*
X170942000Y-95504000D03*
X168402000Y-98044000D03*
X170942000Y-98044000D03*
X168402000Y-100584000D03*
X170942000Y-100584000D03*
X168402000Y-103124000D03*
X170942000Y-103124000D03*
X168402000Y-105664000D03*
X170942000Y-105664000D03*
X168402000Y-108204000D03*
X170942000Y-108204000D03*
X168402000Y-110744000D03*
X170942000Y-110744000D03*
X168402000Y-113284000D03*
X170942000Y-113284000D03*
X168402000Y-115824000D03*
X170942000Y-115824000D03*
X168402000Y-118364000D03*
X170942000Y-118364000D03*
X168402000Y-120904000D03*
X170942000Y-120904000D03*
X168402000Y-123444000D03*
X170942000Y-123444000D03*
X168402000Y-125984000D03*
X170942000Y-125984000D03*
X168402000Y-128524000D03*
X170942000Y-128524000D03*
X168402000Y-131064000D03*
X155575000Y-80264000D03*
X153035000Y-82804000D03*
X155575000Y-82804000D03*
X153035000Y-85344000D03*
X155575000Y-85344000D03*
X153035000Y-87884000D03*
X155575000Y-87884000D03*
X153035000Y-90424000D03*
X155575000Y-90424000D03*
X153035000Y-92964000D03*
X155575000Y-92964000D03*
X153035000Y-95504000D03*
X155575000Y-95504000D03*
X153035000Y-98044000D03*
X155575000Y-98044000D03*
X153035000Y-100584000D03*
X155575000Y-100584000D03*
X153035000Y-103124000D03*
X155575000Y-103124000D03*
X153035000Y-105664000D03*
X155575000Y-105664000D03*
X153035000Y-108204000D03*
X155575000Y-108204000D03*
X153035000Y-110744000D03*
X155575000Y-110744000D03*
X153035000Y-113284000D03*
X155575000Y-113284000D03*
X153035000Y-115824000D03*
X155575000Y-115824000D03*
X153035000Y-118364000D03*
X155575000Y-118364000D03*
X153035000Y-120904000D03*
X155575000Y-120904000D03*
X153035000Y-123444000D03*
X155575000Y-123444000D03*
X153035000Y-125984000D03*
X155575000Y-125984000D03*
X153035000Y-128524000D03*
X155575000Y-128524000D03*
X153035000Y-131064000D03*
X155575000Y-131064000D03*
D13*
X163195000Y-80264000D03*
D12*
X165735000Y-80264000D03*
X163195000Y-82804000D03*
X165735000Y-82804000D03*
X163195000Y-85344000D03*
X165735000Y-85344000D03*
X163195000Y-87884000D03*
X165735000Y-87884000D03*
X163195000Y-90424000D03*
X165735000Y-90424000D03*
X163195000Y-92964000D03*
X165735000Y-92964000D03*
X163195000Y-95504000D03*
X165735000Y-95504000D03*
X163195000Y-98044000D03*
X165735000Y-98044000D03*
X163195000Y-100584000D03*
X165735000Y-100584000D03*
X163195000Y-103124000D03*
X165735000Y-103124000D03*
X163195000Y-105664000D03*
X165735000Y-105664000D03*
X163195000Y-108204000D03*
X165735000Y-108204000D03*
X163195000Y-110744000D03*
X165735000Y-110744000D03*
X163195000Y-113284000D03*
X165735000Y-113284000D03*
X163195000Y-115824000D03*
X165735000Y-115824000D03*
X163195000Y-118364000D03*
X165735000Y-118364000D03*
X163195000Y-120904000D03*
X165735000Y-120904000D03*
X163195000Y-123444000D03*
X165735000Y-123444000D03*
X163195000Y-125984000D03*
X165735000Y-125984000D03*
X163195000Y-128524000D03*
X165735000Y-128524000D03*
X163195000Y-131064000D03*
X165735000Y-131064000D03*
D13*
X158115000Y-80264000D03*
D12*
X160655000Y-80264000D03*
X158115000Y-82804000D03*
X160655000Y-82804000D03*
X158115000Y-85344000D03*
X160655000Y-85344000D03*
X158115000Y-87884000D03*
X160655000Y-87884000D03*
X158115000Y-90424000D03*
X160655000Y-90424000D03*
X158115000Y-92964000D03*
X160655000Y-92964000D03*
X158115000Y-95504000D03*
X160655000Y-95504000D03*
X158115000Y-98044000D03*
X160655000Y-98044000D03*
X158115000Y-100584000D03*
X160655000Y-100584000D03*
X158115000Y-103124000D03*
X160655000Y-103124000D03*
X158115000Y-105664000D03*
X160655000Y-105664000D03*
X158115000Y-108204000D03*
X160655000Y-108204000D03*
X158115000Y-110744000D03*
X160655000Y-110744000D03*
X158115000Y-113284000D03*
X160655000Y-113284000D03*
X158115000Y-115824000D03*
X160655000Y-115824000D03*
X158115000Y-118364000D03*
X160655000Y-118364000D03*
X158115000Y-120904000D03*
X160655000Y-120904000D03*
X158115000Y-123444000D03*
X160655000Y-123444000D03*
X158115000Y-125984000D03*
X160655000Y-125984000D03*
X158115000Y-128524000D03*
X160655000Y-128524000D03*
X158115000Y-131064000D03*
X160655000Y-131064000D03*
D11*
X101727000Y-41402000D03*
D12*
X104267000Y-41402000D03*
X106807000Y-41402000D03*
X109347000Y-41402000D03*
X111887000Y-41402000D03*
X114427000Y-41402000D03*
D14*
X148082000Y-59690000D03*
D15*
X148082000Y-67190000D03*
D14*
X147447000Y-71882000D03*
D15*
X154947000Y-71882000D03*
D14*
X96012000Y-54102000D03*
D15*
X96012000Y-61602000D03*
D14*
X101854000Y-76073000D03*
D15*
X101854000Y-68573000D03*
D16*
X166370000Y-43180000D03*
D17*
X166370000Y-45720000D03*
D16*
X86360000Y-87630000D03*
D17*
X86360000Y-85090000D03*
D16*
X86360000Y-81915000D03*
D17*
X86360000Y-79375000D03*
D18*
X120650000Y-50800000D03*
D15*
X128270000Y-68580000D03*
X120650000Y-53340000D03*
X128270000Y-66040000D03*
X120650000Y-55880000D03*
X128270000Y-63500000D03*
X120650000Y-58420000D03*
X128270000Y-60960000D03*
X120650000Y-60960000D03*
X128270000Y-58420000D03*
X120650000Y-63500000D03*
X128270000Y-55880000D03*
X120650000Y-66040000D03*
X128270000Y-53340000D03*
X120650000Y-68580000D03*
X128270000Y-50800000D03*
D11*
X85725000Y-99060000D03*
X86106000Y-116840000D03*
D12*
X86106000Y-114300000D03*
D11*
X122809000Y-41402000D03*
D12*
X125349000Y-41402000D03*
D11*
X158242000Y-41402000D03*
D12*
X155702000Y-41402000D03*
D11*
X85725000Y-93345000D03*
X86106000Y-107315000D03*
D12*
X86106000Y-104775000D03*
D19*
X132080000Y-73533000D03*
X130810000Y-73533000D03*
D20*
X133350000Y-73533000D03*
D19*
X138430000Y-73533000D03*
X137160000Y-73533000D03*
D20*
X139700000Y-73533000D03*
D19*
X116332000Y-73533000D03*
X117602000Y-73533000D03*
D20*
X115062000Y-73533000D03*
D19*
X110617000Y-73533000D03*
X111887000Y-73533000D03*
D20*
X109347000Y-73533000D03*
D14*
X156210000Y-46355000D03*
D15*
X146050000Y-46355000D03*
D14*
X159131000Y-56007000D03*
D15*
X159131000Y-66167000D03*
D14*
X165608000Y-56007000D03*
D15*
X165608000Y-66167000D03*
D14*
X153162000Y-66167000D03*
D15*
X153162000Y-56007000D03*
D14*
X170180000Y-71755000D03*
D15*
X160020000Y-71755000D03*
D14*
X83820000Y-51435000D03*
D15*
X83820000Y-61595000D03*
D14*
X91948000Y-49022000D03*
D15*
X102108000Y-49022000D03*
D14*
X101854000Y-55245000D03*
D15*
X101854000Y-65405000D03*
D14*
X88646000Y-61595000D03*
D15*
X88646000Y-51435000D03*
D14*
X95885000Y-65151000D03*
D15*
X95885000Y-75311000D03*
D14*
X86360000Y-76835000D03*
D15*
X86360000Y-66675000D03*
D21*
X110109000Y-129717800D03*
D22*
X110109000Y-127177800D03*
X110109000Y-124637800D03*
X110109000Y-122097800D03*
X110109000Y-119557800D03*
X110109000Y-117017800D03*
X110109000Y-114477800D03*
X110109000Y-111937800D03*
X110109000Y-109397800D03*
X110109000Y-106857800D03*
X110109000Y-104317800D03*
X110109000Y-101777800D03*
X110109000Y-99237800D03*
X110109000Y-96697800D03*
X110109000Y-94157800D03*
X110109000Y-91617800D03*
X110109000Y-89077800D03*
X110109000Y-86537800D03*
X110109000Y-83997800D03*
X110109000Y-81457800D03*
X94869000Y-81457800D03*
X94869000Y-83997800D03*
X94869000Y-86537800D03*
X94869000Y-89077800D03*
X94869000Y-91617800D03*
X94869000Y-94157800D03*
X94869000Y-96697800D03*
X94869000Y-99237800D03*
X94869000Y-101777800D03*
X94869000Y-104317800D03*
X94869000Y-106857800D03*
X94869000Y-109397800D03*
X94869000Y-111937800D03*
X94869000Y-114477800D03*
X94869000Y-117017800D03*
X94869000Y-119557800D03*
X94869000Y-122097800D03*
X94869000Y-124637800D03*
X94869000Y-127177800D03*
X94869000Y-129768600D03*
D23*
X101209000Y-125907800D03*
X103749000Y-125907800D03*
D21*
X134747000Y-129717800D03*
D22*
X134747000Y-127177800D03*
X134747000Y-124637800D03*
X134747000Y-122097800D03*
X134747000Y-119557800D03*
X134747000Y-117017800D03*
X134747000Y-114477800D03*
X134747000Y-111937800D03*
X134747000Y-109397800D03*
X134747000Y-106857800D03*
X134747000Y-104317800D03*
X134747000Y-101777800D03*
X134747000Y-99237800D03*
X134747000Y-96697800D03*
X134747000Y-94157800D03*
X134747000Y-91617800D03*
X134747000Y-89077800D03*
X134747000Y-86537800D03*
X134747000Y-83997800D03*
X134747000Y-81457800D03*
X119507000Y-81457800D03*
X119507000Y-83997800D03*
X119507000Y-86537800D03*
X119507000Y-89077800D03*
X119507000Y-91617800D03*
X119507000Y-94157800D03*
X119507000Y-96697800D03*
X119507000Y-99237800D03*
X119507000Y-101777800D03*
X119507000Y-104317800D03*
X119507000Y-106857800D03*
X119507000Y-109397800D03*
X119507000Y-111937800D03*
X119507000Y-114477800D03*
X119507000Y-117017800D03*
X119507000Y-119557800D03*
X119507000Y-122097800D03*
X119507000Y-124637800D03*
X119507000Y-127177800D03*
X119507000Y-129768600D03*
D23*
X125847000Y-125907800D03*
X128387000Y-125907800D03*
D24*
X111539000Y-56769000D03*
X111539000Y-55499000D03*
X111539000Y-54229000D03*
X111539000Y-52959000D03*
X106139000Y-52959000D03*
X106139000Y-54229000D03*
X106139000Y-55499000D03*
X106139000Y-56769000D03*
X136111000Y-52451000D03*
X136111000Y-53721000D03*
X136111000Y-54991000D03*
X136111000Y-56261000D03*
X141511000Y-56261000D03*
X141511000Y-54991000D03*
X141511000Y-53721000D03*
X141511000Y-52451000D03*
D11*
X138938000Y-63246000D03*
D12*
X138938000Y-60706000D03*
D11*
X159385000Y-76708000D03*
D12*
X156845000Y-76708000D03*
D11*
X91948000Y-72390000D03*
D12*
X91948000Y-69850000D03*
D25*
X170434000Y-50800000D03*
X169291000Y-44831000D03*
X169545000Y-50038000D03*
X169545000Y-50800000D03*
X170434000Y-50038000D03*
X134239000Y-49530000D03*
X135255000Y-49530000D03*
X136271000Y-49530000D03*
X137160000Y-48895000D03*
X135890000Y-48768000D03*
X134747000Y-48768000D03*
X135763000Y-47879000D03*
X136779000Y-47879000D03*
X137541000Y-48260000D03*
X129667000Y-57531000D03*
X130937000Y-57531000D03*
X130937000Y-58801000D03*
X129667000Y-58801000D03*
X129667000Y-60071000D03*
X130937000Y-60071000D03*
X130937000Y-61341000D03*
X129667000Y-61341000D03*
X119126000Y-59563000D03*
X118110000Y-59563000D03*
X117094000Y-59563000D03*
X116078000Y-59563000D03*
X115062000Y-59563000D03*
X119126000Y-58674000D03*
X118110000Y-58674000D03*
X117094000Y-58674000D03*
X116078000Y-58674000D03*
X115062000Y-58674000D03*
X115062000Y-57658000D03*
X116078000Y-57658000D03*
X117094000Y-57658000D03*
X118110000Y-57658000D03*
X119126000Y-57658000D03*
X116078000Y-61595000D03*
X117094000Y-61595000D03*
X118110000Y-61595000D03*
X119126000Y-61595000D03*
X119126000Y-60452000D03*
X118110000Y-60452000D03*
X117094000Y-60452000D03*
X116078000Y-60452000D03*
X115062000Y-60452000D03*
X141478000Y-58293000D03*
X126873000Y-128905000D03*
X106680000Y-83947000D03*
X137541000Y-92837000D03*
X91948000Y-118618000D03*
X91948000Y-112649000D03*
X126238000Y-118745000D03*
X173609000Y-45974000D03*
X111125000Y-79629000D03*
X147574000Y-49784000D03*
X156083000Y-49149000D03*
X141351000Y-116205000D03*
X139319000Y-88011000D03*
X128778000Y-78867000D03*
X144399000Y-82296000D03*
X104140000Y-57150000D03*
X135255000Y-70866000D03*
X143383000Y-82042000D03*
D26*
X169291000Y-50165000D02*
X169926000Y-50800000D01*
X169926000Y-50800000D02*
X170434000Y-50800000D01*
X166370000Y-43180000D02*
X167640000Y-43180000D01*
X167640000Y-43180000D02*
X169291000Y-44831000D01*
X169291000Y-44831000D02*
X169291000Y-50165000D01*
D27*
X170434000Y-50038000D02*
X169545000Y-50800000D01*
D26*
X136779000Y-47879000D02*
X137160000Y-48260000D01*
X131826000Y-57531000D02*
X134239000Y-55118000D01*
X134239000Y-55118000D02*
X134239000Y-49530000D01*
X135255000Y-49530000D02*
X136271000Y-49530000D01*
X137160000Y-48895000D02*
X137033000Y-48768000D01*
X137033000Y-48768000D02*
X135890000Y-48768000D01*
X134747000Y-48768000D02*
X134874000Y-48768000D01*
X134874000Y-48768000D02*
X135763000Y-47879000D01*
X130937000Y-57531000D02*
X131826000Y-57531000D01*
X137160000Y-48260000D02*
X137541000Y-48260000D01*
X128270000Y-58420000D02*
X128778000Y-58420000D01*
X128778000Y-58420000D02*
X129667000Y-57531000D01*
X130937000Y-57531000D02*
X130937000Y-58801000D01*
X129667000Y-58801000D02*
X129667000Y-60071000D01*
X130937000Y-60071000D02*
X130937000Y-61341000D01*
X119126000Y-59563000D02*
X118110000Y-59563000D01*
X117094000Y-59563000D02*
X116078000Y-59563000D01*
X117094000Y-58674000D02*
X118110000Y-58674000D01*
X115062000Y-58674000D02*
X116078000Y-58674000D01*
X116078000Y-57658000D02*
X115062000Y-57658000D01*
X118110000Y-57658000D02*
X117094000Y-57658000D01*
X119888000Y-58420000D02*
X119126000Y-57658000D01*
X118110000Y-61595000D02*
X117094000Y-61595000D01*
X119126000Y-60452000D02*
X119126000Y-61595000D01*
X117094000Y-60452000D02*
X118110000Y-60452000D01*
X115062000Y-60452000D02*
X116078000Y-60452000D01*
X120650000Y-58420000D02*
X119888000Y-58420000D01*
D27*
X141511000Y-56261000D02*
X141511000Y-58260000D01*
X141511000Y-58260000D02*
X141478000Y-58293000D01*
X119507000Y-127177800D02*
X120827800Y-127177800D01*
X122555000Y-128905000D02*
X126873000Y-128905000D01*
X120827800Y-127177800D02*
X122555000Y-128905000D01*
X110109000Y-83997800D02*
X106730800Y-83997800D01*
X106730800Y-83997800D02*
X106680000Y-83947000D01*
X99491800Y-89077800D02*
X94869000Y-89077800D01*
X103251000Y-92837000D02*
X99491800Y-89077800D01*
X137541000Y-92837000D02*
X103251000Y-92837000D01*
D28*
X153162000Y-66167000D02*
X152139000Y-67190000D01*
X152139000Y-67190000D02*
X148082000Y-67190000D01*
D27*
X154947000Y-71882000D02*
X154947000Y-73526000D01*
X101396800Y-86537800D02*
X94869000Y-86537800D01*
X105156000Y-90297000D02*
X101396800Y-86537800D01*
X138176000Y-90297000D02*
X105156000Y-90297000D01*
X154947000Y-73526000D02*
X138176000Y-90297000D01*
D28*
X154947000Y-71882000D02*
X155074000Y-71755000D01*
X155074000Y-71755000D02*
X160020000Y-71755000D01*
D26*
X91948000Y-69850000D02*
X91948000Y-66675000D01*
X91948000Y-66675000D02*
X94234000Y-64389000D01*
D28*
X96012000Y-61602000D02*
X96012000Y-62611000D01*
X116890800Y-89077800D02*
X119507000Y-89077800D01*
X114173000Y-86360000D02*
X116890800Y-89077800D01*
X114173000Y-80899000D02*
X114173000Y-86360000D01*
X112014000Y-78740000D02*
X114173000Y-80899000D01*
X95758000Y-78740000D02*
X112014000Y-78740000D01*
X94234000Y-77216000D02*
X95758000Y-78740000D01*
X94234000Y-64389000D02*
X94234000Y-77216000D01*
X96012000Y-62611000D02*
X94234000Y-64389000D01*
X88646000Y-61595000D02*
X96005000Y-61595000D01*
X96005000Y-61595000D02*
X96012000Y-61602000D01*
X95885000Y-75311000D02*
X95885000Y-76200000D01*
X116382800Y-86537800D02*
X119507000Y-86537800D01*
X114935000Y-85090000D02*
X116382800Y-86537800D01*
X114935000Y-80518000D02*
X114935000Y-85090000D01*
X112395000Y-77978000D02*
X114935000Y-80518000D01*
X97663000Y-77978000D02*
X112395000Y-77978000D01*
X95885000Y-76200000D02*
X97663000Y-77978000D01*
X95885000Y-75311000D02*
X95885000Y-74542000D01*
X95885000Y-74542000D02*
X101854000Y-68573000D01*
D27*
X166370000Y-45720000D02*
X156845000Y-45720000D01*
X156845000Y-45720000D02*
X156210000Y-46355000D01*
D26*
X83820000Y-61595000D02*
X83820000Y-86360000D01*
X85090000Y-87630000D02*
X86360000Y-87630000D01*
X83820000Y-86360000D02*
X85090000Y-87630000D01*
D27*
X91948000Y-112649000D02*
X91948000Y-118618000D01*
D26*
X85725000Y-99060000D02*
X84455000Y-99060000D01*
X87630000Y-85090000D02*
X86360000Y-85090000D01*
X88265000Y-85725000D02*
X87630000Y-85090000D01*
X88265000Y-88900000D02*
X88265000Y-85725000D01*
X86995000Y-90170000D02*
X88265000Y-88900000D01*
X86360000Y-90170000D02*
X86995000Y-90170000D01*
X83185000Y-93345000D02*
X86360000Y-90170000D01*
X83185000Y-97790000D02*
X83185000Y-93345000D01*
X84455000Y-99060000D02*
X83185000Y-97790000D01*
D27*
X129590800Y-122097800D02*
X134747000Y-122097800D01*
X126238000Y-118745000D02*
X129590800Y-122097800D01*
D29*
X177038000Y-128524000D02*
X180467000Y-125095000D01*
X180467000Y-125095000D02*
X180467000Y-52832000D01*
X180467000Y-52832000D02*
X173609000Y-45974000D01*
X170942000Y-128524000D02*
X177038000Y-128524000D01*
X147955000Y-128524000D02*
X150495000Y-128524000D01*
X150495000Y-128524000D02*
X153035000Y-128524000D01*
X153035000Y-128524000D02*
X155575000Y-128524000D01*
X155575000Y-128524000D02*
X158115000Y-128524000D01*
X158115000Y-128524000D02*
X160655000Y-128524000D01*
X160655000Y-128524000D02*
X163195000Y-128524000D01*
X163195000Y-128524000D02*
X165735000Y-128524000D01*
X165735000Y-128524000D02*
X168402000Y-128524000D01*
X168402000Y-128524000D02*
X170942000Y-128524000D01*
D26*
X94869000Y-124637800D02*
X93649800Y-124637800D01*
X93091000Y-79629000D02*
X111125000Y-79629000D01*
X92964000Y-79756000D02*
X93091000Y-79629000D01*
X92964000Y-123952000D02*
X92964000Y-79756000D01*
X93649800Y-124637800D02*
X92964000Y-123952000D01*
D28*
X128270000Y-68580000D02*
X127254000Y-68580000D01*
X127127000Y-50800000D02*
X128270000Y-50800000D01*
X126619000Y-51308000D02*
X127127000Y-50800000D01*
X126619000Y-67945000D02*
X126619000Y-51308000D01*
X127254000Y-68580000D02*
X126619000Y-67945000D01*
X111887000Y-73533000D02*
X111887000Y-74549000D01*
X111887000Y-74549000D02*
X113665000Y-76327000D01*
X113665000Y-76327000D02*
X116586000Y-76327000D01*
X116586000Y-76327000D02*
X117602000Y-75311000D01*
X117602000Y-75311000D02*
X117602000Y-73533000D01*
X117602000Y-73533000D02*
X130810000Y-73533000D01*
X130810000Y-73533000D02*
X130810000Y-71120000D01*
X130810000Y-71120000D02*
X128270000Y-68580000D01*
X137160000Y-73533000D02*
X137160000Y-74930000D01*
X130810000Y-75565000D02*
X130810000Y-73533000D01*
X131826000Y-76581000D02*
X130810000Y-75565000D01*
X135509000Y-76581000D02*
X131826000Y-76581000D01*
X137160000Y-74930000D02*
X135509000Y-76581000D01*
X109347000Y-73533000D02*
X109347000Y-70231000D01*
X123063000Y-53340000D02*
X120650000Y-53340000D01*
X123128998Y-53405998D02*
X123063000Y-53340000D01*
X123128998Y-64196002D02*
X123128998Y-53405998D01*
X122555000Y-64770000D02*
X123128998Y-64196002D01*
X114808000Y-64770000D02*
X122555000Y-64770000D01*
X109347000Y-70231000D02*
X114808000Y-64770000D01*
X133350000Y-73533000D02*
X133350000Y-69215000D01*
X130175000Y-66040000D02*
X128270000Y-66040000D01*
X133350000Y-69215000D02*
X130175000Y-66040000D01*
D29*
X108966000Y-63246000D02*
X110617000Y-63246000D01*
X111539000Y-62324000D02*
X111539000Y-56769000D01*
X110617000Y-63246000D02*
X111539000Y-62324000D01*
X111539000Y-56769000D02*
X111539000Y-55499000D01*
X111539000Y-55499000D02*
X111920000Y-55880000D01*
X111920000Y-55880000D02*
X120650000Y-55880000D01*
X138938000Y-63246000D02*
X133477000Y-63246000D01*
X133477000Y-63246000D02*
X133223000Y-63500000D01*
X136111000Y-56261000D02*
X136111000Y-60612000D01*
X128270000Y-63500000D02*
X133223000Y-63500000D01*
X136111000Y-60612000D02*
X136111000Y-54991000D01*
X133223000Y-63500000D02*
X136111000Y-60612000D01*
X128270000Y-55880000D02*
X130302000Y-55880000D01*
X142240000Y-43434000D02*
X142240000Y-41402000D01*
X140589000Y-45085000D02*
X142240000Y-43434000D01*
X136525000Y-45085000D02*
X140589000Y-45085000D01*
X132588000Y-49022000D02*
X136525000Y-45085000D01*
X132588000Y-53594000D02*
X132588000Y-49022000D01*
X130302000Y-55880000D02*
X132588000Y-53594000D01*
D28*
X120650000Y-66040000D02*
X117602000Y-66040000D01*
X115062000Y-68580000D02*
X115062000Y-73533000D01*
X117602000Y-66040000D02*
X115062000Y-68580000D01*
D30*
X123698000Y-68580000D02*
X120650000Y-68580000D01*
X124841000Y-67437000D02*
X123698000Y-68580000D01*
X124841000Y-49911000D02*
X124841000Y-67437000D01*
X122809000Y-47879000D02*
X124841000Y-49911000D01*
X122809000Y-41402000D02*
X122809000Y-47879000D01*
D28*
X153162000Y-56007000D02*
X159131000Y-56007000D01*
X147574000Y-49784000D02*
X153162000Y-55372000D01*
X153162000Y-55372000D02*
X153162000Y-56007000D01*
X165608000Y-56007000D02*
X170180000Y-60579000D01*
X170180000Y-60579000D02*
X170180000Y-71755000D01*
X158750000Y-49149000D02*
X165608000Y-56007000D01*
X156083000Y-49149000D02*
X158750000Y-49149000D01*
D29*
X138938000Y-60706000D02*
X138938000Y-53848000D01*
X138303000Y-53213000D02*
X136111000Y-53213000D01*
X138938000Y-53848000D02*
X138303000Y-53213000D01*
X144780000Y-41402000D02*
X144780000Y-43561000D01*
X144780000Y-43561000D02*
X136111000Y-52230000D01*
X136111000Y-52230000D02*
X136111000Y-53213000D01*
X136111000Y-53213000D02*
X136111000Y-53721000D01*
D26*
X86106000Y-104775000D02*
X85090000Y-104775000D01*
X84455000Y-114300000D02*
X86106000Y-114300000D01*
X83185000Y-113030000D02*
X84455000Y-114300000D01*
X83185000Y-106680000D02*
X83185000Y-113030000D01*
X85090000Y-104775000D02*
X83185000Y-106680000D01*
D28*
X88646000Y-51435000D02*
X89535000Y-51435000D01*
X89535000Y-51435000D02*
X91948000Y-49022000D01*
X104267000Y-41402000D02*
X104267000Y-44069000D01*
X93853000Y-47117000D02*
X91948000Y-49022000D01*
X101219000Y-47117000D02*
X93853000Y-47117000D01*
X104267000Y-44069000D02*
X101219000Y-47117000D01*
X95885000Y-65151000D02*
X97663000Y-65151000D01*
X98933000Y-58166000D02*
X101854000Y-55245000D01*
X98933000Y-63881000D02*
X98933000Y-58166000D01*
X97663000Y-65151000D02*
X98933000Y-63881000D01*
X106807000Y-41402000D02*
X106807000Y-48260000D01*
X101854000Y-53213000D02*
X101854000Y-55245000D01*
X106807000Y-48260000D02*
X101854000Y-53213000D01*
D29*
X108966000Y-60706000D02*
X108966000Y-54102000D01*
X109474000Y-53594000D02*
X111539000Y-53594000D01*
X108966000Y-54102000D02*
X109474000Y-53594000D01*
X111539000Y-54229000D02*
X111539000Y-53594000D01*
X111539000Y-53594000D02*
X111539000Y-52959000D01*
X109347000Y-41402000D02*
X109347000Y-46355000D01*
X111539000Y-48547000D02*
X111539000Y-54229000D01*
X109347000Y-46355000D02*
X111539000Y-48547000D01*
D27*
X114427000Y-41402000D02*
X117856000Y-41402000D01*
X141351000Y-89281000D02*
X141351000Y-116205000D01*
X155532998Y-75099002D02*
X141351000Y-89281000D01*
X169629998Y-75099002D02*
X155532998Y-75099002D01*
X172212000Y-72517000D02*
X169629998Y-75099002D01*
X172212000Y-44831000D02*
X172212000Y-72517000D01*
X166497000Y-39116000D02*
X172212000Y-44831000D01*
X120142000Y-39116000D02*
X166497000Y-39116000D01*
X117856000Y-41402000D02*
X120142000Y-39116000D01*
X139319000Y-81280000D02*
X139319000Y-88011000D01*
X136906000Y-78867000D02*
X139319000Y-81280000D01*
X128778000Y-78867000D02*
X136906000Y-78867000D01*
D26*
X163195000Y-125984000D02*
X165735000Y-125984000D01*
X147955000Y-125984000D02*
X150495000Y-125984000D01*
X150495000Y-125984000D02*
X153035000Y-125984000D01*
X153035000Y-125984000D02*
X155575000Y-125984000D01*
X155575000Y-125984000D02*
X158115000Y-125984000D01*
X158115000Y-125984000D02*
X160655000Y-125984000D01*
X160655000Y-125984000D02*
X165735000Y-125984000D01*
X165735000Y-125984000D02*
X168402000Y-125984000D01*
X168402000Y-125984000D02*
X170942000Y-125984000D01*
X147955000Y-125984000D02*
X140589000Y-125984000D01*
X113385600Y-135890000D02*
X137414000Y-135890000D01*
X165608000Y-71628000D02*
X165608000Y-66167000D01*
X162687000Y-74549000D02*
X165608000Y-71628000D01*
X155194000Y-74549000D02*
X162687000Y-74549000D01*
X140589000Y-89154000D02*
X155194000Y-74549000D01*
X140589000Y-132715000D02*
X140589000Y-125984000D01*
X140589000Y-125984000D02*
X140589000Y-89154000D01*
X137414000Y-135890000D02*
X140589000Y-132715000D01*
X94869000Y-129768600D02*
X94869000Y-132207000D01*
X113385600Y-135890000D02*
X119507000Y-129768600D01*
X98552000Y-135890000D02*
X113385600Y-135890000D01*
X94869000Y-132207000D02*
X98552000Y-135890000D01*
X94869000Y-129768600D02*
X91160600Y-129768600D01*
X99568000Y-51562000D02*
X102108000Y-49022000D01*
X93091000Y-51562000D02*
X99568000Y-51562000D01*
X87249000Y-57404000D02*
X93091000Y-51562000D01*
X87249000Y-65278000D02*
X87249000Y-57404000D01*
X89027000Y-67056000D02*
X87249000Y-65278000D01*
X89027000Y-127635000D02*
X89027000Y-67056000D01*
X91160600Y-129768600D02*
X89027000Y-127635000D01*
D28*
X159131000Y-66167000D02*
X152527000Y-59563000D01*
X146812000Y-52451000D02*
X141511000Y-52451000D01*
X152527000Y-58166000D02*
X146812000Y-52451000D01*
X152527000Y-59563000D02*
X152527000Y-58166000D01*
X165608000Y-66167000D02*
X159131000Y-66167000D01*
X101854000Y-65405000D02*
X104140000Y-65405000D01*
X106139000Y-63406000D02*
X106139000Y-56769000D01*
X104140000Y-65405000D02*
X106139000Y-63406000D01*
D27*
X141511000Y-53721000D02*
X143637000Y-53721000D01*
X144399000Y-54483000D02*
X144399000Y-82296000D01*
X143637000Y-53721000D02*
X144399000Y-54483000D01*
X104775000Y-55499000D02*
X106139000Y-55499000D01*
X104140000Y-56134000D02*
X104775000Y-55499000D01*
X104140000Y-57150000D02*
X104140000Y-56134000D01*
X142367000Y-70866000D02*
X135255000Y-70866000D01*
X143383000Y-71882000D02*
X142367000Y-70866000D01*
X143383000Y-82042000D02*
X143383000Y-71882000D01*
D31*
G36*
X88192000Y-127635000D02*
X88255561Y-127954541D01*
X88424088Y-128206760D01*
X88436566Y-128225434D01*
X90570166Y-130359034D01*
X90841059Y-130540039D01*
X91160600Y-130603600D01*
X93363330Y-130603600D01*
X93513450Y-130828270D01*
X93999631Y-131153126D01*
X94034000Y-131159962D01*
X94034000Y-132207000D01*
X94097561Y-132526541D01*
X94278566Y-132797434D01*
X97961566Y-136480434D01*
X98232460Y-136661440D01*
X98552000Y-136725000D01*
X137414000Y-136725000D01*
X137733541Y-136661439D01*
X138004434Y-136480434D01*
X140281543Y-134203325D01*
X175414587Y-134203325D01*
X175776916Y-135080229D01*
X176447242Y-135751726D01*
X177323513Y-136115585D01*
X178272325Y-136116413D01*
X179149229Y-135754084D01*
X179820726Y-135083758D01*
X180184585Y-134207487D01*
X180185413Y-133258675D01*
X179823084Y-132381771D01*
X179152758Y-131710274D01*
X178276487Y-131346415D01*
X177327675Y-131345587D01*
X176450771Y-131707916D01*
X175779274Y-132378242D01*
X175415415Y-133254513D01*
X175414587Y-134203325D01*
X140281543Y-134203325D01*
X141179434Y-133305434D01*
X141213458Y-133254513D01*
X141360439Y-133034541D01*
X141424000Y-132715000D01*
X141424000Y-126819000D01*
X146431000Y-126819000D01*
X146431000Y-129794000D01*
X146439685Y-129840159D01*
X146466965Y-129882553D01*
X146508590Y-129910994D01*
X146558000Y-129921000D01*
X147483501Y-129921000D01*
X147925907Y-130009000D01*
X147984093Y-130009000D01*
X148426499Y-129921000D01*
X150023501Y-129921000D01*
X150465907Y-130009000D01*
X150524093Y-130009000D01*
X150966499Y-129921000D01*
X152563501Y-129921000D01*
X153005907Y-130009000D01*
X153064093Y-130009000D01*
X153506499Y-129921000D01*
X155103501Y-129921000D01*
X155545907Y-130009000D01*
X155604093Y-130009000D01*
X156046499Y-129921000D01*
X157643501Y-129921000D01*
X158085907Y-130009000D01*
X158144093Y-130009000D01*
X158586499Y-129921000D01*
X160183501Y-129921000D01*
X160625907Y-130009000D01*
X160684093Y-130009000D01*
X161126499Y-129921000D01*
X162723501Y-129921000D01*
X163165907Y-130009000D01*
X163224093Y-130009000D01*
X163666499Y-129921000D01*
X165263501Y-129921000D01*
X165705907Y-130009000D01*
X165764093Y-130009000D01*
X166206499Y-129921000D01*
X167930501Y-129921000D01*
X168372907Y-130009000D01*
X168431093Y-130009000D01*
X168873499Y-129921000D01*
X170470501Y-129921000D01*
X170912907Y-130009000D01*
X170971093Y-130009000D01*
X171413499Y-129921000D01*
X172339000Y-129921000D01*
X172385159Y-129912315D01*
X172427553Y-129885035D01*
X172455994Y-129843410D01*
X172466000Y-129794000D01*
X172466000Y-129659000D01*
X177038000Y-129659000D01*
X177472346Y-129572603D01*
X177840566Y-129326566D01*
X181269566Y-125897566D01*
X181433000Y-125652970D01*
X181433000Y-135187533D01*
X181269731Y-136008342D01*
X180842995Y-136646997D01*
X180204343Y-137073731D01*
X179383533Y-137237000D01*
X84903467Y-137237000D01*
X84082658Y-137073731D01*
X83444003Y-136646995D01*
X83017269Y-136008343D01*
X82854000Y-135187533D01*
X82854000Y-134203325D01*
X84101587Y-134203325D01*
X84463916Y-135080229D01*
X85134242Y-135751726D01*
X86010513Y-136115585D01*
X86959325Y-136116413D01*
X87836229Y-135754084D01*
X88507726Y-135083758D01*
X88871585Y-134207487D01*
X88872413Y-133258675D01*
X88510084Y-132381771D01*
X87839758Y-131710274D01*
X86963487Y-131346415D01*
X86014675Y-131345587D01*
X85137771Y-131707916D01*
X84466274Y-132378242D01*
X84102415Y-133254513D01*
X84101587Y-134203325D01*
X82854000Y-134203325D01*
X82854000Y-113879868D01*
X83864566Y-114890434D01*
X84135459Y-115071439D01*
X84455000Y-115135000D01*
X84883159Y-115135000D01*
X85026853Y-115350054D01*
X85068452Y-115377850D01*
X85020683Y-115386838D01*
X84804559Y-115525910D01*
X84659569Y-115738110D01*
X84608560Y-115990000D01*
X84608560Y-117690000D01*
X84652838Y-117925317D01*
X84791910Y-118141441D01*
X85004110Y-118286431D01*
X85256000Y-118337440D01*
X86956000Y-118337440D01*
X87191317Y-118293162D01*
X87407441Y-118154090D01*
X87552431Y-117941890D01*
X87603440Y-117690000D01*
X87603440Y-115990000D01*
X87559162Y-115754683D01*
X87420090Y-115538559D01*
X87207890Y-115393569D01*
X87140459Y-115379914D01*
X87185147Y-115350054D01*
X87507054Y-114868285D01*
X87620093Y-114300000D01*
X87507054Y-113731715D01*
X87185147Y-113249946D01*
X86703378Y-112928039D01*
X86135093Y-112815000D01*
X86076907Y-112815000D01*
X85508622Y-112928039D01*
X85026853Y-113249946D01*
X84883159Y-113465000D01*
X84800868Y-113465000D01*
X84020000Y-112684132D01*
X84020000Y-107025868D01*
X84615592Y-106430276D01*
X84608560Y-106465000D01*
X84608560Y-108165000D01*
X84652838Y-108400317D01*
X84791910Y-108616441D01*
X85004110Y-108761431D01*
X85256000Y-108812440D01*
X86956000Y-108812440D01*
X87191317Y-108768162D01*
X87407441Y-108629090D01*
X87552431Y-108416890D01*
X87603440Y-108165000D01*
X87603440Y-106465000D01*
X87559162Y-106229683D01*
X87420090Y-106013559D01*
X87207890Y-105868569D01*
X87140459Y-105854914D01*
X87185147Y-105825054D01*
X87507054Y-105343285D01*
X87620093Y-104775000D01*
X87507054Y-104206715D01*
X87185147Y-103724946D01*
X86703378Y-103403039D01*
X86135093Y-103290000D01*
X86076907Y-103290000D01*
X85508622Y-103403039D01*
X85026853Y-103724946D01*
X84851454Y-103987450D01*
X84770459Y-104003561D01*
X84515298Y-104174054D01*
X84499566Y-104184566D01*
X82854000Y-105830132D01*
X82854000Y-98639868D01*
X83864566Y-99650434D01*
X84135459Y-99831439D01*
X84227560Y-99849759D01*
X84227560Y-99910000D01*
X84271838Y-100145317D01*
X84410910Y-100361441D01*
X84623110Y-100506431D01*
X84875000Y-100557440D01*
X86575000Y-100557440D01*
X86810317Y-100513162D01*
X87026441Y-100374090D01*
X87171431Y-100161890D01*
X87222440Y-99910000D01*
X87222440Y-98210000D01*
X87178162Y-97974683D01*
X87039090Y-97758559D01*
X86826890Y-97613569D01*
X86575000Y-97562560D01*
X84875000Y-97562560D01*
X84639683Y-97606838D01*
X84423559Y-97745910D01*
X84382244Y-97806376D01*
X84020000Y-97444132D01*
X84020000Y-93690868D01*
X84227560Y-93483308D01*
X84227560Y-94195000D01*
X84271838Y-94430317D01*
X84410910Y-94646441D01*
X84623110Y-94791431D01*
X84875000Y-94842440D01*
X86575000Y-94842440D01*
X86810317Y-94798162D01*
X87026441Y-94659090D01*
X87171431Y-94446890D01*
X87222440Y-94195000D01*
X87222440Y-92495000D01*
X87178162Y-92259683D01*
X87039090Y-92043559D01*
X86826890Y-91898569D01*
X86575000Y-91847560D01*
X85863308Y-91847560D01*
X86705868Y-91005000D01*
X86995000Y-91005000D01*
X87314541Y-90941439D01*
X87585434Y-90760434D01*
X88192000Y-90153868D01*
X88192000Y-127635000D01*
X88192000Y-127635000D01*
G37*
X88192000Y-127635000D02*
X88255561Y-127954541D01*
X88424088Y-128206760D01*
X88436566Y-128225434D01*
X90570166Y-130359034D01*
X90841059Y-130540039D01*
X91160600Y-130603600D01*
X93363330Y-130603600D01*
X93513450Y-130828270D01*
X93999631Y-131153126D01*
X94034000Y-131159962D01*
X94034000Y-132207000D01*
X94097561Y-132526541D01*
X94278566Y-132797434D01*
X97961566Y-136480434D01*
X98232460Y-136661440D01*
X98552000Y-136725000D01*
X137414000Y-136725000D01*
X137733541Y-136661439D01*
X138004434Y-136480434D01*
X140281543Y-134203325D01*
X175414587Y-134203325D01*
X175776916Y-135080229D01*
X176447242Y-135751726D01*
X177323513Y-136115585D01*
X178272325Y-136116413D01*
X179149229Y-135754084D01*
X179820726Y-135083758D01*
X180184585Y-134207487D01*
X180185413Y-133258675D01*
X179823084Y-132381771D01*
X179152758Y-131710274D01*
X178276487Y-131346415D01*
X177327675Y-131345587D01*
X176450771Y-131707916D01*
X175779274Y-132378242D01*
X175415415Y-133254513D01*
X175414587Y-134203325D01*
X140281543Y-134203325D01*
X141179434Y-133305434D01*
X141213458Y-133254513D01*
X141360439Y-133034541D01*
X141424000Y-132715000D01*
X141424000Y-126819000D01*
X146431000Y-126819000D01*
X146431000Y-129794000D01*
X146439685Y-129840159D01*
X146466965Y-129882553D01*
X146508590Y-129910994D01*
X146558000Y-129921000D01*
X147483501Y-129921000D01*
X147925907Y-130009000D01*
X147984093Y-130009000D01*
X148426499Y-129921000D01*
X150023501Y-129921000D01*
X150465907Y-130009000D01*
X150524093Y-130009000D01*
X150966499Y-129921000D01*
X152563501Y-129921000D01*
X153005907Y-130009000D01*
X153064093Y-130009000D01*
X153506499Y-129921000D01*
X155103501Y-129921000D01*
X155545907Y-130009000D01*
X155604093Y-130009000D01*
X156046499Y-129921000D01*
X157643501Y-129921000D01*
X158085907Y-130009000D01*
X158144093Y-130009000D01*
X158586499Y-129921000D01*
X160183501Y-129921000D01*
X160625907Y-130009000D01*
X160684093Y-130009000D01*
X161126499Y-129921000D01*
X162723501Y-129921000D01*
X163165907Y-130009000D01*
X163224093Y-130009000D01*
X163666499Y-129921000D01*
X165263501Y-129921000D01*
X165705907Y-130009000D01*
X165764093Y-130009000D01*
X166206499Y-129921000D01*
X167930501Y-129921000D01*
X168372907Y-130009000D01*
X168431093Y-130009000D01*
X168873499Y-129921000D01*
X170470501Y-129921000D01*
X170912907Y-130009000D01*
X170971093Y-130009000D01*
X171413499Y-129921000D01*
X172339000Y-129921000D01*
X172385159Y-129912315D01*
X172427553Y-129885035D01*
X172455994Y-129843410D01*
X172466000Y-129794000D01*
X172466000Y-129659000D01*
X177038000Y-129659000D01*
X177472346Y-129572603D01*
X177840566Y-129326566D01*
X181269566Y-125897566D01*
X181433000Y-125652970D01*
X181433000Y-135187533D01*
X181269731Y-136008342D01*
X180842995Y-136646997D01*
X180204343Y-137073731D01*
X179383533Y-137237000D01*
X84903467Y-137237000D01*
X84082658Y-137073731D01*
X83444003Y-136646995D01*
X83017269Y-136008343D01*
X82854000Y-135187533D01*
X82854000Y-134203325D01*
X84101587Y-134203325D01*
X84463916Y-135080229D01*
X85134242Y-135751726D01*
X86010513Y-136115585D01*
X86959325Y-136116413D01*
X87836229Y-135754084D01*
X88507726Y-135083758D01*
X88871585Y-134207487D01*
X88872413Y-133258675D01*
X88510084Y-132381771D01*
X87839758Y-131710274D01*
X86963487Y-131346415D01*
X86014675Y-131345587D01*
X85137771Y-131707916D01*
X84466274Y-132378242D01*
X84102415Y-133254513D01*
X84101587Y-134203325D01*
X82854000Y-134203325D01*
X82854000Y-113879868D01*
X83864566Y-114890434D01*
X84135459Y-115071439D01*
X84455000Y-115135000D01*
X84883159Y-115135000D01*
X85026853Y-115350054D01*
X85068452Y-115377850D01*
X85020683Y-115386838D01*
X84804559Y-115525910D01*
X84659569Y-115738110D01*
X84608560Y-115990000D01*
X84608560Y-117690000D01*
X84652838Y-117925317D01*
X84791910Y-118141441D01*
X85004110Y-118286431D01*
X85256000Y-118337440D01*
X86956000Y-118337440D01*
X87191317Y-118293162D01*
X87407441Y-118154090D01*
X87552431Y-117941890D01*
X87603440Y-117690000D01*
X87603440Y-115990000D01*
X87559162Y-115754683D01*
X87420090Y-115538559D01*
X87207890Y-115393569D01*
X87140459Y-115379914D01*
X87185147Y-115350054D01*
X87507054Y-114868285D01*
X87620093Y-114300000D01*
X87507054Y-113731715D01*
X87185147Y-113249946D01*
X86703378Y-112928039D01*
X86135093Y-112815000D01*
X86076907Y-112815000D01*
X85508622Y-112928039D01*
X85026853Y-113249946D01*
X84883159Y-113465000D01*
X84800868Y-113465000D01*
X84020000Y-112684132D01*
X84020000Y-107025868D01*
X84615592Y-106430276D01*
X84608560Y-106465000D01*
X84608560Y-108165000D01*
X84652838Y-108400317D01*
X84791910Y-108616441D01*
X85004110Y-108761431D01*
X85256000Y-108812440D01*
X86956000Y-108812440D01*
X87191317Y-108768162D01*
X87407441Y-108629090D01*
X87552431Y-108416890D01*
X87603440Y-108165000D01*
X87603440Y-106465000D01*
X87559162Y-106229683D01*
X87420090Y-106013559D01*
X87207890Y-105868569D01*
X87140459Y-105854914D01*
X87185147Y-105825054D01*
X87507054Y-105343285D01*
X87620093Y-104775000D01*
X87507054Y-104206715D01*
X87185147Y-103724946D01*
X86703378Y-103403039D01*
X86135093Y-103290000D01*
X86076907Y-103290000D01*
X85508622Y-103403039D01*
X85026853Y-103724946D01*
X84851454Y-103987450D01*
X84770459Y-104003561D01*
X84515298Y-104174054D01*
X84499566Y-104184566D01*
X82854000Y-105830132D01*
X82854000Y-98639868D01*
X83864566Y-99650434D01*
X84135459Y-99831439D01*
X84227560Y-99849759D01*
X84227560Y-99910000D01*
X84271838Y-100145317D01*
X84410910Y-100361441D01*
X84623110Y-100506431D01*
X84875000Y-100557440D01*
X86575000Y-100557440D01*
X86810317Y-100513162D01*
X87026441Y-100374090D01*
X87171431Y-100161890D01*
X87222440Y-99910000D01*
X87222440Y-98210000D01*
X87178162Y-97974683D01*
X87039090Y-97758559D01*
X86826890Y-97613569D01*
X86575000Y-97562560D01*
X84875000Y-97562560D01*
X84639683Y-97606838D01*
X84423559Y-97745910D01*
X84382244Y-97806376D01*
X84020000Y-97444132D01*
X84020000Y-93690868D01*
X84227560Y-93483308D01*
X84227560Y-94195000D01*
X84271838Y-94430317D01*
X84410910Y-94646441D01*
X84623110Y-94791431D01*
X84875000Y-94842440D01*
X86575000Y-94842440D01*
X86810317Y-94798162D01*
X87026441Y-94659090D01*
X87171431Y-94446890D01*
X87222440Y-94195000D01*
X87222440Y-92495000D01*
X87178162Y-92259683D01*
X87039090Y-92043559D01*
X86826890Y-91898569D01*
X86575000Y-91847560D01*
X85863308Y-91847560D01*
X86705868Y-91005000D01*
X86995000Y-91005000D01*
X87314541Y-90941439D01*
X87585434Y-90760434D01*
X88192000Y-90153868D01*
X88192000Y-127635000D01*
G36*
X94888878Y-62482543D02*
X93608210Y-63763210D01*
X93465822Y-63976310D01*
X91357566Y-66084566D01*
X91176561Y-66355459D01*
X91113000Y-66675000D01*
X91113000Y-68636813D01*
X90868853Y-68799946D01*
X90546946Y-69281715D01*
X90433907Y-69850000D01*
X90546946Y-70418285D01*
X90868853Y-70900054D01*
X90910452Y-70927850D01*
X90862683Y-70936838D01*
X90646559Y-71075910D01*
X90501569Y-71288110D01*
X90450560Y-71540000D01*
X90450560Y-73240000D01*
X90494838Y-73475317D01*
X90633910Y-73691441D01*
X90846110Y-73836431D01*
X91098000Y-73887440D01*
X92798000Y-73887440D01*
X93033317Y-73843162D01*
X93249441Y-73704090D01*
X93349000Y-73558381D01*
X93349000Y-77215995D01*
X93348999Y-77216000D01*
X93405190Y-77498484D01*
X93416367Y-77554675D01*
X93418589Y-77558000D01*
X93608210Y-77841790D01*
X94560421Y-78794000D01*
X93091000Y-78794000D01*
X92771459Y-78857561D01*
X92581390Y-78984561D01*
X92500566Y-79038566D01*
X92373566Y-79165566D01*
X92192561Y-79436459D01*
X92129000Y-79756000D01*
X92129000Y-111714157D01*
X91762833Y-111713838D01*
X91419057Y-111855883D01*
X91155808Y-112118673D01*
X91013162Y-112462201D01*
X91012838Y-112834167D01*
X91154883Y-113177943D01*
X91163000Y-113186074D01*
X91163000Y-118080494D01*
X91155808Y-118087673D01*
X91013162Y-118431201D01*
X91012838Y-118803167D01*
X91154883Y-119146943D01*
X91417673Y-119410192D01*
X91761201Y-119552838D01*
X92129000Y-119553158D01*
X92129000Y-123952000D01*
X92192561Y-124271541D01*
X92223778Y-124318260D01*
X92373566Y-124542434D01*
X93059366Y-125228234D01*
X93313280Y-125397894D01*
X93513450Y-125697470D01*
X93999631Y-126022326D01*
X94573120Y-126136400D01*
X95164880Y-126136400D01*
X95738369Y-126022326D01*
X95953707Y-125878441D01*
X99710400Y-125878441D01*
X99710400Y-125937159D01*
X99824474Y-126510648D01*
X100149330Y-126996829D01*
X100635511Y-127321685D01*
X101209000Y-127435759D01*
X101782489Y-127321685D01*
X102268670Y-126996829D01*
X102479000Y-126682048D01*
X102689330Y-126996829D01*
X103175511Y-127321685D01*
X103749000Y-127435759D01*
X104322489Y-127321685D01*
X104808670Y-126996829D01*
X105133526Y-126510648D01*
X105247600Y-125937159D01*
X105247600Y-125878441D01*
X105133526Y-125304952D01*
X104808670Y-124818771D01*
X104322489Y-124493915D01*
X103749000Y-124379841D01*
X103175511Y-124493915D01*
X102689330Y-124818771D01*
X102479000Y-125133552D01*
X102268670Y-124818771D01*
X101782489Y-124493915D01*
X101209000Y-124379841D01*
X100635511Y-124493915D01*
X100149330Y-124818771D01*
X99824474Y-125304952D01*
X99710400Y-125878441D01*
X95953707Y-125878441D01*
X96224550Y-125697470D01*
X96549406Y-125211289D01*
X96663480Y-124637800D01*
X96549406Y-124064311D01*
X96224550Y-123578130D01*
X95909769Y-123367800D01*
X96224550Y-123157470D01*
X96549406Y-122671289D01*
X96663480Y-122097800D01*
X96549406Y-121524311D01*
X96224550Y-121038130D01*
X95909769Y-120827800D01*
X96224550Y-120617470D01*
X96549406Y-120131289D01*
X96663480Y-119557800D01*
X96549406Y-118984311D01*
X96224550Y-118498130D01*
X95909769Y-118287800D01*
X96224550Y-118077470D01*
X96549406Y-117591289D01*
X96663480Y-117017800D01*
X96549406Y-116444311D01*
X96224550Y-115958130D01*
X95909769Y-115747800D01*
X96224550Y-115537470D01*
X96549406Y-115051289D01*
X96663480Y-114477800D01*
X96549406Y-113904311D01*
X96224550Y-113418130D01*
X95909769Y-113207800D01*
X96224550Y-112997470D01*
X96549406Y-112511289D01*
X96663480Y-111937800D01*
X96549406Y-111364311D01*
X96224550Y-110878130D01*
X95909769Y-110667800D01*
X96224550Y-110457470D01*
X96549406Y-109971289D01*
X96663480Y-109397800D01*
X96549406Y-108824311D01*
X96224550Y-108338130D01*
X95909769Y-108127800D01*
X96224550Y-107917470D01*
X96549406Y-107431289D01*
X96663480Y-106857800D01*
X96549406Y-106284311D01*
X96224550Y-105798130D01*
X95909769Y-105587800D01*
X96224550Y-105377470D01*
X96549406Y-104891289D01*
X96663480Y-104317800D01*
X96549406Y-103744311D01*
X96224550Y-103258130D01*
X95909769Y-103047800D01*
X96224550Y-102837470D01*
X96549406Y-102351289D01*
X96663480Y-101777800D01*
X96549406Y-101204311D01*
X96224550Y-100718130D01*
X95909769Y-100507800D01*
X96224550Y-100297470D01*
X96549406Y-99811289D01*
X96663480Y-99237800D01*
X96549406Y-98664311D01*
X96224550Y-98178130D01*
X95909769Y-97967800D01*
X96224550Y-97757470D01*
X96549406Y-97271289D01*
X96663480Y-96697800D01*
X96549406Y-96124311D01*
X96224550Y-95638130D01*
X95909769Y-95427800D01*
X96224550Y-95217470D01*
X96549406Y-94731289D01*
X96663480Y-94157800D01*
X96549406Y-93584311D01*
X96224550Y-93098130D01*
X95909769Y-92887800D01*
X96224550Y-92677470D01*
X96549406Y-92191289D01*
X96663480Y-91617800D01*
X96549406Y-91044311D01*
X96224550Y-90558130D01*
X95909769Y-90347800D01*
X96224550Y-90137470D01*
X96408079Y-89862800D01*
X99166642Y-89862800D01*
X102695921Y-93392079D01*
X102950594Y-93562245D01*
X103251000Y-93622001D01*
X103251005Y-93622000D01*
X108421097Y-93622000D01*
X108314520Y-94157800D01*
X108428594Y-94731289D01*
X108753450Y-95217470D01*
X109068231Y-95427800D01*
X108753450Y-95638130D01*
X108428594Y-96124311D01*
X108314520Y-96697800D01*
X108428594Y-97271289D01*
X108753450Y-97757470D01*
X109068231Y-97967800D01*
X108753450Y-98178130D01*
X108428594Y-98664311D01*
X108314520Y-99237800D01*
X108428594Y-99811289D01*
X108753450Y-100297470D01*
X109068231Y-100507800D01*
X108753450Y-100718130D01*
X108428594Y-101204311D01*
X108314520Y-101777800D01*
X108428594Y-102351289D01*
X108753450Y-102837470D01*
X109068231Y-103047800D01*
X108753450Y-103258130D01*
X108428594Y-103744311D01*
X108314520Y-104317800D01*
X108428594Y-104891289D01*
X108753450Y-105377470D01*
X109068231Y-105587800D01*
X108753450Y-105798130D01*
X108428594Y-106284311D01*
X108314520Y-106857800D01*
X108428594Y-107431289D01*
X108753450Y-107917470D01*
X109068231Y-108127800D01*
X108753450Y-108338130D01*
X108428594Y-108824311D01*
X108314520Y-109397800D01*
X108428594Y-109971289D01*
X108753450Y-110457470D01*
X109068231Y-110667800D01*
X108753450Y-110878130D01*
X108428594Y-111364311D01*
X108314520Y-111937800D01*
X108428594Y-112511289D01*
X108753450Y-112997470D01*
X109068231Y-113207800D01*
X108753450Y-113418130D01*
X108428594Y-113904311D01*
X108314520Y-114477800D01*
X108428594Y-115051289D01*
X108753450Y-115537470D01*
X109068231Y-115747800D01*
X108753450Y-115958130D01*
X108428594Y-116444311D01*
X108314520Y-117017800D01*
X108428594Y-117591289D01*
X108753450Y-118077470D01*
X109068231Y-118287800D01*
X108753450Y-118498130D01*
X108428594Y-118984311D01*
X108314520Y-119557800D01*
X108428594Y-120131289D01*
X108753450Y-120617470D01*
X109068231Y-120827800D01*
X108753450Y-121038130D01*
X108428594Y-121524311D01*
X108314520Y-122097800D01*
X108428594Y-122671289D01*
X108753450Y-123157470D01*
X109068231Y-123367800D01*
X108753450Y-123578130D01*
X108428594Y-124064311D01*
X108314520Y-124637800D01*
X108428594Y-125211289D01*
X108753450Y-125697470D01*
X109068231Y-125907800D01*
X108753450Y-126118130D01*
X108428594Y-126604311D01*
X108314520Y-127177800D01*
X108428594Y-127751289D01*
X108753450Y-128237470D01*
X108768247Y-128247357D01*
X108748683Y-128251038D01*
X108532559Y-128390110D01*
X108387569Y-128602310D01*
X108336560Y-128854200D01*
X108336560Y-130581400D01*
X108380838Y-130816717D01*
X108519910Y-131032841D01*
X108732110Y-131177831D01*
X108984000Y-131228840D01*
X111234000Y-131228840D01*
X111469317Y-131184562D01*
X111685441Y-131045490D01*
X111830431Y-130833290D01*
X111881440Y-130581400D01*
X111881440Y-128854200D01*
X111837162Y-128618883D01*
X111698090Y-128402759D01*
X111485890Y-128257769D01*
X111446199Y-128249731D01*
X111464550Y-128237470D01*
X111789406Y-127751289D01*
X111903480Y-127177800D01*
X111789406Y-126604311D01*
X111464550Y-126118130D01*
X111149769Y-125907800D01*
X111464550Y-125697470D01*
X111789406Y-125211289D01*
X111903480Y-124637800D01*
X111789406Y-124064311D01*
X111464550Y-123578130D01*
X111149769Y-123367800D01*
X111464550Y-123157470D01*
X111789406Y-122671289D01*
X111903480Y-122097800D01*
X111789406Y-121524311D01*
X111464550Y-121038130D01*
X111149769Y-120827800D01*
X111464550Y-120617470D01*
X111789406Y-120131289D01*
X111903480Y-119557800D01*
X111789406Y-118984311D01*
X111464550Y-118498130D01*
X111149769Y-118287800D01*
X111464550Y-118077470D01*
X111789406Y-117591289D01*
X111903480Y-117017800D01*
X111789406Y-116444311D01*
X111464550Y-115958130D01*
X111149769Y-115747800D01*
X111464550Y-115537470D01*
X111789406Y-115051289D01*
X111903480Y-114477800D01*
X111789406Y-113904311D01*
X111464550Y-113418130D01*
X111149769Y-113207800D01*
X111464550Y-112997470D01*
X111789406Y-112511289D01*
X111903480Y-111937800D01*
X111789406Y-111364311D01*
X111464550Y-110878130D01*
X111149769Y-110667800D01*
X111464550Y-110457470D01*
X111789406Y-109971289D01*
X111903480Y-109397800D01*
X111789406Y-108824311D01*
X111464550Y-108338130D01*
X111149769Y-108127800D01*
X111464550Y-107917470D01*
X111789406Y-107431289D01*
X111903480Y-106857800D01*
X111789406Y-106284311D01*
X111464550Y-105798130D01*
X111149769Y-105587800D01*
X111464550Y-105377470D01*
X111789406Y-104891289D01*
X111903480Y-104317800D01*
X111789406Y-103744311D01*
X111464550Y-103258130D01*
X111149769Y-103047800D01*
X111464550Y-102837470D01*
X111789406Y-102351289D01*
X111903480Y-101777800D01*
X111789406Y-101204311D01*
X111464550Y-100718130D01*
X111149769Y-100507800D01*
X111464550Y-100297470D01*
X111789406Y-99811289D01*
X111903480Y-99237800D01*
X111789406Y-98664311D01*
X111464550Y-98178130D01*
X111149769Y-97967800D01*
X111464550Y-97757470D01*
X111789406Y-97271289D01*
X111903480Y-96697800D01*
X111789406Y-96124311D01*
X111464550Y-95638130D01*
X111149769Y-95427800D01*
X111464550Y-95217470D01*
X111789406Y-94731289D01*
X111903480Y-94157800D01*
X111796903Y-93622000D01*
X117819097Y-93622000D01*
X117712520Y-94157800D01*
X117826594Y-94731289D01*
X118151450Y-95217470D01*
X118466231Y-95427800D01*
X118151450Y-95638130D01*
X117826594Y-96124311D01*
X117712520Y-96697800D01*
X117826594Y-97271289D01*
X118151450Y-97757470D01*
X118466231Y-97967800D01*
X118151450Y-98178130D01*
X117826594Y-98664311D01*
X117712520Y-99237800D01*
X117826594Y-99811289D01*
X118151450Y-100297470D01*
X118466231Y-100507800D01*
X118151450Y-100718130D01*
X117826594Y-101204311D01*
X117712520Y-101777800D01*
X117826594Y-102351289D01*
X118151450Y-102837470D01*
X118466231Y-103047800D01*
X118151450Y-103258130D01*
X117826594Y-103744311D01*
X117712520Y-104317800D01*
X117826594Y-104891289D01*
X118151450Y-105377470D01*
X118466231Y-105587800D01*
X118151450Y-105798130D01*
X117826594Y-106284311D01*
X117712520Y-106857800D01*
X117826594Y-107431289D01*
X118151450Y-107917470D01*
X118466231Y-108127800D01*
X118151450Y-108338130D01*
X117826594Y-108824311D01*
X117712520Y-109397800D01*
X117826594Y-109971289D01*
X118151450Y-110457470D01*
X118466231Y-110667800D01*
X118151450Y-110878130D01*
X117826594Y-111364311D01*
X117712520Y-111937800D01*
X117826594Y-112511289D01*
X118151450Y-112997470D01*
X118466231Y-113207800D01*
X118151450Y-113418130D01*
X117826594Y-113904311D01*
X117712520Y-114477800D01*
X117826594Y-115051289D01*
X118151450Y-115537470D01*
X118466231Y-115747800D01*
X118151450Y-115958130D01*
X117826594Y-116444311D01*
X117712520Y-117017800D01*
X117826594Y-117591289D01*
X118151450Y-118077470D01*
X118466231Y-118287800D01*
X118151450Y-118498130D01*
X117826594Y-118984311D01*
X117712520Y-119557800D01*
X117826594Y-120131289D01*
X118151450Y-120617470D01*
X118466231Y-120827800D01*
X118151450Y-121038130D01*
X117826594Y-121524311D01*
X117712520Y-122097800D01*
X117826594Y-122671289D01*
X118151450Y-123157470D01*
X118466231Y-123367800D01*
X118151450Y-123578130D01*
X117826594Y-124064311D01*
X117712520Y-124637800D01*
X117826594Y-125211289D01*
X118151450Y-125697470D01*
X118637631Y-126022326D01*
X119211120Y-126136400D01*
X119802880Y-126136400D01*
X120376369Y-126022326D01*
X120591707Y-125878441D01*
X124348400Y-125878441D01*
X124348400Y-125937159D01*
X124462474Y-126510648D01*
X124787330Y-126996829D01*
X125273511Y-127321685D01*
X125847000Y-127435759D01*
X126420489Y-127321685D01*
X126906670Y-126996829D01*
X127117000Y-126682048D01*
X127327330Y-126996829D01*
X127813511Y-127321685D01*
X128387000Y-127435759D01*
X128960489Y-127321685D01*
X129446670Y-126996829D01*
X129771526Y-126510648D01*
X129885600Y-125937159D01*
X129885600Y-125878441D01*
X129771526Y-125304952D01*
X129446670Y-124818771D01*
X128960489Y-124493915D01*
X128387000Y-124379841D01*
X127813511Y-124493915D01*
X127327330Y-124818771D01*
X127117000Y-125133552D01*
X126906670Y-124818771D01*
X126420489Y-124493915D01*
X125847000Y-124379841D01*
X125273511Y-124493915D01*
X124787330Y-124818771D01*
X124462474Y-125304952D01*
X124348400Y-125878441D01*
X120591707Y-125878441D01*
X120862550Y-125697470D01*
X121187406Y-125211289D01*
X121301480Y-124637800D01*
X121187406Y-124064311D01*
X120862550Y-123578130D01*
X120547769Y-123367800D01*
X120862550Y-123157470D01*
X121187406Y-122671289D01*
X121301480Y-122097800D01*
X121187406Y-121524311D01*
X120862550Y-121038130D01*
X120547769Y-120827800D01*
X120862550Y-120617470D01*
X121187406Y-120131289D01*
X121301480Y-119557800D01*
X121187406Y-118984311D01*
X120862550Y-118498130D01*
X120547769Y-118287800D01*
X120862550Y-118077470D01*
X121187406Y-117591289D01*
X121301480Y-117017800D01*
X121187406Y-116444311D01*
X120862550Y-115958130D01*
X120547769Y-115747800D01*
X120862550Y-115537470D01*
X121187406Y-115051289D01*
X121301480Y-114477800D01*
X121187406Y-113904311D01*
X120862550Y-113418130D01*
X120547769Y-113207800D01*
X120862550Y-112997470D01*
X121187406Y-112511289D01*
X121301480Y-111937800D01*
X121187406Y-111364311D01*
X120862550Y-110878130D01*
X120547769Y-110667800D01*
X120862550Y-110457470D01*
X121187406Y-109971289D01*
X121301480Y-109397800D01*
X121187406Y-108824311D01*
X120862550Y-108338130D01*
X120547769Y-108127800D01*
X120862550Y-107917470D01*
X121187406Y-107431289D01*
X121301480Y-106857800D01*
X121187406Y-106284311D01*
X120862550Y-105798130D01*
X120547769Y-105587800D01*
X120862550Y-105377470D01*
X121187406Y-104891289D01*
X121301480Y-104317800D01*
X121187406Y-103744311D01*
X120862550Y-103258130D01*
X120547769Y-103047800D01*
X120862550Y-102837470D01*
X121187406Y-102351289D01*
X121301480Y-101777800D01*
X121187406Y-101204311D01*
X120862550Y-100718130D01*
X120547769Y-100507800D01*
X120862550Y-100297470D01*
X121187406Y-99811289D01*
X121301480Y-99237800D01*
X121187406Y-98664311D01*
X120862550Y-98178130D01*
X120547769Y-97967800D01*
X120862550Y-97757470D01*
X121187406Y-97271289D01*
X121301480Y-96697800D01*
X121187406Y-96124311D01*
X120862550Y-95638130D01*
X120547769Y-95427800D01*
X120862550Y-95217470D01*
X121187406Y-94731289D01*
X121301480Y-94157800D01*
X121194903Y-93622000D01*
X133059097Y-93622000D01*
X132952520Y-94157800D01*
X133066594Y-94731289D01*
X133391450Y-95217470D01*
X133706231Y-95427800D01*
X133391450Y-95638130D01*
X133066594Y-96124311D01*
X132952520Y-96697800D01*
X133066594Y-97271289D01*
X133391450Y-97757470D01*
X133706231Y-97967800D01*
X133391450Y-98178130D01*
X133066594Y-98664311D01*
X132952520Y-99237800D01*
X133066594Y-99811289D01*
X133391450Y-100297470D01*
X133706231Y-100507800D01*
X133391450Y-100718130D01*
X133066594Y-101204311D01*
X132952520Y-101777800D01*
X133066594Y-102351289D01*
X133391450Y-102837470D01*
X133706231Y-103047800D01*
X133391450Y-103258130D01*
X133066594Y-103744311D01*
X132952520Y-104317800D01*
X133066594Y-104891289D01*
X133391450Y-105377470D01*
X133706231Y-105587800D01*
X133391450Y-105798130D01*
X133066594Y-106284311D01*
X132952520Y-106857800D01*
X133066594Y-107431289D01*
X133391450Y-107917470D01*
X133706231Y-108127800D01*
X133391450Y-108338130D01*
X133066594Y-108824311D01*
X132952520Y-109397800D01*
X133066594Y-109971289D01*
X133391450Y-110457470D01*
X133706231Y-110667800D01*
X133391450Y-110878130D01*
X133066594Y-111364311D01*
X132952520Y-111937800D01*
X133066594Y-112511289D01*
X133391450Y-112997470D01*
X133706231Y-113207800D01*
X133391450Y-113418130D01*
X133066594Y-113904311D01*
X132952520Y-114477800D01*
X133066594Y-115051289D01*
X133391450Y-115537470D01*
X133706231Y-115747800D01*
X133391450Y-115958130D01*
X133066594Y-116444311D01*
X132952520Y-117017800D01*
X133066594Y-117591289D01*
X133391450Y-118077470D01*
X133706231Y-118287800D01*
X133391450Y-118498130D01*
X133066594Y-118984311D01*
X132952520Y-119557800D01*
X133066594Y-120131289D01*
X133391450Y-120617470D01*
X133706231Y-120827800D01*
X133391450Y-121038130D01*
X133207921Y-121312800D01*
X129915958Y-121312800D01*
X127173153Y-118569995D01*
X127173162Y-118559833D01*
X127031117Y-118216057D01*
X126768327Y-117952808D01*
X126424799Y-117810162D01*
X126052833Y-117809838D01*
X125709057Y-117951883D01*
X125445808Y-118214673D01*
X125303162Y-118558201D01*
X125302838Y-118930167D01*
X125444883Y-119273943D01*
X125707673Y-119537192D01*
X126051201Y-119679838D01*
X126062690Y-119679848D01*
X129035721Y-122652879D01*
X129290393Y-122823045D01*
X129590800Y-122882800D01*
X133207921Y-122882800D01*
X133391450Y-123157470D01*
X133706231Y-123367800D01*
X133391450Y-123578130D01*
X133066594Y-124064311D01*
X132952520Y-124637800D01*
X133066594Y-125211289D01*
X133391450Y-125697470D01*
X133706231Y-125907800D01*
X133391450Y-126118130D01*
X133066594Y-126604311D01*
X132952520Y-127177800D01*
X133066594Y-127751289D01*
X133391450Y-128237470D01*
X133406247Y-128247357D01*
X133386683Y-128251038D01*
X133170559Y-128390110D01*
X133025569Y-128602310D01*
X132974560Y-128854200D01*
X132974560Y-130581400D01*
X133018838Y-130816717D01*
X133157910Y-131032841D01*
X133370110Y-131177831D01*
X133622000Y-131228840D01*
X135872000Y-131228840D01*
X136107317Y-131184562D01*
X136323441Y-131045490D01*
X136468431Y-130833290D01*
X136519440Y-130581400D01*
X136519440Y-128854200D01*
X136475162Y-128618883D01*
X136336090Y-128402759D01*
X136123890Y-128257769D01*
X136084199Y-128249731D01*
X136102550Y-128237470D01*
X136427406Y-127751289D01*
X136541480Y-127177800D01*
X136427406Y-126604311D01*
X136102550Y-126118130D01*
X135787769Y-125907800D01*
X136102550Y-125697470D01*
X136427406Y-125211289D01*
X136541480Y-124637800D01*
X136427406Y-124064311D01*
X136102550Y-123578130D01*
X135787769Y-123367800D01*
X136102550Y-123157470D01*
X136427406Y-122671289D01*
X136541480Y-122097800D01*
X136427406Y-121524311D01*
X136102550Y-121038130D01*
X135787769Y-120827800D01*
X136102550Y-120617470D01*
X136427406Y-120131289D01*
X136541480Y-119557800D01*
X136427406Y-118984311D01*
X136102550Y-118498130D01*
X135787769Y-118287800D01*
X136102550Y-118077470D01*
X136427406Y-117591289D01*
X136541480Y-117017800D01*
X136427406Y-116444311D01*
X136102550Y-115958130D01*
X135787769Y-115747800D01*
X136102550Y-115537470D01*
X136427406Y-115051289D01*
X136541480Y-114477800D01*
X136427406Y-113904311D01*
X136102550Y-113418130D01*
X135787769Y-113207800D01*
X136102550Y-112997470D01*
X136427406Y-112511289D01*
X136541480Y-111937800D01*
X136427406Y-111364311D01*
X136102550Y-110878130D01*
X135787769Y-110667800D01*
X136102550Y-110457470D01*
X136427406Y-109971289D01*
X136541480Y-109397800D01*
X136427406Y-108824311D01*
X136102550Y-108338130D01*
X135787769Y-108127800D01*
X136102550Y-107917470D01*
X136427406Y-107431289D01*
X136541480Y-106857800D01*
X136427406Y-106284311D01*
X136102550Y-105798130D01*
X135787769Y-105587800D01*
X136102550Y-105377470D01*
X136427406Y-104891289D01*
X136541480Y-104317800D01*
X136427406Y-103744311D01*
X136102550Y-103258130D01*
X135787769Y-103047800D01*
X136102550Y-102837470D01*
X136427406Y-102351289D01*
X136541480Y-101777800D01*
X136427406Y-101204311D01*
X136102550Y-100718130D01*
X135787769Y-100507800D01*
X136102550Y-100297470D01*
X136427406Y-99811289D01*
X136541480Y-99237800D01*
X136427406Y-98664311D01*
X136102550Y-98178130D01*
X135787769Y-97967800D01*
X136102550Y-97757470D01*
X136427406Y-97271289D01*
X136541480Y-96697800D01*
X136427406Y-96124311D01*
X136102550Y-95638130D01*
X135787769Y-95427800D01*
X136102550Y-95217470D01*
X136427406Y-94731289D01*
X136541480Y-94157800D01*
X136434903Y-93622000D01*
X137003494Y-93622000D01*
X137010673Y-93629192D01*
X137354201Y-93771838D01*
X137726167Y-93772162D01*
X138069943Y-93630117D01*
X138333192Y-93367327D01*
X138475838Y-93023799D01*
X138476162Y-92651833D01*
X138334117Y-92308057D01*
X138071327Y-92044808D01*
X137727799Y-91902162D01*
X137355833Y-91901838D01*
X137012057Y-92043883D01*
X137003926Y-92052000D01*
X136455112Y-92052000D01*
X136541480Y-91617800D01*
X136434903Y-91082000D01*
X138176000Y-91082000D01*
X138476407Y-91022245D01*
X138731079Y-90852079D01*
X139754000Y-89829158D01*
X139754000Y-132369132D01*
X137068132Y-135055000D01*
X115401468Y-135055000D01*
X119192893Y-131263575D01*
X119211120Y-131267200D01*
X119802880Y-131267200D01*
X120376369Y-131153126D01*
X120862550Y-130828270D01*
X121187406Y-130342089D01*
X121301480Y-129768600D01*
X121187406Y-129195111D01*
X120862550Y-128708930D01*
X120376369Y-128384074D01*
X119802880Y-128270000D01*
X119211120Y-128270000D01*
X118637631Y-128384074D01*
X118151450Y-128708930D01*
X117826594Y-129195111D01*
X117712520Y-129768600D01*
X117814325Y-130280407D01*
X113039732Y-135055000D01*
X98897868Y-135055000D01*
X95704000Y-131861132D01*
X95704000Y-131159962D01*
X95738369Y-131153126D01*
X96224550Y-130828270D01*
X96549406Y-130342089D01*
X96663480Y-129768600D01*
X96549406Y-129195111D01*
X96224550Y-128708930D01*
X95738369Y-128384074D01*
X95164880Y-128270000D01*
X94573120Y-128270000D01*
X93999631Y-128384074D01*
X93513450Y-128708930D01*
X93363330Y-128933600D01*
X91506468Y-128933600D01*
X89862000Y-127289132D01*
X89862000Y-67056000D01*
X89841874Y-66954819D01*
X89798440Y-66736460D01*
X89617434Y-66465566D01*
X88084000Y-64932132D01*
X88084000Y-62915432D01*
X88359309Y-63029750D01*
X88930187Y-63030248D01*
X89457800Y-62812243D01*
X89790623Y-62480000D01*
X94887179Y-62480000D01*
X94888878Y-62482543D01*
X94888878Y-62482543D01*
G37*
X94888878Y-62482543D02*
X93608210Y-63763210D01*
X93465822Y-63976310D01*
X91357566Y-66084566D01*
X91176561Y-66355459D01*
X91113000Y-66675000D01*
X91113000Y-68636813D01*
X90868853Y-68799946D01*
X90546946Y-69281715D01*
X90433907Y-69850000D01*
X90546946Y-70418285D01*
X90868853Y-70900054D01*
X90910452Y-70927850D01*
X90862683Y-70936838D01*
X90646559Y-71075910D01*
X90501569Y-71288110D01*
X90450560Y-71540000D01*
X90450560Y-73240000D01*
X90494838Y-73475317D01*
X90633910Y-73691441D01*
X90846110Y-73836431D01*
X91098000Y-73887440D01*
X92798000Y-73887440D01*
X93033317Y-73843162D01*
X93249441Y-73704090D01*
X93349000Y-73558381D01*
X93349000Y-77215995D01*
X93348999Y-77216000D01*
X93405190Y-77498484D01*
X93416367Y-77554675D01*
X93418589Y-77558000D01*
X93608210Y-77841790D01*
X94560421Y-78794000D01*
X93091000Y-78794000D01*
X92771459Y-78857561D01*
X92581390Y-78984561D01*
X92500566Y-79038566D01*
X92373566Y-79165566D01*
X92192561Y-79436459D01*
X92129000Y-79756000D01*
X92129000Y-111714157D01*
X91762833Y-111713838D01*
X91419057Y-111855883D01*
X91155808Y-112118673D01*
X91013162Y-112462201D01*
X91012838Y-112834167D01*
X91154883Y-113177943D01*
X91163000Y-113186074D01*
X91163000Y-118080494D01*
X91155808Y-118087673D01*
X91013162Y-118431201D01*
X91012838Y-118803167D01*
X91154883Y-119146943D01*
X91417673Y-119410192D01*
X91761201Y-119552838D01*
X92129000Y-119553158D01*
X92129000Y-123952000D01*
X92192561Y-124271541D01*
X92223778Y-124318260D01*
X92373566Y-124542434D01*
X93059366Y-125228234D01*
X93313280Y-125397894D01*
X93513450Y-125697470D01*
X93999631Y-126022326D01*
X94573120Y-126136400D01*
X95164880Y-126136400D01*
X95738369Y-126022326D01*
X95953707Y-125878441D01*
X99710400Y-125878441D01*
X99710400Y-125937159D01*
X99824474Y-126510648D01*
X100149330Y-126996829D01*
X100635511Y-127321685D01*
X101209000Y-127435759D01*
X101782489Y-127321685D01*
X102268670Y-126996829D01*
X102479000Y-126682048D01*
X102689330Y-126996829D01*
X103175511Y-127321685D01*
X103749000Y-127435759D01*
X104322489Y-127321685D01*
X104808670Y-126996829D01*
X105133526Y-126510648D01*
X105247600Y-125937159D01*
X105247600Y-125878441D01*
X105133526Y-125304952D01*
X104808670Y-124818771D01*
X104322489Y-124493915D01*
X103749000Y-124379841D01*
X103175511Y-124493915D01*
X102689330Y-124818771D01*
X102479000Y-125133552D01*
X102268670Y-124818771D01*
X101782489Y-124493915D01*
X101209000Y-124379841D01*
X100635511Y-124493915D01*
X100149330Y-124818771D01*
X99824474Y-125304952D01*
X99710400Y-125878441D01*
X95953707Y-125878441D01*
X96224550Y-125697470D01*
X96549406Y-125211289D01*
X96663480Y-124637800D01*
X96549406Y-124064311D01*
X96224550Y-123578130D01*
X95909769Y-123367800D01*
X96224550Y-123157470D01*
X96549406Y-122671289D01*
X96663480Y-122097800D01*
X96549406Y-121524311D01*
X96224550Y-121038130D01*
X95909769Y-120827800D01*
X96224550Y-120617470D01*
X96549406Y-120131289D01*
X96663480Y-119557800D01*
X96549406Y-118984311D01*
X96224550Y-118498130D01*
X95909769Y-118287800D01*
X96224550Y-118077470D01*
X96549406Y-117591289D01*
X96663480Y-117017800D01*
X96549406Y-116444311D01*
X96224550Y-115958130D01*
X95909769Y-115747800D01*
X96224550Y-115537470D01*
X96549406Y-115051289D01*
X96663480Y-114477800D01*
X96549406Y-113904311D01*
X96224550Y-113418130D01*
X95909769Y-113207800D01*
X96224550Y-112997470D01*
X96549406Y-112511289D01*
X96663480Y-111937800D01*
X96549406Y-111364311D01*
X96224550Y-110878130D01*
X95909769Y-110667800D01*
X96224550Y-110457470D01*
X96549406Y-109971289D01*
X96663480Y-109397800D01*
X96549406Y-108824311D01*
X96224550Y-108338130D01*
X95909769Y-108127800D01*
X96224550Y-107917470D01*
X96549406Y-107431289D01*
X96663480Y-106857800D01*
X96549406Y-106284311D01*
X96224550Y-105798130D01*
X95909769Y-105587800D01*
X96224550Y-105377470D01*
X96549406Y-104891289D01*
X96663480Y-104317800D01*
X96549406Y-103744311D01*
X96224550Y-103258130D01*
X95909769Y-103047800D01*
X96224550Y-102837470D01*
X96549406Y-102351289D01*
X96663480Y-101777800D01*
X96549406Y-101204311D01*
X96224550Y-100718130D01*
X95909769Y-100507800D01*
X96224550Y-100297470D01*
X96549406Y-99811289D01*
X96663480Y-99237800D01*
X96549406Y-98664311D01*
X96224550Y-98178130D01*
X95909769Y-97967800D01*
X96224550Y-97757470D01*
X96549406Y-97271289D01*
X96663480Y-96697800D01*
X96549406Y-96124311D01*
X96224550Y-95638130D01*
X95909769Y-95427800D01*
X96224550Y-95217470D01*
X96549406Y-94731289D01*
X96663480Y-94157800D01*
X96549406Y-93584311D01*
X96224550Y-93098130D01*
X95909769Y-92887800D01*
X96224550Y-92677470D01*
X96549406Y-92191289D01*
X96663480Y-91617800D01*
X96549406Y-91044311D01*
X96224550Y-90558130D01*
X95909769Y-90347800D01*
X96224550Y-90137470D01*
X96408079Y-89862800D01*
X99166642Y-89862800D01*
X102695921Y-93392079D01*
X102950594Y-93562245D01*
X103251000Y-93622001D01*
X103251005Y-93622000D01*
X108421097Y-93622000D01*
X108314520Y-94157800D01*
X108428594Y-94731289D01*
X108753450Y-95217470D01*
X109068231Y-95427800D01*
X108753450Y-95638130D01*
X108428594Y-96124311D01*
X108314520Y-96697800D01*
X108428594Y-97271289D01*
X108753450Y-97757470D01*
X109068231Y-97967800D01*
X108753450Y-98178130D01*
X108428594Y-98664311D01*
X108314520Y-99237800D01*
X108428594Y-99811289D01*
X108753450Y-100297470D01*
X109068231Y-100507800D01*
X108753450Y-100718130D01*
X108428594Y-101204311D01*
X108314520Y-101777800D01*
X108428594Y-102351289D01*
X108753450Y-102837470D01*
X109068231Y-103047800D01*
X108753450Y-103258130D01*
X108428594Y-103744311D01*
X108314520Y-104317800D01*
X108428594Y-104891289D01*
X108753450Y-105377470D01*
X109068231Y-105587800D01*
X108753450Y-105798130D01*
X108428594Y-106284311D01*
X108314520Y-106857800D01*
X108428594Y-107431289D01*
X108753450Y-107917470D01*
X109068231Y-108127800D01*
X108753450Y-108338130D01*
X108428594Y-108824311D01*
X108314520Y-109397800D01*
X108428594Y-109971289D01*
X108753450Y-110457470D01*
X109068231Y-110667800D01*
X108753450Y-110878130D01*
X108428594Y-111364311D01*
X108314520Y-111937800D01*
X108428594Y-112511289D01*
X108753450Y-112997470D01*
X109068231Y-113207800D01*
X108753450Y-113418130D01*
X108428594Y-113904311D01*
X108314520Y-114477800D01*
X108428594Y-115051289D01*
X108753450Y-115537470D01*
X109068231Y-115747800D01*
X108753450Y-115958130D01*
X108428594Y-116444311D01*
X108314520Y-117017800D01*
X108428594Y-117591289D01*
X108753450Y-118077470D01*
X109068231Y-118287800D01*
X108753450Y-118498130D01*
X108428594Y-118984311D01*
X108314520Y-119557800D01*
X108428594Y-120131289D01*
X108753450Y-120617470D01*
X109068231Y-120827800D01*
X108753450Y-121038130D01*
X108428594Y-121524311D01*
X108314520Y-122097800D01*
X108428594Y-122671289D01*
X108753450Y-123157470D01*
X109068231Y-123367800D01*
X108753450Y-123578130D01*
X108428594Y-124064311D01*
X108314520Y-124637800D01*
X108428594Y-125211289D01*
X108753450Y-125697470D01*
X109068231Y-125907800D01*
X108753450Y-126118130D01*
X108428594Y-126604311D01*
X108314520Y-127177800D01*
X108428594Y-127751289D01*
X108753450Y-128237470D01*
X108768247Y-128247357D01*
X108748683Y-128251038D01*
X108532559Y-128390110D01*
X108387569Y-128602310D01*
X108336560Y-128854200D01*
X108336560Y-130581400D01*
X108380838Y-130816717D01*
X108519910Y-131032841D01*
X108732110Y-131177831D01*
X108984000Y-131228840D01*
X111234000Y-131228840D01*
X111469317Y-131184562D01*
X111685441Y-131045490D01*
X111830431Y-130833290D01*
X111881440Y-130581400D01*
X111881440Y-128854200D01*
X111837162Y-128618883D01*
X111698090Y-128402759D01*
X111485890Y-128257769D01*
X111446199Y-128249731D01*
X111464550Y-128237470D01*
X111789406Y-127751289D01*
X111903480Y-127177800D01*
X111789406Y-126604311D01*
X111464550Y-126118130D01*
X111149769Y-125907800D01*
X111464550Y-125697470D01*
X111789406Y-125211289D01*
X111903480Y-124637800D01*
X111789406Y-124064311D01*
X111464550Y-123578130D01*
X111149769Y-123367800D01*
X111464550Y-123157470D01*
X111789406Y-122671289D01*
X111903480Y-122097800D01*
X111789406Y-121524311D01*
X111464550Y-121038130D01*
X111149769Y-120827800D01*
X111464550Y-120617470D01*
X111789406Y-120131289D01*
X111903480Y-119557800D01*
X111789406Y-118984311D01*
X111464550Y-118498130D01*
X111149769Y-118287800D01*
X111464550Y-118077470D01*
X111789406Y-117591289D01*
X111903480Y-117017800D01*
X111789406Y-116444311D01*
X111464550Y-115958130D01*
X111149769Y-115747800D01*
X111464550Y-115537470D01*
X111789406Y-115051289D01*
X111903480Y-114477800D01*
X111789406Y-113904311D01*
X111464550Y-113418130D01*
X111149769Y-113207800D01*
X111464550Y-112997470D01*
X111789406Y-112511289D01*
X111903480Y-111937800D01*
X111789406Y-111364311D01*
X111464550Y-110878130D01*
X111149769Y-110667800D01*
X111464550Y-110457470D01*
X111789406Y-109971289D01*
X111903480Y-109397800D01*
X111789406Y-108824311D01*
X111464550Y-108338130D01*
X111149769Y-108127800D01*
X111464550Y-107917470D01*
X111789406Y-107431289D01*
X111903480Y-106857800D01*
X111789406Y-106284311D01*
X111464550Y-105798130D01*
X111149769Y-105587800D01*
X111464550Y-105377470D01*
X111789406Y-104891289D01*
X111903480Y-104317800D01*
X111789406Y-103744311D01*
X111464550Y-103258130D01*
X111149769Y-103047800D01*
X111464550Y-102837470D01*
X111789406Y-102351289D01*
X111903480Y-101777800D01*
X111789406Y-101204311D01*
X111464550Y-100718130D01*
X111149769Y-100507800D01*
X111464550Y-100297470D01*
X111789406Y-99811289D01*
X111903480Y-99237800D01*
X111789406Y-98664311D01*
X111464550Y-98178130D01*
X111149769Y-97967800D01*
X111464550Y-97757470D01*
X111789406Y-97271289D01*
X111903480Y-96697800D01*
X111789406Y-96124311D01*
X111464550Y-95638130D01*
X111149769Y-95427800D01*
X111464550Y-95217470D01*
X111789406Y-94731289D01*
X111903480Y-94157800D01*
X111796903Y-93622000D01*
X117819097Y-93622000D01*
X117712520Y-94157800D01*
X117826594Y-94731289D01*
X118151450Y-95217470D01*
X118466231Y-95427800D01*
X118151450Y-95638130D01*
X117826594Y-96124311D01*
X117712520Y-96697800D01*
X117826594Y-97271289D01*
X118151450Y-97757470D01*
X118466231Y-97967800D01*
X118151450Y-98178130D01*
X117826594Y-98664311D01*
X117712520Y-99237800D01*
X117826594Y-99811289D01*
X118151450Y-100297470D01*
X118466231Y-100507800D01*
X118151450Y-100718130D01*
X117826594Y-101204311D01*
X117712520Y-101777800D01*
X117826594Y-102351289D01*
X118151450Y-102837470D01*
X118466231Y-103047800D01*
X118151450Y-103258130D01*
X117826594Y-103744311D01*
X117712520Y-104317800D01*
X117826594Y-104891289D01*
X118151450Y-105377470D01*
X118466231Y-105587800D01*
X118151450Y-105798130D01*
X117826594Y-106284311D01*
X117712520Y-106857800D01*
X117826594Y-107431289D01*
X118151450Y-107917470D01*
X118466231Y-108127800D01*
X118151450Y-108338130D01*
X117826594Y-108824311D01*
X117712520Y-109397800D01*
X117826594Y-109971289D01*
X118151450Y-110457470D01*
X118466231Y-110667800D01*
X118151450Y-110878130D01*
X117826594Y-111364311D01*
X117712520Y-111937800D01*
X117826594Y-112511289D01*
X118151450Y-112997470D01*
X118466231Y-113207800D01*
X118151450Y-113418130D01*
X117826594Y-113904311D01*
X117712520Y-114477800D01*
X117826594Y-115051289D01*
X118151450Y-115537470D01*
X118466231Y-115747800D01*
X118151450Y-115958130D01*
X117826594Y-116444311D01*
X117712520Y-117017800D01*
X117826594Y-117591289D01*
X118151450Y-118077470D01*
X118466231Y-118287800D01*
X118151450Y-118498130D01*
X117826594Y-118984311D01*
X117712520Y-119557800D01*
X117826594Y-120131289D01*
X118151450Y-120617470D01*
X118466231Y-120827800D01*
X118151450Y-121038130D01*
X117826594Y-121524311D01*
X117712520Y-122097800D01*
X117826594Y-122671289D01*
X118151450Y-123157470D01*
X118466231Y-123367800D01*
X118151450Y-123578130D01*
X117826594Y-124064311D01*
X117712520Y-124637800D01*
X117826594Y-125211289D01*
X118151450Y-125697470D01*
X118637631Y-126022326D01*
X119211120Y-126136400D01*
X119802880Y-126136400D01*
X120376369Y-126022326D01*
X120591707Y-125878441D01*
X124348400Y-125878441D01*
X124348400Y-125937159D01*
X124462474Y-126510648D01*
X124787330Y-126996829D01*
X125273511Y-127321685D01*
X125847000Y-127435759D01*
X126420489Y-127321685D01*
X126906670Y-126996829D01*
X127117000Y-126682048D01*
X127327330Y-126996829D01*
X127813511Y-127321685D01*
X128387000Y-127435759D01*
X128960489Y-127321685D01*
X129446670Y-126996829D01*
X129771526Y-126510648D01*
X129885600Y-125937159D01*
X129885600Y-125878441D01*
X129771526Y-125304952D01*
X129446670Y-124818771D01*
X128960489Y-124493915D01*
X128387000Y-124379841D01*
X127813511Y-124493915D01*
X127327330Y-124818771D01*
X127117000Y-125133552D01*
X126906670Y-124818771D01*
X126420489Y-124493915D01*
X125847000Y-124379841D01*
X125273511Y-124493915D01*
X124787330Y-124818771D01*
X124462474Y-125304952D01*
X124348400Y-125878441D01*
X120591707Y-125878441D01*
X120862550Y-125697470D01*
X121187406Y-125211289D01*
X121301480Y-124637800D01*
X121187406Y-124064311D01*
X120862550Y-123578130D01*
X120547769Y-123367800D01*
X120862550Y-123157470D01*
X121187406Y-122671289D01*
X121301480Y-122097800D01*
X121187406Y-121524311D01*
X120862550Y-121038130D01*
X120547769Y-120827800D01*
X120862550Y-120617470D01*
X121187406Y-120131289D01*
X121301480Y-119557800D01*
X121187406Y-118984311D01*
X120862550Y-118498130D01*
X120547769Y-118287800D01*
X120862550Y-118077470D01*
X121187406Y-117591289D01*
X121301480Y-117017800D01*
X121187406Y-116444311D01*
X120862550Y-115958130D01*
X120547769Y-115747800D01*
X120862550Y-115537470D01*
X121187406Y-115051289D01*
X121301480Y-114477800D01*
X121187406Y-113904311D01*
X120862550Y-113418130D01*
X120547769Y-113207800D01*
X120862550Y-112997470D01*
X121187406Y-112511289D01*
X121301480Y-111937800D01*
X121187406Y-111364311D01*
X120862550Y-110878130D01*
X120547769Y-110667800D01*
X120862550Y-110457470D01*
X121187406Y-109971289D01*
X121301480Y-109397800D01*
X121187406Y-108824311D01*
X120862550Y-108338130D01*
X120547769Y-108127800D01*
X120862550Y-107917470D01*
X121187406Y-107431289D01*
X121301480Y-106857800D01*
X121187406Y-106284311D01*
X120862550Y-105798130D01*
X120547769Y-105587800D01*
X120862550Y-105377470D01*
X121187406Y-104891289D01*
X121301480Y-104317800D01*
X121187406Y-103744311D01*
X120862550Y-103258130D01*
X120547769Y-103047800D01*
X120862550Y-102837470D01*
X121187406Y-102351289D01*
X121301480Y-101777800D01*
X121187406Y-101204311D01*
X120862550Y-100718130D01*
X120547769Y-100507800D01*
X120862550Y-100297470D01*
X121187406Y-99811289D01*
X121301480Y-99237800D01*
X121187406Y-98664311D01*
X120862550Y-98178130D01*
X120547769Y-97967800D01*
X120862550Y-97757470D01*
X121187406Y-97271289D01*
X121301480Y-96697800D01*
X121187406Y-96124311D01*
X120862550Y-95638130D01*
X120547769Y-95427800D01*
X120862550Y-95217470D01*
X121187406Y-94731289D01*
X121301480Y-94157800D01*
X121194903Y-93622000D01*
X133059097Y-93622000D01*
X132952520Y-94157800D01*
X133066594Y-94731289D01*
X133391450Y-95217470D01*
X133706231Y-95427800D01*
X133391450Y-95638130D01*
X133066594Y-96124311D01*
X132952520Y-96697800D01*
X133066594Y-97271289D01*
X133391450Y-97757470D01*
X133706231Y-97967800D01*
X133391450Y-98178130D01*
X133066594Y-98664311D01*
X132952520Y-99237800D01*
X133066594Y-99811289D01*
X133391450Y-100297470D01*
X133706231Y-100507800D01*
X133391450Y-100718130D01*
X133066594Y-101204311D01*
X132952520Y-101777800D01*
X133066594Y-102351289D01*
X133391450Y-102837470D01*
X133706231Y-103047800D01*
X133391450Y-103258130D01*
X133066594Y-103744311D01*
X132952520Y-104317800D01*
X133066594Y-104891289D01*
X133391450Y-105377470D01*
X133706231Y-105587800D01*
X133391450Y-105798130D01*
X133066594Y-106284311D01*
X132952520Y-106857800D01*
X133066594Y-107431289D01*
X133391450Y-107917470D01*
X133706231Y-108127800D01*
X133391450Y-108338130D01*
X133066594Y-108824311D01*
X132952520Y-109397800D01*
X133066594Y-109971289D01*
X133391450Y-110457470D01*
X133706231Y-110667800D01*
X133391450Y-110878130D01*
X133066594Y-111364311D01*
X132952520Y-111937800D01*
X133066594Y-112511289D01*
X133391450Y-112997470D01*
X133706231Y-113207800D01*
X133391450Y-113418130D01*
X133066594Y-113904311D01*
X132952520Y-114477800D01*
X133066594Y-115051289D01*
X133391450Y-115537470D01*
X133706231Y-115747800D01*
X133391450Y-115958130D01*
X133066594Y-116444311D01*
X132952520Y-117017800D01*
X133066594Y-117591289D01*
X133391450Y-118077470D01*
X133706231Y-118287800D01*
X133391450Y-118498130D01*
X133066594Y-118984311D01*
X132952520Y-119557800D01*
X133066594Y-120131289D01*
X133391450Y-120617470D01*
X133706231Y-120827800D01*
X133391450Y-121038130D01*
X133207921Y-121312800D01*
X129915958Y-121312800D01*
X127173153Y-118569995D01*
X127173162Y-118559833D01*
X127031117Y-118216057D01*
X126768327Y-117952808D01*
X126424799Y-117810162D01*
X126052833Y-117809838D01*
X125709057Y-117951883D01*
X125445808Y-118214673D01*
X125303162Y-118558201D01*
X125302838Y-118930167D01*
X125444883Y-119273943D01*
X125707673Y-119537192D01*
X126051201Y-119679838D01*
X126062690Y-119679848D01*
X129035721Y-122652879D01*
X129290393Y-122823045D01*
X129590800Y-122882800D01*
X133207921Y-122882800D01*
X133391450Y-123157470D01*
X133706231Y-123367800D01*
X133391450Y-123578130D01*
X133066594Y-124064311D01*
X132952520Y-124637800D01*
X133066594Y-125211289D01*
X133391450Y-125697470D01*
X133706231Y-125907800D01*
X133391450Y-126118130D01*
X133066594Y-126604311D01*
X132952520Y-127177800D01*
X133066594Y-127751289D01*
X133391450Y-128237470D01*
X133406247Y-128247357D01*
X133386683Y-128251038D01*
X133170559Y-128390110D01*
X133025569Y-128602310D01*
X132974560Y-128854200D01*
X132974560Y-130581400D01*
X133018838Y-130816717D01*
X133157910Y-131032841D01*
X133370110Y-131177831D01*
X133622000Y-131228840D01*
X135872000Y-131228840D01*
X136107317Y-131184562D01*
X136323441Y-131045490D01*
X136468431Y-130833290D01*
X136519440Y-130581400D01*
X136519440Y-128854200D01*
X136475162Y-128618883D01*
X136336090Y-128402759D01*
X136123890Y-128257769D01*
X136084199Y-128249731D01*
X136102550Y-128237470D01*
X136427406Y-127751289D01*
X136541480Y-127177800D01*
X136427406Y-126604311D01*
X136102550Y-126118130D01*
X135787769Y-125907800D01*
X136102550Y-125697470D01*
X136427406Y-125211289D01*
X136541480Y-124637800D01*
X136427406Y-124064311D01*
X136102550Y-123578130D01*
X135787769Y-123367800D01*
X136102550Y-123157470D01*
X136427406Y-122671289D01*
X136541480Y-122097800D01*
X136427406Y-121524311D01*
X136102550Y-121038130D01*
X135787769Y-120827800D01*
X136102550Y-120617470D01*
X136427406Y-120131289D01*
X136541480Y-119557800D01*
X136427406Y-118984311D01*
X136102550Y-118498130D01*
X135787769Y-118287800D01*
X136102550Y-118077470D01*
X136427406Y-117591289D01*
X136541480Y-117017800D01*
X136427406Y-116444311D01*
X136102550Y-115958130D01*
X135787769Y-115747800D01*
X136102550Y-115537470D01*
X136427406Y-115051289D01*
X136541480Y-114477800D01*
X136427406Y-113904311D01*
X136102550Y-113418130D01*
X135787769Y-113207800D01*
X136102550Y-112997470D01*
X136427406Y-112511289D01*
X136541480Y-111937800D01*
X136427406Y-111364311D01*
X136102550Y-110878130D01*
X135787769Y-110667800D01*
X136102550Y-110457470D01*
X136427406Y-109971289D01*
X136541480Y-109397800D01*
X136427406Y-108824311D01*
X136102550Y-108338130D01*
X135787769Y-108127800D01*
X136102550Y-107917470D01*
X136427406Y-107431289D01*
X136541480Y-106857800D01*
X136427406Y-106284311D01*
X136102550Y-105798130D01*
X135787769Y-105587800D01*
X136102550Y-105377470D01*
X136427406Y-104891289D01*
X136541480Y-104317800D01*
X136427406Y-103744311D01*
X136102550Y-103258130D01*
X135787769Y-103047800D01*
X136102550Y-102837470D01*
X136427406Y-102351289D01*
X136541480Y-101777800D01*
X136427406Y-101204311D01*
X136102550Y-100718130D01*
X135787769Y-100507800D01*
X136102550Y-100297470D01*
X136427406Y-99811289D01*
X136541480Y-99237800D01*
X136427406Y-98664311D01*
X136102550Y-98178130D01*
X135787769Y-97967800D01*
X136102550Y-97757470D01*
X136427406Y-97271289D01*
X136541480Y-96697800D01*
X136427406Y-96124311D01*
X136102550Y-95638130D01*
X135787769Y-95427800D01*
X136102550Y-95217470D01*
X136427406Y-94731289D01*
X136541480Y-94157800D01*
X136434903Y-93622000D01*
X137003494Y-93622000D01*
X137010673Y-93629192D01*
X137354201Y-93771838D01*
X137726167Y-93772162D01*
X138069943Y-93630117D01*
X138333192Y-93367327D01*
X138475838Y-93023799D01*
X138476162Y-92651833D01*
X138334117Y-92308057D01*
X138071327Y-92044808D01*
X137727799Y-91902162D01*
X137355833Y-91901838D01*
X137012057Y-92043883D01*
X137003926Y-92052000D01*
X136455112Y-92052000D01*
X136541480Y-91617800D01*
X136434903Y-91082000D01*
X138176000Y-91082000D01*
X138476407Y-91022245D01*
X138731079Y-90852079D01*
X139754000Y-89829158D01*
X139754000Y-132369132D01*
X137068132Y-135055000D01*
X115401468Y-135055000D01*
X119192893Y-131263575D01*
X119211120Y-131267200D01*
X119802880Y-131267200D01*
X120376369Y-131153126D01*
X120862550Y-130828270D01*
X121187406Y-130342089D01*
X121301480Y-129768600D01*
X121187406Y-129195111D01*
X120862550Y-128708930D01*
X120376369Y-128384074D01*
X119802880Y-128270000D01*
X119211120Y-128270000D01*
X118637631Y-128384074D01*
X118151450Y-128708930D01*
X117826594Y-129195111D01*
X117712520Y-129768600D01*
X117814325Y-130280407D01*
X113039732Y-135055000D01*
X98897868Y-135055000D01*
X95704000Y-131861132D01*
X95704000Y-131159962D01*
X95738369Y-131153126D01*
X96224550Y-130828270D01*
X96549406Y-130342089D01*
X96663480Y-129768600D01*
X96549406Y-129195111D01*
X96224550Y-128708930D01*
X95738369Y-128384074D01*
X95164880Y-128270000D01*
X94573120Y-128270000D01*
X93999631Y-128384074D01*
X93513450Y-128708930D01*
X93363330Y-128933600D01*
X91506468Y-128933600D01*
X89862000Y-127289132D01*
X89862000Y-67056000D01*
X89841874Y-66954819D01*
X89798440Y-66736460D01*
X89617434Y-66465566D01*
X88084000Y-64932132D01*
X88084000Y-62915432D01*
X88359309Y-63029750D01*
X88930187Y-63030248D01*
X89457800Y-62812243D01*
X89790623Y-62480000D01*
X94887179Y-62480000D01*
X94888878Y-62482543D01*
G36*
X108212000Y-42354016D02*
X108212000Y-46355000D01*
X108298397Y-46789346D01*
X108453897Y-47022068D01*
X108544434Y-47157566D01*
X110404000Y-49017132D01*
X110404000Y-52070000D01*
X107188000Y-52070000D01*
X107141841Y-52078685D01*
X107099447Y-52105965D01*
X107071006Y-52147590D01*
X107061000Y-52197000D01*
X107061000Y-53311328D01*
X106914000Y-53281560D01*
X105364000Y-53281560D01*
X105128683Y-53325838D01*
X104912559Y-53464910D01*
X104767569Y-53677110D01*
X104716560Y-53929000D01*
X104716560Y-54529000D01*
X104752223Y-54718530D01*
X104474594Y-54773755D01*
X104219921Y-54943921D01*
X103584921Y-55578921D01*
X103414755Y-55833593D01*
X103404046Y-55887431D01*
X103355000Y-56134000D01*
X103355000Y-56612494D01*
X103347808Y-56619673D01*
X103205162Y-56963201D01*
X103204838Y-57335167D01*
X103346883Y-57678943D01*
X103609673Y-57942192D01*
X103953201Y-58084838D01*
X104325167Y-58085162D01*
X104668943Y-57943117D01*
X104932192Y-57680327D01*
X104976775Y-57572960D01*
X105112110Y-57665431D01*
X105254000Y-57694164D01*
X105254000Y-63039421D01*
X103773420Y-64520000D01*
X102974144Y-64520000D01*
X102868698Y-64362189D01*
X102403151Y-64051120D01*
X101854000Y-63941887D01*
X101304849Y-64051120D01*
X100839302Y-64362189D01*
X100528233Y-64827736D01*
X100419000Y-65376887D01*
X100419000Y-65433113D01*
X100528233Y-65982264D01*
X100839302Y-66447811D01*
X101304849Y-66758880D01*
X101854000Y-66868113D01*
X102403151Y-66758880D01*
X102868698Y-66447811D01*
X102974144Y-66290000D01*
X104139995Y-66290000D01*
X104140000Y-66290001D01*
X104422484Y-66233810D01*
X104478675Y-66222633D01*
X104765790Y-66030790D01*
X106764787Y-64031792D01*
X106764790Y-64031790D01*
X106956633Y-63744675D01*
X106981918Y-63617561D01*
X107024001Y-63406000D01*
X107024000Y-63405995D01*
X107024000Y-57695742D01*
X107149317Y-57672162D01*
X107175317Y-57655432D01*
X107188000Y-57658000D01*
X107831000Y-57658000D01*
X107831000Y-59739536D01*
X107564946Y-60137715D01*
X107451907Y-60706000D01*
X107564946Y-61274285D01*
X107886853Y-61756054D01*
X107928452Y-61783850D01*
X107880683Y-61792838D01*
X107664559Y-61931910D01*
X107519569Y-62144110D01*
X107468560Y-62396000D01*
X107468560Y-64096000D01*
X107512838Y-64331317D01*
X107651910Y-64547441D01*
X107864110Y-64692431D01*
X108116000Y-64743440D01*
X109816000Y-64743440D01*
X110051317Y-64699162D01*
X110267441Y-64560090D01*
X110389808Y-64381000D01*
X110617000Y-64381000D01*
X111051346Y-64294603D01*
X111419566Y-64048566D01*
X112341566Y-63126566D01*
X112459761Y-62949675D01*
X112587603Y-62758346D01*
X112674000Y-62324000D01*
X112674000Y-57591931D01*
X112765441Y-57533090D01*
X112910431Y-57320890D01*
X112961440Y-57069000D01*
X112961440Y-57015000D01*
X119787233Y-57015000D01*
X120072736Y-57205767D01*
X120621887Y-57315000D01*
X120678113Y-57315000D01*
X121227264Y-57205767D01*
X121692811Y-56894698D01*
X122003880Y-56429151D01*
X122113113Y-55880000D01*
X122003880Y-55330849D01*
X121692811Y-54865302D01*
X121310725Y-54610000D01*
X121692811Y-54354698D01*
X121779473Y-54225000D01*
X122243998Y-54225000D01*
X122243998Y-63829423D01*
X122188420Y-63885000D01*
X122036532Y-63885000D01*
X122113113Y-63500000D01*
X122003880Y-62950849D01*
X121692811Y-62485302D01*
X121227264Y-62174233D01*
X120678113Y-62065000D01*
X120621887Y-62065000D01*
X120072736Y-62174233D01*
X119607189Y-62485302D01*
X119296120Y-62950849D01*
X119186887Y-63500000D01*
X119263468Y-63885000D01*
X114808005Y-63885000D01*
X114808000Y-63884999D01*
X114469325Y-63952367D01*
X114182210Y-64144210D01*
X114182208Y-64144213D01*
X108721210Y-69605210D01*
X108529367Y-69892325D01*
X108529367Y-69892326D01*
X108461999Y-70231000D01*
X108462000Y-70231005D01*
X108462000Y-72260069D01*
X108370559Y-72318910D01*
X108225569Y-72531110D01*
X108174560Y-72783000D01*
X108174560Y-74283000D01*
X108218838Y-74518317D01*
X108357910Y-74734441D01*
X108570110Y-74879431D01*
X108822000Y-74930440D01*
X109872000Y-74930440D01*
X110107317Y-74886162D01*
X110163181Y-74850215D01*
X110173087Y-74856834D01*
X110617000Y-74945134D01*
X111060913Y-74856834D01*
X111062960Y-74855466D01*
X111069367Y-74887675D01*
X111237586Y-75139434D01*
X111261210Y-75174790D01*
X113039208Y-76952787D01*
X113039210Y-76952790D01*
X113326325Y-77144633D01*
X113382516Y-77155810D01*
X113665000Y-77212001D01*
X113665005Y-77212000D01*
X116585995Y-77212000D01*
X116586000Y-77212001D01*
X116868484Y-77155810D01*
X116924675Y-77144633D01*
X117211790Y-76952790D01*
X118227787Y-75936792D01*
X118227790Y-75936790D01*
X118419633Y-75649675D01*
X118447542Y-75509367D01*
X118487001Y-75311000D01*
X118487000Y-75310995D01*
X118487000Y-74508464D01*
X118547446Y-74418000D01*
X129864554Y-74418000D01*
X129925000Y-74508464D01*
X129925000Y-75564995D01*
X129924999Y-75565000D01*
X129952094Y-75701211D01*
X129992367Y-75903675D01*
X130048928Y-75988325D01*
X130184210Y-76190790D01*
X131200208Y-77206787D01*
X131200210Y-77206790D01*
X131487325Y-77398633D01*
X131543516Y-77409810D01*
X131826000Y-77466001D01*
X131826005Y-77466000D01*
X135508995Y-77466000D01*
X135509000Y-77466001D01*
X135791484Y-77409810D01*
X135847675Y-77398633D01*
X136134790Y-77206790D01*
X137785787Y-75555792D01*
X137785790Y-75555790D01*
X137943046Y-75320439D01*
X137977634Y-75268674D01*
X138045001Y-74930000D01*
X138045000Y-74929995D01*
X138045000Y-74868553D01*
X138430000Y-74945134D01*
X138873913Y-74856834D01*
X138882066Y-74851387D01*
X138923110Y-74879431D01*
X139175000Y-74930440D01*
X140225000Y-74930440D01*
X140460317Y-74886162D01*
X140676441Y-74747090D01*
X140821431Y-74534890D01*
X140872440Y-74283000D01*
X140872440Y-72783000D01*
X140828162Y-72547683D01*
X140689090Y-72331559D01*
X140476890Y-72186569D01*
X140225000Y-72135560D01*
X139175000Y-72135560D01*
X138939683Y-72179838D01*
X138883819Y-72215785D01*
X138873913Y-72209166D01*
X138430000Y-72120866D01*
X137986087Y-72209166D01*
X137795000Y-72336846D01*
X137603913Y-72209166D01*
X137160000Y-72120866D01*
X136716087Y-72209166D01*
X136339756Y-72460622D01*
X136088300Y-72836953D01*
X136000000Y-73280866D01*
X136000000Y-73785134D01*
X136088300Y-74229047D01*
X136275000Y-74508464D01*
X136275000Y-74563421D01*
X135142420Y-75696000D01*
X132192579Y-75696000D01*
X131695000Y-75198420D01*
X131695000Y-74868553D01*
X132080000Y-74945134D01*
X132523913Y-74856834D01*
X132532066Y-74851387D01*
X132573110Y-74879431D01*
X132825000Y-74930440D01*
X133875000Y-74930440D01*
X134110317Y-74886162D01*
X134326441Y-74747090D01*
X134471431Y-74534890D01*
X134522440Y-74283000D01*
X134522440Y-72783000D01*
X134478162Y-72547683D01*
X134339090Y-72331559D01*
X134235000Y-72260437D01*
X134235000Y-69215005D01*
X134235001Y-69215000D01*
X134167633Y-68876326D01*
X134167633Y-68876325D01*
X133975790Y-68589210D01*
X133975787Y-68589208D01*
X130800790Y-65414210D01*
X130744932Y-65376887D01*
X130513675Y-65222367D01*
X130457484Y-65211190D01*
X130175000Y-65154999D01*
X130174995Y-65155000D01*
X129399473Y-65155000D01*
X129312811Y-65025302D01*
X128930725Y-64770000D01*
X129132767Y-64635000D01*
X133223000Y-64635000D01*
X133657346Y-64548603D01*
X133908181Y-64381000D01*
X137516808Y-64381000D01*
X137623910Y-64547441D01*
X137836110Y-64692431D01*
X138088000Y-64743440D01*
X139788000Y-64743440D01*
X140023317Y-64699162D01*
X140239441Y-64560090D01*
X140384431Y-64347890D01*
X140435440Y-64096000D01*
X140435440Y-62396000D01*
X140391162Y-62160683D01*
X140252090Y-61944559D01*
X140039890Y-61799569D01*
X139972459Y-61785914D01*
X140017147Y-61756054D01*
X140339054Y-61274285D01*
X140452093Y-60706000D01*
X140339054Y-60137715D01*
X140073000Y-59739536D01*
X140073000Y-57150000D01*
X140462000Y-57150000D01*
X140508159Y-57141315D01*
X140550553Y-57114035D01*
X140578994Y-57072410D01*
X140589000Y-57023000D01*
X140589000Y-55908672D01*
X140736000Y-55938440D01*
X142286000Y-55938440D01*
X142521317Y-55894162D01*
X142737441Y-55755090D01*
X142882431Y-55542890D01*
X142933440Y-55291000D01*
X142933440Y-54691000D01*
X142898630Y-54506000D01*
X143311842Y-54506000D01*
X143614000Y-54808158D01*
X143614000Y-71002842D01*
X142922079Y-70310921D01*
X142667407Y-70140755D01*
X142367000Y-70081000D01*
X135792506Y-70081000D01*
X135785327Y-70073808D01*
X135441799Y-69931162D01*
X135069833Y-69930838D01*
X134726057Y-70072883D01*
X134462808Y-70335673D01*
X134320162Y-70679201D01*
X134319838Y-71051167D01*
X134461883Y-71394943D01*
X134724673Y-71658192D01*
X135068201Y-71800838D01*
X135440167Y-71801162D01*
X135783943Y-71659117D01*
X135792074Y-71651000D01*
X142041842Y-71651000D01*
X142598000Y-72207158D01*
X142598000Y-81504494D01*
X142590808Y-81511673D01*
X142448162Y-81855201D01*
X142447838Y-82227167D01*
X142589883Y-82570943D01*
X142852673Y-82834192D01*
X143196201Y-82976838D01*
X143568167Y-82977162D01*
X143702449Y-82921678D01*
X143868673Y-83088192D01*
X144155534Y-83207308D01*
X140104000Y-87258842D01*
X140104000Y-81280000D01*
X140044245Y-80979594D01*
X140044245Y-80979593D01*
X139874079Y-80724921D01*
X137461079Y-78311921D01*
X137206407Y-78141755D01*
X136906000Y-78082000D01*
X129315506Y-78082000D01*
X129308327Y-78074808D01*
X128964799Y-77932162D01*
X128592833Y-77931838D01*
X128249057Y-78073883D01*
X127985808Y-78336673D01*
X127843162Y-78680201D01*
X127842838Y-79052167D01*
X127984883Y-79395943D01*
X128247673Y-79659192D01*
X128591201Y-79801838D01*
X128963167Y-79802162D01*
X129306943Y-79660117D01*
X129315074Y-79652000D01*
X136580842Y-79652000D01*
X138534000Y-81605158D01*
X138534000Y-87473494D01*
X138526808Y-87480673D01*
X138384162Y-87824201D01*
X138383838Y-88196167D01*
X138525883Y-88539943D01*
X138674261Y-88688581D01*
X137850842Y-89512000D01*
X136455112Y-89512000D01*
X136541480Y-89077800D01*
X136427406Y-88504311D01*
X136102550Y-88018130D01*
X135787769Y-87807800D01*
X136102550Y-87597470D01*
X136427406Y-87111289D01*
X136541480Y-86537800D01*
X136427406Y-85964311D01*
X136102550Y-85478130D01*
X135616369Y-85153274D01*
X135042880Y-85039200D01*
X134451120Y-85039200D01*
X133877631Y-85153274D01*
X133391450Y-85478130D01*
X133066594Y-85964311D01*
X132952520Y-86537800D01*
X133066594Y-87111289D01*
X133391450Y-87597470D01*
X133706231Y-87807800D01*
X133391450Y-88018130D01*
X133066594Y-88504311D01*
X132952520Y-89077800D01*
X133038888Y-89512000D01*
X121215112Y-89512000D01*
X121301480Y-89077800D01*
X121187406Y-88504311D01*
X120862550Y-88018130D01*
X120547769Y-87807800D01*
X120862550Y-87597470D01*
X121187406Y-87111289D01*
X121301480Y-86537800D01*
X121187406Y-85964311D01*
X120862550Y-85478130D01*
X120547769Y-85267800D01*
X120862550Y-85057470D01*
X121187406Y-84571289D01*
X121301480Y-83997800D01*
X121187406Y-83424311D01*
X120862550Y-82938130D01*
X120547769Y-82727800D01*
X120862550Y-82517470D01*
X121187406Y-82031289D01*
X121301480Y-81457800D01*
X121187406Y-80884311D01*
X120862550Y-80398130D01*
X120376369Y-80073274D01*
X119802880Y-79959200D01*
X119211120Y-79959200D01*
X118637631Y-80073274D01*
X118151450Y-80398130D01*
X117826594Y-80884311D01*
X117712520Y-81457800D01*
X117826594Y-82031289D01*
X118151450Y-82517470D01*
X118466231Y-82727800D01*
X118151450Y-82938130D01*
X117826594Y-83424311D01*
X117712520Y-83997800D01*
X117826594Y-84571289D01*
X118151450Y-85057470D01*
X118466231Y-85267800D01*
X118151450Y-85478130D01*
X118034739Y-85652800D01*
X116749379Y-85652800D01*
X115820000Y-84723420D01*
X115820000Y-80518000D01*
X115752633Y-80179325D01*
X115560790Y-79892210D01*
X115560787Y-79892208D01*
X113020790Y-77352210D01*
X112733675Y-77160367D01*
X112677484Y-77149190D01*
X112395000Y-77092999D01*
X112394995Y-77093000D01*
X98029579Y-77093000D01*
X97056188Y-76119608D01*
X97210767Y-75888264D01*
X97320000Y-75339113D01*
X97320000Y-75282887D01*
X97210767Y-74733736D01*
X97104253Y-74574327D01*
X101677562Y-70001017D01*
X101854000Y-70036113D01*
X102403151Y-69926880D01*
X102868698Y-69615811D01*
X103179767Y-69150264D01*
X103289000Y-68601113D01*
X103289000Y-68544887D01*
X103179767Y-67995736D01*
X102868698Y-67530189D01*
X102403151Y-67219120D01*
X101854000Y-67109887D01*
X101304849Y-67219120D01*
X100839302Y-67530189D01*
X100528233Y-67995736D01*
X100419000Y-68544887D01*
X100419000Y-68601113D01*
X100444767Y-68730654D01*
X95259210Y-73916210D01*
X95148014Y-74082627D01*
X95119000Y-74102014D01*
X95119000Y-66386723D01*
X95598309Y-66585750D01*
X96169187Y-66586248D01*
X96696800Y-66368243D01*
X97029623Y-66036000D01*
X97662995Y-66036000D01*
X97663000Y-66036001D01*
X97945484Y-65979810D01*
X98001675Y-65968633D01*
X98288790Y-65776790D01*
X99558787Y-64506792D01*
X99558790Y-64506790D01*
X99750633Y-64219675D01*
X99788006Y-64031790D01*
X99818001Y-63881000D01*
X99818000Y-63880995D01*
X99818000Y-58532580D01*
X101670739Y-56679840D01*
X102138187Y-56680248D01*
X102665800Y-56462243D01*
X103069824Y-56058923D01*
X103288750Y-55531691D01*
X103289248Y-54960813D01*
X103071243Y-54433200D01*
X102739000Y-54100377D01*
X102739000Y-53579580D01*
X107432787Y-48885792D01*
X107432790Y-48885790D01*
X107624633Y-48598675D01*
X107639644Y-48523210D01*
X107692001Y-48260000D01*
X107692000Y-48259995D01*
X107692000Y-42591432D01*
X107857054Y-42481147D01*
X108077000Y-42151974D01*
X108212000Y-42354016D01*
X108212000Y-42354016D01*
G37*
X108212000Y-42354016D02*
X108212000Y-46355000D01*
X108298397Y-46789346D01*
X108453897Y-47022068D01*
X108544434Y-47157566D01*
X110404000Y-49017132D01*
X110404000Y-52070000D01*
X107188000Y-52070000D01*
X107141841Y-52078685D01*
X107099447Y-52105965D01*
X107071006Y-52147590D01*
X107061000Y-52197000D01*
X107061000Y-53311328D01*
X106914000Y-53281560D01*
X105364000Y-53281560D01*
X105128683Y-53325838D01*
X104912559Y-53464910D01*
X104767569Y-53677110D01*
X104716560Y-53929000D01*
X104716560Y-54529000D01*
X104752223Y-54718530D01*
X104474594Y-54773755D01*
X104219921Y-54943921D01*
X103584921Y-55578921D01*
X103414755Y-55833593D01*
X103404046Y-55887431D01*
X103355000Y-56134000D01*
X103355000Y-56612494D01*
X103347808Y-56619673D01*
X103205162Y-56963201D01*
X103204838Y-57335167D01*
X103346883Y-57678943D01*
X103609673Y-57942192D01*
X103953201Y-58084838D01*
X104325167Y-58085162D01*
X104668943Y-57943117D01*
X104932192Y-57680327D01*
X104976775Y-57572960D01*
X105112110Y-57665431D01*
X105254000Y-57694164D01*
X105254000Y-63039421D01*
X103773420Y-64520000D01*
X102974144Y-64520000D01*
X102868698Y-64362189D01*
X102403151Y-64051120D01*
X101854000Y-63941887D01*
X101304849Y-64051120D01*
X100839302Y-64362189D01*
X100528233Y-64827736D01*
X100419000Y-65376887D01*
X100419000Y-65433113D01*
X100528233Y-65982264D01*
X100839302Y-66447811D01*
X101304849Y-66758880D01*
X101854000Y-66868113D01*
X102403151Y-66758880D01*
X102868698Y-66447811D01*
X102974144Y-66290000D01*
X104139995Y-66290000D01*
X104140000Y-66290001D01*
X104422484Y-66233810D01*
X104478675Y-66222633D01*
X104765790Y-66030790D01*
X106764787Y-64031792D01*
X106764790Y-64031790D01*
X106956633Y-63744675D01*
X106981918Y-63617561D01*
X107024001Y-63406000D01*
X107024000Y-63405995D01*
X107024000Y-57695742D01*
X107149317Y-57672162D01*
X107175317Y-57655432D01*
X107188000Y-57658000D01*
X107831000Y-57658000D01*
X107831000Y-59739536D01*
X107564946Y-60137715D01*
X107451907Y-60706000D01*
X107564946Y-61274285D01*
X107886853Y-61756054D01*
X107928452Y-61783850D01*
X107880683Y-61792838D01*
X107664559Y-61931910D01*
X107519569Y-62144110D01*
X107468560Y-62396000D01*
X107468560Y-64096000D01*
X107512838Y-64331317D01*
X107651910Y-64547441D01*
X107864110Y-64692431D01*
X108116000Y-64743440D01*
X109816000Y-64743440D01*
X110051317Y-64699162D01*
X110267441Y-64560090D01*
X110389808Y-64381000D01*
X110617000Y-64381000D01*
X111051346Y-64294603D01*
X111419566Y-64048566D01*
X112341566Y-63126566D01*
X112459761Y-62949675D01*
X112587603Y-62758346D01*
X112674000Y-62324000D01*
X112674000Y-57591931D01*
X112765441Y-57533090D01*
X112910431Y-57320890D01*
X112961440Y-57069000D01*
X112961440Y-57015000D01*
X119787233Y-57015000D01*
X120072736Y-57205767D01*
X120621887Y-57315000D01*
X120678113Y-57315000D01*
X121227264Y-57205767D01*
X121692811Y-56894698D01*
X122003880Y-56429151D01*
X122113113Y-55880000D01*
X122003880Y-55330849D01*
X121692811Y-54865302D01*
X121310725Y-54610000D01*
X121692811Y-54354698D01*
X121779473Y-54225000D01*
X122243998Y-54225000D01*
X122243998Y-63829423D01*
X122188420Y-63885000D01*
X122036532Y-63885000D01*
X122113113Y-63500000D01*
X122003880Y-62950849D01*
X121692811Y-62485302D01*
X121227264Y-62174233D01*
X120678113Y-62065000D01*
X120621887Y-62065000D01*
X120072736Y-62174233D01*
X119607189Y-62485302D01*
X119296120Y-62950849D01*
X119186887Y-63500000D01*
X119263468Y-63885000D01*
X114808005Y-63885000D01*
X114808000Y-63884999D01*
X114469325Y-63952367D01*
X114182210Y-64144210D01*
X114182208Y-64144213D01*
X108721210Y-69605210D01*
X108529367Y-69892325D01*
X108529367Y-69892326D01*
X108461999Y-70231000D01*
X108462000Y-70231005D01*
X108462000Y-72260069D01*
X108370559Y-72318910D01*
X108225569Y-72531110D01*
X108174560Y-72783000D01*
X108174560Y-74283000D01*
X108218838Y-74518317D01*
X108357910Y-74734441D01*
X108570110Y-74879431D01*
X108822000Y-74930440D01*
X109872000Y-74930440D01*
X110107317Y-74886162D01*
X110163181Y-74850215D01*
X110173087Y-74856834D01*
X110617000Y-74945134D01*
X111060913Y-74856834D01*
X111062960Y-74855466D01*
X111069367Y-74887675D01*
X111237586Y-75139434D01*
X111261210Y-75174790D01*
X113039208Y-76952787D01*
X113039210Y-76952790D01*
X113326325Y-77144633D01*
X113382516Y-77155810D01*
X113665000Y-77212001D01*
X113665005Y-77212000D01*
X116585995Y-77212000D01*
X116586000Y-77212001D01*
X116868484Y-77155810D01*
X116924675Y-77144633D01*
X117211790Y-76952790D01*
X118227787Y-75936792D01*
X118227790Y-75936790D01*
X118419633Y-75649675D01*
X118447542Y-75509367D01*
X118487001Y-75311000D01*
X118487000Y-75310995D01*
X118487000Y-74508464D01*
X118547446Y-74418000D01*
X129864554Y-74418000D01*
X129925000Y-74508464D01*
X129925000Y-75564995D01*
X129924999Y-75565000D01*
X129952094Y-75701211D01*
X129992367Y-75903675D01*
X130048928Y-75988325D01*
X130184210Y-76190790D01*
X131200208Y-77206787D01*
X131200210Y-77206790D01*
X131487325Y-77398633D01*
X131543516Y-77409810D01*
X131826000Y-77466001D01*
X131826005Y-77466000D01*
X135508995Y-77466000D01*
X135509000Y-77466001D01*
X135791484Y-77409810D01*
X135847675Y-77398633D01*
X136134790Y-77206790D01*
X137785787Y-75555792D01*
X137785790Y-75555790D01*
X137943046Y-75320439D01*
X137977634Y-75268674D01*
X138045001Y-74930000D01*
X138045000Y-74929995D01*
X138045000Y-74868553D01*
X138430000Y-74945134D01*
X138873913Y-74856834D01*
X138882066Y-74851387D01*
X138923110Y-74879431D01*
X139175000Y-74930440D01*
X140225000Y-74930440D01*
X140460317Y-74886162D01*
X140676441Y-74747090D01*
X140821431Y-74534890D01*
X140872440Y-74283000D01*
X140872440Y-72783000D01*
X140828162Y-72547683D01*
X140689090Y-72331559D01*
X140476890Y-72186569D01*
X140225000Y-72135560D01*
X139175000Y-72135560D01*
X138939683Y-72179838D01*
X138883819Y-72215785D01*
X138873913Y-72209166D01*
X138430000Y-72120866D01*
X137986087Y-72209166D01*
X137795000Y-72336846D01*
X137603913Y-72209166D01*
X137160000Y-72120866D01*
X136716087Y-72209166D01*
X136339756Y-72460622D01*
X136088300Y-72836953D01*
X136000000Y-73280866D01*
X136000000Y-73785134D01*
X136088300Y-74229047D01*
X136275000Y-74508464D01*
X136275000Y-74563421D01*
X135142420Y-75696000D01*
X132192579Y-75696000D01*
X131695000Y-75198420D01*
X131695000Y-74868553D01*
X132080000Y-74945134D01*
X132523913Y-74856834D01*
X132532066Y-74851387D01*
X132573110Y-74879431D01*
X132825000Y-74930440D01*
X133875000Y-74930440D01*
X134110317Y-74886162D01*
X134326441Y-74747090D01*
X134471431Y-74534890D01*
X134522440Y-74283000D01*
X134522440Y-72783000D01*
X134478162Y-72547683D01*
X134339090Y-72331559D01*
X134235000Y-72260437D01*
X134235000Y-69215005D01*
X134235001Y-69215000D01*
X134167633Y-68876326D01*
X134167633Y-68876325D01*
X133975790Y-68589210D01*
X133975787Y-68589208D01*
X130800790Y-65414210D01*
X130744932Y-65376887D01*
X130513675Y-65222367D01*
X130457484Y-65211190D01*
X130175000Y-65154999D01*
X130174995Y-65155000D01*
X129399473Y-65155000D01*
X129312811Y-65025302D01*
X128930725Y-64770000D01*
X129132767Y-64635000D01*
X133223000Y-64635000D01*
X133657346Y-64548603D01*
X133908181Y-64381000D01*
X137516808Y-64381000D01*
X137623910Y-64547441D01*
X137836110Y-64692431D01*
X138088000Y-64743440D01*
X139788000Y-64743440D01*
X140023317Y-64699162D01*
X140239441Y-64560090D01*
X140384431Y-64347890D01*
X140435440Y-64096000D01*
X140435440Y-62396000D01*
X140391162Y-62160683D01*
X140252090Y-61944559D01*
X140039890Y-61799569D01*
X139972459Y-61785914D01*
X140017147Y-61756054D01*
X140339054Y-61274285D01*
X140452093Y-60706000D01*
X140339054Y-60137715D01*
X140073000Y-59739536D01*
X140073000Y-57150000D01*
X140462000Y-57150000D01*
X140508159Y-57141315D01*
X140550553Y-57114035D01*
X140578994Y-57072410D01*
X140589000Y-57023000D01*
X140589000Y-55908672D01*
X140736000Y-55938440D01*
X142286000Y-55938440D01*
X142521317Y-55894162D01*
X142737441Y-55755090D01*
X142882431Y-55542890D01*
X142933440Y-55291000D01*
X142933440Y-54691000D01*
X142898630Y-54506000D01*
X143311842Y-54506000D01*
X143614000Y-54808158D01*
X143614000Y-71002842D01*
X142922079Y-70310921D01*
X142667407Y-70140755D01*
X142367000Y-70081000D01*
X135792506Y-70081000D01*
X135785327Y-70073808D01*
X135441799Y-69931162D01*
X135069833Y-69930838D01*
X134726057Y-70072883D01*
X134462808Y-70335673D01*
X134320162Y-70679201D01*
X134319838Y-71051167D01*
X134461883Y-71394943D01*
X134724673Y-71658192D01*
X135068201Y-71800838D01*
X135440167Y-71801162D01*
X135783943Y-71659117D01*
X135792074Y-71651000D01*
X142041842Y-71651000D01*
X142598000Y-72207158D01*
X142598000Y-81504494D01*
X142590808Y-81511673D01*
X142448162Y-81855201D01*
X142447838Y-82227167D01*
X142589883Y-82570943D01*
X142852673Y-82834192D01*
X143196201Y-82976838D01*
X143568167Y-82977162D01*
X143702449Y-82921678D01*
X143868673Y-83088192D01*
X144155534Y-83207308D01*
X140104000Y-87258842D01*
X140104000Y-81280000D01*
X140044245Y-80979594D01*
X140044245Y-80979593D01*
X139874079Y-80724921D01*
X137461079Y-78311921D01*
X137206407Y-78141755D01*
X136906000Y-78082000D01*
X129315506Y-78082000D01*
X129308327Y-78074808D01*
X128964799Y-77932162D01*
X128592833Y-77931838D01*
X128249057Y-78073883D01*
X127985808Y-78336673D01*
X127843162Y-78680201D01*
X127842838Y-79052167D01*
X127984883Y-79395943D01*
X128247673Y-79659192D01*
X128591201Y-79801838D01*
X128963167Y-79802162D01*
X129306943Y-79660117D01*
X129315074Y-79652000D01*
X136580842Y-79652000D01*
X138534000Y-81605158D01*
X138534000Y-87473494D01*
X138526808Y-87480673D01*
X138384162Y-87824201D01*
X138383838Y-88196167D01*
X138525883Y-88539943D01*
X138674261Y-88688581D01*
X137850842Y-89512000D01*
X136455112Y-89512000D01*
X136541480Y-89077800D01*
X136427406Y-88504311D01*
X136102550Y-88018130D01*
X135787769Y-87807800D01*
X136102550Y-87597470D01*
X136427406Y-87111289D01*
X136541480Y-86537800D01*
X136427406Y-85964311D01*
X136102550Y-85478130D01*
X135616369Y-85153274D01*
X135042880Y-85039200D01*
X134451120Y-85039200D01*
X133877631Y-85153274D01*
X133391450Y-85478130D01*
X133066594Y-85964311D01*
X132952520Y-86537800D01*
X133066594Y-87111289D01*
X133391450Y-87597470D01*
X133706231Y-87807800D01*
X133391450Y-88018130D01*
X133066594Y-88504311D01*
X132952520Y-89077800D01*
X133038888Y-89512000D01*
X121215112Y-89512000D01*
X121301480Y-89077800D01*
X121187406Y-88504311D01*
X120862550Y-88018130D01*
X120547769Y-87807800D01*
X120862550Y-87597470D01*
X121187406Y-87111289D01*
X121301480Y-86537800D01*
X121187406Y-85964311D01*
X120862550Y-85478130D01*
X120547769Y-85267800D01*
X120862550Y-85057470D01*
X121187406Y-84571289D01*
X121301480Y-83997800D01*
X121187406Y-83424311D01*
X120862550Y-82938130D01*
X120547769Y-82727800D01*
X120862550Y-82517470D01*
X121187406Y-82031289D01*
X121301480Y-81457800D01*
X121187406Y-80884311D01*
X120862550Y-80398130D01*
X120376369Y-80073274D01*
X119802880Y-79959200D01*
X119211120Y-79959200D01*
X118637631Y-80073274D01*
X118151450Y-80398130D01*
X117826594Y-80884311D01*
X117712520Y-81457800D01*
X117826594Y-82031289D01*
X118151450Y-82517470D01*
X118466231Y-82727800D01*
X118151450Y-82938130D01*
X117826594Y-83424311D01*
X117712520Y-83997800D01*
X117826594Y-84571289D01*
X118151450Y-85057470D01*
X118466231Y-85267800D01*
X118151450Y-85478130D01*
X118034739Y-85652800D01*
X116749379Y-85652800D01*
X115820000Y-84723420D01*
X115820000Y-80518000D01*
X115752633Y-80179325D01*
X115560790Y-79892210D01*
X115560787Y-79892208D01*
X113020790Y-77352210D01*
X112733675Y-77160367D01*
X112677484Y-77149190D01*
X112395000Y-77092999D01*
X112394995Y-77093000D01*
X98029579Y-77093000D01*
X97056188Y-76119608D01*
X97210767Y-75888264D01*
X97320000Y-75339113D01*
X97320000Y-75282887D01*
X97210767Y-74733736D01*
X97104253Y-74574327D01*
X101677562Y-70001017D01*
X101854000Y-70036113D01*
X102403151Y-69926880D01*
X102868698Y-69615811D01*
X103179767Y-69150264D01*
X103289000Y-68601113D01*
X103289000Y-68544887D01*
X103179767Y-67995736D01*
X102868698Y-67530189D01*
X102403151Y-67219120D01*
X101854000Y-67109887D01*
X101304849Y-67219120D01*
X100839302Y-67530189D01*
X100528233Y-67995736D01*
X100419000Y-68544887D01*
X100419000Y-68601113D01*
X100444767Y-68730654D01*
X95259210Y-73916210D01*
X95148014Y-74082627D01*
X95119000Y-74102014D01*
X95119000Y-66386723D01*
X95598309Y-66585750D01*
X96169187Y-66586248D01*
X96696800Y-66368243D01*
X97029623Y-66036000D01*
X97662995Y-66036000D01*
X97663000Y-66036001D01*
X97945484Y-65979810D01*
X98001675Y-65968633D01*
X98288790Y-65776790D01*
X99558787Y-64506792D01*
X99558790Y-64506790D01*
X99750633Y-64219675D01*
X99788006Y-64031790D01*
X99818001Y-63881000D01*
X99818000Y-63880995D01*
X99818000Y-58532580D01*
X101670739Y-56679840D01*
X102138187Y-56680248D01*
X102665800Y-56462243D01*
X103069824Y-56058923D01*
X103288750Y-55531691D01*
X103289248Y-54960813D01*
X103071243Y-54433200D01*
X102739000Y-54100377D01*
X102739000Y-53579580D01*
X107432787Y-48885792D01*
X107432790Y-48885790D01*
X107624633Y-48598675D01*
X107639644Y-48523210D01*
X107692001Y-48260000D01*
X107692000Y-48259995D01*
X107692000Y-42591432D01*
X107857054Y-42481147D01*
X108077000Y-42151974D01*
X108212000Y-42354016D01*
G36*
X113288000Y-81265579D02*
X113288000Y-86359995D01*
X113287999Y-86360000D01*
X113340659Y-86624733D01*
X113355367Y-86698675D01*
X113523586Y-86950434D01*
X113547210Y-86985790D01*
X116073421Y-89512000D01*
X111817112Y-89512000D01*
X111903480Y-89077800D01*
X111789406Y-88504311D01*
X111464550Y-88018130D01*
X111149769Y-87807800D01*
X111464550Y-87597470D01*
X111789406Y-87111289D01*
X111903480Y-86537800D01*
X111789406Y-85964311D01*
X111464550Y-85478130D01*
X110978369Y-85153274D01*
X110404880Y-85039200D01*
X109813120Y-85039200D01*
X109239631Y-85153274D01*
X108753450Y-85478130D01*
X108428594Y-85964311D01*
X108314520Y-86537800D01*
X108428594Y-87111289D01*
X108753450Y-87597470D01*
X109068231Y-87807800D01*
X108753450Y-88018130D01*
X108428594Y-88504311D01*
X108314520Y-89077800D01*
X108400888Y-89512000D01*
X105481158Y-89512000D01*
X101951879Y-85982721D01*
X101697207Y-85812555D01*
X101396800Y-85752800D01*
X96408079Y-85752800D01*
X96224550Y-85478130D01*
X95909769Y-85267800D01*
X96224550Y-85057470D01*
X96549406Y-84571289D01*
X96663480Y-83997800D01*
X96549406Y-83424311D01*
X96224550Y-82938130D01*
X95909769Y-82727800D01*
X96224550Y-82517470D01*
X96549406Y-82031289D01*
X96663480Y-81457800D01*
X96549406Y-80884311D01*
X96268563Y-80464000D01*
X110697766Y-80464000D01*
X110938201Y-80563838D01*
X111310167Y-80564162D01*
X111653943Y-80422117D01*
X111917192Y-80159327D01*
X111994814Y-79972394D01*
X113288000Y-81265579D01*
X113288000Y-81265579D01*
G37*
X113288000Y-81265579D02*
X113288000Y-86359995D01*
X113287999Y-86360000D01*
X113340659Y-86624733D01*
X113355367Y-86698675D01*
X113523586Y-86950434D01*
X113547210Y-86985790D01*
X116073421Y-89512000D01*
X111817112Y-89512000D01*
X111903480Y-89077800D01*
X111789406Y-88504311D01*
X111464550Y-88018130D01*
X111149769Y-87807800D01*
X111464550Y-87597470D01*
X111789406Y-87111289D01*
X111903480Y-86537800D01*
X111789406Y-85964311D01*
X111464550Y-85478130D01*
X110978369Y-85153274D01*
X110404880Y-85039200D01*
X109813120Y-85039200D01*
X109239631Y-85153274D01*
X108753450Y-85478130D01*
X108428594Y-85964311D01*
X108314520Y-86537800D01*
X108428594Y-87111289D01*
X108753450Y-87597470D01*
X109068231Y-87807800D01*
X108753450Y-88018130D01*
X108428594Y-88504311D01*
X108314520Y-89077800D01*
X108400888Y-89512000D01*
X105481158Y-89512000D01*
X101951879Y-85982721D01*
X101697207Y-85812555D01*
X101396800Y-85752800D01*
X96408079Y-85752800D01*
X96224550Y-85478130D01*
X95909769Y-85267800D01*
X96224550Y-85057470D01*
X96549406Y-84571289D01*
X96663480Y-83997800D01*
X96549406Y-83424311D01*
X96224550Y-82938130D01*
X95909769Y-82727800D01*
X96224550Y-82517470D01*
X96549406Y-82031289D01*
X96663480Y-81457800D01*
X96549406Y-80884311D01*
X96268563Y-80464000D01*
X110697766Y-80464000D01*
X110938201Y-80563838D01*
X111310167Y-80564162D01*
X111653943Y-80422117D01*
X111917192Y-80159327D01*
X111994814Y-79972394D01*
X113288000Y-81265579D01*
G36*
X117530842Y-40617000D02*
X115673596Y-40617000D01*
X115477054Y-40322853D01*
X114995285Y-40000946D01*
X114427000Y-39887907D01*
X113858715Y-40000946D01*
X113376946Y-40322853D01*
X113157000Y-40652026D01*
X112937054Y-40322853D01*
X112455285Y-40000946D01*
X111887000Y-39887907D01*
X111318715Y-40000946D01*
X110836946Y-40322853D01*
X110617000Y-40652026D01*
X110397054Y-40322853D01*
X109915285Y-40000946D01*
X109347000Y-39887907D01*
X108778715Y-40000946D01*
X108296946Y-40322853D01*
X108077000Y-40652026D01*
X107857054Y-40322853D01*
X107375285Y-40000946D01*
X106807000Y-39887907D01*
X106238715Y-40000946D01*
X105756946Y-40322853D01*
X105537000Y-40652026D01*
X105317054Y-40322853D01*
X104835285Y-40000946D01*
X104267000Y-39887907D01*
X103698715Y-40000946D01*
X103216946Y-40322853D01*
X102895039Y-40804622D01*
X102782000Y-41372907D01*
X102782000Y-41431093D01*
X102895039Y-41999378D01*
X103216946Y-42481147D01*
X103382000Y-42591432D01*
X103382000Y-43702421D01*
X100852420Y-46232000D01*
X93853005Y-46232000D01*
X93853000Y-46231999D01*
X93570516Y-46288190D01*
X93514325Y-46299367D01*
X93227210Y-46491210D01*
X93227208Y-46491213D01*
X92131261Y-47587160D01*
X91663813Y-47586752D01*
X91136200Y-47804757D01*
X90732176Y-48208077D01*
X90513250Y-48735309D01*
X90512840Y-49205581D01*
X89460200Y-50258220D01*
X89195151Y-50081120D01*
X88646000Y-49971887D01*
X88096849Y-50081120D01*
X87631302Y-50392189D01*
X87320233Y-50857736D01*
X87211000Y-51406887D01*
X87211000Y-51463113D01*
X87320233Y-52012264D01*
X87631302Y-52477811D01*
X88096849Y-52788880D01*
X88646000Y-52898113D01*
X89195151Y-52788880D01*
X89660698Y-52477811D01*
X89801574Y-52266975D01*
X89817484Y-52263810D01*
X89873675Y-52252633D01*
X90160790Y-52060790D01*
X91764739Y-50456840D01*
X92232187Y-50457248D01*
X92759800Y-50239243D01*
X93163824Y-49835923D01*
X93382750Y-49308691D01*
X93383160Y-48838419D01*
X94219579Y-48002000D01*
X101073124Y-48002000D01*
X101065189Y-48007302D01*
X100754120Y-48472849D01*
X100644887Y-49022000D01*
X100691714Y-49257418D01*
X99222132Y-50727000D01*
X93091000Y-50727000D01*
X92771460Y-50790560D01*
X92500566Y-50971566D01*
X86658566Y-56813566D01*
X86477561Y-57084459D01*
X86414000Y-57404000D01*
X86414000Y-65222628D01*
X86360000Y-65211887D01*
X85810849Y-65321120D01*
X85345302Y-65632189D01*
X85034233Y-66097736D01*
X84925000Y-66646887D01*
X84925000Y-66703113D01*
X85034233Y-67252264D01*
X85345302Y-67717811D01*
X85810849Y-68028880D01*
X86360000Y-68138113D01*
X86909151Y-68028880D01*
X87374698Y-67717811D01*
X87685767Y-67252264D01*
X87744936Y-66954804D01*
X88192000Y-67401868D01*
X88192000Y-84480567D01*
X88167520Y-84464210D01*
X87949541Y-84318561D01*
X87679963Y-84264938D01*
X87662068Y-84221629D01*
X87230643Y-83789449D01*
X86666670Y-83555267D01*
X86056009Y-83554735D01*
X85491629Y-83787932D01*
X85059449Y-84219357D01*
X84825267Y-84783330D01*
X84824735Y-85393991D01*
X85057932Y-85958371D01*
X85225880Y-86126613D01*
X85224683Y-86126838D01*
X85008559Y-86265910D01*
X84967244Y-86326376D01*
X84655000Y-86014132D01*
X84655000Y-81015000D01*
X84812560Y-81015000D01*
X84812560Y-82815000D01*
X84856838Y-83050317D01*
X84995910Y-83266441D01*
X85208110Y-83411431D01*
X85460000Y-83462440D01*
X87260000Y-83462440D01*
X87495317Y-83418162D01*
X87711441Y-83279090D01*
X87856431Y-83066890D01*
X87907440Y-82815000D01*
X87907440Y-81015000D01*
X87863162Y-80779683D01*
X87724090Y-80563559D01*
X87511890Y-80418569D01*
X87491466Y-80414433D01*
X87660551Y-80245643D01*
X87894733Y-79681670D01*
X87895265Y-79071009D01*
X87662068Y-78506629D01*
X87230643Y-78074449D01*
X86666670Y-77840267D01*
X86056009Y-77839735D01*
X85491629Y-78072932D01*
X85059449Y-78504357D01*
X84825267Y-79068330D01*
X84824735Y-79678991D01*
X85057932Y-80243371D01*
X85225880Y-80411613D01*
X85224683Y-80411838D01*
X85008559Y-80550910D01*
X84863569Y-80763110D01*
X84812560Y-81015000D01*
X84655000Y-81015000D01*
X84655000Y-62757882D01*
X84834698Y-62637811D01*
X85145767Y-62172264D01*
X85255000Y-61623113D01*
X85255000Y-61566887D01*
X85145767Y-61017736D01*
X84834698Y-60552189D01*
X84369151Y-60241120D01*
X83820000Y-60131887D01*
X83270849Y-60241120D01*
X82854000Y-60519650D01*
X82854000Y-42636325D01*
X84101587Y-42636325D01*
X84463916Y-43513229D01*
X85134242Y-44184726D01*
X86010513Y-44548585D01*
X86959325Y-44549413D01*
X87836229Y-44187084D01*
X88507726Y-43516758D01*
X88871585Y-42640487D01*
X88872413Y-41691675D01*
X88510084Y-40814771D01*
X87839758Y-40143274D01*
X86963487Y-39779415D01*
X86014675Y-39778587D01*
X85137771Y-40140916D01*
X84466274Y-40811242D01*
X84102415Y-41687513D01*
X84101587Y-42636325D01*
X82854000Y-42636325D01*
X82854000Y-40707467D01*
X83017269Y-39886657D01*
X83444003Y-39248005D01*
X84082658Y-38821269D01*
X84903467Y-38658000D01*
X119489842Y-38658000D01*
X117530842Y-40617000D01*
X117530842Y-40617000D01*
G37*
X117530842Y-40617000D02*
X115673596Y-40617000D01*
X115477054Y-40322853D01*
X114995285Y-40000946D01*
X114427000Y-39887907D01*
X113858715Y-40000946D01*
X113376946Y-40322853D01*
X113157000Y-40652026D01*
X112937054Y-40322853D01*
X112455285Y-40000946D01*
X111887000Y-39887907D01*
X111318715Y-40000946D01*
X110836946Y-40322853D01*
X110617000Y-40652026D01*
X110397054Y-40322853D01*
X109915285Y-40000946D01*
X109347000Y-39887907D01*
X108778715Y-40000946D01*
X108296946Y-40322853D01*
X108077000Y-40652026D01*
X107857054Y-40322853D01*
X107375285Y-40000946D01*
X106807000Y-39887907D01*
X106238715Y-40000946D01*
X105756946Y-40322853D01*
X105537000Y-40652026D01*
X105317054Y-40322853D01*
X104835285Y-40000946D01*
X104267000Y-39887907D01*
X103698715Y-40000946D01*
X103216946Y-40322853D01*
X102895039Y-40804622D01*
X102782000Y-41372907D01*
X102782000Y-41431093D01*
X102895039Y-41999378D01*
X103216946Y-42481147D01*
X103382000Y-42591432D01*
X103382000Y-43702421D01*
X100852420Y-46232000D01*
X93853005Y-46232000D01*
X93853000Y-46231999D01*
X93570516Y-46288190D01*
X93514325Y-46299367D01*
X93227210Y-46491210D01*
X93227208Y-46491213D01*
X92131261Y-47587160D01*
X91663813Y-47586752D01*
X91136200Y-47804757D01*
X90732176Y-48208077D01*
X90513250Y-48735309D01*
X90512840Y-49205581D01*
X89460200Y-50258220D01*
X89195151Y-50081120D01*
X88646000Y-49971887D01*
X88096849Y-50081120D01*
X87631302Y-50392189D01*
X87320233Y-50857736D01*
X87211000Y-51406887D01*
X87211000Y-51463113D01*
X87320233Y-52012264D01*
X87631302Y-52477811D01*
X88096849Y-52788880D01*
X88646000Y-52898113D01*
X89195151Y-52788880D01*
X89660698Y-52477811D01*
X89801574Y-52266975D01*
X89817484Y-52263810D01*
X89873675Y-52252633D01*
X90160790Y-52060790D01*
X91764739Y-50456840D01*
X92232187Y-50457248D01*
X92759800Y-50239243D01*
X93163824Y-49835923D01*
X93382750Y-49308691D01*
X93383160Y-48838419D01*
X94219579Y-48002000D01*
X101073124Y-48002000D01*
X101065189Y-48007302D01*
X100754120Y-48472849D01*
X100644887Y-49022000D01*
X100691714Y-49257418D01*
X99222132Y-50727000D01*
X93091000Y-50727000D01*
X92771460Y-50790560D01*
X92500566Y-50971566D01*
X86658566Y-56813566D01*
X86477561Y-57084459D01*
X86414000Y-57404000D01*
X86414000Y-65222628D01*
X86360000Y-65211887D01*
X85810849Y-65321120D01*
X85345302Y-65632189D01*
X85034233Y-66097736D01*
X84925000Y-66646887D01*
X84925000Y-66703113D01*
X85034233Y-67252264D01*
X85345302Y-67717811D01*
X85810849Y-68028880D01*
X86360000Y-68138113D01*
X86909151Y-68028880D01*
X87374698Y-67717811D01*
X87685767Y-67252264D01*
X87744936Y-66954804D01*
X88192000Y-67401868D01*
X88192000Y-84480567D01*
X88167520Y-84464210D01*
X87949541Y-84318561D01*
X87679963Y-84264938D01*
X87662068Y-84221629D01*
X87230643Y-83789449D01*
X86666670Y-83555267D01*
X86056009Y-83554735D01*
X85491629Y-83787932D01*
X85059449Y-84219357D01*
X84825267Y-84783330D01*
X84824735Y-85393991D01*
X85057932Y-85958371D01*
X85225880Y-86126613D01*
X85224683Y-86126838D01*
X85008559Y-86265910D01*
X84967244Y-86326376D01*
X84655000Y-86014132D01*
X84655000Y-81015000D01*
X84812560Y-81015000D01*
X84812560Y-82815000D01*
X84856838Y-83050317D01*
X84995910Y-83266441D01*
X85208110Y-83411431D01*
X85460000Y-83462440D01*
X87260000Y-83462440D01*
X87495317Y-83418162D01*
X87711441Y-83279090D01*
X87856431Y-83066890D01*
X87907440Y-82815000D01*
X87907440Y-81015000D01*
X87863162Y-80779683D01*
X87724090Y-80563559D01*
X87511890Y-80418569D01*
X87491466Y-80414433D01*
X87660551Y-80245643D01*
X87894733Y-79681670D01*
X87895265Y-79071009D01*
X87662068Y-78506629D01*
X87230643Y-78074449D01*
X86666670Y-77840267D01*
X86056009Y-77839735D01*
X85491629Y-78072932D01*
X85059449Y-78504357D01*
X84825267Y-79068330D01*
X84824735Y-79678991D01*
X85057932Y-80243371D01*
X85225880Y-80411613D01*
X85224683Y-80411838D01*
X85008559Y-80550910D01*
X84863569Y-80763110D01*
X84812560Y-81015000D01*
X84655000Y-81015000D01*
X84655000Y-62757882D01*
X84834698Y-62637811D01*
X85145767Y-62172264D01*
X85255000Y-61623113D01*
X85255000Y-61566887D01*
X85145767Y-61017736D01*
X84834698Y-60552189D01*
X84369151Y-60241120D01*
X83820000Y-60131887D01*
X83270849Y-60241120D01*
X82854000Y-60519650D01*
X82854000Y-42636325D01*
X84101587Y-42636325D01*
X84463916Y-43513229D01*
X85134242Y-44184726D01*
X86010513Y-44548585D01*
X86959325Y-44549413D01*
X87836229Y-44187084D01*
X88507726Y-43516758D01*
X88871585Y-42640487D01*
X88872413Y-41691675D01*
X88510084Y-40814771D01*
X87839758Y-40143274D01*
X86963487Y-39779415D01*
X86014675Y-39778587D01*
X85137771Y-40140916D01*
X84466274Y-40811242D01*
X84102415Y-41687513D01*
X84101587Y-42636325D01*
X82854000Y-42636325D01*
X82854000Y-40707467D01*
X83017269Y-39886657D01*
X83444003Y-39248005D01*
X84082658Y-38821269D01*
X84903467Y-38658000D01*
X119489842Y-38658000D01*
X117530842Y-40617000D01*
G36*
X151642000Y-58532579D02*
X151642000Y-59562995D01*
X151641999Y-59563000D01*
X151681458Y-59761367D01*
X151709367Y-59901675D01*
X151863189Y-60131887D01*
X151901210Y-60188790D01*
X157721767Y-66009346D01*
X157696000Y-66138887D01*
X157696000Y-66195113D01*
X157805233Y-66744264D01*
X158116302Y-67209811D01*
X158581849Y-67520880D01*
X159131000Y-67630113D01*
X159680151Y-67520880D01*
X160145698Y-67209811D01*
X160251144Y-67052000D01*
X164487856Y-67052000D01*
X164593302Y-67209811D01*
X164773000Y-67329882D01*
X164773000Y-71282132D01*
X162341132Y-73714000D01*
X155694604Y-73714000D01*
X155732000Y-73526000D01*
X155732000Y-73068962D01*
X155989811Y-72896698D01*
X156161331Y-72640000D01*
X158890527Y-72640000D01*
X158977189Y-72769698D01*
X159442736Y-73080767D01*
X159991887Y-73190000D01*
X160048113Y-73190000D01*
X160597264Y-73080767D01*
X161062811Y-72769698D01*
X161373880Y-72304151D01*
X161483113Y-71755000D01*
X161373880Y-71205849D01*
X161062811Y-70740302D01*
X160597264Y-70429233D01*
X160048113Y-70320000D01*
X159991887Y-70320000D01*
X159442736Y-70429233D01*
X158977189Y-70740302D01*
X158890527Y-70870000D01*
X155991614Y-70870000D01*
X155989811Y-70867302D01*
X155524264Y-70556233D01*
X154975113Y-70447000D01*
X154918887Y-70447000D01*
X154369736Y-70556233D01*
X153904189Y-70867302D01*
X153593120Y-71332849D01*
X153483887Y-71882000D01*
X153593120Y-72431151D01*
X153904189Y-72896698D01*
X154162000Y-73068962D01*
X154162000Y-73200842D01*
X145310142Y-82052700D01*
X145192117Y-81767057D01*
X145184000Y-81758926D01*
X145184000Y-67161887D01*
X146647000Y-67161887D01*
X146647000Y-67218113D01*
X146756233Y-67767264D01*
X147067302Y-68232811D01*
X147532849Y-68543880D01*
X148082000Y-68653113D01*
X148631151Y-68543880D01*
X149096698Y-68232811D01*
X149202144Y-68075000D01*
X152138995Y-68075000D01*
X152139000Y-68075001D01*
X152421484Y-68018810D01*
X152477675Y-68007633D01*
X152764790Y-67815790D01*
X152978740Y-67601840D01*
X153446187Y-67602248D01*
X153973800Y-67384243D01*
X154377824Y-66980923D01*
X154596750Y-66453691D01*
X154597248Y-65882813D01*
X154379243Y-65355200D01*
X153975923Y-64951176D01*
X153448691Y-64732250D01*
X152877813Y-64731752D01*
X152350200Y-64949757D01*
X151946176Y-65353077D01*
X151727250Y-65880309D01*
X151726880Y-66305000D01*
X149202144Y-66305000D01*
X149096698Y-66147189D01*
X148631151Y-65836120D01*
X148082000Y-65726887D01*
X147532849Y-65836120D01*
X147067302Y-66147189D01*
X146756233Y-66612736D01*
X146647000Y-67161887D01*
X145184000Y-67161887D01*
X145184000Y-54483000D01*
X145124245Y-54182594D01*
X144954079Y-53927921D01*
X144362158Y-53336000D01*
X146445420Y-53336000D01*
X151642000Y-58532579D01*
X151642000Y-58532579D01*
G37*
X151642000Y-58532579D02*
X151642000Y-59562995D01*
X151641999Y-59563000D01*
X151681458Y-59761367D01*
X151709367Y-59901675D01*
X151863189Y-60131887D01*
X151901210Y-60188790D01*
X157721767Y-66009346D01*
X157696000Y-66138887D01*
X157696000Y-66195113D01*
X157805233Y-66744264D01*
X158116302Y-67209811D01*
X158581849Y-67520880D01*
X159131000Y-67630113D01*
X159680151Y-67520880D01*
X160145698Y-67209811D01*
X160251144Y-67052000D01*
X164487856Y-67052000D01*
X164593302Y-67209811D01*
X164773000Y-67329882D01*
X164773000Y-71282132D01*
X162341132Y-73714000D01*
X155694604Y-73714000D01*
X155732000Y-73526000D01*
X155732000Y-73068962D01*
X155989811Y-72896698D01*
X156161331Y-72640000D01*
X158890527Y-72640000D01*
X158977189Y-72769698D01*
X159442736Y-73080767D01*
X159991887Y-73190000D01*
X160048113Y-73190000D01*
X160597264Y-73080767D01*
X161062811Y-72769698D01*
X161373880Y-72304151D01*
X161483113Y-71755000D01*
X161373880Y-71205849D01*
X161062811Y-70740302D01*
X160597264Y-70429233D01*
X160048113Y-70320000D01*
X159991887Y-70320000D01*
X159442736Y-70429233D01*
X158977189Y-70740302D01*
X158890527Y-70870000D01*
X155991614Y-70870000D01*
X155989811Y-70867302D01*
X155524264Y-70556233D01*
X154975113Y-70447000D01*
X154918887Y-70447000D01*
X154369736Y-70556233D01*
X153904189Y-70867302D01*
X153593120Y-71332849D01*
X153483887Y-71882000D01*
X153593120Y-72431151D01*
X153904189Y-72896698D01*
X154162000Y-73068962D01*
X154162000Y-73200842D01*
X145310142Y-82052700D01*
X145192117Y-81767057D01*
X145184000Y-81758926D01*
X145184000Y-67161887D01*
X146647000Y-67161887D01*
X146647000Y-67218113D01*
X146756233Y-67767264D01*
X147067302Y-68232811D01*
X147532849Y-68543880D01*
X148082000Y-68653113D01*
X148631151Y-68543880D01*
X149096698Y-68232811D01*
X149202144Y-68075000D01*
X152138995Y-68075000D01*
X152139000Y-68075001D01*
X152421484Y-68018810D01*
X152477675Y-68007633D01*
X152764790Y-67815790D01*
X152978740Y-67601840D01*
X153446187Y-67602248D01*
X153973800Y-67384243D01*
X154377824Y-66980923D01*
X154596750Y-66453691D01*
X154597248Y-65882813D01*
X154379243Y-65355200D01*
X153975923Y-64951176D01*
X153448691Y-64732250D01*
X152877813Y-64731752D01*
X152350200Y-64949757D01*
X151946176Y-65353077D01*
X151727250Y-65880309D01*
X151726880Y-66305000D01*
X149202144Y-66305000D01*
X149096698Y-66147189D01*
X148631151Y-65836120D01*
X148082000Y-65726887D01*
X147532849Y-65836120D01*
X147067302Y-66147189D01*
X146756233Y-66612736D01*
X146647000Y-67161887D01*
X145184000Y-67161887D01*
X145184000Y-54483000D01*
X145124245Y-54182594D01*
X144954079Y-53927921D01*
X144362158Y-53336000D01*
X146445420Y-53336000D01*
X151642000Y-58532579D01*
G36*
X171427000Y-45156157D02*
X171427000Y-71015218D01*
X171397243Y-70943200D01*
X171065000Y-70610377D01*
X171065000Y-60579000D01*
X170997633Y-60240325D01*
X170805790Y-59953210D01*
X170805787Y-59953208D01*
X167042840Y-56190260D01*
X167043248Y-55722813D01*
X166825243Y-55195200D01*
X166421923Y-54791176D01*
X165894691Y-54572250D01*
X165424419Y-54571840D01*
X159375790Y-48523210D01*
X159185721Y-48396211D01*
X159088675Y-48331367D01*
X159032484Y-48320190D01*
X158750000Y-48263999D01*
X158749995Y-48264000D01*
X156389822Y-48264000D01*
X156269799Y-48214162D01*
X155897833Y-48213838D01*
X155554057Y-48355883D01*
X155290808Y-48618673D01*
X155148162Y-48962201D01*
X155147838Y-49334167D01*
X155289883Y-49677943D01*
X155552673Y-49941192D01*
X155896201Y-50083838D01*
X156268167Y-50084162D01*
X156389569Y-50034000D01*
X158383420Y-50034000D01*
X164173160Y-55823739D01*
X164172752Y-56291187D01*
X164390757Y-56818800D01*
X164794077Y-57222824D01*
X165321309Y-57441750D01*
X165791580Y-57442160D01*
X169295000Y-60945579D01*
X169295000Y-70610829D01*
X168964176Y-70941077D01*
X168745250Y-71468309D01*
X168744752Y-72039187D01*
X168962757Y-72566800D01*
X169366077Y-72970824D01*
X169893309Y-73189750D01*
X170428625Y-73190217D01*
X169304840Y-74314002D01*
X164102866Y-74314002D01*
X166198434Y-72218434D01*
X166204627Y-72209166D01*
X166379439Y-71947541D01*
X166443000Y-71628000D01*
X166443000Y-67329882D01*
X166622698Y-67209811D01*
X166933767Y-66744264D01*
X167043000Y-66195113D01*
X167043000Y-66138887D01*
X166933767Y-65589736D01*
X166622698Y-65124189D01*
X166157151Y-64813120D01*
X165608000Y-64703887D01*
X165058849Y-64813120D01*
X164593302Y-65124189D01*
X164487856Y-65282000D01*
X160251144Y-65282000D01*
X160145698Y-65124189D01*
X159680151Y-64813120D01*
X159131000Y-64703887D01*
X158954562Y-64738983D01*
X153412000Y-59196420D01*
X153412000Y-58166005D01*
X153412001Y-58166000D01*
X153344634Y-57827326D01*
X153262951Y-57705079D01*
X153152790Y-57540210D01*
X153152787Y-57540208D01*
X153063000Y-57450421D01*
X153162000Y-57470113D01*
X153711151Y-57360880D01*
X154176698Y-57049811D01*
X154282144Y-56892000D01*
X157986829Y-56892000D01*
X158317077Y-57222824D01*
X158844309Y-57441750D01*
X159415187Y-57442248D01*
X159942800Y-57224243D01*
X160346824Y-56820923D01*
X160565750Y-56293691D01*
X160566248Y-55722813D01*
X160348243Y-55195200D01*
X159944923Y-54791176D01*
X159417691Y-54572250D01*
X158846813Y-54571752D01*
X158319200Y-54789757D01*
X157986377Y-55122000D01*
X154282144Y-55122000D01*
X154176698Y-54964189D01*
X153711151Y-54653120D01*
X153690614Y-54649035D01*
X148416744Y-49375164D01*
X148367117Y-49255057D01*
X148104327Y-48991808D01*
X147760799Y-48849162D01*
X147388833Y-48848838D01*
X147045057Y-48990883D01*
X146781808Y-49253673D01*
X146639162Y-49597201D01*
X146638838Y-49969167D01*
X146780883Y-50312943D01*
X147043673Y-50576192D01*
X147164986Y-50626566D01*
X151889074Y-55350653D01*
X151836233Y-55429736D01*
X151727000Y-55978887D01*
X151727000Y-56035113D01*
X151746692Y-56134113D01*
X147437790Y-51825210D01*
X147422058Y-51814698D01*
X147150675Y-51633367D01*
X147094484Y-51622190D01*
X146812000Y-51565999D01*
X146811995Y-51566000D01*
X142554620Y-51566000D01*
X142537890Y-51554569D01*
X142286000Y-51503560D01*
X140736000Y-51503560D01*
X140500683Y-51547838D01*
X140474683Y-51564568D01*
X140462000Y-51562000D01*
X138384132Y-51562000D01*
X143591132Y-46355000D01*
X144586887Y-46355000D01*
X144696120Y-46904151D01*
X145007189Y-47369698D01*
X145472736Y-47680767D01*
X146021887Y-47790000D01*
X146078113Y-47790000D01*
X146627264Y-47680767D01*
X147092811Y-47369698D01*
X147403880Y-46904151D01*
X147456584Y-46639187D01*
X154774752Y-46639187D01*
X154992757Y-47166800D01*
X155396077Y-47570824D01*
X155923309Y-47789750D01*
X156494187Y-47790248D01*
X157021800Y-47572243D01*
X157425824Y-47168923D01*
X157644750Y-46641691D01*
X157644869Y-46505000D01*
X165033484Y-46505000D01*
X165067932Y-46588371D01*
X165499357Y-47020551D01*
X166063330Y-47254733D01*
X166673991Y-47255265D01*
X167238371Y-47022068D01*
X167670551Y-46590643D01*
X167904733Y-46026670D01*
X167905265Y-45416009D01*
X167672068Y-44851629D01*
X167240643Y-44419449D01*
X166676670Y-44185267D01*
X166066009Y-44184735D01*
X165501629Y-44417932D01*
X165069449Y-44849357D01*
X165033887Y-44935000D01*
X156845005Y-44935000D01*
X156845000Y-44934999D01*
X156633519Y-44977066D01*
X156496691Y-44920250D01*
X155925813Y-44919752D01*
X155398200Y-45137757D01*
X154994176Y-45541077D01*
X154775250Y-46068309D01*
X154774752Y-46639187D01*
X147456584Y-46639187D01*
X147513113Y-46355000D01*
X147403880Y-45805849D01*
X147092811Y-45340302D01*
X146627264Y-45029233D01*
X146078113Y-44920000D01*
X146021887Y-44920000D01*
X145472736Y-45029233D01*
X145007189Y-45340302D01*
X144696120Y-45805849D01*
X144586887Y-46355000D01*
X143591132Y-46355000D01*
X145582566Y-44363566D01*
X145828603Y-43995346D01*
X145853865Y-43868345D01*
X145915000Y-43561000D01*
X145915000Y-42354016D01*
X146050000Y-42151974D01*
X146269946Y-42481147D01*
X146751715Y-42803054D01*
X147320000Y-42916093D01*
X147888285Y-42803054D01*
X148370054Y-42481147D01*
X148691961Y-41999378D01*
X148805000Y-41431093D01*
X148805000Y-41372907D01*
X148691961Y-40804622D01*
X148523165Y-40552000D01*
X156744560Y-40552000D01*
X156744560Y-42252000D01*
X156788838Y-42487317D01*
X156927910Y-42703441D01*
X157140110Y-42848431D01*
X157392000Y-42899440D01*
X159092000Y-42899440D01*
X159327317Y-42855162D01*
X159543441Y-42716090D01*
X159688431Y-42503890D01*
X159739440Y-42252000D01*
X159739440Y-40552000D01*
X159695162Y-40316683D01*
X159556090Y-40100559D01*
X159343890Y-39955569D01*
X159092000Y-39904560D01*
X157392000Y-39904560D01*
X157156683Y-39948838D01*
X156940559Y-40087910D01*
X156795569Y-40300110D01*
X156744560Y-40552000D01*
X148523165Y-40552000D01*
X148370054Y-40322853D01*
X147888285Y-40000946D01*
X147385823Y-39901000D01*
X166171842Y-39901000D01*
X171427000Y-45156157D01*
X171427000Y-45156157D01*
G37*
X171427000Y-45156157D02*
X171427000Y-71015218D01*
X171397243Y-70943200D01*
X171065000Y-70610377D01*
X171065000Y-60579000D01*
X170997633Y-60240325D01*
X170805790Y-59953210D01*
X170805787Y-59953208D01*
X167042840Y-56190260D01*
X167043248Y-55722813D01*
X166825243Y-55195200D01*
X166421923Y-54791176D01*
X165894691Y-54572250D01*
X165424419Y-54571840D01*
X159375790Y-48523210D01*
X159185721Y-48396211D01*
X159088675Y-48331367D01*
X159032484Y-48320190D01*
X158750000Y-48263999D01*
X158749995Y-48264000D01*
X156389822Y-48264000D01*
X156269799Y-48214162D01*
X155897833Y-48213838D01*
X155554057Y-48355883D01*
X155290808Y-48618673D01*
X155148162Y-48962201D01*
X155147838Y-49334167D01*
X155289883Y-49677943D01*
X155552673Y-49941192D01*
X155896201Y-50083838D01*
X156268167Y-50084162D01*
X156389569Y-50034000D01*
X158383420Y-50034000D01*
X164173160Y-55823739D01*
X164172752Y-56291187D01*
X164390757Y-56818800D01*
X164794077Y-57222824D01*
X165321309Y-57441750D01*
X165791580Y-57442160D01*
X169295000Y-60945579D01*
X169295000Y-70610829D01*
X168964176Y-70941077D01*
X168745250Y-71468309D01*
X168744752Y-72039187D01*
X168962757Y-72566800D01*
X169366077Y-72970824D01*
X169893309Y-73189750D01*
X170428625Y-73190217D01*
X169304840Y-74314002D01*
X164102866Y-74314002D01*
X166198434Y-72218434D01*
X166204627Y-72209166D01*
X166379439Y-71947541D01*
X166443000Y-71628000D01*
X166443000Y-67329882D01*
X166622698Y-67209811D01*
X166933767Y-66744264D01*
X167043000Y-66195113D01*
X167043000Y-66138887D01*
X166933767Y-65589736D01*
X166622698Y-65124189D01*
X166157151Y-64813120D01*
X165608000Y-64703887D01*
X165058849Y-64813120D01*
X164593302Y-65124189D01*
X164487856Y-65282000D01*
X160251144Y-65282000D01*
X160145698Y-65124189D01*
X159680151Y-64813120D01*
X159131000Y-64703887D01*
X158954562Y-64738983D01*
X153412000Y-59196420D01*
X153412000Y-58166005D01*
X153412001Y-58166000D01*
X153344634Y-57827326D01*
X153262951Y-57705079D01*
X153152790Y-57540210D01*
X153152787Y-57540208D01*
X153063000Y-57450421D01*
X153162000Y-57470113D01*
X153711151Y-57360880D01*
X154176698Y-57049811D01*
X154282144Y-56892000D01*
X157986829Y-56892000D01*
X158317077Y-57222824D01*
X158844309Y-57441750D01*
X159415187Y-57442248D01*
X159942800Y-57224243D01*
X160346824Y-56820923D01*
X160565750Y-56293691D01*
X160566248Y-55722813D01*
X160348243Y-55195200D01*
X159944923Y-54791176D01*
X159417691Y-54572250D01*
X158846813Y-54571752D01*
X158319200Y-54789757D01*
X157986377Y-55122000D01*
X154282144Y-55122000D01*
X154176698Y-54964189D01*
X153711151Y-54653120D01*
X153690614Y-54649035D01*
X148416744Y-49375164D01*
X148367117Y-49255057D01*
X148104327Y-48991808D01*
X147760799Y-48849162D01*
X147388833Y-48848838D01*
X147045057Y-48990883D01*
X146781808Y-49253673D01*
X146639162Y-49597201D01*
X146638838Y-49969167D01*
X146780883Y-50312943D01*
X147043673Y-50576192D01*
X147164986Y-50626566D01*
X151889074Y-55350653D01*
X151836233Y-55429736D01*
X151727000Y-55978887D01*
X151727000Y-56035113D01*
X151746692Y-56134113D01*
X147437790Y-51825210D01*
X147422058Y-51814698D01*
X147150675Y-51633367D01*
X147094484Y-51622190D01*
X146812000Y-51565999D01*
X146811995Y-51566000D01*
X142554620Y-51566000D01*
X142537890Y-51554569D01*
X142286000Y-51503560D01*
X140736000Y-51503560D01*
X140500683Y-51547838D01*
X140474683Y-51564568D01*
X140462000Y-51562000D01*
X138384132Y-51562000D01*
X143591132Y-46355000D01*
X144586887Y-46355000D01*
X144696120Y-46904151D01*
X145007189Y-47369698D01*
X145472736Y-47680767D01*
X146021887Y-47790000D01*
X146078113Y-47790000D01*
X146627264Y-47680767D01*
X147092811Y-47369698D01*
X147403880Y-46904151D01*
X147456584Y-46639187D01*
X154774752Y-46639187D01*
X154992757Y-47166800D01*
X155396077Y-47570824D01*
X155923309Y-47789750D01*
X156494187Y-47790248D01*
X157021800Y-47572243D01*
X157425824Y-47168923D01*
X157644750Y-46641691D01*
X157644869Y-46505000D01*
X165033484Y-46505000D01*
X165067932Y-46588371D01*
X165499357Y-47020551D01*
X166063330Y-47254733D01*
X166673991Y-47255265D01*
X167238371Y-47022068D01*
X167670551Y-46590643D01*
X167904733Y-46026670D01*
X167905265Y-45416009D01*
X167672068Y-44851629D01*
X167240643Y-44419449D01*
X166676670Y-44185267D01*
X166066009Y-44184735D01*
X165501629Y-44417932D01*
X165069449Y-44849357D01*
X165033887Y-44935000D01*
X156845005Y-44935000D01*
X156845000Y-44934999D01*
X156633519Y-44977066D01*
X156496691Y-44920250D01*
X155925813Y-44919752D01*
X155398200Y-45137757D01*
X154994176Y-45541077D01*
X154775250Y-46068309D01*
X154774752Y-46639187D01*
X147456584Y-46639187D01*
X147513113Y-46355000D01*
X147403880Y-45805849D01*
X147092811Y-45340302D01*
X146627264Y-45029233D01*
X146078113Y-44920000D01*
X146021887Y-44920000D01*
X145472736Y-45029233D01*
X145007189Y-45340302D01*
X144696120Y-45805849D01*
X144586887Y-46355000D01*
X143591132Y-46355000D01*
X145582566Y-44363566D01*
X145828603Y-43995346D01*
X145853865Y-43868345D01*
X145915000Y-43561000D01*
X145915000Y-42354016D01*
X146050000Y-42151974D01*
X146269946Y-42481147D01*
X146751715Y-42803054D01*
X147320000Y-42916093D01*
X147888285Y-42803054D01*
X148370054Y-42481147D01*
X148691961Y-41999378D01*
X148805000Y-41431093D01*
X148805000Y-41372907D01*
X148691961Y-40804622D01*
X148523165Y-40552000D01*
X156744560Y-40552000D01*
X156744560Y-42252000D01*
X156788838Y-42487317D01*
X156927910Y-42703441D01*
X157140110Y-42848431D01*
X157392000Y-42899440D01*
X159092000Y-42899440D01*
X159327317Y-42855162D01*
X159543441Y-42716090D01*
X159688431Y-42503890D01*
X159739440Y-42252000D01*
X159739440Y-40552000D01*
X159695162Y-40316683D01*
X159556090Y-40100559D01*
X159343890Y-39955569D01*
X159092000Y-39904560D01*
X157392000Y-39904560D01*
X157156683Y-39948838D01*
X156940559Y-40087910D01*
X156795569Y-40300110D01*
X156744560Y-40552000D01*
X148523165Y-40552000D01*
X148370054Y-40322853D01*
X147888285Y-40000946D01*
X147385823Y-39901000D01*
X166171842Y-39901000D01*
X171427000Y-45156157D01*
G36*
X105756946Y-42481147D02*
X105922000Y-42591432D01*
X105922000Y-47893421D01*
X101228210Y-52587210D01*
X101036367Y-52874325D01*
X101036367Y-52874326D01*
X100968999Y-53213000D01*
X100969000Y-53213005D01*
X100969000Y-54100829D01*
X100638176Y-54431077D01*
X100419250Y-54958309D01*
X100418840Y-55428581D01*
X98307210Y-57540210D01*
X98115367Y-57827325D01*
X98115367Y-57827326D01*
X98047999Y-58166000D01*
X98048000Y-58166005D01*
X98048000Y-63514421D01*
X97296420Y-64266000D01*
X97029171Y-64266000D01*
X96698923Y-63935176D01*
X96171691Y-63716250D01*
X96158341Y-63716238D01*
X96637787Y-63236792D01*
X96637790Y-63236790D01*
X96829633Y-62949675D01*
X96857087Y-62811655D01*
X96869364Y-62749939D01*
X97026698Y-62644811D01*
X97337767Y-62179264D01*
X97447000Y-61630113D01*
X97447000Y-61573887D01*
X97337767Y-61024736D01*
X97026698Y-60559189D01*
X96561151Y-60248120D01*
X96012000Y-60138887D01*
X95462849Y-60248120D01*
X94997302Y-60559189D01*
X94896533Y-60710000D01*
X89790171Y-60710000D01*
X89459923Y-60379176D01*
X88932691Y-60160250D01*
X88361813Y-60159752D01*
X88084000Y-60274542D01*
X88084000Y-57749868D01*
X93436868Y-52397000D01*
X99568000Y-52397000D01*
X99887541Y-52333439D01*
X100158434Y-52152434D01*
X101891367Y-50419501D01*
X102079887Y-50457000D01*
X102136113Y-50457000D01*
X102685264Y-50347767D01*
X103150811Y-50036698D01*
X103461880Y-49571151D01*
X103571113Y-49022000D01*
X103461880Y-48472849D01*
X103150811Y-48007302D01*
X102685264Y-47696233D01*
X102136113Y-47587000D01*
X102079887Y-47587000D01*
X101980888Y-47606692D01*
X104892787Y-44694792D01*
X104892790Y-44694790D01*
X105084633Y-44407675D01*
X105109545Y-44282434D01*
X105152001Y-44069000D01*
X105152000Y-44068995D01*
X105152000Y-42591432D01*
X105317054Y-42481147D01*
X105537000Y-42151974D01*
X105756946Y-42481147D01*
X105756946Y-42481147D01*
G37*
X105756946Y-42481147D02*
X105922000Y-42591432D01*
X105922000Y-47893421D01*
X101228210Y-52587210D01*
X101036367Y-52874325D01*
X101036367Y-52874326D01*
X100968999Y-53213000D01*
X100969000Y-53213005D01*
X100969000Y-54100829D01*
X100638176Y-54431077D01*
X100419250Y-54958309D01*
X100418840Y-55428581D01*
X98307210Y-57540210D01*
X98115367Y-57827325D01*
X98115367Y-57827326D01*
X98047999Y-58166000D01*
X98048000Y-58166005D01*
X98048000Y-63514421D01*
X97296420Y-64266000D01*
X97029171Y-64266000D01*
X96698923Y-63935176D01*
X96171691Y-63716250D01*
X96158341Y-63716238D01*
X96637787Y-63236792D01*
X96637790Y-63236790D01*
X96829633Y-62949675D01*
X96857087Y-62811655D01*
X96869364Y-62749939D01*
X97026698Y-62644811D01*
X97337767Y-62179264D01*
X97447000Y-61630113D01*
X97447000Y-61573887D01*
X97337767Y-61024736D01*
X97026698Y-60559189D01*
X96561151Y-60248120D01*
X96012000Y-60138887D01*
X95462849Y-60248120D01*
X94997302Y-60559189D01*
X94896533Y-60710000D01*
X89790171Y-60710000D01*
X89459923Y-60379176D01*
X88932691Y-60160250D01*
X88361813Y-60159752D01*
X88084000Y-60274542D01*
X88084000Y-57749868D01*
X93436868Y-52397000D01*
X99568000Y-52397000D01*
X99887541Y-52333439D01*
X100158434Y-52152434D01*
X101891367Y-50419501D01*
X102079887Y-50457000D01*
X102136113Y-50457000D01*
X102685264Y-50347767D01*
X103150811Y-50036698D01*
X103461880Y-49571151D01*
X103571113Y-49022000D01*
X103461880Y-48472849D01*
X103150811Y-48007302D01*
X102685264Y-47696233D01*
X102136113Y-47587000D01*
X102079887Y-47587000D01*
X101980888Y-47606692D01*
X104892787Y-44694792D01*
X104892790Y-44694790D01*
X105084633Y-44407675D01*
X105109545Y-44282434D01*
X105152001Y-44069000D01*
X105152000Y-44068995D01*
X105152000Y-42591432D01*
X105317054Y-42481147D01*
X105537000Y-42151974D01*
X105756946Y-42481147D01*
G36*
X135308434Y-51427434D02*
X135246289Y-51520440D01*
X135100683Y-51547838D01*
X134884559Y-51686910D01*
X134739569Y-51899110D01*
X134688560Y-52151000D01*
X134688560Y-52751000D01*
X134732838Y-52986317D01*
X134796678Y-53085528D01*
X134739569Y-53169110D01*
X134688560Y-53421000D01*
X134688560Y-54021000D01*
X134732838Y-54256317D01*
X134796678Y-54355528D01*
X134739569Y-54439110D01*
X134688560Y-54691000D01*
X134688560Y-55291000D01*
X134732838Y-55526317D01*
X134796678Y-55625528D01*
X134739569Y-55709110D01*
X134688560Y-55961000D01*
X134688560Y-56561000D01*
X134732838Y-56796317D01*
X134871910Y-57012441D01*
X134976000Y-57083563D01*
X134976000Y-60141868D01*
X132752868Y-62365000D01*
X129132767Y-62365000D01*
X128847264Y-62174233D01*
X128298113Y-62065000D01*
X128241887Y-62065000D01*
X127692736Y-62174233D01*
X127504000Y-62300343D01*
X127504000Y-57079657D01*
X127692736Y-57205767D01*
X128241887Y-57315000D01*
X128298113Y-57315000D01*
X128847264Y-57205767D01*
X129132767Y-57015000D01*
X130302000Y-57015000D01*
X130736346Y-56928603D01*
X131104566Y-56682566D01*
X133390566Y-54396566D01*
X133423017Y-54348000D01*
X133636603Y-54028346D01*
X133723000Y-53594000D01*
X133723000Y-49492132D01*
X136995132Y-46220000D01*
X140515868Y-46220000D01*
X135308434Y-51427434D01*
X135308434Y-51427434D01*
G37*
X135308434Y-51427434D02*
X135246289Y-51520440D01*
X135100683Y-51547838D01*
X134884559Y-51686910D01*
X134739569Y-51899110D01*
X134688560Y-52151000D01*
X134688560Y-52751000D01*
X134732838Y-52986317D01*
X134796678Y-53085528D01*
X134739569Y-53169110D01*
X134688560Y-53421000D01*
X134688560Y-54021000D01*
X134732838Y-54256317D01*
X134796678Y-54355528D01*
X134739569Y-54439110D01*
X134688560Y-54691000D01*
X134688560Y-55291000D01*
X134732838Y-55526317D01*
X134796678Y-55625528D01*
X134739569Y-55709110D01*
X134688560Y-55961000D01*
X134688560Y-56561000D01*
X134732838Y-56796317D01*
X134871910Y-57012441D01*
X134976000Y-57083563D01*
X134976000Y-60141868D01*
X132752868Y-62365000D01*
X129132767Y-62365000D01*
X128847264Y-62174233D01*
X128298113Y-62065000D01*
X128241887Y-62065000D01*
X127692736Y-62174233D01*
X127504000Y-62300343D01*
X127504000Y-57079657D01*
X127692736Y-57205767D01*
X128241887Y-57315000D01*
X128298113Y-57315000D01*
X128847264Y-57205767D01*
X129132767Y-57015000D01*
X130302000Y-57015000D01*
X130736346Y-56928603D01*
X131104566Y-56682566D01*
X133390566Y-54396566D01*
X133423017Y-54348000D01*
X133636603Y-54028346D01*
X133723000Y-53594000D01*
X133723000Y-49492132D01*
X136995132Y-46220000D01*
X140515868Y-46220000D01*
X135308434Y-51427434D01*
G36*
X136591715Y-40000946D02*
X136109946Y-40322853D01*
X135788039Y-40804622D01*
X135675000Y-41372907D01*
X135675000Y-41431093D01*
X135788039Y-41999378D01*
X136109946Y-42481147D01*
X136591715Y-42803054D01*
X137160000Y-42916093D01*
X137728285Y-42803054D01*
X138210054Y-42481147D01*
X138430000Y-42151974D01*
X138649946Y-42481147D01*
X139131715Y-42803054D01*
X139700000Y-42916093D01*
X140268285Y-42803054D01*
X140750054Y-42481147D01*
X140970000Y-42151974D01*
X141105000Y-42354016D01*
X141105000Y-42963868D01*
X140118868Y-43950000D01*
X136525000Y-43950000D01*
X136090654Y-44036397D01*
X135791080Y-44236566D01*
X135722434Y-44282434D01*
X131785434Y-48219434D01*
X131539397Y-48587654D01*
X131453000Y-49022000D01*
X131453000Y-53123868D01*
X129831868Y-54745000D01*
X129132767Y-54745000D01*
X128930725Y-54610000D01*
X129312811Y-54354698D01*
X129623880Y-53889151D01*
X129733113Y-53340000D01*
X129623880Y-52790849D01*
X129312811Y-52325302D01*
X128930725Y-52070000D01*
X129312811Y-51814698D01*
X129623880Y-51349151D01*
X129733113Y-50800000D01*
X129623880Y-50250849D01*
X129312811Y-49785302D01*
X128847264Y-49474233D01*
X128298113Y-49365000D01*
X128241887Y-49365000D01*
X127692736Y-49474233D01*
X127227189Y-49785302D01*
X127140527Y-49915000D01*
X127127000Y-49915000D01*
X126788325Y-49982367D01*
X126501210Y-50174210D01*
X126501208Y-50174213D01*
X126101000Y-50574420D01*
X126101000Y-49911005D01*
X126101001Y-49911000D01*
X126005088Y-49428819D01*
X125731955Y-49020045D01*
X124069000Y-47357090D01*
X124069000Y-42742757D01*
X124110441Y-42716090D01*
X124255431Y-42503890D01*
X124306440Y-42252000D01*
X124306440Y-40552000D01*
X124262162Y-40316683D01*
X124123090Y-40100559D01*
X123910890Y-39955569D01*
X123659000Y-39904560D01*
X121959000Y-39904560D01*
X121723683Y-39948838D01*
X121507559Y-40087910D01*
X121362569Y-40300110D01*
X121311560Y-40552000D01*
X121311560Y-42252000D01*
X121355838Y-42487317D01*
X121494910Y-42703441D01*
X121549000Y-42740399D01*
X121549000Y-47878995D01*
X121548999Y-47879000D01*
X121644912Y-48361181D01*
X121918045Y-48769955D01*
X123581000Y-50432910D01*
X123581000Y-52642187D01*
X123401675Y-52522367D01*
X123345484Y-52511190D01*
X123063000Y-52454999D01*
X123062995Y-52455000D01*
X121779473Y-52455000D01*
X121692811Y-52325302D01*
X121548535Y-52228899D01*
X121685317Y-52203162D01*
X121901441Y-52064090D01*
X122046431Y-51851890D01*
X122097440Y-51600000D01*
X122097440Y-50000000D01*
X122053162Y-49764683D01*
X121914090Y-49548559D01*
X121701890Y-49403569D01*
X121450000Y-49352560D01*
X119850000Y-49352560D01*
X119614683Y-49396838D01*
X119398559Y-49535910D01*
X119253569Y-49748110D01*
X119202560Y-50000000D01*
X119202560Y-51600000D01*
X119246838Y-51835317D01*
X119385910Y-52051441D01*
X119598110Y-52196431D01*
X119753089Y-52227815D01*
X119607189Y-52325302D01*
X119296120Y-52790849D01*
X119186887Y-53340000D01*
X119296120Y-53889151D01*
X119607189Y-54354698D01*
X119989275Y-54610000D01*
X119787233Y-54745000D01*
X112917699Y-54745000D01*
X112961440Y-54529000D01*
X112961440Y-53929000D01*
X112917162Y-53693683D01*
X112853322Y-53594472D01*
X112910431Y-53510890D01*
X112961440Y-53259000D01*
X112961440Y-52659000D01*
X112917162Y-52423683D01*
X112778090Y-52207559D01*
X112674000Y-52136437D01*
X112674000Y-48547000D01*
X112587603Y-48112654D01*
X112341566Y-47744434D01*
X110482000Y-45884868D01*
X110482000Y-42354016D01*
X110617000Y-42151974D01*
X110836946Y-42481147D01*
X111318715Y-42803054D01*
X111887000Y-42916093D01*
X112455285Y-42803054D01*
X112937054Y-42481147D01*
X113157000Y-42151974D01*
X113376946Y-42481147D01*
X113858715Y-42803054D01*
X114427000Y-42916093D01*
X114995285Y-42803054D01*
X115477054Y-42481147D01*
X115673596Y-42187000D01*
X117856000Y-42187000D01*
X118156407Y-42127245D01*
X118411079Y-41957079D01*
X120467158Y-39901000D01*
X137094177Y-39901000D01*
X136591715Y-40000946D01*
X136591715Y-40000946D01*
G37*
X136591715Y-40000946D02*
X136109946Y-40322853D01*
X135788039Y-40804622D01*
X135675000Y-41372907D01*
X135675000Y-41431093D01*
X135788039Y-41999378D01*
X136109946Y-42481147D01*
X136591715Y-42803054D01*
X137160000Y-42916093D01*
X137728285Y-42803054D01*
X138210054Y-42481147D01*
X138430000Y-42151974D01*
X138649946Y-42481147D01*
X139131715Y-42803054D01*
X139700000Y-42916093D01*
X140268285Y-42803054D01*
X140750054Y-42481147D01*
X140970000Y-42151974D01*
X141105000Y-42354016D01*
X141105000Y-42963868D01*
X140118868Y-43950000D01*
X136525000Y-43950000D01*
X136090654Y-44036397D01*
X135791080Y-44236566D01*
X135722434Y-44282434D01*
X131785434Y-48219434D01*
X131539397Y-48587654D01*
X131453000Y-49022000D01*
X131453000Y-53123868D01*
X129831868Y-54745000D01*
X129132767Y-54745000D01*
X128930725Y-54610000D01*
X129312811Y-54354698D01*
X129623880Y-53889151D01*
X129733113Y-53340000D01*
X129623880Y-52790849D01*
X129312811Y-52325302D01*
X128930725Y-52070000D01*
X129312811Y-51814698D01*
X129623880Y-51349151D01*
X129733113Y-50800000D01*
X129623880Y-50250849D01*
X129312811Y-49785302D01*
X128847264Y-49474233D01*
X128298113Y-49365000D01*
X128241887Y-49365000D01*
X127692736Y-49474233D01*
X127227189Y-49785302D01*
X127140527Y-49915000D01*
X127127000Y-49915000D01*
X126788325Y-49982367D01*
X126501210Y-50174210D01*
X126501208Y-50174213D01*
X126101000Y-50574420D01*
X126101000Y-49911005D01*
X126101001Y-49911000D01*
X126005088Y-49428819D01*
X125731955Y-49020045D01*
X124069000Y-47357090D01*
X124069000Y-42742757D01*
X124110441Y-42716090D01*
X124255431Y-42503890D01*
X124306440Y-42252000D01*
X124306440Y-40552000D01*
X124262162Y-40316683D01*
X124123090Y-40100559D01*
X123910890Y-39955569D01*
X123659000Y-39904560D01*
X121959000Y-39904560D01*
X121723683Y-39948838D01*
X121507559Y-40087910D01*
X121362569Y-40300110D01*
X121311560Y-40552000D01*
X121311560Y-42252000D01*
X121355838Y-42487317D01*
X121494910Y-42703441D01*
X121549000Y-42740399D01*
X121549000Y-47878995D01*
X121548999Y-47879000D01*
X121644912Y-48361181D01*
X121918045Y-48769955D01*
X123581000Y-50432910D01*
X123581000Y-52642187D01*
X123401675Y-52522367D01*
X123345484Y-52511190D01*
X123063000Y-52454999D01*
X123062995Y-52455000D01*
X121779473Y-52455000D01*
X121692811Y-52325302D01*
X121548535Y-52228899D01*
X121685317Y-52203162D01*
X121901441Y-52064090D01*
X122046431Y-51851890D01*
X122097440Y-51600000D01*
X122097440Y-50000000D01*
X122053162Y-49764683D01*
X121914090Y-49548559D01*
X121701890Y-49403569D01*
X121450000Y-49352560D01*
X119850000Y-49352560D01*
X119614683Y-49396838D01*
X119398559Y-49535910D01*
X119253569Y-49748110D01*
X119202560Y-50000000D01*
X119202560Y-51600000D01*
X119246838Y-51835317D01*
X119385910Y-52051441D01*
X119598110Y-52196431D01*
X119753089Y-52227815D01*
X119607189Y-52325302D01*
X119296120Y-52790849D01*
X119186887Y-53340000D01*
X119296120Y-53889151D01*
X119607189Y-54354698D01*
X119989275Y-54610000D01*
X119787233Y-54745000D01*
X112917699Y-54745000D01*
X112961440Y-54529000D01*
X112961440Y-53929000D01*
X112917162Y-53693683D01*
X112853322Y-53594472D01*
X112910431Y-53510890D01*
X112961440Y-53259000D01*
X112961440Y-52659000D01*
X112917162Y-52423683D01*
X112778090Y-52207559D01*
X112674000Y-52136437D01*
X112674000Y-48547000D01*
X112587603Y-48112654D01*
X112341566Y-47744434D01*
X110482000Y-45884868D01*
X110482000Y-42354016D01*
X110617000Y-42151974D01*
X110836946Y-42481147D01*
X111318715Y-42803054D01*
X111887000Y-42916093D01*
X112455285Y-42803054D01*
X112937054Y-42481147D01*
X113157000Y-42151974D01*
X113376946Y-42481147D01*
X113858715Y-42803054D01*
X114427000Y-42916093D01*
X114995285Y-42803054D01*
X115477054Y-42481147D01*
X115673596Y-42187000D01*
X117856000Y-42187000D01*
X118156407Y-42127245D01*
X118411079Y-41957079D01*
X120467158Y-39901000D01*
X137094177Y-39901000D01*
X136591715Y-40000946D01*
M02*
