M48
;DRILL file {KiCad 4.0.2-stable} date 12/13/2018 9:01:04 AM
;FORMAT={2:4/ absolute / inch / suppress leading zeros}
FMAT,2
INCH,TZ
T1C0.016
T2C0.030
T3C0.031
T4C0.035
T5C0.039
T6C0.040
T7C0.138
%
G90
G05
M72
T1
X36200Y-44350
X36200Y-46700
X41000Y-22500
X42000Y-33050
X43750Y-31350
X45300Y-22700
X45300Y-23100
X45300Y-23450
X45300Y-23800
X45700Y-22700
X45700Y-23100
X45700Y-23450
X45700Y-23800
X45700Y-24250
X46100Y-22700
X46100Y-23100
X46100Y-23450
X46100Y-23800
X46100Y-24250
X46500Y-22700
X46500Y-23100
X46500Y-23450
X46500Y-23800
X46500Y-24250
X46900Y-22700
X46900Y-23100
X46900Y-23450
X46900Y-23800
X46900Y-24250
X49700Y-46750
X49950Y-50750
X50700Y-31050
X51050Y-22650
X51050Y-23150
X51050Y-23650
X51050Y-24150
X51550Y-22650
X51550Y-23150
X51550Y-23650
X51550Y-24150
X52850Y-19500
X53050Y-19200
X53250Y-19500
X53250Y-27900
X53450Y-18850
X53500Y-19200
X53650Y-19500
X53850Y-18850
X54000Y-19250
X54150Y-19000
X54150Y-36550
X54850Y-34650
X55650Y-45750
X55700Y-22950
X56450Y-32300
X56850Y-32400
X58100Y-19600
X61450Y-19350
X66650Y-17650
X66750Y-19700
X66750Y-20000
X67100Y-19700
X67100Y-20000
X68350Y-18100
T2
X43050Y-28950
X43550Y-28950
X44050Y-28950
X45300Y-28950
X45800Y-28950
X46300Y-28950
X51500Y-28950
X52000Y-28950
X52500Y-28950
X54000Y-28950
X54500Y-28950
X55000Y-28950
T3
X33000Y-20250
X33000Y-24250
X34000Y-26250
X34000Y-30250
X34900Y-20250
X34900Y-24250
X36200Y-19300
X37750Y-25650
X37750Y-29650
X37800Y-21300
X37800Y-24253
X40100Y-21750
X40100Y-25750
X40100Y-26997
X40100Y-29950
X40200Y-19300
X47500Y-20000
X47500Y-21000
X47500Y-22000
X47500Y-23000
X47500Y-24000
X47500Y-25000
X47500Y-26000
X47500Y-27000
X50500Y-20000
X50500Y-21000
X50500Y-22000
X50500Y-23000
X50500Y-24000
X50500Y-25000
X50500Y-26000
X50500Y-27000
X57500Y-18250
X58050Y-28300
X58300Y-23500
X58300Y-26453
X60300Y-22050
X60300Y-26050
X61003Y-28300
X61500Y-18250
X62650Y-22050
X62650Y-26050
X63000Y-28250
X65200Y-22050
X65200Y-26050
X67000Y-28250
T4
X34000Y-31250
X34000Y-32250
X34000Y-33500
X34000Y-34500
X65500Y-17000
X65500Y-18000
T5
X33750Y-36750
X33750Y-39000
X33900Y-41250
X33900Y-42250
X33900Y-45000
X33900Y-46000
X36200Y-27500
X36200Y-28500
X40050Y-16300
X41050Y-16300
X42050Y-16300
X42900Y-23900
X42900Y-24900
X43050Y-16300
X44050Y-16300
X45050Y-16300
X48350Y-16300
X49350Y-16300
X53000Y-16300
X54000Y-16300
X54700Y-23900
X54700Y-24900
X55000Y-16300
X56000Y-16300
X57000Y-16300
X58000Y-16300
X58250Y-34600
X58250Y-35600
X58250Y-36600
X58250Y-37600
X58250Y-38600
X58250Y-39600
X58250Y-40600
X58250Y-41600
X58250Y-42600
X58250Y-43600
X58250Y-44600
X58250Y-45600
X58250Y-46600
X58250Y-47600
X58250Y-48600
X58250Y-49600
X58250Y-50600
X58250Y-51600
X59250Y-33600
X59250Y-34600
X59250Y-35600
X59250Y-36600
X59250Y-37600
X59250Y-38600
X59250Y-39600
X59250Y-40600
X59250Y-41600
X59250Y-42600
X59250Y-43600
X59250Y-44600
X59250Y-45600
X59250Y-46600
X59250Y-47600
X59250Y-48600
X59250Y-49600
X59250Y-50600
X59250Y-51600
X60250Y-32600
X60250Y-33600
X60250Y-34600
X60250Y-35600
X60250Y-36600
X60250Y-37600
X60250Y-38600
X60250Y-39600
X60250Y-40600
X60250Y-41600
X60250Y-42600
X60250Y-43600
X60250Y-44600
X60250Y-45600
X60250Y-46600
X60250Y-47600
X60250Y-48600
X60250Y-49600
X60250Y-50600
X60250Y-51600
X61250Y-31600
X61250Y-32600
X61250Y-33600
X61250Y-34600
X61250Y-35600
X61250Y-36600
X61250Y-37600
X61250Y-38600
X61250Y-39600
X61250Y-40600
X61250Y-41600
X61250Y-42600
X61250Y-43600
X61250Y-44600
X61250Y-45600
X61250Y-46600
X61250Y-47600
X61250Y-48600
X61250Y-49600
X61250Y-50600
X61250Y-51600
X61300Y-16300
X61750Y-30200
X62250Y-31600
X62250Y-32600
X62250Y-33600
X62250Y-34600
X62250Y-35600
X62250Y-36600
X62250Y-37600
X62250Y-38600
X62250Y-39600
X62250Y-40600
X62250Y-41600
X62250Y-42600
X62250Y-43600
X62250Y-44600
X62250Y-45600
X62250Y-46600
X62250Y-47600
X62250Y-48600
X62250Y-49600
X62250Y-50600
X62250Y-51600
X62300Y-16300
X62750Y-30200
X63250Y-31600
X63250Y-32600
X63250Y-33600
X63250Y-34600
X63250Y-35600
X63250Y-36600
X63250Y-37600
X63250Y-38600
X63250Y-39600
X63250Y-40600
X63250Y-41600
X63250Y-42600
X63250Y-43600
X63250Y-44600
X63250Y-45600
X63250Y-46600
X63250Y-47600
X63250Y-48600
X63250Y-49600
X63250Y-50600
X63250Y-51600
X64250Y-31600
X64250Y-32600
X64250Y-33600
X64250Y-34600
X64250Y-35600
X64250Y-36600
X64250Y-37600
X64250Y-38600
X64250Y-39600
X64250Y-40600
X64250Y-41600
X64250Y-42600
X64250Y-43600
X64250Y-44600
X64250Y-45600
X64250Y-46600
X64250Y-47600
X64250Y-48600
X64250Y-49600
X64250Y-50600
X64250Y-51600
X65250Y-31600
X65250Y-32600
X65250Y-33600
X65250Y-34600
X65250Y-35600
X65250Y-36600
X65250Y-37600
X65250Y-38600
X65250Y-39600
X65250Y-40600
X65250Y-41600
X65250Y-42600
X65250Y-43600
X65250Y-44600
X65250Y-45600
X65250Y-46600
X65250Y-47600
X65250Y-48600
X65250Y-49600
X65250Y-50600
X65250Y-51600
X66300Y-31600
X66300Y-32600
X66300Y-33600
X66300Y-34600
X66300Y-35600
X66300Y-36600
X66300Y-37600
X66300Y-38600
X66300Y-39600
X66300Y-40600
X66300Y-41600
X66300Y-42600
X66300Y-43600
X66300Y-44600
X66300Y-45600
X66300Y-46600
X66300Y-47600
X66300Y-48600
X66300Y-49600
X66300Y-50600
X66300Y-51600
X67300Y-31600
X67300Y-32600
X67300Y-33600
X67300Y-34600
X67300Y-35600
X67300Y-36600
X67300Y-37600
X67300Y-38600
X67300Y-39600
X67300Y-40600
X67300Y-41600
X67300Y-42600
X67300Y-43600
X67300Y-44600
X67300Y-45600
X67300Y-46600
X67300Y-47600
X67300Y-48600
X67300Y-49600
X67300Y-50600
T6
X37350Y-32070
X37350Y-33070
X37350Y-34070
X37350Y-35070
X37350Y-36070
X37350Y-37070
X37350Y-38070
X37350Y-39070
X37350Y-40070
X37350Y-41070
X37350Y-42070
X37350Y-43070
X37350Y-44070
X37350Y-45070
X37350Y-46070
X37350Y-47070
X37350Y-48070
X37350Y-49070
X37350Y-50070
X37350Y-51090
X39846Y-49570
X40846Y-49570
X43350Y-32070
X43350Y-33070
X43350Y-34070
X43350Y-35070
X43350Y-36070
X43350Y-37070
X43350Y-38070
X43350Y-39070
X43350Y-40070
X43350Y-41070
X43350Y-42070
X43350Y-43070
X43350Y-44070
X43350Y-45070
X43350Y-46070
X43350Y-47070
X43350Y-48070
X43350Y-49070
X43350Y-50070
X43350Y-51070
X47050Y-32070
X47050Y-33070
X47050Y-34070
X47050Y-35070
X47050Y-36070
X47050Y-37070
X47050Y-38070
X47050Y-39070
X47050Y-40070
X47050Y-41070
X47050Y-42070
X47050Y-43070
X47050Y-44070
X47050Y-45070
X47050Y-46070
X47050Y-47070
X47050Y-48070
X47050Y-49070
X47050Y-50070
X47050Y-51090
X49546Y-49570
X50546Y-49570
X53050Y-32070
X53050Y-33070
X53050Y-34070
X53050Y-35070
X53050Y-36070
X53050Y-37070
X53050Y-38070
X53050Y-39070
X53050Y-40070
X53050Y-41070
X53050Y-42070
X53050Y-43070
X53050Y-44070
X53050Y-45070
X53050Y-46070
X53050Y-47070
X53050Y-48070
X53050Y-49070
X53050Y-50070
X53050Y-51070
T7
X34050Y-16600
X34050Y-52650
X70000Y-16600
X70000Y-52650
T0
M30
