G04 #@! TF.FileFunction,Copper,L2,Bot,Signal*
%FSLAX46Y46*%
G04 Gerber Fmt 4.6, Leading zero omitted, Abs format (unit mm)*
G04 Created by KiCad (PCBNEW 4.0.2-stable) date 12/13/2018 9:00:57 AM*
%MOMM*%
G01*
G04 APERTURE LIST*
%ADD10C,0.100000*%
%ADD11R,1.700000X1.700000*%
%ADD12O,1.700000X1.700000*%
%ADD13C,1.700000*%
%ADD14C,1.600000*%
%ADD15O,1.600000X1.600000*%
%ADD16R,1.800000X1.800000*%
%ADD17C,1.800000*%
%ADD18R,1.600000X1.600000*%
%ADD19O,1.050000X1.500000*%
%ADD20R,1.050000X1.500000*%
%ADD21R,2.250000X1.727200*%
%ADD22O,2.250000X1.727200*%
%ADD23O,1.727200X1.727200*%
%ADD24C,0.600000*%
%ADD25C,0.300000*%
%ADD26C,0.400000*%
%ADD27C,1.000000*%
%ADD28C,0.500000*%
%ADD29C,0.254000*%
G04 APERTURE END LIST*
D10*
D11*
X108966000Y-63246000D03*
D12*
X108966000Y-60706000D03*
D11*
X134620000Y-41402000D03*
D12*
X137160000Y-41402000D03*
X139700000Y-41402000D03*
X142240000Y-41402000D03*
X144780000Y-41402000D03*
X147320000Y-41402000D03*
X150495000Y-85344000D03*
X147955000Y-87884000D03*
X150495000Y-87884000D03*
X147955000Y-90424000D03*
X150495000Y-90424000D03*
X147955000Y-92964000D03*
X150495000Y-92964000D03*
X147955000Y-95504000D03*
X150495000Y-95504000D03*
X147955000Y-98044000D03*
X150495000Y-98044000D03*
X147955000Y-100584000D03*
X150495000Y-100584000D03*
X147955000Y-103124000D03*
X150495000Y-103124000D03*
X147955000Y-105664000D03*
X150495000Y-105664000D03*
X147955000Y-108204000D03*
X150495000Y-108204000D03*
X147955000Y-110744000D03*
X150495000Y-110744000D03*
X147955000Y-113284000D03*
X150495000Y-113284000D03*
X147955000Y-115824000D03*
X150495000Y-115824000D03*
X147955000Y-118364000D03*
X150495000Y-118364000D03*
X147955000Y-120904000D03*
X150495000Y-120904000D03*
X147955000Y-123444000D03*
X150495000Y-123444000D03*
X147955000Y-125984000D03*
X150495000Y-125984000D03*
X147955000Y-128524000D03*
X150495000Y-128524000D03*
X147955000Y-131064000D03*
X150495000Y-131064000D03*
D13*
X168402000Y-80264000D03*
D12*
X170942000Y-80264000D03*
X168402000Y-82804000D03*
X170942000Y-82804000D03*
X168402000Y-85344000D03*
X170942000Y-85344000D03*
X168402000Y-87884000D03*
X170942000Y-87884000D03*
X168402000Y-90424000D03*
X170942000Y-90424000D03*
X168402000Y-92964000D03*
X170942000Y-92964000D03*
X168402000Y-95504000D03*
X170942000Y-95504000D03*
X168402000Y-98044000D03*
X170942000Y-98044000D03*
X168402000Y-100584000D03*
X170942000Y-100584000D03*
X168402000Y-103124000D03*
X170942000Y-103124000D03*
X168402000Y-105664000D03*
X170942000Y-105664000D03*
X168402000Y-108204000D03*
X170942000Y-108204000D03*
X168402000Y-110744000D03*
X170942000Y-110744000D03*
X168402000Y-113284000D03*
X170942000Y-113284000D03*
X168402000Y-115824000D03*
X170942000Y-115824000D03*
X168402000Y-118364000D03*
X170942000Y-118364000D03*
X168402000Y-120904000D03*
X170942000Y-120904000D03*
X168402000Y-123444000D03*
X170942000Y-123444000D03*
X168402000Y-125984000D03*
X170942000Y-125984000D03*
X168402000Y-128524000D03*
X170942000Y-128524000D03*
X168402000Y-131064000D03*
X155575000Y-80264000D03*
X153035000Y-82804000D03*
X155575000Y-82804000D03*
X153035000Y-85344000D03*
X155575000Y-85344000D03*
X153035000Y-87884000D03*
X155575000Y-87884000D03*
X153035000Y-90424000D03*
X155575000Y-90424000D03*
X153035000Y-92964000D03*
X155575000Y-92964000D03*
X153035000Y-95504000D03*
X155575000Y-95504000D03*
X153035000Y-98044000D03*
X155575000Y-98044000D03*
X153035000Y-100584000D03*
X155575000Y-100584000D03*
X153035000Y-103124000D03*
X155575000Y-103124000D03*
X153035000Y-105664000D03*
X155575000Y-105664000D03*
X153035000Y-108204000D03*
X155575000Y-108204000D03*
X153035000Y-110744000D03*
X155575000Y-110744000D03*
X153035000Y-113284000D03*
X155575000Y-113284000D03*
X153035000Y-115824000D03*
X155575000Y-115824000D03*
X153035000Y-118364000D03*
X155575000Y-118364000D03*
X153035000Y-120904000D03*
X155575000Y-120904000D03*
X153035000Y-123444000D03*
X155575000Y-123444000D03*
X153035000Y-125984000D03*
X155575000Y-125984000D03*
X153035000Y-128524000D03*
X155575000Y-128524000D03*
X153035000Y-131064000D03*
X155575000Y-131064000D03*
D13*
X163195000Y-80264000D03*
D12*
X165735000Y-80264000D03*
X163195000Y-82804000D03*
X165735000Y-82804000D03*
X163195000Y-85344000D03*
X165735000Y-85344000D03*
X163195000Y-87884000D03*
X165735000Y-87884000D03*
X163195000Y-90424000D03*
X165735000Y-90424000D03*
X163195000Y-92964000D03*
X165735000Y-92964000D03*
X163195000Y-95504000D03*
X165735000Y-95504000D03*
X163195000Y-98044000D03*
X165735000Y-98044000D03*
X163195000Y-100584000D03*
X165735000Y-100584000D03*
X163195000Y-103124000D03*
X165735000Y-103124000D03*
X163195000Y-105664000D03*
X165735000Y-105664000D03*
X163195000Y-108204000D03*
X165735000Y-108204000D03*
X163195000Y-110744000D03*
X165735000Y-110744000D03*
X163195000Y-113284000D03*
X165735000Y-113284000D03*
X163195000Y-115824000D03*
X165735000Y-115824000D03*
X163195000Y-118364000D03*
X165735000Y-118364000D03*
X163195000Y-120904000D03*
X165735000Y-120904000D03*
X163195000Y-123444000D03*
X165735000Y-123444000D03*
X163195000Y-125984000D03*
X165735000Y-125984000D03*
X163195000Y-128524000D03*
X165735000Y-128524000D03*
X163195000Y-131064000D03*
X165735000Y-131064000D03*
D13*
X158115000Y-80264000D03*
D12*
X160655000Y-80264000D03*
X158115000Y-82804000D03*
X160655000Y-82804000D03*
X158115000Y-85344000D03*
X160655000Y-85344000D03*
X158115000Y-87884000D03*
X160655000Y-87884000D03*
X158115000Y-90424000D03*
X160655000Y-90424000D03*
X158115000Y-92964000D03*
X160655000Y-92964000D03*
X158115000Y-95504000D03*
X160655000Y-95504000D03*
X158115000Y-98044000D03*
X160655000Y-98044000D03*
X158115000Y-100584000D03*
X160655000Y-100584000D03*
X158115000Y-103124000D03*
X160655000Y-103124000D03*
X158115000Y-105664000D03*
X160655000Y-105664000D03*
X158115000Y-108204000D03*
X160655000Y-108204000D03*
X158115000Y-110744000D03*
X160655000Y-110744000D03*
X158115000Y-113284000D03*
X160655000Y-113284000D03*
X158115000Y-115824000D03*
X160655000Y-115824000D03*
X158115000Y-118364000D03*
X160655000Y-118364000D03*
X158115000Y-120904000D03*
X160655000Y-120904000D03*
X158115000Y-123444000D03*
X160655000Y-123444000D03*
X158115000Y-125984000D03*
X160655000Y-125984000D03*
X158115000Y-128524000D03*
X160655000Y-128524000D03*
X158115000Y-131064000D03*
X160655000Y-131064000D03*
D11*
X101727000Y-41402000D03*
D12*
X104267000Y-41402000D03*
X106807000Y-41402000D03*
X109347000Y-41402000D03*
X111887000Y-41402000D03*
X114427000Y-41402000D03*
D14*
X148082000Y-59690000D03*
D15*
X148082000Y-67190000D03*
D14*
X147447000Y-71882000D03*
D15*
X154947000Y-71882000D03*
D14*
X96012000Y-54102000D03*
D15*
X96012000Y-61602000D03*
D14*
X101854000Y-76073000D03*
D15*
X101854000Y-68573000D03*
D16*
X166370000Y-43180000D03*
D17*
X166370000Y-45720000D03*
D16*
X86360000Y-87630000D03*
D17*
X86360000Y-85090000D03*
D16*
X86360000Y-81915000D03*
D17*
X86360000Y-79375000D03*
D18*
X120650000Y-50800000D03*
D15*
X128270000Y-68580000D03*
X120650000Y-53340000D03*
X128270000Y-66040000D03*
X120650000Y-55880000D03*
X128270000Y-63500000D03*
X120650000Y-58420000D03*
X128270000Y-60960000D03*
X120650000Y-60960000D03*
X128270000Y-58420000D03*
X120650000Y-63500000D03*
X128270000Y-55880000D03*
X120650000Y-66040000D03*
X128270000Y-53340000D03*
X120650000Y-68580000D03*
X128270000Y-50800000D03*
D11*
X85725000Y-99060000D03*
X86106000Y-116840000D03*
D12*
X86106000Y-114300000D03*
D11*
X122809000Y-41402000D03*
D12*
X125349000Y-41402000D03*
D11*
X158242000Y-41402000D03*
D12*
X155702000Y-41402000D03*
D11*
X85725000Y-93345000D03*
X86106000Y-107315000D03*
D12*
X86106000Y-104775000D03*
D19*
X132080000Y-73533000D03*
X130810000Y-73533000D03*
D20*
X133350000Y-73533000D03*
D19*
X138430000Y-73533000D03*
X137160000Y-73533000D03*
D20*
X139700000Y-73533000D03*
D19*
X116332000Y-73533000D03*
X117602000Y-73533000D03*
D20*
X115062000Y-73533000D03*
D19*
X110617000Y-73533000D03*
X111887000Y-73533000D03*
D20*
X109347000Y-73533000D03*
D14*
X156210000Y-46355000D03*
D15*
X146050000Y-46355000D03*
D14*
X159131000Y-56007000D03*
D15*
X159131000Y-66167000D03*
D14*
X165608000Y-56007000D03*
D15*
X165608000Y-66167000D03*
D14*
X153162000Y-66167000D03*
D15*
X153162000Y-56007000D03*
D14*
X170180000Y-71755000D03*
D15*
X160020000Y-71755000D03*
D14*
X83820000Y-51435000D03*
D15*
X83820000Y-61595000D03*
D14*
X91948000Y-49022000D03*
D15*
X102108000Y-49022000D03*
D14*
X101854000Y-55245000D03*
D15*
X101854000Y-65405000D03*
D14*
X88646000Y-61595000D03*
D15*
X88646000Y-51435000D03*
D14*
X95885000Y-65151000D03*
D15*
X95885000Y-75311000D03*
D14*
X86360000Y-76835000D03*
D15*
X86360000Y-66675000D03*
D21*
X110109000Y-129717800D03*
D22*
X110109000Y-127177800D03*
X110109000Y-124637800D03*
X110109000Y-122097800D03*
X110109000Y-119557800D03*
X110109000Y-117017800D03*
X110109000Y-114477800D03*
X110109000Y-111937800D03*
X110109000Y-109397800D03*
X110109000Y-106857800D03*
X110109000Y-104317800D03*
X110109000Y-101777800D03*
X110109000Y-99237800D03*
X110109000Y-96697800D03*
X110109000Y-94157800D03*
X110109000Y-91617800D03*
X110109000Y-89077800D03*
X110109000Y-86537800D03*
X110109000Y-83997800D03*
X110109000Y-81457800D03*
X94869000Y-81457800D03*
X94869000Y-83997800D03*
X94869000Y-86537800D03*
X94869000Y-89077800D03*
X94869000Y-91617800D03*
X94869000Y-94157800D03*
X94869000Y-96697800D03*
X94869000Y-99237800D03*
X94869000Y-101777800D03*
X94869000Y-104317800D03*
X94869000Y-106857800D03*
X94869000Y-109397800D03*
X94869000Y-111937800D03*
X94869000Y-114477800D03*
X94869000Y-117017800D03*
X94869000Y-119557800D03*
X94869000Y-122097800D03*
X94869000Y-124637800D03*
X94869000Y-127177800D03*
X94869000Y-129768600D03*
D23*
X101209000Y-125907800D03*
X103749000Y-125907800D03*
D21*
X134747000Y-129717800D03*
D22*
X134747000Y-127177800D03*
X134747000Y-124637800D03*
X134747000Y-122097800D03*
X134747000Y-119557800D03*
X134747000Y-117017800D03*
X134747000Y-114477800D03*
X134747000Y-111937800D03*
X134747000Y-109397800D03*
X134747000Y-106857800D03*
X134747000Y-104317800D03*
X134747000Y-101777800D03*
X134747000Y-99237800D03*
X134747000Y-96697800D03*
X134747000Y-94157800D03*
X134747000Y-91617800D03*
X134747000Y-89077800D03*
X134747000Y-86537800D03*
X134747000Y-83997800D03*
X134747000Y-81457800D03*
X119507000Y-81457800D03*
X119507000Y-83997800D03*
X119507000Y-86537800D03*
X119507000Y-89077800D03*
X119507000Y-91617800D03*
X119507000Y-94157800D03*
X119507000Y-96697800D03*
X119507000Y-99237800D03*
X119507000Y-101777800D03*
X119507000Y-104317800D03*
X119507000Y-106857800D03*
X119507000Y-109397800D03*
X119507000Y-111937800D03*
X119507000Y-114477800D03*
X119507000Y-117017800D03*
X119507000Y-119557800D03*
X119507000Y-122097800D03*
X119507000Y-124637800D03*
X119507000Y-127177800D03*
X119507000Y-129768600D03*
D23*
X125847000Y-125907800D03*
X128387000Y-125907800D03*
D11*
X138938000Y-63246000D03*
D12*
X138938000Y-60706000D03*
D11*
X159385000Y-76708000D03*
D12*
X156845000Y-76708000D03*
D11*
X91948000Y-72390000D03*
D12*
X91948000Y-69850000D03*
D24*
X170434000Y-50800000D03*
X169291000Y-44831000D03*
X169545000Y-50038000D03*
X169545000Y-50800000D03*
X170434000Y-50038000D03*
X134239000Y-49530000D03*
X135255000Y-49530000D03*
X136271000Y-49530000D03*
X137160000Y-48895000D03*
X135890000Y-48768000D03*
X134747000Y-48768000D03*
X135763000Y-47879000D03*
X136779000Y-47879000D03*
X137541000Y-48260000D03*
X129667000Y-57531000D03*
X130937000Y-57531000D03*
X130937000Y-58801000D03*
X129667000Y-58801000D03*
X129667000Y-60071000D03*
X130937000Y-60071000D03*
X130937000Y-61341000D03*
X129667000Y-61341000D03*
X119126000Y-59563000D03*
X118110000Y-59563000D03*
X117094000Y-59563000D03*
X116078000Y-59563000D03*
X115062000Y-59563000D03*
X119126000Y-58674000D03*
X118110000Y-58674000D03*
X117094000Y-58674000D03*
X116078000Y-58674000D03*
X115062000Y-58674000D03*
X115062000Y-57658000D03*
X116078000Y-57658000D03*
X117094000Y-57658000D03*
X118110000Y-57658000D03*
X119126000Y-57658000D03*
X116078000Y-61595000D03*
X117094000Y-61595000D03*
X118110000Y-61595000D03*
X119126000Y-61595000D03*
X119126000Y-60452000D03*
X118110000Y-60452000D03*
X117094000Y-60452000D03*
X116078000Y-60452000D03*
X115062000Y-60452000D03*
X141478000Y-58293000D03*
X126873000Y-128905000D03*
X106680000Y-83947000D03*
X137541000Y-92837000D03*
X91948000Y-118618000D03*
X91948000Y-112649000D03*
X126238000Y-118745000D03*
X173609000Y-45974000D03*
X111125000Y-79629000D03*
X147574000Y-49784000D03*
X156083000Y-49149000D03*
X141351000Y-116205000D03*
X139319000Y-88011000D03*
X128778000Y-78867000D03*
X144399000Y-82296000D03*
X104140000Y-57150000D03*
X135255000Y-70866000D03*
X143383000Y-82042000D03*
D25*
X170434000Y-50800000D02*
X170434000Y-50038000D01*
X169545000Y-50800000D02*
X169545000Y-50038000D01*
D26*
X134239000Y-49530000D02*
X135255000Y-49530000D01*
X136271000Y-49530000D02*
X136906000Y-48895000D01*
X136906000Y-48895000D02*
X137160000Y-48895000D01*
X135890000Y-48768000D02*
X134747000Y-48768000D01*
X135763000Y-47879000D02*
X136779000Y-47879000D01*
X129667000Y-57531000D02*
X130937000Y-57531000D01*
X130937000Y-58801000D02*
X129667000Y-58801000D01*
X129667000Y-60071000D02*
X130937000Y-60071000D01*
X130937000Y-61341000D02*
X129667000Y-61341000D01*
X115062000Y-59563000D02*
X115062000Y-60452000D01*
X118110000Y-59563000D02*
X117094000Y-59563000D01*
X116078000Y-59563000D02*
X115062000Y-59563000D01*
X119126000Y-58674000D02*
X118110000Y-58674000D01*
X116078000Y-58674000D02*
X117094000Y-58674000D01*
X115062000Y-57658000D02*
X115062000Y-58674000D01*
X117094000Y-57658000D02*
X116078000Y-57658000D01*
X119126000Y-57658000D02*
X118110000Y-57658000D01*
X119126000Y-58674000D02*
X119126000Y-59563000D01*
X117094000Y-61595000D02*
X116078000Y-61595000D01*
X119126000Y-61595000D02*
X118110000Y-61595000D01*
X118110000Y-60452000D02*
X119126000Y-60452000D01*
X116078000Y-60452000D02*
X117094000Y-60452000D01*
D25*
X156845000Y-76708000D02*
X153162000Y-76708000D01*
X153162000Y-76708000D02*
X149352000Y-72898000D01*
X148082000Y-67190000D02*
X149352000Y-68460000D01*
X137541000Y-91567000D02*
X137541000Y-92837000D01*
X138176000Y-90932000D02*
X137541000Y-91567000D01*
X138176000Y-84074000D02*
X138176000Y-90932000D01*
X149352000Y-72898000D02*
X138176000Y-84074000D01*
X149352000Y-68460000D02*
X149352000Y-72898000D01*
X159385000Y-76708000D02*
X159385000Y-72390000D01*
X159385000Y-72390000D02*
X160020000Y-71755000D01*
X91948000Y-72390000D02*
X91948000Y-74168000D01*
X93091000Y-75311000D02*
X95885000Y-75311000D01*
X91948000Y-74168000D02*
X93091000Y-75311000D01*
X85725000Y-99060000D02*
X90678000Y-99060000D01*
X106857800Y-122097800D02*
X110109000Y-122097800D01*
X105537000Y-120777000D02*
X106857800Y-122097800D01*
X93218000Y-120777000D02*
X105537000Y-120777000D01*
X91948000Y-119507000D02*
X93218000Y-120777000D01*
X91948000Y-118618000D02*
X91948000Y-119507000D01*
X91948000Y-100330000D02*
X91948000Y-112649000D01*
X90678000Y-99060000D02*
X91948000Y-100330000D01*
D26*
X86360000Y-81915000D02*
X88011000Y-80264000D01*
X86360000Y-74549000D02*
X86360000Y-66675000D01*
X88011000Y-76200000D02*
X86360000Y-74549000D01*
X88011000Y-80264000D02*
X88011000Y-76200000D01*
D25*
X85725000Y-93345000D02*
X89154000Y-93345000D01*
X126238000Y-113538000D02*
X126238000Y-118745000D01*
X123317000Y-110617000D02*
X126238000Y-113538000D01*
X93345000Y-110617000D02*
X123317000Y-110617000D01*
X92837000Y-110109000D02*
X93345000Y-110617000D01*
X92837000Y-97028000D02*
X92837000Y-110109000D01*
X89154000Y-93345000D02*
X92837000Y-97028000D01*
D26*
X85725000Y-93345000D02*
X85725000Y-90805000D01*
X85090000Y-79375000D02*
X86360000Y-79375000D01*
X83820000Y-80645000D02*
X85090000Y-79375000D01*
X83820000Y-88900000D02*
X83820000Y-80645000D01*
X85725000Y-90805000D02*
X83820000Y-88900000D01*
D27*
X158242000Y-48133000D02*
X158242000Y-41402000D01*
X173609000Y-45974000D02*
X171450000Y-48133000D01*
X171450000Y-48133000D02*
X158242000Y-48133000D01*
D26*
X111887000Y-78867000D02*
X111887000Y-73533000D01*
X111125000Y-79629000D02*
X111887000Y-78867000D01*
D25*
X94869000Y-124637800D02*
X96189800Y-123317000D01*
X116255800Y-124637800D02*
X119507000Y-124637800D01*
X114935000Y-123317000D02*
X116255800Y-124637800D01*
X96189800Y-123317000D02*
X114935000Y-123317000D01*
D28*
X120650000Y-50800000D02*
X128270000Y-50800000D01*
X158242000Y-48133000D02*
X155575000Y-50800000D01*
X155575000Y-50800000D02*
X128270000Y-50800000D01*
D27*
X111887000Y-41402000D02*
X111887000Y-45593000D01*
X115443000Y-63500000D02*
X120650000Y-63500000D01*
X113792000Y-61849000D02*
X115443000Y-63500000D01*
X113792000Y-47498000D02*
X113792000Y-61849000D01*
X111887000Y-45593000D02*
X113792000Y-47498000D01*
D28*
X139700000Y-73533000D02*
X139700000Y-70739000D01*
X130810000Y-53340000D02*
X128270000Y-53340000D01*
X132461000Y-54991000D02*
X130810000Y-53340000D01*
X132461000Y-63500000D02*
X132461000Y-54991000D01*
X139700000Y-70739000D02*
X132461000Y-63500000D01*
D25*
X146050000Y-46355000D02*
X143510000Y-43815000D01*
X122809000Y-40259000D02*
X122809000Y-41402000D01*
X124206000Y-38862000D02*
X122809000Y-40259000D01*
X142240000Y-38862000D02*
X124206000Y-38862000D01*
X143510000Y-40132000D02*
X142240000Y-38862000D01*
X143510000Y-43815000D02*
X143510000Y-40132000D01*
D28*
X137160000Y-41402000D02*
X137160000Y-45847000D01*
X141097000Y-49784000D02*
X147574000Y-49784000D01*
X137160000Y-45847000D02*
X141097000Y-49784000D01*
X139700000Y-41402000D02*
X139700000Y-47397048D01*
X155956000Y-49022000D02*
X156083000Y-49149000D01*
X141324952Y-49022000D02*
X155956000Y-49022000D01*
X139700000Y-47397048D02*
X141324952Y-49022000D01*
D25*
X147320000Y-41402000D02*
X149606000Y-41402000D01*
X113461800Y-119557800D02*
X110109000Y-119557800D01*
X117221000Y-123317000D02*
X113461800Y-119557800D01*
X121158000Y-123317000D02*
X117221000Y-123317000D01*
X122809000Y-124968000D02*
X121158000Y-123317000D01*
X122809000Y-126873000D02*
X122809000Y-124968000D01*
X132969000Y-137033000D02*
X122809000Y-126873000D01*
X167513000Y-137033000D02*
X132969000Y-137033000D01*
X180086000Y-124460000D02*
X167513000Y-137033000D01*
X180086000Y-50800000D02*
X180086000Y-124460000D01*
X167894000Y-38608000D02*
X180086000Y-50800000D01*
X152400000Y-38608000D02*
X167894000Y-38608000D01*
X149606000Y-41402000D02*
X152400000Y-38608000D01*
X94869000Y-117017800D02*
X106756200Y-117017800D01*
X114604800Y-117017800D02*
X119507000Y-117017800D01*
X113284000Y-115697000D02*
X114604800Y-117017800D01*
X108077000Y-115697000D02*
X113284000Y-115697000D01*
X106756200Y-117017800D02*
X108077000Y-115697000D01*
D26*
X86106000Y-116840000D02*
X94691200Y-116840000D01*
X94691200Y-116840000D02*
X94869000Y-117017800D01*
X86106000Y-116840000D02*
X83820000Y-116840000D01*
X84455000Y-107315000D02*
X86106000Y-107315000D01*
X83185000Y-108585000D02*
X84455000Y-107315000D01*
X83185000Y-116205000D02*
X83185000Y-108585000D01*
X83820000Y-116840000D02*
X83185000Y-116205000D01*
D25*
X94869000Y-114477800D02*
X106883200Y-114477800D01*
X115747800Y-114477800D02*
X119507000Y-114477800D01*
X114427000Y-113157000D02*
X115747800Y-114477800D01*
X108204000Y-113157000D02*
X114427000Y-113157000D01*
X106883200Y-114477800D02*
X108204000Y-113157000D01*
D26*
X86106000Y-114300000D02*
X94691200Y-114300000D01*
X94691200Y-114300000D02*
X94869000Y-114477800D01*
D25*
X137998200Y-119557800D02*
X134747000Y-119557800D01*
X141351000Y-116205000D02*
X137998200Y-119557800D01*
X132080000Y-73533000D02*
X132080000Y-78486000D01*
X112014000Y-94792800D02*
X110109000Y-96697800D01*
X112014000Y-94107000D02*
X112014000Y-94792800D01*
X118364000Y-87757000D02*
X112014000Y-94107000D01*
X122809000Y-87757000D02*
X118364000Y-87757000D01*
X132080000Y-78486000D02*
X122809000Y-87757000D01*
X138430000Y-73533000D02*
X138430000Y-81407000D01*
X111328200Y-99237800D02*
X110109000Y-99237800D01*
X112776000Y-97790000D02*
X111328200Y-99237800D01*
X112776000Y-94869000D02*
X112776000Y-97790000D01*
X117348000Y-90297000D02*
X112776000Y-94869000D01*
X136017000Y-90297000D02*
X117348000Y-90297000D01*
X136652000Y-89662000D02*
X136017000Y-90297000D01*
X136652000Y-83185000D02*
X136652000Y-89662000D01*
X138430000Y-81407000D02*
X136652000Y-83185000D01*
X116332000Y-73533000D02*
X116332000Y-76327000D01*
X137617200Y-96697800D02*
X134747000Y-96697800D01*
X139319000Y-94996000D02*
X137617200Y-96697800D01*
X139319000Y-88011000D02*
X139319000Y-94996000D01*
X118872000Y-78867000D02*
X128778000Y-78867000D01*
X116332000Y-76327000D02*
X118872000Y-78867000D01*
X110617000Y-73533000D02*
X110617000Y-77343000D01*
X133045200Y-99237800D02*
X134747000Y-99237800D01*
X131826000Y-100457000D02*
X133045200Y-99237800D01*
X108966000Y-100457000D02*
X131826000Y-100457000D01*
X108077000Y-99568000D02*
X108966000Y-100457000D01*
X108077000Y-79883000D02*
X108077000Y-99568000D01*
X110617000Y-77343000D02*
X108077000Y-79883000D01*
D28*
X102108000Y-49022000D02*
X102108000Y-51435000D01*
X99822000Y-63373000D02*
X101854000Y-65405000D01*
X99822000Y-53721000D02*
X99822000Y-63373000D01*
X102108000Y-51435000D02*
X99822000Y-53721000D01*
D25*
X112445800Y-117017800D02*
X110109000Y-117017800D01*
X116205000Y-120777000D02*
X112445800Y-117017800D01*
X137795000Y-120777000D02*
X116205000Y-120777000D01*
X144399000Y-114173000D02*
X137795000Y-120777000D01*
X144399000Y-91948000D02*
X144399000Y-114173000D01*
X144399000Y-82296000D02*
X144399000Y-91948000D01*
X134747000Y-117017800D02*
X139268200Y-117017800D01*
X104140000Y-64516000D02*
X104140000Y-57150000D01*
X110490000Y-70866000D02*
X104140000Y-64516000D01*
X118999000Y-70866000D02*
X110490000Y-70866000D01*
X135255000Y-70866000D02*
X118999000Y-70866000D01*
X143383000Y-112903000D02*
X143383000Y-82042000D01*
X139268200Y-117017800D02*
X143383000Y-112903000D01*
D29*
G36*
X83229566Y-117430434D02*
X83500460Y-117611440D01*
X83820000Y-117675000D01*
X84608560Y-117675000D01*
X84608560Y-117690000D01*
X84652838Y-117925317D01*
X84791910Y-118141441D01*
X85004110Y-118286431D01*
X85256000Y-118337440D01*
X86956000Y-118337440D01*
X87191317Y-118293162D01*
X87407441Y-118154090D01*
X87552431Y-117941890D01*
X87603440Y-117690000D01*
X87603440Y-117675000D01*
X93244528Y-117675000D01*
X93513450Y-118077470D01*
X93828231Y-118287800D01*
X93513450Y-118498130D01*
X93188594Y-118984311D01*
X93080234Y-119529076D01*
X92733000Y-119181842D01*
X92733000Y-119155506D01*
X92740192Y-119148327D01*
X92882838Y-118804799D01*
X92883162Y-118432833D01*
X92741117Y-118089057D01*
X92478327Y-117825808D01*
X92134799Y-117683162D01*
X91762833Y-117682838D01*
X91419057Y-117824883D01*
X91155808Y-118087673D01*
X91013162Y-118431201D01*
X91012838Y-118803167D01*
X91154883Y-119146943D01*
X91163000Y-119155074D01*
X91163000Y-119507000D01*
X91222755Y-119807407D01*
X91392921Y-120062079D01*
X92662921Y-121332079D01*
X92917593Y-121502245D01*
X93182502Y-121554939D01*
X93074520Y-122097800D01*
X93188594Y-122671289D01*
X93513450Y-123157470D01*
X93828231Y-123367800D01*
X93513450Y-123578130D01*
X93188594Y-124064311D01*
X93074520Y-124637800D01*
X93188594Y-125211289D01*
X93513450Y-125697470D01*
X93999631Y-126022326D01*
X94573120Y-126136400D01*
X95164880Y-126136400D01*
X95738369Y-126022326D01*
X95953707Y-125878441D01*
X99710400Y-125878441D01*
X99710400Y-125937159D01*
X99824474Y-126510648D01*
X100149330Y-126996829D01*
X100635511Y-127321685D01*
X101209000Y-127435759D01*
X101782489Y-127321685D01*
X102268670Y-126996829D01*
X102479000Y-126682048D01*
X102689330Y-126996829D01*
X103175511Y-127321685D01*
X103749000Y-127435759D01*
X104322489Y-127321685D01*
X104808670Y-126996829D01*
X105133526Y-126510648D01*
X105247600Y-125937159D01*
X105247600Y-125878441D01*
X105133526Y-125304952D01*
X104808670Y-124818771D01*
X104322489Y-124493915D01*
X103749000Y-124379841D01*
X103175511Y-124493915D01*
X102689330Y-124818771D01*
X102479000Y-125133552D01*
X102268670Y-124818771D01*
X101782489Y-124493915D01*
X101209000Y-124379841D01*
X100635511Y-124493915D01*
X100149330Y-124818771D01*
X99824474Y-125304952D01*
X99710400Y-125878441D01*
X95953707Y-125878441D01*
X96224550Y-125697470D01*
X96549406Y-125211289D01*
X96663480Y-124637800D01*
X96556903Y-124102000D01*
X108421097Y-124102000D01*
X108314520Y-124637800D01*
X108428594Y-125211289D01*
X108753450Y-125697470D01*
X109068231Y-125907800D01*
X108753450Y-126118130D01*
X108428594Y-126604311D01*
X108314520Y-127177800D01*
X108428594Y-127751289D01*
X108753450Y-128237470D01*
X108768247Y-128247357D01*
X108748683Y-128251038D01*
X108532559Y-128390110D01*
X108387569Y-128602310D01*
X108336560Y-128854200D01*
X108336560Y-130581400D01*
X108380838Y-130816717D01*
X108519910Y-131032841D01*
X108732110Y-131177831D01*
X108984000Y-131228840D01*
X111234000Y-131228840D01*
X111469317Y-131184562D01*
X111685441Y-131045490D01*
X111830431Y-130833290D01*
X111881440Y-130581400D01*
X111881440Y-129768600D01*
X117712520Y-129768600D01*
X117826594Y-130342089D01*
X118151450Y-130828270D01*
X118637631Y-131153126D01*
X119211120Y-131267200D01*
X119802880Y-131267200D01*
X120376369Y-131153126D01*
X120862550Y-130828270D01*
X121187406Y-130342089D01*
X121301480Y-129768600D01*
X121187406Y-129195111D01*
X120862550Y-128708930D01*
X120376369Y-128384074D01*
X119802880Y-128270000D01*
X119211120Y-128270000D01*
X118637631Y-128384074D01*
X118151450Y-128708930D01*
X117826594Y-129195111D01*
X117712520Y-129768600D01*
X111881440Y-129768600D01*
X111881440Y-128854200D01*
X111837162Y-128618883D01*
X111698090Y-128402759D01*
X111485890Y-128257769D01*
X111446199Y-128249731D01*
X111464550Y-128237470D01*
X111789406Y-127751289D01*
X111903480Y-127177800D01*
X111789406Y-126604311D01*
X111464550Y-126118130D01*
X111149769Y-125907800D01*
X111464550Y-125697470D01*
X111789406Y-125211289D01*
X111903480Y-124637800D01*
X111796903Y-124102000D01*
X114609842Y-124102000D01*
X115700721Y-125192879D01*
X115955393Y-125363045D01*
X116255800Y-125422800D01*
X117967921Y-125422800D01*
X118151450Y-125697470D01*
X118637631Y-126022326D01*
X119211120Y-126136400D01*
X119802880Y-126136400D01*
X120376369Y-126022326D01*
X120862550Y-125697470D01*
X121187406Y-125211289D01*
X121301480Y-124637800D01*
X121284803Y-124553961D01*
X122024000Y-125293158D01*
X122024000Y-126873000D01*
X122083755Y-127173407D01*
X122253921Y-127428079D01*
X132062842Y-137237000D01*
X84903467Y-137237000D01*
X84082658Y-137073731D01*
X83444003Y-136646995D01*
X83017269Y-136008343D01*
X82854000Y-135187533D01*
X82854000Y-134203325D01*
X84101587Y-134203325D01*
X84463916Y-135080229D01*
X85134242Y-135751726D01*
X86010513Y-136115585D01*
X86959325Y-136116413D01*
X87836229Y-135754084D01*
X88507726Y-135083758D01*
X88871585Y-134207487D01*
X88872413Y-133258675D01*
X88510084Y-132381771D01*
X87839758Y-131710274D01*
X86963487Y-131346415D01*
X86014675Y-131345587D01*
X85137771Y-131707916D01*
X84466274Y-132378242D01*
X84102415Y-133254513D01*
X84101587Y-134203325D01*
X82854000Y-134203325D01*
X82854000Y-129768600D01*
X93074520Y-129768600D01*
X93188594Y-130342089D01*
X93513450Y-130828270D01*
X93999631Y-131153126D01*
X94573120Y-131267200D01*
X95164880Y-131267200D01*
X95738369Y-131153126D01*
X96224550Y-130828270D01*
X96549406Y-130342089D01*
X96663480Y-129768600D01*
X96549406Y-129195111D01*
X96224550Y-128708930D01*
X95738369Y-128384074D01*
X95164880Y-128270000D01*
X94573120Y-128270000D01*
X93999631Y-128384074D01*
X93513450Y-128708930D01*
X93188594Y-129195111D01*
X93074520Y-129768600D01*
X82854000Y-129768600D01*
X82854000Y-117054868D01*
X83229566Y-117430434D01*
X83229566Y-117430434D01*
G37*
X83229566Y-117430434D02*
X83500460Y-117611440D01*
X83820000Y-117675000D01*
X84608560Y-117675000D01*
X84608560Y-117690000D01*
X84652838Y-117925317D01*
X84791910Y-118141441D01*
X85004110Y-118286431D01*
X85256000Y-118337440D01*
X86956000Y-118337440D01*
X87191317Y-118293162D01*
X87407441Y-118154090D01*
X87552431Y-117941890D01*
X87603440Y-117690000D01*
X87603440Y-117675000D01*
X93244528Y-117675000D01*
X93513450Y-118077470D01*
X93828231Y-118287800D01*
X93513450Y-118498130D01*
X93188594Y-118984311D01*
X93080234Y-119529076D01*
X92733000Y-119181842D01*
X92733000Y-119155506D01*
X92740192Y-119148327D01*
X92882838Y-118804799D01*
X92883162Y-118432833D01*
X92741117Y-118089057D01*
X92478327Y-117825808D01*
X92134799Y-117683162D01*
X91762833Y-117682838D01*
X91419057Y-117824883D01*
X91155808Y-118087673D01*
X91013162Y-118431201D01*
X91012838Y-118803167D01*
X91154883Y-119146943D01*
X91163000Y-119155074D01*
X91163000Y-119507000D01*
X91222755Y-119807407D01*
X91392921Y-120062079D01*
X92662921Y-121332079D01*
X92917593Y-121502245D01*
X93182502Y-121554939D01*
X93074520Y-122097800D01*
X93188594Y-122671289D01*
X93513450Y-123157470D01*
X93828231Y-123367800D01*
X93513450Y-123578130D01*
X93188594Y-124064311D01*
X93074520Y-124637800D01*
X93188594Y-125211289D01*
X93513450Y-125697470D01*
X93999631Y-126022326D01*
X94573120Y-126136400D01*
X95164880Y-126136400D01*
X95738369Y-126022326D01*
X95953707Y-125878441D01*
X99710400Y-125878441D01*
X99710400Y-125937159D01*
X99824474Y-126510648D01*
X100149330Y-126996829D01*
X100635511Y-127321685D01*
X101209000Y-127435759D01*
X101782489Y-127321685D01*
X102268670Y-126996829D01*
X102479000Y-126682048D01*
X102689330Y-126996829D01*
X103175511Y-127321685D01*
X103749000Y-127435759D01*
X104322489Y-127321685D01*
X104808670Y-126996829D01*
X105133526Y-126510648D01*
X105247600Y-125937159D01*
X105247600Y-125878441D01*
X105133526Y-125304952D01*
X104808670Y-124818771D01*
X104322489Y-124493915D01*
X103749000Y-124379841D01*
X103175511Y-124493915D01*
X102689330Y-124818771D01*
X102479000Y-125133552D01*
X102268670Y-124818771D01*
X101782489Y-124493915D01*
X101209000Y-124379841D01*
X100635511Y-124493915D01*
X100149330Y-124818771D01*
X99824474Y-125304952D01*
X99710400Y-125878441D01*
X95953707Y-125878441D01*
X96224550Y-125697470D01*
X96549406Y-125211289D01*
X96663480Y-124637800D01*
X96556903Y-124102000D01*
X108421097Y-124102000D01*
X108314520Y-124637800D01*
X108428594Y-125211289D01*
X108753450Y-125697470D01*
X109068231Y-125907800D01*
X108753450Y-126118130D01*
X108428594Y-126604311D01*
X108314520Y-127177800D01*
X108428594Y-127751289D01*
X108753450Y-128237470D01*
X108768247Y-128247357D01*
X108748683Y-128251038D01*
X108532559Y-128390110D01*
X108387569Y-128602310D01*
X108336560Y-128854200D01*
X108336560Y-130581400D01*
X108380838Y-130816717D01*
X108519910Y-131032841D01*
X108732110Y-131177831D01*
X108984000Y-131228840D01*
X111234000Y-131228840D01*
X111469317Y-131184562D01*
X111685441Y-131045490D01*
X111830431Y-130833290D01*
X111881440Y-130581400D01*
X111881440Y-129768600D01*
X117712520Y-129768600D01*
X117826594Y-130342089D01*
X118151450Y-130828270D01*
X118637631Y-131153126D01*
X119211120Y-131267200D01*
X119802880Y-131267200D01*
X120376369Y-131153126D01*
X120862550Y-130828270D01*
X121187406Y-130342089D01*
X121301480Y-129768600D01*
X121187406Y-129195111D01*
X120862550Y-128708930D01*
X120376369Y-128384074D01*
X119802880Y-128270000D01*
X119211120Y-128270000D01*
X118637631Y-128384074D01*
X118151450Y-128708930D01*
X117826594Y-129195111D01*
X117712520Y-129768600D01*
X111881440Y-129768600D01*
X111881440Y-128854200D01*
X111837162Y-128618883D01*
X111698090Y-128402759D01*
X111485890Y-128257769D01*
X111446199Y-128249731D01*
X111464550Y-128237470D01*
X111789406Y-127751289D01*
X111903480Y-127177800D01*
X111789406Y-126604311D01*
X111464550Y-126118130D01*
X111149769Y-125907800D01*
X111464550Y-125697470D01*
X111789406Y-125211289D01*
X111903480Y-124637800D01*
X111796903Y-124102000D01*
X114609842Y-124102000D01*
X115700721Y-125192879D01*
X115955393Y-125363045D01*
X116255800Y-125422800D01*
X117967921Y-125422800D01*
X118151450Y-125697470D01*
X118637631Y-126022326D01*
X119211120Y-126136400D01*
X119802880Y-126136400D01*
X120376369Y-126022326D01*
X120862550Y-125697470D01*
X121187406Y-125211289D01*
X121301480Y-124637800D01*
X121284803Y-124553961D01*
X122024000Y-125293158D01*
X122024000Y-126873000D01*
X122083755Y-127173407D01*
X122253921Y-127428079D01*
X132062842Y-137237000D01*
X84903467Y-137237000D01*
X84082658Y-137073731D01*
X83444003Y-136646995D01*
X83017269Y-136008343D01*
X82854000Y-135187533D01*
X82854000Y-134203325D01*
X84101587Y-134203325D01*
X84463916Y-135080229D01*
X85134242Y-135751726D01*
X86010513Y-136115585D01*
X86959325Y-136116413D01*
X87836229Y-135754084D01*
X88507726Y-135083758D01*
X88871585Y-134207487D01*
X88872413Y-133258675D01*
X88510084Y-132381771D01*
X87839758Y-131710274D01*
X86963487Y-131346415D01*
X86014675Y-131345587D01*
X85137771Y-131707916D01*
X84466274Y-132378242D01*
X84102415Y-133254513D01*
X84101587Y-134203325D01*
X82854000Y-134203325D01*
X82854000Y-129768600D01*
X93074520Y-129768600D01*
X93188594Y-130342089D01*
X93513450Y-130828270D01*
X93999631Y-131153126D01*
X94573120Y-131267200D01*
X95164880Y-131267200D01*
X95738369Y-131153126D01*
X96224550Y-130828270D01*
X96549406Y-130342089D01*
X96663480Y-129768600D01*
X96549406Y-129195111D01*
X96224550Y-128708930D01*
X95738369Y-128384074D01*
X95164880Y-128270000D01*
X94573120Y-128270000D01*
X93999631Y-128384074D01*
X93513450Y-128708930D01*
X93188594Y-129195111D01*
X93074520Y-129768600D01*
X82854000Y-129768600D01*
X82854000Y-117054868D01*
X83229566Y-117430434D01*
G36*
X179301000Y-51125158D02*
X179301000Y-124134842D01*
X167187842Y-136248000D01*
X133294158Y-136248000D01*
X123594000Y-126547842D01*
X123594000Y-125878441D01*
X124348400Y-125878441D01*
X124348400Y-125937159D01*
X124462474Y-126510648D01*
X124787330Y-126996829D01*
X125273511Y-127321685D01*
X125847000Y-127435759D01*
X126420489Y-127321685D01*
X126906670Y-126996829D01*
X127117000Y-126682048D01*
X127327330Y-126996829D01*
X127813511Y-127321685D01*
X128387000Y-127435759D01*
X128960489Y-127321685D01*
X129446670Y-126996829D01*
X129771526Y-126510648D01*
X129885600Y-125937159D01*
X129885600Y-125878441D01*
X129771526Y-125304952D01*
X129446670Y-124818771D01*
X128960489Y-124493915D01*
X128387000Y-124379841D01*
X127813511Y-124493915D01*
X127327330Y-124818771D01*
X127117000Y-125133552D01*
X126906670Y-124818771D01*
X126420489Y-124493915D01*
X125847000Y-124379841D01*
X125273511Y-124493915D01*
X124787330Y-124818771D01*
X124462474Y-125304952D01*
X124348400Y-125878441D01*
X123594000Y-125878441D01*
X123594000Y-124968005D01*
X123594001Y-124968000D01*
X123534245Y-124667594D01*
X123364079Y-124412921D01*
X121713079Y-122761921D01*
X121458407Y-122591755D01*
X121212939Y-122542928D01*
X121301480Y-122097800D01*
X121194903Y-121562000D01*
X133059097Y-121562000D01*
X132952520Y-122097800D01*
X133066594Y-122671289D01*
X133391450Y-123157470D01*
X133706231Y-123367800D01*
X133391450Y-123578130D01*
X133066594Y-124064311D01*
X132952520Y-124637800D01*
X133066594Y-125211289D01*
X133391450Y-125697470D01*
X133706231Y-125907800D01*
X133391450Y-126118130D01*
X133066594Y-126604311D01*
X132952520Y-127177800D01*
X133066594Y-127751289D01*
X133391450Y-128237470D01*
X133406247Y-128247357D01*
X133386683Y-128251038D01*
X133170559Y-128390110D01*
X133025569Y-128602310D01*
X132974560Y-128854200D01*
X132974560Y-130581400D01*
X133018838Y-130816717D01*
X133157910Y-131032841D01*
X133370110Y-131177831D01*
X133622000Y-131228840D01*
X135872000Y-131228840D01*
X136107317Y-131184562D01*
X136323441Y-131045490D01*
X136468431Y-130833290D01*
X136519440Y-130581400D01*
X136519440Y-128854200D01*
X136475162Y-128618883D01*
X136336090Y-128402759D01*
X136123890Y-128257769D01*
X136084199Y-128249731D01*
X136102550Y-128237470D01*
X136427406Y-127751289D01*
X136541480Y-127177800D01*
X136427406Y-126604311D01*
X136102550Y-126118130D01*
X135787769Y-125907800D01*
X136102550Y-125697470D01*
X136427406Y-125211289D01*
X136541480Y-124637800D01*
X136427406Y-124064311D01*
X136102550Y-123578130D01*
X135787769Y-123367800D01*
X136102550Y-123157470D01*
X136427406Y-122671289D01*
X136541480Y-122097800D01*
X136434903Y-121562000D01*
X137795000Y-121562000D01*
X138095407Y-121502245D01*
X138350079Y-121332079D01*
X144954079Y-114728079D01*
X145124245Y-114473407D01*
X145184000Y-114173000D01*
X145184000Y-86868000D01*
X146431000Y-86868000D01*
X146431000Y-129794000D01*
X146439685Y-129840159D01*
X146466965Y-129882553D01*
X146508590Y-129910994D01*
X146558000Y-129921000D01*
X147483501Y-129921000D01*
X147925907Y-130009000D01*
X147984093Y-130009000D01*
X148426499Y-129921000D01*
X150023501Y-129921000D01*
X150465907Y-130009000D01*
X150524093Y-130009000D01*
X150966499Y-129921000D01*
X152563501Y-129921000D01*
X153005907Y-130009000D01*
X153064093Y-130009000D01*
X153506499Y-129921000D01*
X155103501Y-129921000D01*
X155545907Y-130009000D01*
X155604093Y-130009000D01*
X156046499Y-129921000D01*
X157643501Y-129921000D01*
X158085907Y-130009000D01*
X158144093Y-130009000D01*
X158586499Y-129921000D01*
X160183501Y-129921000D01*
X160625907Y-130009000D01*
X160684093Y-130009000D01*
X161126499Y-129921000D01*
X162723501Y-129921000D01*
X163165907Y-130009000D01*
X163224093Y-130009000D01*
X163666499Y-129921000D01*
X165263501Y-129921000D01*
X165705907Y-130009000D01*
X165764093Y-130009000D01*
X166206499Y-129921000D01*
X167930501Y-129921000D01*
X168372907Y-130009000D01*
X168431093Y-130009000D01*
X168873499Y-129921000D01*
X170470501Y-129921000D01*
X170912907Y-130009000D01*
X170971093Y-130009000D01*
X171413499Y-129921000D01*
X172339000Y-129921000D01*
X172385159Y-129912315D01*
X172427553Y-129885035D01*
X172455994Y-129843410D01*
X172466000Y-129794000D01*
X172466000Y-78867000D01*
X172457315Y-78820841D01*
X172430035Y-78778447D01*
X172388410Y-78750006D01*
X172339000Y-78740000D01*
X154559000Y-78740000D01*
X154511211Y-78749334D01*
X154469197Y-78777197D01*
X146468197Y-86778197D01*
X146441006Y-86818590D01*
X146431000Y-86868000D01*
X145184000Y-86868000D01*
X145184000Y-82833506D01*
X145191192Y-82826327D01*
X145333838Y-82482799D01*
X145334162Y-82110833D01*
X145192117Y-81767057D01*
X144929327Y-81503808D01*
X144585799Y-81361162D01*
X144213833Y-81360838D01*
X144079551Y-81416322D01*
X143913327Y-81249808D01*
X143569799Y-81107162D01*
X143197833Y-81106838D01*
X142854057Y-81248883D01*
X142590808Y-81511673D01*
X142448162Y-81855201D01*
X142447838Y-82227167D01*
X142589883Y-82570943D01*
X142598000Y-82579074D01*
X142598000Y-112577842D01*
X138943042Y-116232800D01*
X136286079Y-116232800D01*
X136102550Y-115958130D01*
X135787769Y-115747800D01*
X136102550Y-115537470D01*
X136427406Y-115051289D01*
X136541480Y-114477800D01*
X136427406Y-113904311D01*
X136102550Y-113418130D01*
X135787769Y-113207800D01*
X136102550Y-112997470D01*
X136427406Y-112511289D01*
X136541480Y-111937800D01*
X136427406Y-111364311D01*
X136102550Y-110878130D01*
X135787769Y-110667800D01*
X136102550Y-110457470D01*
X136427406Y-109971289D01*
X136541480Y-109397800D01*
X136427406Y-108824311D01*
X136102550Y-108338130D01*
X135787769Y-108127800D01*
X136102550Y-107917470D01*
X136427406Y-107431289D01*
X136541480Y-106857800D01*
X136427406Y-106284311D01*
X136102550Y-105798130D01*
X135787769Y-105587800D01*
X136102550Y-105377470D01*
X136427406Y-104891289D01*
X136541480Y-104317800D01*
X136427406Y-103744311D01*
X136102550Y-103258130D01*
X135787769Y-103047800D01*
X136102550Y-102837470D01*
X136427406Y-102351289D01*
X136541480Y-101777800D01*
X136427406Y-101204311D01*
X136102550Y-100718130D01*
X135787769Y-100507800D01*
X136102550Y-100297470D01*
X136427406Y-99811289D01*
X136541480Y-99237800D01*
X136427406Y-98664311D01*
X136102550Y-98178130D01*
X135787769Y-97967800D01*
X136102550Y-97757470D01*
X136286079Y-97482800D01*
X137617200Y-97482800D01*
X137917607Y-97423045D01*
X138172279Y-97252879D01*
X139874079Y-95551079D01*
X140044245Y-95296406D01*
X140104001Y-94996000D01*
X140104000Y-94995995D01*
X140104000Y-88548506D01*
X140111192Y-88541327D01*
X140253838Y-88197799D01*
X140254162Y-87825833D01*
X140112117Y-87482057D01*
X139849327Y-87218808D01*
X139505799Y-87076162D01*
X139133833Y-87075838D01*
X138961000Y-87147251D01*
X138961000Y-84399158D01*
X149352000Y-74008158D01*
X152606921Y-77263079D01*
X152861594Y-77433245D01*
X153162000Y-77493000D01*
X155598404Y-77493000D01*
X155794946Y-77787147D01*
X156276715Y-78109054D01*
X156845000Y-78222093D01*
X157413285Y-78109054D01*
X157895054Y-77787147D01*
X157922850Y-77745548D01*
X157931838Y-77793317D01*
X158070910Y-78009441D01*
X158283110Y-78154431D01*
X158535000Y-78205440D01*
X160235000Y-78205440D01*
X160470317Y-78161162D01*
X160686441Y-78022090D01*
X160831431Y-77809890D01*
X160882440Y-77558000D01*
X160882440Y-75858000D01*
X160838162Y-75622683D01*
X160699090Y-75406559D01*
X160486890Y-75261569D01*
X160235000Y-75210560D01*
X160170000Y-75210560D01*
X160170000Y-73165755D01*
X160597264Y-73080767D01*
X161062811Y-72769698D01*
X161373880Y-72304151D01*
X161426584Y-72039187D01*
X168744752Y-72039187D01*
X168962757Y-72566800D01*
X169366077Y-72970824D01*
X169893309Y-73189750D01*
X170464187Y-73190248D01*
X170991800Y-72972243D01*
X171395824Y-72568923D01*
X171614750Y-72041691D01*
X171615248Y-71470813D01*
X171397243Y-70943200D01*
X170993923Y-70539176D01*
X170466691Y-70320250D01*
X169895813Y-70319752D01*
X169368200Y-70537757D01*
X168964176Y-70941077D01*
X168745250Y-71468309D01*
X168744752Y-72039187D01*
X161426584Y-72039187D01*
X161483113Y-71755000D01*
X161373880Y-71205849D01*
X161062811Y-70740302D01*
X160597264Y-70429233D01*
X160048113Y-70320000D01*
X159991887Y-70320000D01*
X159442736Y-70429233D01*
X158977189Y-70740302D01*
X158666120Y-71205849D01*
X158556887Y-71755000D01*
X158641598Y-72180873D01*
X158600000Y-72390000D01*
X158600000Y-75210560D01*
X158535000Y-75210560D01*
X158299683Y-75254838D01*
X158083559Y-75393910D01*
X157938569Y-75606110D01*
X157924914Y-75673541D01*
X157895054Y-75628853D01*
X157413285Y-75306946D01*
X156845000Y-75193907D01*
X156276715Y-75306946D01*
X155794946Y-75628853D01*
X155598404Y-75923000D01*
X153487158Y-75923000D01*
X150137000Y-72572842D01*
X150137000Y-71882000D01*
X153483887Y-71882000D01*
X153593120Y-72431151D01*
X153904189Y-72896698D01*
X154369736Y-73207767D01*
X154918887Y-73317000D01*
X154975113Y-73317000D01*
X155524264Y-73207767D01*
X155989811Y-72896698D01*
X156300880Y-72431151D01*
X156410113Y-71882000D01*
X156300880Y-71332849D01*
X155989811Y-70867302D01*
X155524264Y-70556233D01*
X154975113Y-70447000D01*
X154918887Y-70447000D01*
X154369736Y-70556233D01*
X153904189Y-70867302D01*
X153593120Y-71332849D01*
X153483887Y-71882000D01*
X150137000Y-71882000D01*
X150137000Y-68460000D01*
X150077245Y-68159594D01*
X150077245Y-68159593D01*
X149907079Y-67904921D01*
X149467769Y-67465611D01*
X149517000Y-67218113D01*
X149517000Y-67161887D01*
X149407767Y-66612736D01*
X149299824Y-66451187D01*
X151726752Y-66451187D01*
X151944757Y-66978800D01*
X152348077Y-67382824D01*
X152875309Y-67601750D01*
X153446187Y-67602248D01*
X153973800Y-67384243D01*
X154377824Y-66980923D01*
X154596750Y-66453691D01*
X154597024Y-66138887D01*
X157696000Y-66138887D01*
X157696000Y-66195113D01*
X157805233Y-66744264D01*
X158116302Y-67209811D01*
X158581849Y-67520880D01*
X159131000Y-67630113D01*
X159680151Y-67520880D01*
X160145698Y-67209811D01*
X160456767Y-66744264D01*
X160566000Y-66195113D01*
X160566000Y-66138887D01*
X164173000Y-66138887D01*
X164173000Y-66195113D01*
X164282233Y-66744264D01*
X164593302Y-67209811D01*
X165058849Y-67520880D01*
X165608000Y-67630113D01*
X166157151Y-67520880D01*
X166622698Y-67209811D01*
X166933767Y-66744264D01*
X167043000Y-66195113D01*
X167043000Y-66138887D01*
X166933767Y-65589736D01*
X166622698Y-65124189D01*
X166157151Y-64813120D01*
X165608000Y-64703887D01*
X165058849Y-64813120D01*
X164593302Y-65124189D01*
X164282233Y-65589736D01*
X164173000Y-66138887D01*
X160566000Y-66138887D01*
X160456767Y-65589736D01*
X160145698Y-65124189D01*
X159680151Y-64813120D01*
X159131000Y-64703887D01*
X158581849Y-64813120D01*
X158116302Y-65124189D01*
X157805233Y-65589736D01*
X157696000Y-66138887D01*
X154597024Y-66138887D01*
X154597248Y-65882813D01*
X154379243Y-65355200D01*
X153975923Y-64951176D01*
X153448691Y-64732250D01*
X152877813Y-64731752D01*
X152350200Y-64949757D01*
X151946176Y-65353077D01*
X151727250Y-65880309D01*
X151726752Y-66451187D01*
X149299824Y-66451187D01*
X149096698Y-66147189D01*
X148631151Y-65836120D01*
X148082000Y-65726887D01*
X147532849Y-65836120D01*
X147067302Y-66147189D01*
X146756233Y-66612736D01*
X146647000Y-67161887D01*
X146647000Y-67218113D01*
X146756233Y-67767264D01*
X147067302Y-68232811D01*
X147532849Y-68543880D01*
X148082000Y-68653113D01*
X148376396Y-68594554D01*
X148567000Y-68785158D01*
X148567000Y-72572842D01*
X137620921Y-83518921D01*
X137450755Y-83773593D01*
X137437000Y-83842744D01*
X137437000Y-83510158D01*
X138985079Y-81962079D01*
X139155245Y-81707406D01*
X139215000Y-81407000D01*
X139215000Y-74930440D01*
X140225000Y-74930440D01*
X140460317Y-74886162D01*
X140676441Y-74747090D01*
X140821431Y-74534890D01*
X140872440Y-74283000D01*
X140872440Y-72783000D01*
X140828162Y-72547683D01*
X140689090Y-72331559D01*
X140585000Y-72260437D01*
X140585000Y-70739005D01*
X140585001Y-70739000D01*
X140517633Y-70400326D01*
X140517633Y-70400325D01*
X140325790Y-70113210D01*
X140325787Y-70113208D01*
X133346000Y-63133420D01*
X133346000Y-60706000D01*
X137423907Y-60706000D01*
X137536946Y-61274285D01*
X137858853Y-61756054D01*
X137900452Y-61783850D01*
X137852683Y-61792838D01*
X137636559Y-61931910D01*
X137491569Y-62144110D01*
X137440560Y-62396000D01*
X137440560Y-64096000D01*
X137484838Y-64331317D01*
X137623910Y-64547441D01*
X137836110Y-64692431D01*
X138088000Y-64743440D01*
X139788000Y-64743440D01*
X140023317Y-64699162D01*
X140239441Y-64560090D01*
X140384431Y-64347890D01*
X140435440Y-64096000D01*
X140435440Y-62396000D01*
X140391162Y-62160683D01*
X140252090Y-61944559D01*
X140039890Y-61799569D01*
X139972459Y-61785914D01*
X140017147Y-61756054D01*
X140339054Y-61274285D01*
X140452093Y-60706000D01*
X140339054Y-60137715D01*
X140017147Y-59655946D01*
X139535378Y-59334039D01*
X138967093Y-59221000D01*
X138908907Y-59221000D01*
X138340622Y-59334039D01*
X137858853Y-59655946D01*
X137536946Y-60137715D01*
X137423907Y-60706000D01*
X133346000Y-60706000D01*
X133346000Y-54991005D01*
X133346001Y-54991000D01*
X133278634Y-54652326D01*
X133202667Y-54538633D01*
X133086790Y-54365210D01*
X133086787Y-54365208D01*
X131435790Y-52714210D01*
X131148675Y-52522367D01*
X131092484Y-52511190D01*
X130810000Y-52454999D01*
X130809995Y-52455000D01*
X129399473Y-52455000D01*
X129312811Y-52325302D01*
X128930725Y-52070000D01*
X129312811Y-51814698D01*
X129399473Y-51685000D01*
X137033810Y-51685000D01*
X137033000Y-51689000D01*
X137033000Y-57023000D01*
X137041685Y-57069159D01*
X137068965Y-57111553D01*
X137110590Y-57139994D01*
X137160000Y-57150000D01*
X140462000Y-57150000D01*
X140508159Y-57141315D01*
X140550553Y-57114035D01*
X140578994Y-57072410D01*
X140589000Y-57023000D01*
X140589000Y-55978887D01*
X151727000Y-55978887D01*
X151727000Y-56035113D01*
X151836233Y-56584264D01*
X152147302Y-57049811D01*
X152612849Y-57360880D01*
X153162000Y-57470113D01*
X153711151Y-57360880D01*
X154176698Y-57049811D01*
X154487767Y-56584264D01*
X154546063Y-56291187D01*
X157695752Y-56291187D01*
X157913757Y-56818800D01*
X158317077Y-57222824D01*
X158844309Y-57441750D01*
X159415187Y-57442248D01*
X159942800Y-57224243D01*
X160346824Y-56820923D01*
X160565750Y-56293691D01*
X160565752Y-56291187D01*
X164172752Y-56291187D01*
X164390757Y-56818800D01*
X164794077Y-57222824D01*
X165321309Y-57441750D01*
X165892187Y-57442248D01*
X166419800Y-57224243D01*
X166823824Y-56820923D01*
X167042750Y-56293691D01*
X167043248Y-55722813D01*
X166825243Y-55195200D01*
X166421923Y-54791176D01*
X165894691Y-54572250D01*
X165323813Y-54571752D01*
X164796200Y-54789757D01*
X164392176Y-55193077D01*
X164173250Y-55720309D01*
X164172752Y-56291187D01*
X160565752Y-56291187D01*
X160566248Y-55722813D01*
X160348243Y-55195200D01*
X159944923Y-54791176D01*
X159417691Y-54572250D01*
X158846813Y-54571752D01*
X158319200Y-54789757D01*
X157915176Y-55193077D01*
X157696250Y-55720309D01*
X157695752Y-56291187D01*
X154546063Y-56291187D01*
X154597000Y-56035113D01*
X154597000Y-55978887D01*
X154487767Y-55429736D01*
X154176698Y-54964189D01*
X153711151Y-54653120D01*
X153162000Y-54543887D01*
X152612849Y-54653120D01*
X152147302Y-54964189D01*
X151836233Y-55429736D01*
X151727000Y-55978887D01*
X140589000Y-55978887D01*
X140589000Y-51689000D01*
X140588247Y-51685000D01*
X155574995Y-51685000D01*
X155575000Y-51685001D01*
X155857484Y-51628810D01*
X155913675Y-51617633D01*
X156200790Y-51425790D01*
X158358579Y-49268000D01*
X171450000Y-49268000D01*
X171884346Y-49181603D01*
X172252566Y-48935566D01*
X174411566Y-46776566D01*
X174628197Y-46452355D01*
X179301000Y-51125158D01*
X179301000Y-51125158D01*
G37*
X179301000Y-51125158D02*
X179301000Y-124134842D01*
X167187842Y-136248000D01*
X133294158Y-136248000D01*
X123594000Y-126547842D01*
X123594000Y-125878441D01*
X124348400Y-125878441D01*
X124348400Y-125937159D01*
X124462474Y-126510648D01*
X124787330Y-126996829D01*
X125273511Y-127321685D01*
X125847000Y-127435759D01*
X126420489Y-127321685D01*
X126906670Y-126996829D01*
X127117000Y-126682048D01*
X127327330Y-126996829D01*
X127813511Y-127321685D01*
X128387000Y-127435759D01*
X128960489Y-127321685D01*
X129446670Y-126996829D01*
X129771526Y-126510648D01*
X129885600Y-125937159D01*
X129885600Y-125878441D01*
X129771526Y-125304952D01*
X129446670Y-124818771D01*
X128960489Y-124493915D01*
X128387000Y-124379841D01*
X127813511Y-124493915D01*
X127327330Y-124818771D01*
X127117000Y-125133552D01*
X126906670Y-124818771D01*
X126420489Y-124493915D01*
X125847000Y-124379841D01*
X125273511Y-124493915D01*
X124787330Y-124818771D01*
X124462474Y-125304952D01*
X124348400Y-125878441D01*
X123594000Y-125878441D01*
X123594000Y-124968005D01*
X123594001Y-124968000D01*
X123534245Y-124667594D01*
X123364079Y-124412921D01*
X121713079Y-122761921D01*
X121458407Y-122591755D01*
X121212939Y-122542928D01*
X121301480Y-122097800D01*
X121194903Y-121562000D01*
X133059097Y-121562000D01*
X132952520Y-122097800D01*
X133066594Y-122671289D01*
X133391450Y-123157470D01*
X133706231Y-123367800D01*
X133391450Y-123578130D01*
X133066594Y-124064311D01*
X132952520Y-124637800D01*
X133066594Y-125211289D01*
X133391450Y-125697470D01*
X133706231Y-125907800D01*
X133391450Y-126118130D01*
X133066594Y-126604311D01*
X132952520Y-127177800D01*
X133066594Y-127751289D01*
X133391450Y-128237470D01*
X133406247Y-128247357D01*
X133386683Y-128251038D01*
X133170559Y-128390110D01*
X133025569Y-128602310D01*
X132974560Y-128854200D01*
X132974560Y-130581400D01*
X133018838Y-130816717D01*
X133157910Y-131032841D01*
X133370110Y-131177831D01*
X133622000Y-131228840D01*
X135872000Y-131228840D01*
X136107317Y-131184562D01*
X136323441Y-131045490D01*
X136468431Y-130833290D01*
X136519440Y-130581400D01*
X136519440Y-128854200D01*
X136475162Y-128618883D01*
X136336090Y-128402759D01*
X136123890Y-128257769D01*
X136084199Y-128249731D01*
X136102550Y-128237470D01*
X136427406Y-127751289D01*
X136541480Y-127177800D01*
X136427406Y-126604311D01*
X136102550Y-126118130D01*
X135787769Y-125907800D01*
X136102550Y-125697470D01*
X136427406Y-125211289D01*
X136541480Y-124637800D01*
X136427406Y-124064311D01*
X136102550Y-123578130D01*
X135787769Y-123367800D01*
X136102550Y-123157470D01*
X136427406Y-122671289D01*
X136541480Y-122097800D01*
X136434903Y-121562000D01*
X137795000Y-121562000D01*
X138095407Y-121502245D01*
X138350079Y-121332079D01*
X144954079Y-114728079D01*
X145124245Y-114473407D01*
X145184000Y-114173000D01*
X145184000Y-86868000D01*
X146431000Y-86868000D01*
X146431000Y-129794000D01*
X146439685Y-129840159D01*
X146466965Y-129882553D01*
X146508590Y-129910994D01*
X146558000Y-129921000D01*
X147483501Y-129921000D01*
X147925907Y-130009000D01*
X147984093Y-130009000D01*
X148426499Y-129921000D01*
X150023501Y-129921000D01*
X150465907Y-130009000D01*
X150524093Y-130009000D01*
X150966499Y-129921000D01*
X152563501Y-129921000D01*
X153005907Y-130009000D01*
X153064093Y-130009000D01*
X153506499Y-129921000D01*
X155103501Y-129921000D01*
X155545907Y-130009000D01*
X155604093Y-130009000D01*
X156046499Y-129921000D01*
X157643501Y-129921000D01*
X158085907Y-130009000D01*
X158144093Y-130009000D01*
X158586499Y-129921000D01*
X160183501Y-129921000D01*
X160625907Y-130009000D01*
X160684093Y-130009000D01*
X161126499Y-129921000D01*
X162723501Y-129921000D01*
X163165907Y-130009000D01*
X163224093Y-130009000D01*
X163666499Y-129921000D01*
X165263501Y-129921000D01*
X165705907Y-130009000D01*
X165764093Y-130009000D01*
X166206499Y-129921000D01*
X167930501Y-129921000D01*
X168372907Y-130009000D01*
X168431093Y-130009000D01*
X168873499Y-129921000D01*
X170470501Y-129921000D01*
X170912907Y-130009000D01*
X170971093Y-130009000D01*
X171413499Y-129921000D01*
X172339000Y-129921000D01*
X172385159Y-129912315D01*
X172427553Y-129885035D01*
X172455994Y-129843410D01*
X172466000Y-129794000D01*
X172466000Y-78867000D01*
X172457315Y-78820841D01*
X172430035Y-78778447D01*
X172388410Y-78750006D01*
X172339000Y-78740000D01*
X154559000Y-78740000D01*
X154511211Y-78749334D01*
X154469197Y-78777197D01*
X146468197Y-86778197D01*
X146441006Y-86818590D01*
X146431000Y-86868000D01*
X145184000Y-86868000D01*
X145184000Y-82833506D01*
X145191192Y-82826327D01*
X145333838Y-82482799D01*
X145334162Y-82110833D01*
X145192117Y-81767057D01*
X144929327Y-81503808D01*
X144585799Y-81361162D01*
X144213833Y-81360838D01*
X144079551Y-81416322D01*
X143913327Y-81249808D01*
X143569799Y-81107162D01*
X143197833Y-81106838D01*
X142854057Y-81248883D01*
X142590808Y-81511673D01*
X142448162Y-81855201D01*
X142447838Y-82227167D01*
X142589883Y-82570943D01*
X142598000Y-82579074D01*
X142598000Y-112577842D01*
X138943042Y-116232800D01*
X136286079Y-116232800D01*
X136102550Y-115958130D01*
X135787769Y-115747800D01*
X136102550Y-115537470D01*
X136427406Y-115051289D01*
X136541480Y-114477800D01*
X136427406Y-113904311D01*
X136102550Y-113418130D01*
X135787769Y-113207800D01*
X136102550Y-112997470D01*
X136427406Y-112511289D01*
X136541480Y-111937800D01*
X136427406Y-111364311D01*
X136102550Y-110878130D01*
X135787769Y-110667800D01*
X136102550Y-110457470D01*
X136427406Y-109971289D01*
X136541480Y-109397800D01*
X136427406Y-108824311D01*
X136102550Y-108338130D01*
X135787769Y-108127800D01*
X136102550Y-107917470D01*
X136427406Y-107431289D01*
X136541480Y-106857800D01*
X136427406Y-106284311D01*
X136102550Y-105798130D01*
X135787769Y-105587800D01*
X136102550Y-105377470D01*
X136427406Y-104891289D01*
X136541480Y-104317800D01*
X136427406Y-103744311D01*
X136102550Y-103258130D01*
X135787769Y-103047800D01*
X136102550Y-102837470D01*
X136427406Y-102351289D01*
X136541480Y-101777800D01*
X136427406Y-101204311D01*
X136102550Y-100718130D01*
X135787769Y-100507800D01*
X136102550Y-100297470D01*
X136427406Y-99811289D01*
X136541480Y-99237800D01*
X136427406Y-98664311D01*
X136102550Y-98178130D01*
X135787769Y-97967800D01*
X136102550Y-97757470D01*
X136286079Y-97482800D01*
X137617200Y-97482800D01*
X137917607Y-97423045D01*
X138172279Y-97252879D01*
X139874079Y-95551079D01*
X140044245Y-95296406D01*
X140104001Y-94996000D01*
X140104000Y-94995995D01*
X140104000Y-88548506D01*
X140111192Y-88541327D01*
X140253838Y-88197799D01*
X140254162Y-87825833D01*
X140112117Y-87482057D01*
X139849327Y-87218808D01*
X139505799Y-87076162D01*
X139133833Y-87075838D01*
X138961000Y-87147251D01*
X138961000Y-84399158D01*
X149352000Y-74008158D01*
X152606921Y-77263079D01*
X152861594Y-77433245D01*
X153162000Y-77493000D01*
X155598404Y-77493000D01*
X155794946Y-77787147D01*
X156276715Y-78109054D01*
X156845000Y-78222093D01*
X157413285Y-78109054D01*
X157895054Y-77787147D01*
X157922850Y-77745548D01*
X157931838Y-77793317D01*
X158070910Y-78009441D01*
X158283110Y-78154431D01*
X158535000Y-78205440D01*
X160235000Y-78205440D01*
X160470317Y-78161162D01*
X160686441Y-78022090D01*
X160831431Y-77809890D01*
X160882440Y-77558000D01*
X160882440Y-75858000D01*
X160838162Y-75622683D01*
X160699090Y-75406559D01*
X160486890Y-75261569D01*
X160235000Y-75210560D01*
X160170000Y-75210560D01*
X160170000Y-73165755D01*
X160597264Y-73080767D01*
X161062811Y-72769698D01*
X161373880Y-72304151D01*
X161426584Y-72039187D01*
X168744752Y-72039187D01*
X168962757Y-72566800D01*
X169366077Y-72970824D01*
X169893309Y-73189750D01*
X170464187Y-73190248D01*
X170991800Y-72972243D01*
X171395824Y-72568923D01*
X171614750Y-72041691D01*
X171615248Y-71470813D01*
X171397243Y-70943200D01*
X170993923Y-70539176D01*
X170466691Y-70320250D01*
X169895813Y-70319752D01*
X169368200Y-70537757D01*
X168964176Y-70941077D01*
X168745250Y-71468309D01*
X168744752Y-72039187D01*
X161426584Y-72039187D01*
X161483113Y-71755000D01*
X161373880Y-71205849D01*
X161062811Y-70740302D01*
X160597264Y-70429233D01*
X160048113Y-70320000D01*
X159991887Y-70320000D01*
X159442736Y-70429233D01*
X158977189Y-70740302D01*
X158666120Y-71205849D01*
X158556887Y-71755000D01*
X158641598Y-72180873D01*
X158600000Y-72390000D01*
X158600000Y-75210560D01*
X158535000Y-75210560D01*
X158299683Y-75254838D01*
X158083559Y-75393910D01*
X157938569Y-75606110D01*
X157924914Y-75673541D01*
X157895054Y-75628853D01*
X157413285Y-75306946D01*
X156845000Y-75193907D01*
X156276715Y-75306946D01*
X155794946Y-75628853D01*
X155598404Y-75923000D01*
X153487158Y-75923000D01*
X150137000Y-72572842D01*
X150137000Y-71882000D01*
X153483887Y-71882000D01*
X153593120Y-72431151D01*
X153904189Y-72896698D01*
X154369736Y-73207767D01*
X154918887Y-73317000D01*
X154975113Y-73317000D01*
X155524264Y-73207767D01*
X155989811Y-72896698D01*
X156300880Y-72431151D01*
X156410113Y-71882000D01*
X156300880Y-71332849D01*
X155989811Y-70867302D01*
X155524264Y-70556233D01*
X154975113Y-70447000D01*
X154918887Y-70447000D01*
X154369736Y-70556233D01*
X153904189Y-70867302D01*
X153593120Y-71332849D01*
X153483887Y-71882000D01*
X150137000Y-71882000D01*
X150137000Y-68460000D01*
X150077245Y-68159594D01*
X150077245Y-68159593D01*
X149907079Y-67904921D01*
X149467769Y-67465611D01*
X149517000Y-67218113D01*
X149517000Y-67161887D01*
X149407767Y-66612736D01*
X149299824Y-66451187D01*
X151726752Y-66451187D01*
X151944757Y-66978800D01*
X152348077Y-67382824D01*
X152875309Y-67601750D01*
X153446187Y-67602248D01*
X153973800Y-67384243D01*
X154377824Y-66980923D01*
X154596750Y-66453691D01*
X154597024Y-66138887D01*
X157696000Y-66138887D01*
X157696000Y-66195113D01*
X157805233Y-66744264D01*
X158116302Y-67209811D01*
X158581849Y-67520880D01*
X159131000Y-67630113D01*
X159680151Y-67520880D01*
X160145698Y-67209811D01*
X160456767Y-66744264D01*
X160566000Y-66195113D01*
X160566000Y-66138887D01*
X164173000Y-66138887D01*
X164173000Y-66195113D01*
X164282233Y-66744264D01*
X164593302Y-67209811D01*
X165058849Y-67520880D01*
X165608000Y-67630113D01*
X166157151Y-67520880D01*
X166622698Y-67209811D01*
X166933767Y-66744264D01*
X167043000Y-66195113D01*
X167043000Y-66138887D01*
X166933767Y-65589736D01*
X166622698Y-65124189D01*
X166157151Y-64813120D01*
X165608000Y-64703887D01*
X165058849Y-64813120D01*
X164593302Y-65124189D01*
X164282233Y-65589736D01*
X164173000Y-66138887D01*
X160566000Y-66138887D01*
X160456767Y-65589736D01*
X160145698Y-65124189D01*
X159680151Y-64813120D01*
X159131000Y-64703887D01*
X158581849Y-64813120D01*
X158116302Y-65124189D01*
X157805233Y-65589736D01*
X157696000Y-66138887D01*
X154597024Y-66138887D01*
X154597248Y-65882813D01*
X154379243Y-65355200D01*
X153975923Y-64951176D01*
X153448691Y-64732250D01*
X152877813Y-64731752D01*
X152350200Y-64949757D01*
X151946176Y-65353077D01*
X151727250Y-65880309D01*
X151726752Y-66451187D01*
X149299824Y-66451187D01*
X149096698Y-66147189D01*
X148631151Y-65836120D01*
X148082000Y-65726887D01*
X147532849Y-65836120D01*
X147067302Y-66147189D01*
X146756233Y-66612736D01*
X146647000Y-67161887D01*
X146647000Y-67218113D01*
X146756233Y-67767264D01*
X147067302Y-68232811D01*
X147532849Y-68543880D01*
X148082000Y-68653113D01*
X148376396Y-68594554D01*
X148567000Y-68785158D01*
X148567000Y-72572842D01*
X137620921Y-83518921D01*
X137450755Y-83773593D01*
X137437000Y-83842744D01*
X137437000Y-83510158D01*
X138985079Y-81962079D01*
X139155245Y-81707406D01*
X139215000Y-81407000D01*
X139215000Y-74930440D01*
X140225000Y-74930440D01*
X140460317Y-74886162D01*
X140676441Y-74747090D01*
X140821431Y-74534890D01*
X140872440Y-74283000D01*
X140872440Y-72783000D01*
X140828162Y-72547683D01*
X140689090Y-72331559D01*
X140585000Y-72260437D01*
X140585000Y-70739005D01*
X140585001Y-70739000D01*
X140517633Y-70400326D01*
X140517633Y-70400325D01*
X140325790Y-70113210D01*
X140325787Y-70113208D01*
X133346000Y-63133420D01*
X133346000Y-60706000D01*
X137423907Y-60706000D01*
X137536946Y-61274285D01*
X137858853Y-61756054D01*
X137900452Y-61783850D01*
X137852683Y-61792838D01*
X137636559Y-61931910D01*
X137491569Y-62144110D01*
X137440560Y-62396000D01*
X137440560Y-64096000D01*
X137484838Y-64331317D01*
X137623910Y-64547441D01*
X137836110Y-64692431D01*
X138088000Y-64743440D01*
X139788000Y-64743440D01*
X140023317Y-64699162D01*
X140239441Y-64560090D01*
X140384431Y-64347890D01*
X140435440Y-64096000D01*
X140435440Y-62396000D01*
X140391162Y-62160683D01*
X140252090Y-61944559D01*
X140039890Y-61799569D01*
X139972459Y-61785914D01*
X140017147Y-61756054D01*
X140339054Y-61274285D01*
X140452093Y-60706000D01*
X140339054Y-60137715D01*
X140017147Y-59655946D01*
X139535378Y-59334039D01*
X138967093Y-59221000D01*
X138908907Y-59221000D01*
X138340622Y-59334039D01*
X137858853Y-59655946D01*
X137536946Y-60137715D01*
X137423907Y-60706000D01*
X133346000Y-60706000D01*
X133346000Y-54991005D01*
X133346001Y-54991000D01*
X133278634Y-54652326D01*
X133202667Y-54538633D01*
X133086790Y-54365210D01*
X133086787Y-54365208D01*
X131435790Y-52714210D01*
X131148675Y-52522367D01*
X131092484Y-52511190D01*
X130810000Y-52454999D01*
X130809995Y-52455000D01*
X129399473Y-52455000D01*
X129312811Y-52325302D01*
X128930725Y-52070000D01*
X129312811Y-51814698D01*
X129399473Y-51685000D01*
X137033810Y-51685000D01*
X137033000Y-51689000D01*
X137033000Y-57023000D01*
X137041685Y-57069159D01*
X137068965Y-57111553D01*
X137110590Y-57139994D01*
X137160000Y-57150000D01*
X140462000Y-57150000D01*
X140508159Y-57141315D01*
X140550553Y-57114035D01*
X140578994Y-57072410D01*
X140589000Y-57023000D01*
X140589000Y-55978887D01*
X151727000Y-55978887D01*
X151727000Y-56035113D01*
X151836233Y-56584264D01*
X152147302Y-57049811D01*
X152612849Y-57360880D01*
X153162000Y-57470113D01*
X153711151Y-57360880D01*
X154176698Y-57049811D01*
X154487767Y-56584264D01*
X154546063Y-56291187D01*
X157695752Y-56291187D01*
X157913757Y-56818800D01*
X158317077Y-57222824D01*
X158844309Y-57441750D01*
X159415187Y-57442248D01*
X159942800Y-57224243D01*
X160346824Y-56820923D01*
X160565750Y-56293691D01*
X160565752Y-56291187D01*
X164172752Y-56291187D01*
X164390757Y-56818800D01*
X164794077Y-57222824D01*
X165321309Y-57441750D01*
X165892187Y-57442248D01*
X166419800Y-57224243D01*
X166823824Y-56820923D01*
X167042750Y-56293691D01*
X167043248Y-55722813D01*
X166825243Y-55195200D01*
X166421923Y-54791176D01*
X165894691Y-54572250D01*
X165323813Y-54571752D01*
X164796200Y-54789757D01*
X164392176Y-55193077D01*
X164173250Y-55720309D01*
X164172752Y-56291187D01*
X160565752Y-56291187D01*
X160566248Y-55722813D01*
X160348243Y-55195200D01*
X159944923Y-54791176D01*
X159417691Y-54572250D01*
X158846813Y-54571752D01*
X158319200Y-54789757D01*
X157915176Y-55193077D01*
X157696250Y-55720309D01*
X157695752Y-56291187D01*
X154546063Y-56291187D01*
X154597000Y-56035113D01*
X154597000Y-55978887D01*
X154487767Y-55429736D01*
X154176698Y-54964189D01*
X153711151Y-54653120D01*
X153162000Y-54543887D01*
X152612849Y-54653120D01*
X152147302Y-54964189D01*
X151836233Y-55429736D01*
X151727000Y-55978887D01*
X140589000Y-55978887D01*
X140589000Y-51689000D01*
X140588247Y-51685000D01*
X155574995Y-51685000D01*
X155575000Y-51685001D01*
X155857484Y-51628810D01*
X155913675Y-51617633D01*
X156200790Y-51425790D01*
X158358579Y-49268000D01*
X171450000Y-49268000D01*
X171884346Y-49181603D01*
X172252566Y-48935566D01*
X174411566Y-46776566D01*
X174628197Y-46452355D01*
X179301000Y-51125158D01*
G36*
X122253921Y-39703921D02*
X122119859Y-39904560D01*
X121959000Y-39904560D01*
X121723683Y-39948838D01*
X121507559Y-40087910D01*
X121362569Y-40300110D01*
X121311560Y-40552000D01*
X121311560Y-42252000D01*
X121355838Y-42487317D01*
X121494910Y-42703441D01*
X121707110Y-42848431D01*
X121959000Y-42899440D01*
X123659000Y-42899440D01*
X123894317Y-42855162D01*
X124110441Y-42716090D01*
X124255431Y-42503890D01*
X124306440Y-42252000D01*
X124306440Y-40552000D01*
X124262162Y-40316683D01*
X124123090Y-40100559D01*
X124096065Y-40082093D01*
X124531158Y-39647000D01*
X141914842Y-39647000D01*
X142169727Y-39901885D01*
X141671715Y-40000946D01*
X141189946Y-40322853D01*
X140970000Y-40652026D01*
X140750054Y-40322853D01*
X140268285Y-40000946D01*
X139700000Y-39887907D01*
X139131715Y-40000946D01*
X138649946Y-40322853D01*
X138430000Y-40652026D01*
X138210054Y-40322853D01*
X137728285Y-40000946D01*
X137160000Y-39887907D01*
X136591715Y-40000946D01*
X136109946Y-40322853D01*
X135788039Y-40804622D01*
X135675000Y-41372907D01*
X135675000Y-41431093D01*
X135788039Y-41999378D01*
X136109946Y-42481147D01*
X136275000Y-42591432D01*
X136275000Y-45846995D01*
X136274999Y-45847000D01*
X136310873Y-46027345D01*
X136342367Y-46185675D01*
X136518579Y-46449397D01*
X136534210Y-46472790D01*
X139976421Y-49915000D01*
X129399473Y-49915000D01*
X129312811Y-49785302D01*
X128847264Y-49474233D01*
X128298113Y-49365000D01*
X128241887Y-49365000D01*
X127692736Y-49474233D01*
X127227189Y-49785302D01*
X127140527Y-49915000D01*
X122081446Y-49915000D01*
X122053162Y-49764683D01*
X121914090Y-49548559D01*
X121701890Y-49403569D01*
X121450000Y-49352560D01*
X119850000Y-49352560D01*
X119614683Y-49396838D01*
X119398559Y-49535910D01*
X119253569Y-49748110D01*
X119202560Y-50000000D01*
X119202560Y-51600000D01*
X119246838Y-51835317D01*
X119385910Y-52051441D01*
X119598110Y-52196431D01*
X119753089Y-52227815D01*
X119607189Y-52325302D01*
X119296120Y-52790849D01*
X119186887Y-53340000D01*
X119296120Y-53889151D01*
X119607189Y-54354698D01*
X119989275Y-54610000D01*
X119607189Y-54865302D01*
X119296120Y-55330849D01*
X119186887Y-55880000D01*
X119296120Y-56429151D01*
X119607189Y-56894698D01*
X120072736Y-57205767D01*
X120621887Y-57315000D01*
X120678113Y-57315000D01*
X121227264Y-57205767D01*
X121692811Y-56894698D01*
X122003880Y-56429151D01*
X122113113Y-55880000D01*
X122003880Y-55330849D01*
X121692811Y-54865302D01*
X121310725Y-54610000D01*
X121692811Y-54354698D01*
X122003880Y-53889151D01*
X122113113Y-53340000D01*
X122003880Y-52790849D01*
X121692811Y-52325302D01*
X121548535Y-52228899D01*
X121685317Y-52203162D01*
X121901441Y-52064090D01*
X122046431Y-51851890D01*
X122080227Y-51685000D01*
X127140527Y-51685000D01*
X127227189Y-51814698D01*
X127609275Y-52070000D01*
X127227189Y-52325302D01*
X126916120Y-52790849D01*
X126806887Y-53340000D01*
X126916120Y-53889151D01*
X127227189Y-54354698D01*
X127609275Y-54610000D01*
X127227189Y-54865302D01*
X126916120Y-55330849D01*
X126806887Y-55880000D01*
X126916120Y-56429151D01*
X127227189Y-56894698D01*
X127692736Y-57205767D01*
X128241887Y-57315000D01*
X128298113Y-57315000D01*
X128847264Y-57205767D01*
X129312811Y-56894698D01*
X129623880Y-56429151D01*
X129733113Y-55880000D01*
X129623880Y-55330849D01*
X129312811Y-54865302D01*
X128930725Y-54610000D01*
X129312811Y-54354698D01*
X129399473Y-54225000D01*
X130443420Y-54225000D01*
X131576000Y-55357579D01*
X131576000Y-63499995D01*
X131575999Y-63500000D01*
X131618105Y-63711674D01*
X131643367Y-63838675D01*
X131815305Y-64096000D01*
X131835210Y-64125790D01*
X138815000Y-71105579D01*
X138815000Y-72197447D01*
X138430000Y-72120866D01*
X137986087Y-72209166D01*
X137795000Y-72336846D01*
X137603913Y-72209166D01*
X137160000Y-72120866D01*
X136716087Y-72209166D01*
X136339756Y-72460622D01*
X136088300Y-72836953D01*
X136000000Y-73280866D01*
X136000000Y-73785134D01*
X136088300Y-74229047D01*
X136339756Y-74605378D01*
X136716087Y-74856834D01*
X137160000Y-74945134D01*
X137603913Y-74856834D01*
X137645000Y-74829381D01*
X137645000Y-81081842D01*
X136096921Y-82629921D01*
X135926755Y-82884593D01*
X135926755Y-82884594D01*
X135867000Y-83185000D01*
X135867000Y-85320740D01*
X135616369Y-85153274D01*
X135042880Y-85039200D01*
X134451120Y-85039200D01*
X133877631Y-85153274D01*
X133391450Y-85478130D01*
X133066594Y-85964311D01*
X132952520Y-86537800D01*
X133066594Y-87111289D01*
X133391450Y-87597470D01*
X133706231Y-87807800D01*
X133391450Y-88018130D01*
X133066594Y-88504311D01*
X132952520Y-89077800D01*
X133038888Y-89512000D01*
X121215112Y-89512000D01*
X121301480Y-89077800D01*
X121194903Y-88542000D01*
X122809000Y-88542000D01*
X123109407Y-88482245D01*
X123364079Y-88312079D01*
X132635079Y-79041079D01*
X132805245Y-78786406D01*
X132865000Y-78486000D01*
X132865000Y-74930440D01*
X133875000Y-74930440D01*
X134110317Y-74886162D01*
X134326441Y-74747090D01*
X134471431Y-74534890D01*
X134522440Y-74283000D01*
X134522440Y-72783000D01*
X134478162Y-72547683D01*
X134339090Y-72331559D01*
X134126890Y-72186569D01*
X133875000Y-72135560D01*
X132825000Y-72135560D01*
X132589683Y-72179838D01*
X132533819Y-72215785D01*
X132523913Y-72209166D01*
X132080000Y-72120866D01*
X131636087Y-72209166D01*
X131445000Y-72336846D01*
X131253913Y-72209166D01*
X130810000Y-72120866D01*
X130366087Y-72209166D01*
X129989756Y-72460622D01*
X129738300Y-72836953D01*
X129650000Y-73280866D01*
X129650000Y-73785134D01*
X129738300Y-74229047D01*
X129989756Y-74605378D01*
X130366087Y-74856834D01*
X130810000Y-74945134D01*
X131253913Y-74856834D01*
X131295000Y-74829381D01*
X131295000Y-78160842D01*
X122483842Y-86972000D01*
X121215112Y-86972000D01*
X121301480Y-86537800D01*
X121187406Y-85964311D01*
X120862550Y-85478130D01*
X120547769Y-85267800D01*
X120862550Y-85057470D01*
X121187406Y-84571289D01*
X121301480Y-83997800D01*
X121187406Y-83424311D01*
X120862550Y-82938130D01*
X120547769Y-82727800D01*
X120862550Y-82517470D01*
X121187406Y-82031289D01*
X121301480Y-81457800D01*
X121187406Y-80884311D01*
X120862550Y-80398130D01*
X120376369Y-80073274D01*
X119802880Y-79959200D01*
X119211120Y-79959200D01*
X118637631Y-80073274D01*
X118151450Y-80398130D01*
X117826594Y-80884311D01*
X117712520Y-81457800D01*
X117826594Y-82031289D01*
X118151450Y-82517470D01*
X118466231Y-82727800D01*
X118151450Y-82938130D01*
X117826594Y-83424311D01*
X117712520Y-83997800D01*
X117826594Y-84571289D01*
X118151450Y-85057470D01*
X118466231Y-85267800D01*
X118151450Y-85478130D01*
X117826594Y-85964311D01*
X117712520Y-86537800D01*
X117826594Y-87111289D01*
X117863006Y-87165783D01*
X117808921Y-87201921D01*
X111644059Y-93366783D01*
X111464550Y-93098130D01*
X111149769Y-92887800D01*
X111464550Y-92677470D01*
X111789406Y-92191289D01*
X111903480Y-91617800D01*
X111789406Y-91044311D01*
X111464550Y-90558130D01*
X111149769Y-90347800D01*
X111464550Y-90137470D01*
X111789406Y-89651289D01*
X111903480Y-89077800D01*
X111789406Y-88504311D01*
X111464550Y-88018130D01*
X111149769Y-87807800D01*
X111464550Y-87597470D01*
X111789406Y-87111289D01*
X111903480Y-86537800D01*
X111789406Y-85964311D01*
X111464550Y-85478130D01*
X110978369Y-85153274D01*
X110404880Y-85039200D01*
X109813120Y-85039200D01*
X109239631Y-85153274D01*
X108862000Y-85405599D01*
X108862000Y-80208158D01*
X111052000Y-78018158D01*
X111052000Y-78521132D01*
X110836667Y-78736465D01*
X110596057Y-78835883D01*
X110332808Y-79098673D01*
X110190162Y-79442201D01*
X110189838Y-79814167D01*
X110331883Y-80157943D01*
X110594673Y-80421192D01*
X110938201Y-80563838D01*
X111310167Y-80564162D01*
X111653943Y-80422117D01*
X111917192Y-80159327D01*
X112017778Y-79917090D01*
X112477434Y-79457434D01*
X112658440Y-79186540D01*
X112722000Y-78867000D01*
X112722000Y-74583294D01*
X112958700Y-74229047D01*
X113047000Y-73785134D01*
X113047000Y-73280866D01*
X112958700Y-72836953D01*
X112922650Y-72783000D01*
X113889560Y-72783000D01*
X113889560Y-74283000D01*
X113933838Y-74518317D01*
X114072910Y-74734441D01*
X114285110Y-74879431D01*
X114537000Y-74930440D01*
X115547000Y-74930440D01*
X115547000Y-76327000D01*
X115606755Y-76627407D01*
X115776921Y-76882079D01*
X118316921Y-79422079D01*
X118571594Y-79592245D01*
X118872000Y-79652000D01*
X128240494Y-79652000D01*
X128247673Y-79659192D01*
X128591201Y-79801838D01*
X128963167Y-79802162D01*
X129306943Y-79660117D01*
X129570192Y-79397327D01*
X129712838Y-79053799D01*
X129713162Y-78681833D01*
X129571117Y-78338057D01*
X129308327Y-78074808D01*
X128964799Y-77932162D01*
X128592833Y-77931838D01*
X128249057Y-78073883D01*
X128240926Y-78082000D01*
X119197158Y-78082000D01*
X117117000Y-76001842D01*
X117117000Y-74829381D01*
X117158087Y-74856834D01*
X117602000Y-74945134D01*
X118045913Y-74856834D01*
X118422244Y-74605378D01*
X118673700Y-74229047D01*
X118762000Y-73785134D01*
X118762000Y-73280866D01*
X118673700Y-72836953D01*
X118422244Y-72460622D01*
X118045913Y-72209166D01*
X117602000Y-72120866D01*
X117158087Y-72209166D01*
X116967000Y-72336846D01*
X116775913Y-72209166D01*
X116332000Y-72120866D01*
X115888087Y-72209166D01*
X115879934Y-72214613D01*
X115838890Y-72186569D01*
X115587000Y-72135560D01*
X114537000Y-72135560D01*
X114301683Y-72179838D01*
X114085559Y-72318910D01*
X113940569Y-72531110D01*
X113889560Y-72783000D01*
X112922650Y-72783000D01*
X112707244Y-72460622D01*
X112330913Y-72209166D01*
X111887000Y-72120866D01*
X111443087Y-72209166D01*
X111252000Y-72336846D01*
X111060913Y-72209166D01*
X110617000Y-72120866D01*
X110173087Y-72209166D01*
X110164934Y-72214613D01*
X110123890Y-72186569D01*
X109872000Y-72135560D01*
X108822000Y-72135560D01*
X108586683Y-72179838D01*
X108370559Y-72318910D01*
X108225569Y-72531110D01*
X108174560Y-72783000D01*
X108174560Y-74283000D01*
X108218838Y-74518317D01*
X108357910Y-74734441D01*
X108570110Y-74879431D01*
X108822000Y-74930440D01*
X109832000Y-74930440D01*
X109832000Y-77017842D01*
X107521921Y-79327921D01*
X107351755Y-79582593D01*
X107333659Y-79673566D01*
X107292000Y-79883000D01*
X107292000Y-99568000D01*
X107351755Y-99868407D01*
X107521921Y-100123079D01*
X108410921Y-101012079D01*
X108511939Y-101079577D01*
X108428594Y-101204311D01*
X108314520Y-101777800D01*
X108428594Y-102351289D01*
X108753450Y-102837470D01*
X109068231Y-103047800D01*
X108753450Y-103258130D01*
X108428594Y-103744311D01*
X108314520Y-104317800D01*
X108428594Y-104891289D01*
X108753450Y-105377470D01*
X109068231Y-105587800D01*
X108753450Y-105798130D01*
X108428594Y-106284311D01*
X108314520Y-106857800D01*
X108428594Y-107431289D01*
X108753450Y-107917470D01*
X109068231Y-108127800D01*
X108753450Y-108338130D01*
X108428594Y-108824311D01*
X108314520Y-109397800D01*
X108400888Y-109832000D01*
X96577112Y-109832000D01*
X96663480Y-109397800D01*
X96549406Y-108824311D01*
X96224550Y-108338130D01*
X95909769Y-108127800D01*
X96224550Y-107917470D01*
X96549406Y-107431289D01*
X96663480Y-106857800D01*
X96549406Y-106284311D01*
X96224550Y-105798130D01*
X95909769Y-105587800D01*
X96224550Y-105377470D01*
X96549406Y-104891289D01*
X96663480Y-104317800D01*
X96549406Y-103744311D01*
X96224550Y-103258130D01*
X95909769Y-103047800D01*
X96224550Y-102837470D01*
X96549406Y-102351289D01*
X96663480Y-101777800D01*
X96549406Y-101204311D01*
X96224550Y-100718130D01*
X95909769Y-100507800D01*
X96224550Y-100297470D01*
X96549406Y-99811289D01*
X96663480Y-99237800D01*
X96549406Y-98664311D01*
X96224550Y-98178130D01*
X95909769Y-97967800D01*
X96224550Y-97757470D01*
X96549406Y-97271289D01*
X96663480Y-96697800D01*
X96549406Y-96124311D01*
X96224550Y-95638130D01*
X95909769Y-95427800D01*
X96224550Y-95217470D01*
X96549406Y-94731289D01*
X96663480Y-94157800D01*
X96549406Y-93584311D01*
X96224550Y-93098130D01*
X95909769Y-92887800D01*
X96224550Y-92677470D01*
X96549406Y-92191289D01*
X96663480Y-91617800D01*
X96549406Y-91044311D01*
X96224550Y-90558130D01*
X95909769Y-90347800D01*
X96224550Y-90137470D01*
X96549406Y-89651289D01*
X96663480Y-89077800D01*
X96549406Y-88504311D01*
X96224550Y-88018130D01*
X95909769Y-87807800D01*
X96224550Y-87597470D01*
X96549406Y-87111289D01*
X96663480Y-86537800D01*
X96549406Y-85964311D01*
X96224550Y-85478130D01*
X95909769Y-85267800D01*
X96224550Y-85057470D01*
X96549406Y-84571289D01*
X96663480Y-83997800D01*
X96549406Y-83424311D01*
X96224550Y-82938130D01*
X95909769Y-82727800D01*
X96224550Y-82517470D01*
X96549406Y-82031289D01*
X96663480Y-81457800D01*
X96549406Y-80884311D01*
X96224550Y-80398130D01*
X95738369Y-80073274D01*
X95164880Y-79959200D01*
X94573120Y-79959200D01*
X93999631Y-80073274D01*
X93513450Y-80398130D01*
X93188594Y-80884311D01*
X93074520Y-81457800D01*
X93188594Y-82031289D01*
X93513450Y-82517470D01*
X93828231Y-82727800D01*
X93513450Y-82938130D01*
X93188594Y-83424311D01*
X93074520Y-83997800D01*
X93188594Y-84571289D01*
X93513450Y-85057470D01*
X93828231Y-85267800D01*
X93513450Y-85478130D01*
X93188594Y-85964311D01*
X93074520Y-86537800D01*
X93188594Y-87111289D01*
X93513450Y-87597470D01*
X93828231Y-87807800D01*
X93513450Y-88018130D01*
X93188594Y-88504311D01*
X93074520Y-89077800D01*
X93188594Y-89651289D01*
X93513450Y-90137470D01*
X93828231Y-90347800D01*
X93513450Y-90558130D01*
X93188594Y-91044311D01*
X93074520Y-91617800D01*
X93188594Y-92191289D01*
X93513450Y-92677470D01*
X93828231Y-92887800D01*
X93513450Y-93098130D01*
X93188594Y-93584311D01*
X93074520Y-94157800D01*
X93188594Y-94731289D01*
X93513450Y-95217470D01*
X93828231Y-95427800D01*
X93513450Y-95638130D01*
X93188594Y-96124311D01*
X93164516Y-96245358D01*
X89709079Y-92789921D01*
X89454407Y-92619755D01*
X89154000Y-92560000D01*
X87222440Y-92560000D01*
X87222440Y-92495000D01*
X87178162Y-92259683D01*
X87039090Y-92043559D01*
X86826890Y-91898569D01*
X86575000Y-91847560D01*
X86560000Y-91847560D01*
X86560000Y-90805000D01*
X86496439Y-90485459D01*
X86315434Y-90214566D01*
X85232172Y-89131304D01*
X85460000Y-89177440D01*
X87260000Y-89177440D01*
X87495317Y-89133162D01*
X87711441Y-88994090D01*
X87856431Y-88781890D01*
X87907440Y-88530000D01*
X87907440Y-86730000D01*
X87863162Y-86494683D01*
X87724090Y-86278559D01*
X87511890Y-86133569D01*
X87491466Y-86129433D01*
X87660551Y-85960643D01*
X87894733Y-85396670D01*
X87895265Y-84786009D01*
X87662068Y-84221629D01*
X87230643Y-83789449D01*
X86666670Y-83555267D01*
X86056009Y-83554735D01*
X85491629Y-83787932D01*
X85059449Y-84219357D01*
X84825267Y-84783330D01*
X84824735Y-85393991D01*
X85057932Y-85958371D01*
X85225880Y-86126613D01*
X85224683Y-86126838D01*
X85008559Y-86265910D01*
X84863569Y-86478110D01*
X84812560Y-86730000D01*
X84812560Y-88530000D01*
X84854672Y-88753804D01*
X84655000Y-88554132D01*
X84655000Y-80990868D01*
X84858696Y-80787172D01*
X84812560Y-81015000D01*
X84812560Y-82815000D01*
X84856838Y-83050317D01*
X84995910Y-83266441D01*
X85208110Y-83411431D01*
X85460000Y-83462440D01*
X87260000Y-83462440D01*
X87495317Y-83418162D01*
X87711441Y-83279090D01*
X87856431Y-83066890D01*
X87907440Y-82815000D01*
X87907440Y-81548428D01*
X88601434Y-80854434D01*
X88782440Y-80583540D01*
X88846000Y-80264000D01*
X88846000Y-76200000D01*
X88811507Y-76026593D01*
X88782440Y-75880460D01*
X88601434Y-75609566D01*
X87195000Y-74203132D01*
X87195000Y-69850000D01*
X90433907Y-69850000D01*
X90546946Y-70418285D01*
X90868853Y-70900054D01*
X90910452Y-70927850D01*
X90862683Y-70936838D01*
X90646559Y-71075910D01*
X90501569Y-71288110D01*
X90450560Y-71540000D01*
X90450560Y-73240000D01*
X90494838Y-73475317D01*
X90633910Y-73691441D01*
X90846110Y-73836431D01*
X91098000Y-73887440D01*
X91163000Y-73887440D01*
X91163000Y-74168000D01*
X91222755Y-74468407D01*
X91392921Y-74723079D01*
X92535921Y-75866079D01*
X92790593Y-76036245D01*
X93091000Y-76096000D01*
X94698038Y-76096000D01*
X94870302Y-76353811D01*
X95335849Y-76664880D01*
X95885000Y-76774113D01*
X96434151Y-76664880D01*
X96899698Y-76353811D01*
X97210767Y-75888264D01*
X97320000Y-75339113D01*
X97320000Y-75282887D01*
X97210767Y-74733736D01*
X96899698Y-74268189D01*
X96434151Y-73957120D01*
X95885000Y-73847887D01*
X95335849Y-73957120D01*
X94870302Y-74268189D01*
X94698038Y-74526000D01*
X93416158Y-74526000D01*
X92777598Y-73887440D01*
X92798000Y-73887440D01*
X93033317Y-73843162D01*
X93249441Y-73704090D01*
X93394431Y-73491890D01*
X93445440Y-73240000D01*
X93445440Y-71540000D01*
X93401162Y-71304683D01*
X93262090Y-71088559D01*
X93049890Y-70943569D01*
X92982459Y-70929914D01*
X93027147Y-70900054D01*
X93349054Y-70418285D01*
X93462093Y-69850000D01*
X93349054Y-69281715D01*
X93027147Y-68799946D01*
X92645424Y-68544887D01*
X100419000Y-68544887D01*
X100419000Y-68601113D01*
X100528233Y-69150264D01*
X100839302Y-69615811D01*
X101304849Y-69926880D01*
X101854000Y-70036113D01*
X102403151Y-69926880D01*
X102868698Y-69615811D01*
X103179767Y-69150264D01*
X103289000Y-68601113D01*
X103289000Y-68544887D01*
X103179767Y-67995736D01*
X102868698Y-67530189D01*
X102403151Y-67219120D01*
X101854000Y-67109887D01*
X101304849Y-67219120D01*
X100839302Y-67530189D01*
X100528233Y-67995736D01*
X100419000Y-68544887D01*
X92645424Y-68544887D01*
X92545378Y-68478039D01*
X91977093Y-68365000D01*
X91918907Y-68365000D01*
X91350622Y-68478039D01*
X90868853Y-68799946D01*
X90546946Y-69281715D01*
X90433907Y-69850000D01*
X87195000Y-69850000D01*
X87195000Y-67837882D01*
X87374698Y-67717811D01*
X87685767Y-67252264D01*
X87795000Y-66703113D01*
X87795000Y-66646887D01*
X87685767Y-66097736D01*
X87374698Y-65632189D01*
X87079865Y-65435187D01*
X94449752Y-65435187D01*
X94667757Y-65962800D01*
X95071077Y-66366824D01*
X95598309Y-66585750D01*
X96169187Y-66586248D01*
X96696800Y-66368243D01*
X97100824Y-65964923D01*
X97319750Y-65437691D01*
X97320248Y-64866813D01*
X97102243Y-64339200D01*
X96698923Y-63935176D01*
X96171691Y-63716250D01*
X95600813Y-63715752D01*
X95073200Y-63933757D01*
X94669176Y-64337077D01*
X94450250Y-64864309D01*
X94449752Y-65435187D01*
X87079865Y-65435187D01*
X86909151Y-65321120D01*
X86360000Y-65211887D01*
X85810849Y-65321120D01*
X85345302Y-65632189D01*
X85034233Y-66097736D01*
X84925000Y-66646887D01*
X84925000Y-66703113D01*
X85034233Y-67252264D01*
X85345302Y-67717811D01*
X85525000Y-67837882D01*
X85525000Y-74549000D01*
X85588561Y-74868541D01*
X85605068Y-74893245D01*
X85769566Y-75139434D01*
X87176000Y-76545868D01*
X87176000Y-78051759D01*
X86666670Y-77840267D01*
X86056009Y-77839735D01*
X85491629Y-78072932D01*
X85059449Y-78504357D01*
X85040566Y-78549833D01*
X84770459Y-78603561D01*
X84508724Y-78778447D01*
X84499566Y-78784566D01*
X83229566Y-80054566D01*
X83048561Y-80325459D01*
X82985000Y-80645000D01*
X82985000Y-88900000D01*
X83048561Y-89219541D01*
X83151731Y-89373946D01*
X83229566Y-89490434D01*
X84890000Y-91150868D01*
X84890000Y-91847560D01*
X84875000Y-91847560D01*
X84639683Y-91891838D01*
X84423559Y-92030910D01*
X84278569Y-92243110D01*
X84227560Y-92495000D01*
X84227560Y-94195000D01*
X84271838Y-94430317D01*
X84410910Y-94646441D01*
X84623110Y-94791431D01*
X84875000Y-94842440D01*
X86575000Y-94842440D01*
X86810317Y-94798162D01*
X87026441Y-94659090D01*
X87171431Y-94446890D01*
X87222440Y-94195000D01*
X87222440Y-94130000D01*
X88828842Y-94130000D01*
X92052000Y-97353158D01*
X92052000Y-99323842D01*
X91233079Y-98504921D01*
X90978407Y-98334755D01*
X90678000Y-98275000D01*
X87222440Y-98275000D01*
X87222440Y-98210000D01*
X87178162Y-97974683D01*
X87039090Y-97758559D01*
X86826890Y-97613569D01*
X86575000Y-97562560D01*
X84875000Y-97562560D01*
X84639683Y-97606838D01*
X84423559Y-97745910D01*
X84278569Y-97958110D01*
X84227560Y-98210000D01*
X84227560Y-99910000D01*
X84271838Y-100145317D01*
X84410910Y-100361441D01*
X84623110Y-100506431D01*
X84875000Y-100557440D01*
X86575000Y-100557440D01*
X86810317Y-100513162D01*
X87026441Y-100374090D01*
X87171431Y-100161890D01*
X87222440Y-99910000D01*
X87222440Y-99845000D01*
X90352842Y-99845000D01*
X91163000Y-100655158D01*
X91163000Y-112111494D01*
X91155808Y-112118673D01*
X91013162Y-112462201D01*
X91012838Y-112834167D01*
X91154883Y-113177943D01*
X91417673Y-113441192D01*
X91475009Y-113465000D01*
X87328841Y-113465000D01*
X87185147Y-113249946D01*
X86703378Y-112928039D01*
X86135093Y-112815000D01*
X86076907Y-112815000D01*
X85508622Y-112928039D01*
X85026853Y-113249946D01*
X84704946Y-113731715D01*
X84591907Y-114300000D01*
X84704946Y-114868285D01*
X85026853Y-115350054D01*
X85068452Y-115377850D01*
X85020683Y-115386838D01*
X84804559Y-115525910D01*
X84659569Y-115738110D01*
X84608560Y-115990000D01*
X84608560Y-116005000D01*
X84165868Y-116005000D01*
X84020000Y-115859132D01*
X84020000Y-108930868D01*
X84636639Y-108314229D01*
X84652838Y-108400317D01*
X84791910Y-108616441D01*
X85004110Y-108761431D01*
X85256000Y-108812440D01*
X86956000Y-108812440D01*
X87191317Y-108768162D01*
X87407441Y-108629090D01*
X87552431Y-108416890D01*
X87603440Y-108165000D01*
X87603440Y-106465000D01*
X87559162Y-106229683D01*
X87420090Y-106013559D01*
X87207890Y-105868569D01*
X87140459Y-105854914D01*
X87185147Y-105825054D01*
X87507054Y-105343285D01*
X87620093Y-104775000D01*
X87507054Y-104206715D01*
X87185147Y-103724946D01*
X86703378Y-103403039D01*
X86135093Y-103290000D01*
X86076907Y-103290000D01*
X85508622Y-103403039D01*
X85026853Y-103724946D01*
X84704946Y-104206715D01*
X84591907Y-104775000D01*
X84704946Y-105343285D01*
X85026853Y-105825054D01*
X85068452Y-105852850D01*
X85020683Y-105861838D01*
X84804559Y-106000910D01*
X84659569Y-106213110D01*
X84608560Y-106465000D01*
X84608560Y-106480000D01*
X84455000Y-106480000D01*
X84135459Y-106543561D01*
X83880298Y-106714054D01*
X83864566Y-106724566D01*
X82854000Y-107735132D01*
X82854000Y-62670350D01*
X83270849Y-62948880D01*
X83820000Y-63058113D01*
X84369151Y-62948880D01*
X84834698Y-62637811D01*
X85145767Y-62172264D01*
X85204063Y-61879187D01*
X87210752Y-61879187D01*
X87428757Y-62406800D01*
X87832077Y-62810824D01*
X88359309Y-63029750D01*
X88930187Y-63030248D01*
X89457800Y-62812243D01*
X89861824Y-62408923D01*
X90080750Y-61881691D01*
X90081018Y-61573887D01*
X94577000Y-61573887D01*
X94577000Y-61630113D01*
X94686233Y-62179264D01*
X94997302Y-62644811D01*
X95462849Y-62955880D01*
X96012000Y-63065113D01*
X96561151Y-62955880D01*
X97026698Y-62644811D01*
X97337767Y-62179264D01*
X97447000Y-61630113D01*
X97447000Y-61573887D01*
X97337767Y-61024736D01*
X97026698Y-60559189D01*
X96561151Y-60248120D01*
X96012000Y-60138887D01*
X95462849Y-60248120D01*
X94997302Y-60559189D01*
X94686233Y-61024736D01*
X94577000Y-61573887D01*
X90081018Y-61573887D01*
X90081248Y-61310813D01*
X89863243Y-60783200D01*
X89459923Y-60379176D01*
X88932691Y-60160250D01*
X88361813Y-60159752D01*
X87834200Y-60377757D01*
X87430176Y-60781077D01*
X87211250Y-61308309D01*
X87210752Y-61879187D01*
X85204063Y-61879187D01*
X85255000Y-61623113D01*
X85255000Y-61566887D01*
X85145767Y-61017736D01*
X84834698Y-60552189D01*
X84369151Y-60241120D01*
X83820000Y-60131887D01*
X83270849Y-60241120D01*
X82854000Y-60519650D01*
X82854000Y-53721000D01*
X98936999Y-53721000D01*
X98937000Y-53721005D01*
X98937000Y-63372995D01*
X98936999Y-63373000D01*
X98993190Y-63655484D01*
X99004367Y-63711675D01*
X99152757Y-63933757D01*
X99196210Y-63998790D01*
X100444767Y-65247347D01*
X100419000Y-65376887D01*
X100419000Y-65433113D01*
X100528233Y-65982264D01*
X100839302Y-66447811D01*
X101304849Y-66758880D01*
X101854000Y-66868113D01*
X102403151Y-66758880D01*
X102868698Y-66447811D01*
X103179767Y-65982264D01*
X103289000Y-65433113D01*
X103289000Y-65376887D01*
X103179767Y-64827736D01*
X102868698Y-64362189D01*
X102403151Y-64051120D01*
X101854000Y-63941887D01*
X101677562Y-63976983D01*
X100707000Y-63006420D01*
X100707000Y-57335167D01*
X103204838Y-57335167D01*
X103346883Y-57678943D01*
X103355000Y-57687074D01*
X103355000Y-64516000D01*
X103414755Y-64816407D01*
X103584921Y-65071079D01*
X109934921Y-71421079D01*
X110189593Y-71591245D01*
X110490000Y-71651000D01*
X134717494Y-71651000D01*
X134724673Y-71658192D01*
X135068201Y-71800838D01*
X135440167Y-71801162D01*
X135783943Y-71659117D01*
X136047192Y-71396327D01*
X136189838Y-71052799D01*
X136190162Y-70680833D01*
X136048117Y-70337057D01*
X135785327Y-70073808D01*
X135441799Y-69931162D01*
X135069833Y-69930838D01*
X134726057Y-70072883D01*
X134717926Y-70081000D01*
X110815158Y-70081000D01*
X104925000Y-64190842D01*
X104925000Y-60706000D01*
X107451907Y-60706000D01*
X107564946Y-61274285D01*
X107886853Y-61756054D01*
X107928452Y-61783850D01*
X107880683Y-61792838D01*
X107664559Y-61931910D01*
X107519569Y-62144110D01*
X107468560Y-62396000D01*
X107468560Y-64096000D01*
X107512838Y-64331317D01*
X107651910Y-64547441D01*
X107864110Y-64692431D01*
X108116000Y-64743440D01*
X109816000Y-64743440D01*
X110051317Y-64699162D01*
X110267441Y-64560090D01*
X110412431Y-64347890D01*
X110463440Y-64096000D01*
X110463440Y-62396000D01*
X110419162Y-62160683D01*
X110280090Y-61944559D01*
X110067890Y-61799569D01*
X110000459Y-61785914D01*
X110045147Y-61756054D01*
X110367054Y-61274285D01*
X110480093Y-60706000D01*
X110367054Y-60137715D01*
X110045147Y-59655946D01*
X109563378Y-59334039D01*
X108995093Y-59221000D01*
X108936907Y-59221000D01*
X108368622Y-59334039D01*
X107886853Y-59655946D01*
X107564946Y-60137715D01*
X107451907Y-60706000D01*
X104925000Y-60706000D01*
X104925000Y-57687506D01*
X104932192Y-57680327D01*
X105074838Y-57336799D01*
X105075162Y-56964833D01*
X104933117Y-56621057D01*
X104670327Y-56357808D01*
X104326799Y-56215162D01*
X103954833Y-56214838D01*
X103611057Y-56356883D01*
X103347808Y-56619673D01*
X103205162Y-56963201D01*
X103204838Y-57335167D01*
X100707000Y-57335167D01*
X100707000Y-56127166D01*
X101040077Y-56460824D01*
X101567309Y-56679750D01*
X102138187Y-56680248D01*
X102665800Y-56462243D01*
X103069824Y-56058923D01*
X103288750Y-55531691D01*
X103289248Y-54960813D01*
X103071243Y-54433200D01*
X102667923Y-54029176D01*
X102140691Y-53810250D01*
X101569813Y-53809752D01*
X101042200Y-54027757D01*
X100707000Y-54362373D01*
X100707000Y-54087580D01*
X102597579Y-52197000D01*
X107061000Y-52197000D01*
X107061000Y-57531000D01*
X107069685Y-57577159D01*
X107096965Y-57619553D01*
X107138590Y-57647994D01*
X107188000Y-57658000D01*
X110490000Y-57658000D01*
X110536159Y-57649315D01*
X110578553Y-57622035D01*
X110606994Y-57580410D01*
X110617000Y-57531000D01*
X110617000Y-52197000D01*
X110608315Y-52150841D01*
X110581035Y-52108447D01*
X110539410Y-52080006D01*
X110490000Y-52070000D01*
X107188000Y-52070000D01*
X107141841Y-52078685D01*
X107099447Y-52105965D01*
X107071006Y-52147590D01*
X107061000Y-52197000D01*
X102597579Y-52197000D01*
X102733787Y-52060792D01*
X102733790Y-52060790D01*
X102925633Y-51773675D01*
X102942476Y-51689000D01*
X102993001Y-51435000D01*
X102993000Y-51434995D01*
X102993000Y-50142144D01*
X103150811Y-50036698D01*
X103461880Y-49571151D01*
X103571113Y-49022000D01*
X103461880Y-48472849D01*
X103150811Y-48007302D01*
X102685264Y-47696233D01*
X102136113Y-47587000D01*
X102079887Y-47587000D01*
X101530736Y-47696233D01*
X101065189Y-48007302D01*
X100754120Y-48472849D01*
X100644887Y-49022000D01*
X100754120Y-49571151D01*
X101065189Y-50036698D01*
X101223000Y-50142144D01*
X101223000Y-51068421D01*
X99196210Y-53095210D01*
X99004367Y-53382325D01*
X99004367Y-53382326D01*
X98936999Y-53721000D01*
X82854000Y-53721000D01*
X82854000Y-51406887D01*
X87211000Y-51406887D01*
X87211000Y-51463113D01*
X87320233Y-52012264D01*
X87631302Y-52477811D01*
X88096849Y-52788880D01*
X88646000Y-52898113D01*
X89195151Y-52788880D01*
X89660698Y-52477811D01*
X89971767Y-52012264D01*
X90081000Y-51463113D01*
X90081000Y-51406887D01*
X89971767Y-50857736D01*
X89660698Y-50392189D01*
X89195151Y-50081120D01*
X88646000Y-49971887D01*
X88096849Y-50081120D01*
X87631302Y-50392189D01*
X87320233Y-50857736D01*
X87211000Y-51406887D01*
X82854000Y-51406887D01*
X82854000Y-49306187D01*
X90512752Y-49306187D01*
X90730757Y-49833800D01*
X91134077Y-50237824D01*
X91661309Y-50456750D01*
X92232187Y-50457248D01*
X92759800Y-50239243D01*
X93163824Y-49835923D01*
X93382750Y-49308691D01*
X93383248Y-48737813D01*
X93165243Y-48210200D01*
X92761923Y-47806176D01*
X92234691Y-47587250D01*
X91663813Y-47586752D01*
X91136200Y-47804757D01*
X90732176Y-48208077D01*
X90513250Y-48735309D01*
X90512752Y-49306187D01*
X82854000Y-49306187D01*
X82854000Y-42636325D01*
X84101587Y-42636325D01*
X84463916Y-43513229D01*
X85134242Y-44184726D01*
X86010513Y-44548585D01*
X86959325Y-44549413D01*
X87836229Y-44187084D01*
X88507726Y-43516758D01*
X88871585Y-42640487D01*
X88872413Y-41691675D01*
X88740701Y-41372907D01*
X102782000Y-41372907D01*
X102782000Y-41431093D01*
X102895039Y-41999378D01*
X103216946Y-42481147D01*
X103698715Y-42803054D01*
X104267000Y-42916093D01*
X104835285Y-42803054D01*
X105317054Y-42481147D01*
X105537000Y-42151974D01*
X105756946Y-42481147D01*
X106238715Y-42803054D01*
X106807000Y-42916093D01*
X107375285Y-42803054D01*
X107857054Y-42481147D01*
X108077000Y-42151974D01*
X108296946Y-42481147D01*
X108778715Y-42803054D01*
X109347000Y-42916093D01*
X109915285Y-42803054D01*
X110397054Y-42481147D01*
X110617000Y-42151974D01*
X110752000Y-42354016D01*
X110752000Y-45593000D01*
X110838397Y-46027346D01*
X111057329Y-46355000D01*
X111084434Y-46395566D01*
X112657000Y-47968132D01*
X112657000Y-61849000D01*
X112743397Y-62283346D01*
X112878340Y-62485302D01*
X112989434Y-62651566D01*
X114640434Y-64302566D01*
X115008655Y-64548604D01*
X115443000Y-64635000D01*
X119787233Y-64635000D01*
X119989275Y-64770000D01*
X119607189Y-65025302D01*
X119296120Y-65490849D01*
X119186887Y-66040000D01*
X119296120Y-66589151D01*
X119607189Y-67054698D01*
X119989275Y-67310000D01*
X119607189Y-67565302D01*
X119296120Y-68030849D01*
X119186887Y-68580000D01*
X119296120Y-69129151D01*
X119607189Y-69594698D01*
X120072736Y-69905767D01*
X120621887Y-70015000D01*
X120678113Y-70015000D01*
X121227264Y-69905767D01*
X121692811Y-69594698D01*
X122003880Y-69129151D01*
X122113113Y-68580000D01*
X122003880Y-68030849D01*
X121692811Y-67565302D01*
X121310725Y-67310000D01*
X121692811Y-67054698D01*
X122003880Y-66589151D01*
X122113113Y-66040000D01*
X122003880Y-65490849D01*
X121692811Y-65025302D01*
X121310725Y-64770000D01*
X121692811Y-64514698D01*
X122003880Y-64049151D01*
X122113113Y-63500000D01*
X126806887Y-63500000D01*
X126916120Y-64049151D01*
X127227189Y-64514698D01*
X127609275Y-64770000D01*
X127227189Y-65025302D01*
X126916120Y-65490849D01*
X126806887Y-66040000D01*
X126916120Y-66589151D01*
X127227189Y-67054698D01*
X127609275Y-67310000D01*
X127227189Y-67565302D01*
X126916120Y-68030849D01*
X126806887Y-68580000D01*
X126916120Y-69129151D01*
X127227189Y-69594698D01*
X127692736Y-69905767D01*
X128241887Y-70015000D01*
X128298113Y-70015000D01*
X128847264Y-69905767D01*
X129312811Y-69594698D01*
X129623880Y-69129151D01*
X129733113Y-68580000D01*
X129623880Y-68030849D01*
X129312811Y-67565302D01*
X128930725Y-67310000D01*
X129312811Y-67054698D01*
X129623880Y-66589151D01*
X129733113Y-66040000D01*
X129623880Y-65490849D01*
X129312811Y-65025302D01*
X128930725Y-64770000D01*
X129312811Y-64514698D01*
X129623880Y-64049151D01*
X129733113Y-63500000D01*
X129623880Y-62950849D01*
X129312811Y-62485302D01*
X128847264Y-62174233D01*
X128298113Y-62065000D01*
X128241887Y-62065000D01*
X127692736Y-62174233D01*
X127227189Y-62485302D01*
X126916120Y-62950849D01*
X126806887Y-63500000D01*
X122113113Y-63500000D01*
X122003880Y-62950849D01*
X121692811Y-62485302D01*
X121227264Y-62174233D01*
X120678113Y-62065000D01*
X120621887Y-62065000D01*
X120072736Y-62174233D01*
X119787233Y-62365000D01*
X115913132Y-62365000D01*
X114927000Y-61378868D01*
X114927000Y-47498000D01*
X114840603Y-47063654D01*
X114594566Y-46695434D01*
X113022000Y-45122868D01*
X113022000Y-42354016D01*
X113157000Y-42151974D01*
X113376946Y-42481147D01*
X113858715Y-42803054D01*
X114427000Y-42916093D01*
X114995285Y-42803054D01*
X115477054Y-42481147D01*
X115798961Y-41999378D01*
X115912000Y-41431093D01*
X115912000Y-41372907D01*
X115798961Y-40804622D01*
X115477054Y-40322853D01*
X114995285Y-40000946D01*
X114427000Y-39887907D01*
X113858715Y-40000946D01*
X113376946Y-40322853D01*
X113157000Y-40652026D01*
X112937054Y-40322853D01*
X112455285Y-40000946D01*
X111887000Y-39887907D01*
X111318715Y-40000946D01*
X110836946Y-40322853D01*
X110617000Y-40652026D01*
X110397054Y-40322853D01*
X109915285Y-40000946D01*
X109347000Y-39887907D01*
X108778715Y-40000946D01*
X108296946Y-40322853D01*
X108077000Y-40652026D01*
X107857054Y-40322853D01*
X107375285Y-40000946D01*
X106807000Y-39887907D01*
X106238715Y-40000946D01*
X105756946Y-40322853D01*
X105537000Y-40652026D01*
X105317054Y-40322853D01*
X104835285Y-40000946D01*
X104267000Y-39887907D01*
X103698715Y-40000946D01*
X103216946Y-40322853D01*
X102895039Y-40804622D01*
X102782000Y-41372907D01*
X88740701Y-41372907D01*
X88510084Y-40814771D01*
X87839758Y-40143274D01*
X86963487Y-39779415D01*
X86014675Y-39778587D01*
X85137771Y-40140916D01*
X84466274Y-40811242D01*
X84102415Y-41687513D01*
X84101587Y-42636325D01*
X82854000Y-42636325D01*
X82854000Y-40707467D01*
X83017269Y-39886657D01*
X83444003Y-39248005D01*
X84082658Y-38821269D01*
X84903467Y-38658000D01*
X123299842Y-38658000D01*
X122253921Y-39703921D01*
X122253921Y-39703921D01*
G37*
X122253921Y-39703921D02*
X122119859Y-39904560D01*
X121959000Y-39904560D01*
X121723683Y-39948838D01*
X121507559Y-40087910D01*
X121362569Y-40300110D01*
X121311560Y-40552000D01*
X121311560Y-42252000D01*
X121355838Y-42487317D01*
X121494910Y-42703441D01*
X121707110Y-42848431D01*
X121959000Y-42899440D01*
X123659000Y-42899440D01*
X123894317Y-42855162D01*
X124110441Y-42716090D01*
X124255431Y-42503890D01*
X124306440Y-42252000D01*
X124306440Y-40552000D01*
X124262162Y-40316683D01*
X124123090Y-40100559D01*
X124096065Y-40082093D01*
X124531158Y-39647000D01*
X141914842Y-39647000D01*
X142169727Y-39901885D01*
X141671715Y-40000946D01*
X141189946Y-40322853D01*
X140970000Y-40652026D01*
X140750054Y-40322853D01*
X140268285Y-40000946D01*
X139700000Y-39887907D01*
X139131715Y-40000946D01*
X138649946Y-40322853D01*
X138430000Y-40652026D01*
X138210054Y-40322853D01*
X137728285Y-40000946D01*
X137160000Y-39887907D01*
X136591715Y-40000946D01*
X136109946Y-40322853D01*
X135788039Y-40804622D01*
X135675000Y-41372907D01*
X135675000Y-41431093D01*
X135788039Y-41999378D01*
X136109946Y-42481147D01*
X136275000Y-42591432D01*
X136275000Y-45846995D01*
X136274999Y-45847000D01*
X136310873Y-46027345D01*
X136342367Y-46185675D01*
X136518579Y-46449397D01*
X136534210Y-46472790D01*
X139976421Y-49915000D01*
X129399473Y-49915000D01*
X129312811Y-49785302D01*
X128847264Y-49474233D01*
X128298113Y-49365000D01*
X128241887Y-49365000D01*
X127692736Y-49474233D01*
X127227189Y-49785302D01*
X127140527Y-49915000D01*
X122081446Y-49915000D01*
X122053162Y-49764683D01*
X121914090Y-49548559D01*
X121701890Y-49403569D01*
X121450000Y-49352560D01*
X119850000Y-49352560D01*
X119614683Y-49396838D01*
X119398559Y-49535910D01*
X119253569Y-49748110D01*
X119202560Y-50000000D01*
X119202560Y-51600000D01*
X119246838Y-51835317D01*
X119385910Y-52051441D01*
X119598110Y-52196431D01*
X119753089Y-52227815D01*
X119607189Y-52325302D01*
X119296120Y-52790849D01*
X119186887Y-53340000D01*
X119296120Y-53889151D01*
X119607189Y-54354698D01*
X119989275Y-54610000D01*
X119607189Y-54865302D01*
X119296120Y-55330849D01*
X119186887Y-55880000D01*
X119296120Y-56429151D01*
X119607189Y-56894698D01*
X120072736Y-57205767D01*
X120621887Y-57315000D01*
X120678113Y-57315000D01*
X121227264Y-57205767D01*
X121692811Y-56894698D01*
X122003880Y-56429151D01*
X122113113Y-55880000D01*
X122003880Y-55330849D01*
X121692811Y-54865302D01*
X121310725Y-54610000D01*
X121692811Y-54354698D01*
X122003880Y-53889151D01*
X122113113Y-53340000D01*
X122003880Y-52790849D01*
X121692811Y-52325302D01*
X121548535Y-52228899D01*
X121685317Y-52203162D01*
X121901441Y-52064090D01*
X122046431Y-51851890D01*
X122080227Y-51685000D01*
X127140527Y-51685000D01*
X127227189Y-51814698D01*
X127609275Y-52070000D01*
X127227189Y-52325302D01*
X126916120Y-52790849D01*
X126806887Y-53340000D01*
X126916120Y-53889151D01*
X127227189Y-54354698D01*
X127609275Y-54610000D01*
X127227189Y-54865302D01*
X126916120Y-55330849D01*
X126806887Y-55880000D01*
X126916120Y-56429151D01*
X127227189Y-56894698D01*
X127692736Y-57205767D01*
X128241887Y-57315000D01*
X128298113Y-57315000D01*
X128847264Y-57205767D01*
X129312811Y-56894698D01*
X129623880Y-56429151D01*
X129733113Y-55880000D01*
X129623880Y-55330849D01*
X129312811Y-54865302D01*
X128930725Y-54610000D01*
X129312811Y-54354698D01*
X129399473Y-54225000D01*
X130443420Y-54225000D01*
X131576000Y-55357579D01*
X131576000Y-63499995D01*
X131575999Y-63500000D01*
X131618105Y-63711674D01*
X131643367Y-63838675D01*
X131815305Y-64096000D01*
X131835210Y-64125790D01*
X138815000Y-71105579D01*
X138815000Y-72197447D01*
X138430000Y-72120866D01*
X137986087Y-72209166D01*
X137795000Y-72336846D01*
X137603913Y-72209166D01*
X137160000Y-72120866D01*
X136716087Y-72209166D01*
X136339756Y-72460622D01*
X136088300Y-72836953D01*
X136000000Y-73280866D01*
X136000000Y-73785134D01*
X136088300Y-74229047D01*
X136339756Y-74605378D01*
X136716087Y-74856834D01*
X137160000Y-74945134D01*
X137603913Y-74856834D01*
X137645000Y-74829381D01*
X137645000Y-81081842D01*
X136096921Y-82629921D01*
X135926755Y-82884593D01*
X135926755Y-82884594D01*
X135867000Y-83185000D01*
X135867000Y-85320740D01*
X135616369Y-85153274D01*
X135042880Y-85039200D01*
X134451120Y-85039200D01*
X133877631Y-85153274D01*
X133391450Y-85478130D01*
X133066594Y-85964311D01*
X132952520Y-86537800D01*
X133066594Y-87111289D01*
X133391450Y-87597470D01*
X133706231Y-87807800D01*
X133391450Y-88018130D01*
X133066594Y-88504311D01*
X132952520Y-89077800D01*
X133038888Y-89512000D01*
X121215112Y-89512000D01*
X121301480Y-89077800D01*
X121194903Y-88542000D01*
X122809000Y-88542000D01*
X123109407Y-88482245D01*
X123364079Y-88312079D01*
X132635079Y-79041079D01*
X132805245Y-78786406D01*
X132865000Y-78486000D01*
X132865000Y-74930440D01*
X133875000Y-74930440D01*
X134110317Y-74886162D01*
X134326441Y-74747090D01*
X134471431Y-74534890D01*
X134522440Y-74283000D01*
X134522440Y-72783000D01*
X134478162Y-72547683D01*
X134339090Y-72331559D01*
X134126890Y-72186569D01*
X133875000Y-72135560D01*
X132825000Y-72135560D01*
X132589683Y-72179838D01*
X132533819Y-72215785D01*
X132523913Y-72209166D01*
X132080000Y-72120866D01*
X131636087Y-72209166D01*
X131445000Y-72336846D01*
X131253913Y-72209166D01*
X130810000Y-72120866D01*
X130366087Y-72209166D01*
X129989756Y-72460622D01*
X129738300Y-72836953D01*
X129650000Y-73280866D01*
X129650000Y-73785134D01*
X129738300Y-74229047D01*
X129989756Y-74605378D01*
X130366087Y-74856834D01*
X130810000Y-74945134D01*
X131253913Y-74856834D01*
X131295000Y-74829381D01*
X131295000Y-78160842D01*
X122483842Y-86972000D01*
X121215112Y-86972000D01*
X121301480Y-86537800D01*
X121187406Y-85964311D01*
X120862550Y-85478130D01*
X120547769Y-85267800D01*
X120862550Y-85057470D01*
X121187406Y-84571289D01*
X121301480Y-83997800D01*
X121187406Y-83424311D01*
X120862550Y-82938130D01*
X120547769Y-82727800D01*
X120862550Y-82517470D01*
X121187406Y-82031289D01*
X121301480Y-81457800D01*
X121187406Y-80884311D01*
X120862550Y-80398130D01*
X120376369Y-80073274D01*
X119802880Y-79959200D01*
X119211120Y-79959200D01*
X118637631Y-80073274D01*
X118151450Y-80398130D01*
X117826594Y-80884311D01*
X117712520Y-81457800D01*
X117826594Y-82031289D01*
X118151450Y-82517470D01*
X118466231Y-82727800D01*
X118151450Y-82938130D01*
X117826594Y-83424311D01*
X117712520Y-83997800D01*
X117826594Y-84571289D01*
X118151450Y-85057470D01*
X118466231Y-85267800D01*
X118151450Y-85478130D01*
X117826594Y-85964311D01*
X117712520Y-86537800D01*
X117826594Y-87111289D01*
X117863006Y-87165783D01*
X117808921Y-87201921D01*
X111644059Y-93366783D01*
X111464550Y-93098130D01*
X111149769Y-92887800D01*
X111464550Y-92677470D01*
X111789406Y-92191289D01*
X111903480Y-91617800D01*
X111789406Y-91044311D01*
X111464550Y-90558130D01*
X111149769Y-90347800D01*
X111464550Y-90137470D01*
X111789406Y-89651289D01*
X111903480Y-89077800D01*
X111789406Y-88504311D01*
X111464550Y-88018130D01*
X111149769Y-87807800D01*
X111464550Y-87597470D01*
X111789406Y-87111289D01*
X111903480Y-86537800D01*
X111789406Y-85964311D01*
X111464550Y-85478130D01*
X110978369Y-85153274D01*
X110404880Y-85039200D01*
X109813120Y-85039200D01*
X109239631Y-85153274D01*
X108862000Y-85405599D01*
X108862000Y-80208158D01*
X111052000Y-78018158D01*
X111052000Y-78521132D01*
X110836667Y-78736465D01*
X110596057Y-78835883D01*
X110332808Y-79098673D01*
X110190162Y-79442201D01*
X110189838Y-79814167D01*
X110331883Y-80157943D01*
X110594673Y-80421192D01*
X110938201Y-80563838D01*
X111310167Y-80564162D01*
X111653943Y-80422117D01*
X111917192Y-80159327D01*
X112017778Y-79917090D01*
X112477434Y-79457434D01*
X112658440Y-79186540D01*
X112722000Y-78867000D01*
X112722000Y-74583294D01*
X112958700Y-74229047D01*
X113047000Y-73785134D01*
X113047000Y-73280866D01*
X112958700Y-72836953D01*
X112922650Y-72783000D01*
X113889560Y-72783000D01*
X113889560Y-74283000D01*
X113933838Y-74518317D01*
X114072910Y-74734441D01*
X114285110Y-74879431D01*
X114537000Y-74930440D01*
X115547000Y-74930440D01*
X115547000Y-76327000D01*
X115606755Y-76627407D01*
X115776921Y-76882079D01*
X118316921Y-79422079D01*
X118571594Y-79592245D01*
X118872000Y-79652000D01*
X128240494Y-79652000D01*
X128247673Y-79659192D01*
X128591201Y-79801838D01*
X128963167Y-79802162D01*
X129306943Y-79660117D01*
X129570192Y-79397327D01*
X129712838Y-79053799D01*
X129713162Y-78681833D01*
X129571117Y-78338057D01*
X129308327Y-78074808D01*
X128964799Y-77932162D01*
X128592833Y-77931838D01*
X128249057Y-78073883D01*
X128240926Y-78082000D01*
X119197158Y-78082000D01*
X117117000Y-76001842D01*
X117117000Y-74829381D01*
X117158087Y-74856834D01*
X117602000Y-74945134D01*
X118045913Y-74856834D01*
X118422244Y-74605378D01*
X118673700Y-74229047D01*
X118762000Y-73785134D01*
X118762000Y-73280866D01*
X118673700Y-72836953D01*
X118422244Y-72460622D01*
X118045913Y-72209166D01*
X117602000Y-72120866D01*
X117158087Y-72209166D01*
X116967000Y-72336846D01*
X116775913Y-72209166D01*
X116332000Y-72120866D01*
X115888087Y-72209166D01*
X115879934Y-72214613D01*
X115838890Y-72186569D01*
X115587000Y-72135560D01*
X114537000Y-72135560D01*
X114301683Y-72179838D01*
X114085559Y-72318910D01*
X113940569Y-72531110D01*
X113889560Y-72783000D01*
X112922650Y-72783000D01*
X112707244Y-72460622D01*
X112330913Y-72209166D01*
X111887000Y-72120866D01*
X111443087Y-72209166D01*
X111252000Y-72336846D01*
X111060913Y-72209166D01*
X110617000Y-72120866D01*
X110173087Y-72209166D01*
X110164934Y-72214613D01*
X110123890Y-72186569D01*
X109872000Y-72135560D01*
X108822000Y-72135560D01*
X108586683Y-72179838D01*
X108370559Y-72318910D01*
X108225569Y-72531110D01*
X108174560Y-72783000D01*
X108174560Y-74283000D01*
X108218838Y-74518317D01*
X108357910Y-74734441D01*
X108570110Y-74879431D01*
X108822000Y-74930440D01*
X109832000Y-74930440D01*
X109832000Y-77017842D01*
X107521921Y-79327921D01*
X107351755Y-79582593D01*
X107333659Y-79673566D01*
X107292000Y-79883000D01*
X107292000Y-99568000D01*
X107351755Y-99868407D01*
X107521921Y-100123079D01*
X108410921Y-101012079D01*
X108511939Y-101079577D01*
X108428594Y-101204311D01*
X108314520Y-101777800D01*
X108428594Y-102351289D01*
X108753450Y-102837470D01*
X109068231Y-103047800D01*
X108753450Y-103258130D01*
X108428594Y-103744311D01*
X108314520Y-104317800D01*
X108428594Y-104891289D01*
X108753450Y-105377470D01*
X109068231Y-105587800D01*
X108753450Y-105798130D01*
X108428594Y-106284311D01*
X108314520Y-106857800D01*
X108428594Y-107431289D01*
X108753450Y-107917470D01*
X109068231Y-108127800D01*
X108753450Y-108338130D01*
X108428594Y-108824311D01*
X108314520Y-109397800D01*
X108400888Y-109832000D01*
X96577112Y-109832000D01*
X96663480Y-109397800D01*
X96549406Y-108824311D01*
X96224550Y-108338130D01*
X95909769Y-108127800D01*
X96224550Y-107917470D01*
X96549406Y-107431289D01*
X96663480Y-106857800D01*
X96549406Y-106284311D01*
X96224550Y-105798130D01*
X95909769Y-105587800D01*
X96224550Y-105377470D01*
X96549406Y-104891289D01*
X96663480Y-104317800D01*
X96549406Y-103744311D01*
X96224550Y-103258130D01*
X95909769Y-103047800D01*
X96224550Y-102837470D01*
X96549406Y-102351289D01*
X96663480Y-101777800D01*
X96549406Y-101204311D01*
X96224550Y-100718130D01*
X95909769Y-100507800D01*
X96224550Y-100297470D01*
X96549406Y-99811289D01*
X96663480Y-99237800D01*
X96549406Y-98664311D01*
X96224550Y-98178130D01*
X95909769Y-97967800D01*
X96224550Y-97757470D01*
X96549406Y-97271289D01*
X96663480Y-96697800D01*
X96549406Y-96124311D01*
X96224550Y-95638130D01*
X95909769Y-95427800D01*
X96224550Y-95217470D01*
X96549406Y-94731289D01*
X96663480Y-94157800D01*
X96549406Y-93584311D01*
X96224550Y-93098130D01*
X95909769Y-92887800D01*
X96224550Y-92677470D01*
X96549406Y-92191289D01*
X96663480Y-91617800D01*
X96549406Y-91044311D01*
X96224550Y-90558130D01*
X95909769Y-90347800D01*
X96224550Y-90137470D01*
X96549406Y-89651289D01*
X96663480Y-89077800D01*
X96549406Y-88504311D01*
X96224550Y-88018130D01*
X95909769Y-87807800D01*
X96224550Y-87597470D01*
X96549406Y-87111289D01*
X96663480Y-86537800D01*
X96549406Y-85964311D01*
X96224550Y-85478130D01*
X95909769Y-85267800D01*
X96224550Y-85057470D01*
X96549406Y-84571289D01*
X96663480Y-83997800D01*
X96549406Y-83424311D01*
X96224550Y-82938130D01*
X95909769Y-82727800D01*
X96224550Y-82517470D01*
X96549406Y-82031289D01*
X96663480Y-81457800D01*
X96549406Y-80884311D01*
X96224550Y-80398130D01*
X95738369Y-80073274D01*
X95164880Y-79959200D01*
X94573120Y-79959200D01*
X93999631Y-80073274D01*
X93513450Y-80398130D01*
X93188594Y-80884311D01*
X93074520Y-81457800D01*
X93188594Y-82031289D01*
X93513450Y-82517470D01*
X93828231Y-82727800D01*
X93513450Y-82938130D01*
X93188594Y-83424311D01*
X93074520Y-83997800D01*
X93188594Y-84571289D01*
X93513450Y-85057470D01*
X93828231Y-85267800D01*
X93513450Y-85478130D01*
X93188594Y-85964311D01*
X93074520Y-86537800D01*
X93188594Y-87111289D01*
X93513450Y-87597470D01*
X93828231Y-87807800D01*
X93513450Y-88018130D01*
X93188594Y-88504311D01*
X93074520Y-89077800D01*
X93188594Y-89651289D01*
X93513450Y-90137470D01*
X93828231Y-90347800D01*
X93513450Y-90558130D01*
X93188594Y-91044311D01*
X93074520Y-91617800D01*
X93188594Y-92191289D01*
X93513450Y-92677470D01*
X93828231Y-92887800D01*
X93513450Y-93098130D01*
X93188594Y-93584311D01*
X93074520Y-94157800D01*
X93188594Y-94731289D01*
X93513450Y-95217470D01*
X93828231Y-95427800D01*
X93513450Y-95638130D01*
X93188594Y-96124311D01*
X93164516Y-96245358D01*
X89709079Y-92789921D01*
X89454407Y-92619755D01*
X89154000Y-92560000D01*
X87222440Y-92560000D01*
X87222440Y-92495000D01*
X87178162Y-92259683D01*
X87039090Y-92043559D01*
X86826890Y-91898569D01*
X86575000Y-91847560D01*
X86560000Y-91847560D01*
X86560000Y-90805000D01*
X86496439Y-90485459D01*
X86315434Y-90214566D01*
X85232172Y-89131304D01*
X85460000Y-89177440D01*
X87260000Y-89177440D01*
X87495317Y-89133162D01*
X87711441Y-88994090D01*
X87856431Y-88781890D01*
X87907440Y-88530000D01*
X87907440Y-86730000D01*
X87863162Y-86494683D01*
X87724090Y-86278559D01*
X87511890Y-86133569D01*
X87491466Y-86129433D01*
X87660551Y-85960643D01*
X87894733Y-85396670D01*
X87895265Y-84786009D01*
X87662068Y-84221629D01*
X87230643Y-83789449D01*
X86666670Y-83555267D01*
X86056009Y-83554735D01*
X85491629Y-83787932D01*
X85059449Y-84219357D01*
X84825267Y-84783330D01*
X84824735Y-85393991D01*
X85057932Y-85958371D01*
X85225880Y-86126613D01*
X85224683Y-86126838D01*
X85008559Y-86265910D01*
X84863569Y-86478110D01*
X84812560Y-86730000D01*
X84812560Y-88530000D01*
X84854672Y-88753804D01*
X84655000Y-88554132D01*
X84655000Y-80990868D01*
X84858696Y-80787172D01*
X84812560Y-81015000D01*
X84812560Y-82815000D01*
X84856838Y-83050317D01*
X84995910Y-83266441D01*
X85208110Y-83411431D01*
X85460000Y-83462440D01*
X87260000Y-83462440D01*
X87495317Y-83418162D01*
X87711441Y-83279090D01*
X87856431Y-83066890D01*
X87907440Y-82815000D01*
X87907440Y-81548428D01*
X88601434Y-80854434D01*
X88782440Y-80583540D01*
X88846000Y-80264000D01*
X88846000Y-76200000D01*
X88811507Y-76026593D01*
X88782440Y-75880460D01*
X88601434Y-75609566D01*
X87195000Y-74203132D01*
X87195000Y-69850000D01*
X90433907Y-69850000D01*
X90546946Y-70418285D01*
X90868853Y-70900054D01*
X90910452Y-70927850D01*
X90862683Y-70936838D01*
X90646559Y-71075910D01*
X90501569Y-71288110D01*
X90450560Y-71540000D01*
X90450560Y-73240000D01*
X90494838Y-73475317D01*
X90633910Y-73691441D01*
X90846110Y-73836431D01*
X91098000Y-73887440D01*
X91163000Y-73887440D01*
X91163000Y-74168000D01*
X91222755Y-74468407D01*
X91392921Y-74723079D01*
X92535921Y-75866079D01*
X92790593Y-76036245D01*
X93091000Y-76096000D01*
X94698038Y-76096000D01*
X94870302Y-76353811D01*
X95335849Y-76664880D01*
X95885000Y-76774113D01*
X96434151Y-76664880D01*
X96899698Y-76353811D01*
X97210767Y-75888264D01*
X97320000Y-75339113D01*
X97320000Y-75282887D01*
X97210767Y-74733736D01*
X96899698Y-74268189D01*
X96434151Y-73957120D01*
X95885000Y-73847887D01*
X95335849Y-73957120D01*
X94870302Y-74268189D01*
X94698038Y-74526000D01*
X93416158Y-74526000D01*
X92777598Y-73887440D01*
X92798000Y-73887440D01*
X93033317Y-73843162D01*
X93249441Y-73704090D01*
X93394431Y-73491890D01*
X93445440Y-73240000D01*
X93445440Y-71540000D01*
X93401162Y-71304683D01*
X93262090Y-71088559D01*
X93049890Y-70943569D01*
X92982459Y-70929914D01*
X93027147Y-70900054D01*
X93349054Y-70418285D01*
X93462093Y-69850000D01*
X93349054Y-69281715D01*
X93027147Y-68799946D01*
X92645424Y-68544887D01*
X100419000Y-68544887D01*
X100419000Y-68601113D01*
X100528233Y-69150264D01*
X100839302Y-69615811D01*
X101304849Y-69926880D01*
X101854000Y-70036113D01*
X102403151Y-69926880D01*
X102868698Y-69615811D01*
X103179767Y-69150264D01*
X103289000Y-68601113D01*
X103289000Y-68544887D01*
X103179767Y-67995736D01*
X102868698Y-67530189D01*
X102403151Y-67219120D01*
X101854000Y-67109887D01*
X101304849Y-67219120D01*
X100839302Y-67530189D01*
X100528233Y-67995736D01*
X100419000Y-68544887D01*
X92645424Y-68544887D01*
X92545378Y-68478039D01*
X91977093Y-68365000D01*
X91918907Y-68365000D01*
X91350622Y-68478039D01*
X90868853Y-68799946D01*
X90546946Y-69281715D01*
X90433907Y-69850000D01*
X87195000Y-69850000D01*
X87195000Y-67837882D01*
X87374698Y-67717811D01*
X87685767Y-67252264D01*
X87795000Y-66703113D01*
X87795000Y-66646887D01*
X87685767Y-66097736D01*
X87374698Y-65632189D01*
X87079865Y-65435187D01*
X94449752Y-65435187D01*
X94667757Y-65962800D01*
X95071077Y-66366824D01*
X95598309Y-66585750D01*
X96169187Y-66586248D01*
X96696800Y-66368243D01*
X97100824Y-65964923D01*
X97319750Y-65437691D01*
X97320248Y-64866813D01*
X97102243Y-64339200D01*
X96698923Y-63935176D01*
X96171691Y-63716250D01*
X95600813Y-63715752D01*
X95073200Y-63933757D01*
X94669176Y-64337077D01*
X94450250Y-64864309D01*
X94449752Y-65435187D01*
X87079865Y-65435187D01*
X86909151Y-65321120D01*
X86360000Y-65211887D01*
X85810849Y-65321120D01*
X85345302Y-65632189D01*
X85034233Y-66097736D01*
X84925000Y-66646887D01*
X84925000Y-66703113D01*
X85034233Y-67252264D01*
X85345302Y-67717811D01*
X85525000Y-67837882D01*
X85525000Y-74549000D01*
X85588561Y-74868541D01*
X85605068Y-74893245D01*
X85769566Y-75139434D01*
X87176000Y-76545868D01*
X87176000Y-78051759D01*
X86666670Y-77840267D01*
X86056009Y-77839735D01*
X85491629Y-78072932D01*
X85059449Y-78504357D01*
X85040566Y-78549833D01*
X84770459Y-78603561D01*
X84508724Y-78778447D01*
X84499566Y-78784566D01*
X83229566Y-80054566D01*
X83048561Y-80325459D01*
X82985000Y-80645000D01*
X82985000Y-88900000D01*
X83048561Y-89219541D01*
X83151731Y-89373946D01*
X83229566Y-89490434D01*
X84890000Y-91150868D01*
X84890000Y-91847560D01*
X84875000Y-91847560D01*
X84639683Y-91891838D01*
X84423559Y-92030910D01*
X84278569Y-92243110D01*
X84227560Y-92495000D01*
X84227560Y-94195000D01*
X84271838Y-94430317D01*
X84410910Y-94646441D01*
X84623110Y-94791431D01*
X84875000Y-94842440D01*
X86575000Y-94842440D01*
X86810317Y-94798162D01*
X87026441Y-94659090D01*
X87171431Y-94446890D01*
X87222440Y-94195000D01*
X87222440Y-94130000D01*
X88828842Y-94130000D01*
X92052000Y-97353158D01*
X92052000Y-99323842D01*
X91233079Y-98504921D01*
X90978407Y-98334755D01*
X90678000Y-98275000D01*
X87222440Y-98275000D01*
X87222440Y-98210000D01*
X87178162Y-97974683D01*
X87039090Y-97758559D01*
X86826890Y-97613569D01*
X86575000Y-97562560D01*
X84875000Y-97562560D01*
X84639683Y-97606838D01*
X84423559Y-97745910D01*
X84278569Y-97958110D01*
X84227560Y-98210000D01*
X84227560Y-99910000D01*
X84271838Y-100145317D01*
X84410910Y-100361441D01*
X84623110Y-100506431D01*
X84875000Y-100557440D01*
X86575000Y-100557440D01*
X86810317Y-100513162D01*
X87026441Y-100374090D01*
X87171431Y-100161890D01*
X87222440Y-99910000D01*
X87222440Y-99845000D01*
X90352842Y-99845000D01*
X91163000Y-100655158D01*
X91163000Y-112111494D01*
X91155808Y-112118673D01*
X91013162Y-112462201D01*
X91012838Y-112834167D01*
X91154883Y-113177943D01*
X91417673Y-113441192D01*
X91475009Y-113465000D01*
X87328841Y-113465000D01*
X87185147Y-113249946D01*
X86703378Y-112928039D01*
X86135093Y-112815000D01*
X86076907Y-112815000D01*
X85508622Y-112928039D01*
X85026853Y-113249946D01*
X84704946Y-113731715D01*
X84591907Y-114300000D01*
X84704946Y-114868285D01*
X85026853Y-115350054D01*
X85068452Y-115377850D01*
X85020683Y-115386838D01*
X84804559Y-115525910D01*
X84659569Y-115738110D01*
X84608560Y-115990000D01*
X84608560Y-116005000D01*
X84165868Y-116005000D01*
X84020000Y-115859132D01*
X84020000Y-108930868D01*
X84636639Y-108314229D01*
X84652838Y-108400317D01*
X84791910Y-108616441D01*
X85004110Y-108761431D01*
X85256000Y-108812440D01*
X86956000Y-108812440D01*
X87191317Y-108768162D01*
X87407441Y-108629090D01*
X87552431Y-108416890D01*
X87603440Y-108165000D01*
X87603440Y-106465000D01*
X87559162Y-106229683D01*
X87420090Y-106013559D01*
X87207890Y-105868569D01*
X87140459Y-105854914D01*
X87185147Y-105825054D01*
X87507054Y-105343285D01*
X87620093Y-104775000D01*
X87507054Y-104206715D01*
X87185147Y-103724946D01*
X86703378Y-103403039D01*
X86135093Y-103290000D01*
X86076907Y-103290000D01*
X85508622Y-103403039D01*
X85026853Y-103724946D01*
X84704946Y-104206715D01*
X84591907Y-104775000D01*
X84704946Y-105343285D01*
X85026853Y-105825054D01*
X85068452Y-105852850D01*
X85020683Y-105861838D01*
X84804559Y-106000910D01*
X84659569Y-106213110D01*
X84608560Y-106465000D01*
X84608560Y-106480000D01*
X84455000Y-106480000D01*
X84135459Y-106543561D01*
X83880298Y-106714054D01*
X83864566Y-106724566D01*
X82854000Y-107735132D01*
X82854000Y-62670350D01*
X83270849Y-62948880D01*
X83820000Y-63058113D01*
X84369151Y-62948880D01*
X84834698Y-62637811D01*
X85145767Y-62172264D01*
X85204063Y-61879187D01*
X87210752Y-61879187D01*
X87428757Y-62406800D01*
X87832077Y-62810824D01*
X88359309Y-63029750D01*
X88930187Y-63030248D01*
X89457800Y-62812243D01*
X89861824Y-62408923D01*
X90080750Y-61881691D01*
X90081018Y-61573887D01*
X94577000Y-61573887D01*
X94577000Y-61630113D01*
X94686233Y-62179264D01*
X94997302Y-62644811D01*
X95462849Y-62955880D01*
X96012000Y-63065113D01*
X96561151Y-62955880D01*
X97026698Y-62644811D01*
X97337767Y-62179264D01*
X97447000Y-61630113D01*
X97447000Y-61573887D01*
X97337767Y-61024736D01*
X97026698Y-60559189D01*
X96561151Y-60248120D01*
X96012000Y-60138887D01*
X95462849Y-60248120D01*
X94997302Y-60559189D01*
X94686233Y-61024736D01*
X94577000Y-61573887D01*
X90081018Y-61573887D01*
X90081248Y-61310813D01*
X89863243Y-60783200D01*
X89459923Y-60379176D01*
X88932691Y-60160250D01*
X88361813Y-60159752D01*
X87834200Y-60377757D01*
X87430176Y-60781077D01*
X87211250Y-61308309D01*
X87210752Y-61879187D01*
X85204063Y-61879187D01*
X85255000Y-61623113D01*
X85255000Y-61566887D01*
X85145767Y-61017736D01*
X84834698Y-60552189D01*
X84369151Y-60241120D01*
X83820000Y-60131887D01*
X83270849Y-60241120D01*
X82854000Y-60519650D01*
X82854000Y-53721000D01*
X98936999Y-53721000D01*
X98937000Y-53721005D01*
X98937000Y-63372995D01*
X98936999Y-63373000D01*
X98993190Y-63655484D01*
X99004367Y-63711675D01*
X99152757Y-63933757D01*
X99196210Y-63998790D01*
X100444767Y-65247347D01*
X100419000Y-65376887D01*
X100419000Y-65433113D01*
X100528233Y-65982264D01*
X100839302Y-66447811D01*
X101304849Y-66758880D01*
X101854000Y-66868113D01*
X102403151Y-66758880D01*
X102868698Y-66447811D01*
X103179767Y-65982264D01*
X103289000Y-65433113D01*
X103289000Y-65376887D01*
X103179767Y-64827736D01*
X102868698Y-64362189D01*
X102403151Y-64051120D01*
X101854000Y-63941887D01*
X101677562Y-63976983D01*
X100707000Y-63006420D01*
X100707000Y-57335167D01*
X103204838Y-57335167D01*
X103346883Y-57678943D01*
X103355000Y-57687074D01*
X103355000Y-64516000D01*
X103414755Y-64816407D01*
X103584921Y-65071079D01*
X109934921Y-71421079D01*
X110189593Y-71591245D01*
X110490000Y-71651000D01*
X134717494Y-71651000D01*
X134724673Y-71658192D01*
X135068201Y-71800838D01*
X135440167Y-71801162D01*
X135783943Y-71659117D01*
X136047192Y-71396327D01*
X136189838Y-71052799D01*
X136190162Y-70680833D01*
X136048117Y-70337057D01*
X135785327Y-70073808D01*
X135441799Y-69931162D01*
X135069833Y-69930838D01*
X134726057Y-70072883D01*
X134717926Y-70081000D01*
X110815158Y-70081000D01*
X104925000Y-64190842D01*
X104925000Y-60706000D01*
X107451907Y-60706000D01*
X107564946Y-61274285D01*
X107886853Y-61756054D01*
X107928452Y-61783850D01*
X107880683Y-61792838D01*
X107664559Y-61931910D01*
X107519569Y-62144110D01*
X107468560Y-62396000D01*
X107468560Y-64096000D01*
X107512838Y-64331317D01*
X107651910Y-64547441D01*
X107864110Y-64692431D01*
X108116000Y-64743440D01*
X109816000Y-64743440D01*
X110051317Y-64699162D01*
X110267441Y-64560090D01*
X110412431Y-64347890D01*
X110463440Y-64096000D01*
X110463440Y-62396000D01*
X110419162Y-62160683D01*
X110280090Y-61944559D01*
X110067890Y-61799569D01*
X110000459Y-61785914D01*
X110045147Y-61756054D01*
X110367054Y-61274285D01*
X110480093Y-60706000D01*
X110367054Y-60137715D01*
X110045147Y-59655946D01*
X109563378Y-59334039D01*
X108995093Y-59221000D01*
X108936907Y-59221000D01*
X108368622Y-59334039D01*
X107886853Y-59655946D01*
X107564946Y-60137715D01*
X107451907Y-60706000D01*
X104925000Y-60706000D01*
X104925000Y-57687506D01*
X104932192Y-57680327D01*
X105074838Y-57336799D01*
X105075162Y-56964833D01*
X104933117Y-56621057D01*
X104670327Y-56357808D01*
X104326799Y-56215162D01*
X103954833Y-56214838D01*
X103611057Y-56356883D01*
X103347808Y-56619673D01*
X103205162Y-56963201D01*
X103204838Y-57335167D01*
X100707000Y-57335167D01*
X100707000Y-56127166D01*
X101040077Y-56460824D01*
X101567309Y-56679750D01*
X102138187Y-56680248D01*
X102665800Y-56462243D01*
X103069824Y-56058923D01*
X103288750Y-55531691D01*
X103289248Y-54960813D01*
X103071243Y-54433200D01*
X102667923Y-54029176D01*
X102140691Y-53810250D01*
X101569813Y-53809752D01*
X101042200Y-54027757D01*
X100707000Y-54362373D01*
X100707000Y-54087580D01*
X102597579Y-52197000D01*
X107061000Y-52197000D01*
X107061000Y-57531000D01*
X107069685Y-57577159D01*
X107096965Y-57619553D01*
X107138590Y-57647994D01*
X107188000Y-57658000D01*
X110490000Y-57658000D01*
X110536159Y-57649315D01*
X110578553Y-57622035D01*
X110606994Y-57580410D01*
X110617000Y-57531000D01*
X110617000Y-52197000D01*
X110608315Y-52150841D01*
X110581035Y-52108447D01*
X110539410Y-52080006D01*
X110490000Y-52070000D01*
X107188000Y-52070000D01*
X107141841Y-52078685D01*
X107099447Y-52105965D01*
X107071006Y-52147590D01*
X107061000Y-52197000D01*
X102597579Y-52197000D01*
X102733787Y-52060792D01*
X102733790Y-52060790D01*
X102925633Y-51773675D01*
X102942476Y-51689000D01*
X102993001Y-51435000D01*
X102993000Y-51434995D01*
X102993000Y-50142144D01*
X103150811Y-50036698D01*
X103461880Y-49571151D01*
X103571113Y-49022000D01*
X103461880Y-48472849D01*
X103150811Y-48007302D01*
X102685264Y-47696233D01*
X102136113Y-47587000D01*
X102079887Y-47587000D01*
X101530736Y-47696233D01*
X101065189Y-48007302D01*
X100754120Y-48472849D01*
X100644887Y-49022000D01*
X100754120Y-49571151D01*
X101065189Y-50036698D01*
X101223000Y-50142144D01*
X101223000Y-51068421D01*
X99196210Y-53095210D01*
X99004367Y-53382325D01*
X99004367Y-53382326D01*
X98936999Y-53721000D01*
X82854000Y-53721000D01*
X82854000Y-51406887D01*
X87211000Y-51406887D01*
X87211000Y-51463113D01*
X87320233Y-52012264D01*
X87631302Y-52477811D01*
X88096849Y-52788880D01*
X88646000Y-52898113D01*
X89195151Y-52788880D01*
X89660698Y-52477811D01*
X89971767Y-52012264D01*
X90081000Y-51463113D01*
X90081000Y-51406887D01*
X89971767Y-50857736D01*
X89660698Y-50392189D01*
X89195151Y-50081120D01*
X88646000Y-49971887D01*
X88096849Y-50081120D01*
X87631302Y-50392189D01*
X87320233Y-50857736D01*
X87211000Y-51406887D01*
X82854000Y-51406887D01*
X82854000Y-49306187D01*
X90512752Y-49306187D01*
X90730757Y-49833800D01*
X91134077Y-50237824D01*
X91661309Y-50456750D01*
X92232187Y-50457248D01*
X92759800Y-50239243D01*
X93163824Y-49835923D01*
X93382750Y-49308691D01*
X93383248Y-48737813D01*
X93165243Y-48210200D01*
X92761923Y-47806176D01*
X92234691Y-47587250D01*
X91663813Y-47586752D01*
X91136200Y-47804757D01*
X90732176Y-48208077D01*
X90513250Y-48735309D01*
X90512752Y-49306187D01*
X82854000Y-49306187D01*
X82854000Y-42636325D01*
X84101587Y-42636325D01*
X84463916Y-43513229D01*
X85134242Y-44184726D01*
X86010513Y-44548585D01*
X86959325Y-44549413D01*
X87836229Y-44187084D01*
X88507726Y-43516758D01*
X88871585Y-42640487D01*
X88872413Y-41691675D01*
X88740701Y-41372907D01*
X102782000Y-41372907D01*
X102782000Y-41431093D01*
X102895039Y-41999378D01*
X103216946Y-42481147D01*
X103698715Y-42803054D01*
X104267000Y-42916093D01*
X104835285Y-42803054D01*
X105317054Y-42481147D01*
X105537000Y-42151974D01*
X105756946Y-42481147D01*
X106238715Y-42803054D01*
X106807000Y-42916093D01*
X107375285Y-42803054D01*
X107857054Y-42481147D01*
X108077000Y-42151974D01*
X108296946Y-42481147D01*
X108778715Y-42803054D01*
X109347000Y-42916093D01*
X109915285Y-42803054D01*
X110397054Y-42481147D01*
X110617000Y-42151974D01*
X110752000Y-42354016D01*
X110752000Y-45593000D01*
X110838397Y-46027346D01*
X111057329Y-46355000D01*
X111084434Y-46395566D01*
X112657000Y-47968132D01*
X112657000Y-61849000D01*
X112743397Y-62283346D01*
X112878340Y-62485302D01*
X112989434Y-62651566D01*
X114640434Y-64302566D01*
X115008655Y-64548604D01*
X115443000Y-64635000D01*
X119787233Y-64635000D01*
X119989275Y-64770000D01*
X119607189Y-65025302D01*
X119296120Y-65490849D01*
X119186887Y-66040000D01*
X119296120Y-66589151D01*
X119607189Y-67054698D01*
X119989275Y-67310000D01*
X119607189Y-67565302D01*
X119296120Y-68030849D01*
X119186887Y-68580000D01*
X119296120Y-69129151D01*
X119607189Y-69594698D01*
X120072736Y-69905767D01*
X120621887Y-70015000D01*
X120678113Y-70015000D01*
X121227264Y-69905767D01*
X121692811Y-69594698D01*
X122003880Y-69129151D01*
X122113113Y-68580000D01*
X122003880Y-68030849D01*
X121692811Y-67565302D01*
X121310725Y-67310000D01*
X121692811Y-67054698D01*
X122003880Y-66589151D01*
X122113113Y-66040000D01*
X122003880Y-65490849D01*
X121692811Y-65025302D01*
X121310725Y-64770000D01*
X121692811Y-64514698D01*
X122003880Y-64049151D01*
X122113113Y-63500000D01*
X126806887Y-63500000D01*
X126916120Y-64049151D01*
X127227189Y-64514698D01*
X127609275Y-64770000D01*
X127227189Y-65025302D01*
X126916120Y-65490849D01*
X126806887Y-66040000D01*
X126916120Y-66589151D01*
X127227189Y-67054698D01*
X127609275Y-67310000D01*
X127227189Y-67565302D01*
X126916120Y-68030849D01*
X126806887Y-68580000D01*
X126916120Y-69129151D01*
X127227189Y-69594698D01*
X127692736Y-69905767D01*
X128241887Y-70015000D01*
X128298113Y-70015000D01*
X128847264Y-69905767D01*
X129312811Y-69594698D01*
X129623880Y-69129151D01*
X129733113Y-68580000D01*
X129623880Y-68030849D01*
X129312811Y-67565302D01*
X128930725Y-67310000D01*
X129312811Y-67054698D01*
X129623880Y-66589151D01*
X129733113Y-66040000D01*
X129623880Y-65490849D01*
X129312811Y-65025302D01*
X128930725Y-64770000D01*
X129312811Y-64514698D01*
X129623880Y-64049151D01*
X129733113Y-63500000D01*
X129623880Y-62950849D01*
X129312811Y-62485302D01*
X128847264Y-62174233D01*
X128298113Y-62065000D01*
X128241887Y-62065000D01*
X127692736Y-62174233D01*
X127227189Y-62485302D01*
X126916120Y-62950849D01*
X126806887Y-63500000D01*
X122113113Y-63500000D01*
X122003880Y-62950849D01*
X121692811Y-62485302D01*
X121227264Y-62174233D01*
X120678113Y-62065000D01*
X120621887Y-62065000D01*
X120072736Y-62174233D01*
X119787233Y-62365000D01*
X115913132Y-62365000D01*
X114927000Y-61378868D01*
X114927000Y-47498000D01*
X114840603Y-47063654D01*
X114594566Y-46695434D01*
X113022000Y-45122868D01*
X113022000Y-42354016D01*
X113157000Y-42151974D01*
X113376946Y-42481147D01*
X113858715Y-42803054D01*
X114427000Y-42916093D01*
X114995285Y-42803054D01*
X115477054Y-42481147D01*
X115798961Y-41999378D01*
X115912000Y-41431093D01*
X115912000Y-41372907D01*
X115798961Y-40804622D01*
X115477054Y-40322853D01*
X114995285Y-40000946D01*
X114427000Y-39887907D01*
X113858715Y-40000946D01*
X113376946Y-40322853D01*
X113157000Y-40652026D01*
X112937054Y-40322853D01*
X112455285Y-40000946D01*
X111887000Y-39887907D01*
X111318715Y-40000946D01*
X110836946Y-40322853D01*
X110617000Y-40652026D01*
X110397054Y-40322853D01*
X109915285Y-40000946D01*
X109347000Y-39887907D01*
X108778715Y-40000946D01*
X108296946Y-40322853D01*
X108077000Y-40652026D01*
X107857054Y-40322853D01*
X107375285Y-40000946D01*
X106807000Y-39887907D01*
X106238715Y-40000946D01*
X105756946Y-40322853D01*
X105537000Y-40652026D01*
X105317054Y-40322853D01*
X104835285Y-40000946D01*
X104267000Y-39887907D01*
X103698715Y-40000946D01*
X103216946Y-40322853D01*
X102895039Y-40804622D01*
X102782000Y-41372907D01*
X88740701Y-41372907D01*
X88510084Y-40814771D01*
X87839758Y-40143274D01*
X86963487Y-39779415D01*
X86014675Y-39778587D01*
X85137771Y-40140916D01*
X84466274Y-40811242D01*
X84102415Y-41687513D01*
X84101587Y-42636325D01*
X82854000Y-42636325D01*
X82854000Y-40707467D01*
X83017269Y-39886657D01*
X83444003Y-39248005D01*
X84082658Y-38821269D01*
X84903467Y-38658000D01*
X123299842Y-38658000D01*
X122253921Y-39703921D01*
G36*
X173130645Y-44954803D02*
X172806434Y-45171434D01*
X170979868Y-46998000D01*
X167262481Y-46998000D01*
X167670551Y-46590643D01*
X167904733Y-46026670D01*
X167905265Y-45416009D01*
X167672068Y-44851629D01*
X167240643Y-44419449D01*
X166676670Y-44185267D01*
X166066009Y-44184735D01*
X165501629Y-44417932D01*
X165069449Y-44849357D01*
X164835267Y-45413330D01*
X164834735Y-46023991D01*
X165067932Y-46588371D01*
X165476845Y-46998000D01*
X159377000Y-46998000D01*
X159377000Y-42823192D01*
X159543441Y-42716090D01*
X159688431Y-42503890D01*
X159739440Y-42252000D01*
X159739440Y-40552000D01*
X159695162Y-40316683D01*
X159556090Y-40100559D01*
X159343890Y-39955569D01*
X159092000Y-39904560D01*
X157392000Y-39904560D01*
X157156683Y-39948838D01*
X156940559Y-40087910D01*
X156795569Y-40300110D01*
X156744560Y-40552000D01*
X156744560Y-42252000D01*
X156788838Y-42487317D01*
X156927910Y-42703441D01*
X157107000Y-42825808D01*
X157107000Y-45222398D01*
X157023923Y-45139176D01*
X156496691Y-44920250D01*
X155925813Y-44919752D01*
X155398200Y-45137757D01*
X154994176Y-45541077D01*
X154775250Y-46068309D01*
X154774752Y-46639187D01*
X154992757Y-47166800D01*
X155396077Y-47570824D01*
X155923309Y-47789750D01*
X156494187Y-47790248D01*
X157021800Y-47572243D01*
X157107000Y-47487191D01*
X157107000Y-48016421D01*
X156689903Y-48433518D01*
X156613327Y-48356808D01*
X156374238Y-48257529D01*
X156294675Y-48204367D01*
X156238484Y-48193190D01*
X155956000Y-48136999D01*
X155955995Y-48137000D01*
X141691531Y-48137000D01*
X140585000Y-47030468D01*
X140585000Y-42591432D01*
X140750054Y-42481147D01*
X140970000Y-42151974D01*
X141189946Y-42481147D01*
X141671715Y-42803054D01*
X142240000Y-42916093D01*
X142725000Y-42819620D01*
X142725000Y-43815000D01*
X142784755Y-44115407D01*
X142954921Y-44370079D01*
X144645446Y-46060604D01*
X144586887Y-46355000D01*
X144696120Y-46904151D01*
X145007189Y-47369698D01*
X145472736Y-47680767D01*
X146021887Y-47790000D01*
X146078113Y-47790000D01*
X146627264Y-47680767D01*
X147092811Y-47369698D01*
X147403880Y-46904151D01*
X147513113Y-46355000D01*
X147403880Y-45805849D01*
X147092811Y-45340302D01*
X146627264Y-45029233D01*
X146078113Y-44920000D01*
X146021887Y-44920000D01*
X145774389Y-44969231D01*
X144295000Y-43489842D01*
X144295000Y-42819620D01*
X144780000Y-42916093D01*
X145348285Y-42803054D01*
X145830054Y-42481147D01*
X146050000Y-42151974D01*
X146269946Y-42481147D01*
X146751715Y-42803054D01*
X147320000Y-42916093D01*
X147888285Y-42803054D01*
X148370054Y-42481147D01*
X148566596Y-42187000D01*
X149606000Y-42187000D01*
X149906407Y-42127245D01*
X150161079Y-41957079D01*
X152725158Y-39393000D01*
X167568842Y-39393000D01*
X173130645Y-44954803D01*
X173130645Y-44954803D01*
G37*
X173130645Y-44954803D02*
X172806434Y-45171434D01*
X170979868Y-46998000D01*
X167262481Y-46998000D01*
X167670551Y-46590643D01*
X167904733Y-46026670D01*
X167905265Y-45416009D01*
X167672068Y-44851629D01*
X167240643Y-44419449D01*
X166676670Y-44185267D01*
X166066009Y-44184735D01*
X165501629Y-44417932D01*
X165069449Y-44849357D01*
X164835267Y-45413330D01*
X164834735Y-46023991D01*
X165067932Y-46588371D01*
X165476845Y-46998000D01*
X159377000Y-46998000D01*
X159377000Y-42823192D01*
X159543441Y-42716090D01*
X159688431Y-42503890D01*
X159739440Y-42252000D01*
X159739440Y-40552000D01*
X159695162Y-40316683D01*
X159556090Y-40100559D01*
X159343890Y-39955569D01*
X159092000Y-39904560D01*
X157392000Y-39904560D01*
X157156683Y-39948838D01*
X156940559Y-40087910D01*
X156795569Y-40300110D01*
X156744560Y-40552000D01*
X156744560Y-42252000D01*
X156788838Y-42487317D01*
X156927910Y-42703441D01*
X157107000Y-42825808D01*
X157107000Y-45222398D01*
X157023923Y-45139176D01*
X156496691Y-44920250D01*
X155925813Y-44919752D01*
X155398200Y-45137757D01*
X154994176Y-45541077D01*
X154775250Y-46068309D01*
X154774752Y-46639187D01*
X154992757Y-47166800D01*
X155396077Y-47570824D01*
X155923309Y-47789750D01*
X156494187Y-47790248D01*
X157021800Y-47572243D01*
X157107000Y-47487191D01*
X157107000Y-48016421D01*
X156689903Y-48433518D01*
X156613327Y-48356808D01*
X156374238Y-48257529D01*
X156294675Y-48204367D01*
X156238484Y-48193190D01*
X155956000Y-48136999D01*
X155955995Y-48137000D01*
X141691531Y-48137000D01*
X140585000Y-47030468D01*
X140585000Y-42591432D01*
X140750054Y-42481147D01*
X140970000Y-42151974D01*
X141189946Y-42481147D01*
X141671715Y-42803054D01*
X142240000Y-42916093D01*
X142725000Y-42819620D01*
X142725000Y-43815000D01*
X142784755Y-44115407D01*
X142954921Y-44370079D01*
X144645446Y-46060604D01*
X144586887Y-46355000D01*
X144696120Y-46904151D01*
X145007189Y-47369698D01*
X145472736Y-47680767D01*
X146021887Y-47790000D01*
X146078113Y-47790000D01*
X146627264Y-47680767D01*
X147092811Y-47369698D01*
X147403880Y-46904151D01*
X147513113Y-46355000D01*
X147403880Y-45805849D01*
X147092811Y-45340302D01*
X146627264Y-45029233D01*
X146078113Y-44920000D01*
X146021887Y-44920000D01*
X145774389Y-44969231D01*
X144295000Y-43489842D01*
X144295000Y-42819620D01*
X144780000Y-42916093D01*
X145348285Y-42803054D01*
X145830054Y-42481147D01*
X146050000Y-42151974D01*
X146269946Y-42481147D01*
X146751715Y-42803054D01*
X147320000Y-42916093D01*
X147888285Y-42803054D01*
X148370054Y-42481147D01*
X148566596Y-42187000D01*
X149606000Y-42187000D01*
X149906407Y-42127245D01*
X150161079Y-41957079D01*
X152725158Y-39393000D01*
X167568842Y-39393000D01*
X173130645Y-44954803D01*
M02*
