G04 #@! TF.FileFunction,Legend,Bot*
%FSLAX46Y46*%
G04 Gerber Fmt 4.6, Leading zero omitted, Abs format (unit mm)*
G04 Created by KiCad (PCBNEW 4.0.2-stable) date 12/13/2018 9:00:57 AM*
%MOMM*%
G01*
G04 APERTURE LIST*
%ADD10C,0.100000*%
%ADD11C,0.300000*%
G04 APERTURE END LIST*
D10*
D11*
X176141952Y-64364143D02*
X173641952Y-64364143D01*
X175427667Y-65197476D01*
X173641952Y-66030810D01*
X176141952Y-66030810D01*
X176141952Y-67578429D02*
X176022905Y-67340334D01*
X175903857Y-67221286D01*
X175665762Y-67102238D01*
X174951476Y-67102238D01*
X174713381Y-67221286D01*
X174594333Y-67340334D01*
X174475286Y-67578429D01*
X174475286Y-67935572D01*
X174594333Y-68173667D01*
X174713381Y-68292715D01*
X174951476Y-68411762D01*
X175665762Y-68411762D01*
X175903857Y-68292715D01*
X176022905Y-68173667D01*
X176141952Y-67935572D01*
X176141952Y-67578429D01*
X174475286Y-69126048D02*
X174475286Y-70078429D01*
X173641952Y-69483191D02*
X175784810Y-69483191D01*
X176022905Y-69602239D01*
X176141952Y-69840334D01*
X176141952Y-70078429D01*
X176141952Y-71268905D02*
X176022905Y-71030810D01*
X175903857Y-70911762D01*
X175665762Y-70792714D01*
X174951476Y-70792714D01*
X174713381Y-70911762D01*
X174594333Y-71030810D01*
X174475286Y-71268905D01*
X174475286Y-71626048D01*
X174594333Y-71864143D01*
X174713381Y-71983191D01*
X174951476Y-72102238D01*
X175665762Y-72102238D01*
X175903857Y-71983191D01*
X176022905Y-71864143D01*
X176141952Y-71626048D01*
X176141952Y-71268905D01*
X176141952Y-73173667D02*
X174475286Y-73173667D01*
X174951476Y-73173667D02*
X174713381Y-73292715D01*
X174594333Y-73411762D01*
X174475286Y-73649858D01*
X174475286Y-73887953D01*
X176141952Y-77697477D02*
X173641952Y-77697477D01*
X176022905Y-77697477D02*
X176141952Y-77459381D01*
X176141952Y-76983191D01*
X176022905Y-76745096D01*
X175903857Y-76626048D01*
X175665762Y-76507000D01*
X174951476Y-76507000D01*
X174713381Y-76626048D01*
X174594333Y-76745096D01*
X174475286Y-76983191D01*
X174475286Y-77459381D01*
X174594333Y-77697477D01*
X176141952Y-78887953D02*
X174475286Y-78887953D01*
X174951476Y-78887953D02*
X174713381Y-79007001D01*
X174594333Y-79126048D01*
X174475286Y-79364144D01*
X174475286Y-79602239D01*
X176141952Y-80435572D02*
X174475286Y-80435572D01*
X173641952Y-80435572D02*
X173761000Y-80316524D01*
X173880048Y-80435572D01*
X173761000Y-80554620D01*
X173641952Y-80435572D01*
X173880048Y-80435572D01*
X174475286Y-81387953D02*
X176141952Y-81983191D01*
X174475286Y-82578429D01*
X176022905Y-84483191D02*
X176141952Y-84245096D01*
X176141952Y-83768905D01*
X176022905Y-83530810D01*
X175784810Y-83411762D01*
X174832429Y-83411762D01*
X174594333Y-83530810D01*
X174475286Y-83768905D01*
X174475286Y-84245096D01*
X174594333Y-84483191D01*
X174832429Y-84602239D01*
X175070524Y-84602239D01*
X175308619Y-83411762D01*
X176141952Y-85673667D02*
X174475286Y-85673667D01*
X174951476Y-85673667D02*
X174713381Y-85792715D01*
X174594333Y-85911762D01*
X174475286Y-86149858D01*
X174475286Y-86387953D01*
X173641952Y-88768905D02*
X176141952Y-89602239D01*
X173641952Y-90435572D01*
X173880048Y-91149857D02*
X173761000Y-91268905D01*
X173641952Y-91507000D01*
X173641952Y-92102238D01*
X173761000Y-92340334D01*
X173880048Y-92459381D01*
X174118143Y-92578429D01*
X174356238Y-92578429D01*
X174713381Y-92459381D01*
X176141952Y-91030810D01*
X176141952Y-92578429D01*
X174832429Y-96387952D02*
X174951476Y-96745095D01*
X175070524Y-96864143D01*
X175308619Y-96983191D01*
X175665762Y-96983191D01*
X175903857Y-96864143D01*
X176022905Y-96745095D01*
X176141952Y-96507000D01*
X176141952Y-95554619D01*
X173641952Y-95554619D01*
X173641952Y-96387952D01*
X173761000Y-96626048D01*
X173880048Y-96745095D01*
X174118143Y-96864143D01*
X174356238Y-96864143D01*
X174594333Y-96745095D01*
X174713381Y-96626048D01*
X174832429Y-96387952D01*
X174832429Y-95554619D01*
X174475286Y-97816524D02*
X176141952Y-98411762D01*
X174475286Y-99007000D02*
X176141952Y-98411762D01*
X176737190Y-98173667D01*
X176856238Y-98054619D01*
X176975286Y-97816524D01*
X174832429Y-101864143D02*
X174832429Y-102697476D01*
X176141952Y-103054619D02*
X176141952Y-101864143D01*
X173641952Y-101864143D01*
X173641952Y-103054619D01*
X174475286Y-103768905D02*
X174475286Y-104721286D01*
X173641952Y-104126048D02*
X175784810Y-104126048D01*
X176022905Y-104245096D01*
X176141952Y-104483191D01*
X176141952Y-104721286D01*
X176141952Y-105554619D02*
X173641952Y-105554619D01*
X176141952Y-106626048D02*
X174832429Y-106626048D01*
X174594333Y-106507000D01*
X174475286Y-106268905D01*
X174475286Y-105911762D01*
X174594333Y-105673667D01*
X174713381Y-105554619D01*
X176141952Y-108887953D02*
X174832429Y-108887953D01*
X174594333Y-108768905D01*
X174475286Y-108530810D01*
X174475286Y-108054619D01*
X174594333Y-107816524D01*
X176022905Y-108887953D02*
X176141952Y-108649857D01*
X176141952Y-108054619D01*
X176022905Y-107816524D01*
X175784810Y-107697476D01*
X175546714Y-107697476D01*
X175308619Y-107816524D01*
X175189571Y-108054619D01*
X175189571Y-108649857D01*
X175070524Y-108887953D01*
X174475286Y-110078429D02*
X176141952Y-110078429D01*
X174713381Y-110078429D02*
X174594333Y-110197477D01*
X174475286Y-110435572D01*
X174475286Y-110792715D01*
X174594333Y-111030810D01*
X174832429Y-111149858D01*
X176141952Y-111149858D01*
X179941952Y-46745095D02*
X177441952Y-46745095D01*
X179941952Y-47816524D02*
X178632429Y-47816524D01*
X178394333Y-47697476D01*
X178275286Y-47459381D01*
X178275286Y-47102238D01*
X178394333Y-46864143D01*
X178513381Y-46745095D01*
X178275286Y-48649857D02*
X178275286Y-49602238D01*
X177441952Y-49007000D02*
X179584810Y-49007000D01*
X179822905Y-49126048D01*
X179941952Y-49364143D01*
X179941952Y-49602238D01*
X178275286Y-50078428D02*
X178275286Y-51030809D01*
X177441952Y-50435571D02*
X179584810Y-50435571D01*
X179822905Y-50554619D01*
X179941952Y-50792714D01*
X179941952Y-51030809D01*
X178275286Y-51864142D02*
X180775286Y-51864142D01*
X178394333Y-51864142D02*
X178275286Y-52102237D01*
X178275286Y-52578428D01*
X178394333Y-52816523D01*
X178513381Y-52935571D01*
X178751476Y-53054618D01*
X179465762Y-53054618D01*
X179703857Y-52935571D01*
X179822905Y-52816523D01*
X179941952Y-52578428D01*
X179941952Y-52102237D01*
X179822905Y-51864142D01*
X179822905Y-54006999D02*
X179941952Y-54245095D01*
X179941952Y-54721285D01*
X179822905Y-54959380D01*
X179584810Y-55078428D01*
X179465762Y-55078428D01*
X179227667Y-54959380D01*
X179108619Y-54721285D01*
X179108619Y-54364142D01*
X178989571Y-54126047D01*
X178751476Y-54006999D01*
X178632429Y-54006999D01*
X178394333Y-54126047D01*
X178275286Y-54364142D01*
X178275286Y-54721285D01*
X178394333Y-54959380D01*
X179703857Y-56149857D02*
X179822905Y-56268905D01*
X179941952Y-56149857D01*
X179822905Y-56030809D01*
X179703857Y-56149857D01*
X179941952Y-56149857D01*
X178394333Y-56149857D02*
X178513381Y-56268905D01*
X178632429Y-56149857D01*
X178513381Y-56030809D01*
X178394333Y-56149857D01*
X178632429Y-56149857D01*
X177322905Y-59126047D02*
X180537190Y-56983190D01*
X177322905Y-61745095D02*
X180537190Y-59602238D01*
X178275286Y-63649858D02*
X180299095Y-63649858D01*
X180537190Y-63530810D01*
X180656238Y-63411762D01*
X180775286Y-63173667D01*
X180775286Y-62816524D01*
X180656238Y-62578429D01*
X179822905Y-63649858D02*
X179941952Y-63411762D01*
X179941952Y-62935572D01*
X179822905Y-62697477D01*
X179703857Y-62578429D01*
X179465762Y-62459381D01*
X178751476Y-62459381D01*
X178513381Y-62578429D01*
X178394333Y-62697477D01*
X178275286Y-62935572D01*
X178275286Y-63411762D01*
X178394333Y-63649858D01*
X179941952Y-64840334D02*
X178275286Y-64840334D01*
X177441952Y-64840334D02*
X177561000Y-64721286D01*
X177680048Y-64840334D01*
X177561000Y-64959382D01*
X177441952Y-64840334D01*
X177680048Y-64840334D01*
X178275286Y-65673667D02*
X178275286Y-66626048D01*
X177441952Y-66030810D02*
X179584810Y-66030810D01*
X179822905Y-66149858D01*
X179941952Y-66387953D01*
X179941952Y-66626048D01*
X179941952Y-67459381D02*
X177441952Y-67459381D01*
X179941952Y-68530810D02*
X178632429Y-68530810D01*
X178394333Y-68411762D01*
X178275286Y-68173667D01*
X178275286Y-67816524D01*
X178394333Y-67578429D01*
X178513381Y-67459381D01*
X178275286Y-70792715D02*
X179941952Y-70792715D01*
X178275286Y-69721286D02*
X179584810Y-69721286D01*
X179822905Y-69840334D01*
X179941952Y-70078429D01*
X179941952Y-70435572D01*
X179822905Y-70673667D01*
X179703857Y-70792715D01*
X179941952Y-71983191D02*
X177441952Y-71983191D01*
X178394333Y-71983191D02*
X178275286Y-72221286D01*
X178275286Y-72697477D01*
X178394333Y-72935572D01*
X178513381Y-73054620D01*
X178751476Y-73173667D01*
X179465762Y-73173667D01*
X179703857Y-73054620D01*
X179822905Y-72935572D01*
X179941952Y-72697477D01*
X179941952Y-72221286D01*
X179822905Y-71983191D01*
X179703857Y-74245096D02*
X179822905Y-74364144D01*
X179941952Y-74245096D01*
X179822905Y-74126048D01*
X179703857Y-74245096D01*
X179941952Y-74245096D01*
X179822905Y-76507001D02*
X179941952Y-76268905D01*
X179941952Y-75792715D01*
X179822905Y-75554620D01*
X179703857Y-75435572D01*
X179465762Y-75316524D01*
X178751476Y-75316524D01*
X178513381Y-75435572D01*
X178394333Y-75554620D01*
X178275286Y-75792715D01*
X178275286Y-76268905D01*
X178394333Y-76507001D01*
X179941952Y-77935572D02*
X179822905Y-77697477D01*
X179703857Y-77578429D01*
X179465762Y-77459381D01*
X178751476Y-77459381D01*
X178513381Y-77578429D01*
X178394333Y-77697477D01*
X178275286Y-77935572D01*
X178275286Y-78292715D01*
X178394333Y-78530810D01*
X178513381Y-78649858D01*
X178751476Y-78768905D01*
X179465762Y-78768905D01*
X179703857Y-78649858D01*
X179822905Y-78530810D01*
X179941952Y-78292715D01*
X179941952Y-77935572D01*
X179941952Y-79840334D02*
X178275286Y-79840334D01*
X178513381Y-79840334D02*
X178394333Y-79959382D01*
X178275286Y-80197477D01*
X178275286Y-80554620D01*
X178394333Y-80792715D01*
X178632429Y-80911763D01*
X179941952Y-80911763D01*
X178632429Y-80911763D02*
X178394333Y-81030810D01*
X178275286Y-81268906D01*
X178275286Y-81626048D01*
X178394333Y-81864144D01*
X178632429Y-81983191D01*
X179941952Y-81983191D01*
X177322905Y-84959381D02*
X180537190Y-82816524D01*
X179822905Y-86745096D02*
X179941952Y-86507001D01*
X179941952Y-86030810D01*
X179822905Y-85792715D01*
X179584810Y-85673667D01*
X178632429Y-85673667D01*
X178394333Y-85792715D01*
X178275286Y-86030810D01*
X178275286Y-86507001D01*
X178394333Y-86745096D01*
X178632429Y-86864144D01*
X178870524Y-86864144D01*
X179108619Y-85673667D01*
X178275286Y-87578429D02*
X178275286Y-88530810D01*
X177441952Y-87935572D02*
X179584810Y-87935572D01*
X179822905Y-88054620D01*
X179941952Y-88292715D01*
X179941952Y-88530810D01*
X179941952Y-89364143D02*
X177441952Y-89364143D01*
X179941952Y-90435572D02*
X178632429Y-90435572D01*
X178394333Y-90316524D01*
X178275286Y-90078429D01*
X178275286Y-89721286D01*
X178394333Y-89483191D01*
X178513381Y-89364143D01*
X179941952Y-92697477D02*
X178632429Y-92697477D01*
X178394333Y-92578429D01*
X178275286Y-92340334D01*
X178275286Y-91864143D01*
X178394333Y-91626048D01*
X179822905Y-92697477D02*
X179941952Y-92459381D01*
X179941952Y-91864143D01*
X179822905Y-91626048D01*
X179584810Y-91507000D01*
X179346714Y-91507000D01*
X179108619Y-91626048D01*
X178989571Y-91864143D01*
X178989571Y-92459381D01*
X178870524Y-92697477D01*
X178275286Y-93887953D02*
X179941952Y-93887953D01*
X178513381Y-93887953D02*
X178394333Y-94007001D01*
X178275286Y-94245096D01*
X178275286Y-94602239D01*
X178394333Y-94840334D01*
X178632429Y-94959382D01*
X179941952Y-94959382D01*
X179941952Y-96507001D02*
X179822905Y-96268906D01*
X179584810Y-96149858D01*
X177441952Y-96149858D01*
X179822905Y-98411763D02*
X179941952Y-98173668D01*
X179941952Y-97697477D01*
X179822905Y-97459382D01*
X179584810Y-97340334D01*
X178632429Y-97340334D01*
X178394333Y-97459382D01*
X178275286Y-97697477D01*
X178275286Y-98173668D01*
X178394333Y-98411763D01*
X178632429Y-98530811D01*
X178870524Y-98530811D01*
X179108619Y-97340334D01*
X179822905Y-100554620D02*
X179941952Y-100316525D01*
X179941952Y-99840334D01*
X179822905Y-99602239D01*
X179584810Y-99483191D01*
X178632429Y-99483191D01*
X178394333Y-99602239D01*
X178275286Y-99840334D01*
X178275286Y-100316525D01*
X178394333Y-100554620D01*
X178632429Y-100673668D01*
X178870524Y-100673668D01*
X179108619Y-99483191D01*
X178275286Y-101745096D02*
X180775286Y-101745096D01*
X178394333Y-101745096D02*
X178275286Y-101983191D01*
X178275286Y-102459382D01*
X178394333Y-102697477D01*
X178513381Y-102816525D01*
X178751476Y-102935572D01*
X179465762Y-102935572D01*
X179703857Y-102816525D01*
X179822905Y-102697477D01*
X179941952Y-102459382D01*
X179941952Y-101983191D01*
X179822905Y-101745096D01*
X177322905Y-105792715D02*
X180537190Y-103649858D01*
X179941952Y-106626049D02*
X178275286Y-106626049D01*
X178751476Y-106626049D02*
X178513381Y-106745097D01*
X178394333Y-106864144D01*
X178275286Y-107102240D01*
X178275286Y-107340335D01*
X179941952Y-108530811D02*
X179822905Y-108292716D01*
X179703857Y-108173668D01*
X179465762Y-108054620D01*
X178751476Y-108054620D01*
X178513381Y-108173668D01*
X178394333Y-108292716D01*
X178275286Y-108530811D01*
X178275286Y-108887954D01*
X178394333Y-109126049D01*
X178513381Y-109245097D01*
X178751476Y-109364144D01*
X179465762Y-109364144D01*
X179703857Y-109245097D01*
X179822905Y-109126049D01*
X179941952Y-108887954D01*
X179941952Y-108530811D01*
X179941952Y-110435573D02*
X177441952Y-110435573D01*
X178394333Y-110435573D02*
X178275286Y-110673668D01*
X178275286Y-111149859D01*
X178394333Y-111387954D01*
X178513381Y-111507002D01*
X178751476Y-111626049D01*
X179465762Y-111626049D01*
X179703857Y-111507002D01*
X179822905Y-111387954D01*
X179941952Y-111149859D01*
X179941952Y-110673668D01*
X179822905Y-110435573D01*
X179941952Y-113054621D02*
X179822905Y-112816526D01*
X179703857Y-112697478D01*
X179465762Y-112578430D01*
X178751476Y-112578430D01*
X178513381Y-112697478D01*
X178394333Y-112816526D01*
X178275286Y-113054621D01*
X178275286Y-113411764D01*
X178394333Y-113649859D01*
X178513381Y-113768907D01*
X178751476Y-113887954D01*
X179465762Y-113887954D01*
X179703857Y-113768907D01*
X179822905Y-113649859D01*
X179941952Y-113411764D01*
X179941952Y-113054621D01*
X178275286Y-114602240D02*
X178275286Y-115554621D01*
X177441952Y-114959383D02*
X179584810Y-114959383D01*
X179822905Y-115078431D01*
X179941952Y-115316526D01*
X179941952Y-115554621D01*
X179941952Y-116387954D02*
X178275286Y-116387954D01*
X177441952Y-116387954D02*
X177561000Y-116268906D01*
X177680048Y-116387954D01*
X177561000Y-116507002D01*
X177441952Y-116387954D01*
X177680048Y-116387954D01*
X179822905Y-118649859D02*
X179941952Y-118411763D01*
X179941952Y-117935573D01*
X179822905Y-117697478D01*
X179703857Y-117578430D01*
X179465762Y-117459382D01*
X178751476Y-117459382D01*
X178513381Y-117578430D01*
X178394333Y-117697478D01*
X178275286Y-117935573D01*
X178275286Y-118411763D01*
X178394333Y-118649859D01*
X178989571Y-119721287D02*
X178989571Y-121626049D01*
X179941952Y-123887954D02*
X178632429Y-123887954D01*
X178394333Y-123768906D01*
X178275286Y-123530811D01*
X178275286Y-123054620D01*
X178394333Y-122816525D01*
X179822905Y-123887954D02*
X179941952Y-123649858D01*
X179941952Y-123054620D01*
X179822905Y-122816525D01*
X179584810Y-122697477D01*
X179346714Y-122697477D01*
X179108619Y-122816525D01*
X178989571Y-123054620D01*
X178989571Y-123649858D01*
X178870524Y-123887954D01*
X179941952Y-125078430D02*
X178275286Y-125078430D01*
X178751476Y-125078430D02*
X178513381Y-125197478D01*
X178394333Y-125316525D01*
X178275286Y-125554621D01*
X178275286Y-125792716D01*
X179941952Y-126626049D02*
X178275286Y-126626049D01*
X178513381Y-126626049D02*
X178394333Y-126745097D01*
X178275286Y-126983192D01*
X178275286Y-127340335D01*
X178394333Y-127578430D01*
X178632429Y-127697478D01*
X179941952Y-127697478D01*
X178632429Y-127697478D02*
X178394333Y-127816525D01*
X178275286Y-128054621D01*
X178275286Y-128411763D01*
X178394333Y-128649859D01*
X178632429Y-128768906D01*
X179941952Y-128768906D01*
M02*
