G04 #@! TF.FileFunction,Soldermask,Top*
%FSLAX46Y46*%
G04 Gerber Fmt 4.6, Leading zero omitted, Abs format (unit mm)*
G04 Created by KiCad (PCBNEW 4.0.2-stable) date 12/13/2018 9:00:57 AM*
%MOMM*%
G01*
G04 APERTURE LIST*
%ADD10C,0.100000*%
%ADD11R,1.700000X1.700000*%
%ADD12O,1.700000X1.700000*%
%ADD13C,1.700000*%
%ADD14C,3.500000*%
%ADD15C,1.600000*%
%ADD16O,1.600000X1.600000*%
%ADD17R,1.800000X1.800000*%
%ADD18C,1.800000*%
%ADD19R,1.600000X1.600000*%
%ADD20O,1.050000X1.500000*%
%ADD21R,1.050000X1.500000*%
%ADD22R,2.250000X1.727200*%
%ADD23O,2.250000X1.727200*%
%ADD24O,1.727200X1.727200*%
%ADD25R,1.550000X0.600000*%
%ADD26C,0.254000*%
%ADD27C,0.250000*%
G04 APERTURE END LIST*
D10*
D11*
X108966000Y-63246000D03*
D12*
X108966000Y-60706000D03*
D11*
X134620000Y-41402000D03*
D12*
X137160000Y-41402000D03*
X139700000Y-41402000D03*
X142240000Y-41402000D03*
X144780000Y-41402000D03*
X147320000Y-41402000D03*
X150495000Y-85344000D03*
X147955000Y-87884000D03*
X150495000Y-87884000D03*
X147955000Y-90424000D03*
X150495000Y-90424000D03*
X147955000Y-92964000D03*
X150495000Y-92964000D03*
X147955000Y-95504000D03*
X150495000Y-95504000D03*
X147955000Y-98044000D03*
X150495000Y-98044000D03*
X147955000Y-100584000D03*
X150495000Y-100584000D03*
X147955000Y-103124000D03*
X150495000Y-103124000D03*
X147955000Y-105664000D03*
X150495000Y-105664000D03*
X147955000Y-108204000D03*
X150495000Y-108204000D03*
X147955000Y-110744000D03*
X150495000Y-110744000D03*
X147955000Y-113284000D03*
X150495000Y-113284000D03*
X147955000Y-115824000D03*
X150495000Y-115824000D03*
X147955000Y-118364000D03*
X150495000Y-118364000D03*
X147955000Y-120904000D03*
X150495000Y-120904000D03*
X147955000Y-123444000D03*
X150495000Y-123444000D03*
X147955000Y-125984000D03*
X150495000Y-125984000D03*
X147955000Y-128524000D03*
X150495000Y-128524000D03*
X147955000Y-131064000D03*
X150495000Y-131064000D03*
D13*
X168402000Y-80264000D03*
D12*
X170942000Y-80264000D03*
X168402000Y-82804000D03*
X170942000Y-82804000D03*
X168402000Y-85344000D03*
X170942000Y-85344000D03*
X168402000Y-87884000D03*
X170942000Y-87884000D03*
X168402000Y-90424000D03*
X170942000Y-90424000D03*
X168402000Y-92964000D03*
X170942000Y-92964000D03*
X168402000Y-95504000D03*
X170942000Y-95504000D03*
X168402000Y-98044000D03*
X170942000Y-98044000D03*
X168402000Y-100584000D03*
X170942000Y-100584000D03*
X168402000Y-103124000D03*
X170942000Y-103124000D03*
X168402000Y-105664000D03*
X170942000Y-105664000D03*
X168402000Y-108204000D03*
X170942000Y-108204000D03*
X168402000Y-110744000D03*
X170942000Y-110744000D03*
X168402000Y-113284000D03*
X170942000Y-113284000D03*
X168402000Y-115824000D03*
X170942000Y-115824000D03*
X168402000Y-118364000D03*
X170942000Y-118364000D03*
X168402000Y-120904000D03*
X170942000Y-120904000D03*
X168402000Y-123444000D03*
X170942000Y-123444000D03*
X168402000Y-125984000D03*
X170942000Y-125984000D03*
X168402000Y-128524000D03*
X170942000Y-128524000D03*
X168402000Y-131064000D03*
X155575000Y-80264000D03*
X153035000Y-82804000D03*
X155575000Y-82804000D03*
X153035000Y-85344000D03*
X155575000Y-85344000D03*
X153035000Y-87884000D03*
X155575000Y-87884000D03*
X153035000Y-90424000D03*
X155575000Y-90424000D03*
X153035000Y-92964000D03*
X155575000Y-92964000D03*
X153035000Y-95504000D03*
X155575000Y-95504000D03*
X153035000Y-98044000D03*
X155575000Y-98044000D03*
X153035000Y-100584000D03*
X155575000Y-100584000D03*
X153035000Y-103124000D03*
X155575000Y-103124000D03*
X153035000Y-105664000D03*
X155575000Y-105664000D03*
X153035000Y-108204000D03*
X155575000Y-108204000D03*
X153035000Y-110744000D03*
X155575000Y-110744000D03*
X153035000Y-113284000D03*
X155575000Y-113284000D03*
X153035000Y-115824000D03*
X155575000Y-115824000D03*
X153035000Y-118364000D03*
X155575000Y-118364000D03*
X153035000Y-120904000D03*
X155575000Y-120904000D03*
X153035000Y-123444000D03*
X155575000Y-123444000D03*
X153035000Y-125984000D03*
X155575000Y-125984000D03*
X153035000Y-128524000D03*
X155575000Y-128524000D03*
X153035000Y-131064000D03*
X155575000Y-131064000D03*
D13*
X163195000Y-80264000D03*
D12*
X165735000Y-80264000D03*
X163195000Y-82804000D03*
X165735000Y-82804000D03*
X163195000Y-85344000D03*
X165735000Y-85344000D03*
X163195000Y-87884000D03*
X165735000Y-87884000D03*
X163195000Y-90424000D03*
X165735000Y-90424000D03*
X163195000Y-92964000D03*
X165735000Y-92964000D03*
X163195000Y-95504000D03*
X165735000Y-95504000D03*
X163195000Y-98044000D03*
X165735000Y-98044000D03*
X163195000Y-100584000D03*
X165735000Y-100584000D03*
X163195000Y-103124000D03*
X165735000Y-103124000D03*
X163195000Y-105664000D03*
X165735000Y-105664000D03*
X163195000Y-108204000D03*
X165735000Y-108204000D03*
X163195000Y-110744000D03*
X165735000Y-110744000D03*
X163195000Y-113284000D03*
X165735000Y-113284000D03*
X163195000Y-115824000D03*
X165735000Y-115824000D03*
X163195000Y-118364000D03*
X165735000Y-118364000D03*
X163195000Y-120904000D03*
X165735000Y-120904000D03*
X163195000Y-123444000D03*
X165735000Y-123444000D03*
X163195000Y-125984000D03*
X165735000Y-125984000D03*
X163195000Y-128524000D03*
X165735000Y-128524000D03*
X163195000Y-131064000D03*
X165735000Y-131064000D03*
D13*
X158115000Y-80264000D03*
D12*
X160655000Y-80264000D03*
X158115000Y-82804000D03*
X160655000Y-82804000D03*
X158115000Y-85344000D03*
X160655000Y-85344000D03*
X158115000Y-87884000D03*
X160655000Y-87884000D03*
X158115000Y-90424000D03*
X160655000Y-90424000D03*
X158115000Y-92964000D03*
X160655000Y-92964000D03*
X158115000Y-95504000D03*
X160655000Y-95504000D03*
X158115000Y-98044000D03*
X160655000Y-98044000D03*
X158115000Y-100584000D03*
X160655000Y-100584000D03*
X158115000Y-103124000D03*
X160655000Y-103124000D03*
X158115000Y-105664000D03*
X160655000Y-105664000D03*
X158115000Y-108204000D03*
X160655000Y-108204000D03*
X158115000Y-110744000D03*
X160655000Y-110744000D03*
X158115000Y-113284000D03*
X160655000Y-113284000D03*
X158115000Y-115824000D03*
X160655000Y-115824000D03*
X158115000Y-118364000D03*
X160655000Y-118364000D03*
X158115000Y-120904000D03*
X160655000Y-120904000D03*
X158115000Y-123444000D03*
X160655000Y-123444000D03*
X158115000Y-125984000D03*
X160655000Y-125984000D03*
X158115000Y-128524000D03*
X160655000Y-128524000D03*
X158115000Y-131064000D03*
X160655000Y-131064000D03*
D11*
X101727000Y-41402000D03*
D12*
X104267000Y-41402000D03*
X106807000Y-41402000D03*
X109347000Y-41402000D03*
X111887000Y-41402000D03*
X114427000Y-41402000D03*
D14*
X86487000Y-42164000D03*
X177800000Y-42164000D03*
X177800000Y-133731000D03*
D15*
X148082000Y-59690000D03*
D16*
X148082000Y-67190000D03*
D15*
X147447000Y-71882000D03*
D16*
X154947000Y-71882000D03*
D15*
X96012000Y-54102000D03*
D16*
X96012000Y-61602000D03*
D15*
X101854000Y-76073000D03*
D16*
X101854000Y-68573000D03*
D17*
X166370000Y-43180000D03*
D18*
X166370000Y-45720000D03*
D17*
X86360000Y-87630000D03*
D18*
X86360000Y-85090000D03*
D17*
X86360000Y-81915000D03*
D18*
X86360000Y-79375000D03*
D19*
X120650000Y-50800000D03*
D16*
X128270000Y-68580000D03*
X120650000Y-53340000D03*
X128270000Y-66040000D03*
X120650000Y-55880000D03*
X128270000Y-63500000D03*
X120650000Y-58420000D03*
X128270000Y-60960000D03*
X120650000Y-60960000D03*
X128270000Y-58420000D03*
X120650000Y-63500000D03*
X128270000Y-55880000D03*
X120650000Y-66040000D03*
X128270000Y-53340000D03*
X120650000Y-68580000D03*
X128270000Y-50800000D03*
D11*
X85725000Y-99060000D03*
X86106000Y-116840000D03*
D12*
X86106000Y-114300000D03*
D11*
X122809000Y-41402000D03*
D12*
X125349000Y-41402000D03*
D11*
X158242000Y-41402000D03*
D12*
X155702000Y-41402000D03*
D11*
X85725000Y-93345000D03*
X86106000Y-107315000D03*
D12*
X86106000Y-104775000D03*
D20*
X132080000Y-73533000D03*
X130810000Y-73533000D03*
D21*
X133350000Y-73533000D03*
D20*
X138430000Y-73533000D03*
X137160000Y-73533000D03*
D21*
X139700000Y-73533000D03*
D20*
X116332000Y-73533000D03*
X117602000Y-73533000D03*
D21*
X115062000Y-73533000D03*
D20*
X110617000Y-73533000D03*
X111887000Y-73533000D03*
D21*
X109347000Y-73533000D03*
D15*
X156210000Y-46355000D03*
D16*
X146050000Y-46355000D03*
D15*
X159131000Y-56007000D03*
D16*
X159131000Y-66167000D03*
D15*
X165608000Y-56007000D03*
D16*
X165608000Y-66167000D03*
D15*
X153162000Y-66167000D03*
D16*
X153162000Y-56007000D03*
D15*
X170180000Y-71755000D03*
D16*
X160020000Y-71755000D03*
D15*
X83820000Y-51435000D03*
D16*
X83820000Y-61595000D03*
D15*
X91948000Y-49022000D03*
D16*
X102108000Y-49022000D03*
D15*
X101854000Y-55245000D03*
D16*
X101854000Y-65405000D03*
D15*
X88646000Y-61595000D03*
D16*
X88646000Y-51435000D03*
D15*
X95885000Y-65151000D03*
D16*
X95885000Y-75311000D03*
D15*
X86360000Y-76835000D03*
D16*
X86360000Y-66675000D03*
D22*
X110109000Y-129717800D03*
D23*
X110109000Y-127177800D03*
X110109000Y-124637800D03*
X110109000Y-122097800D03*
X110109000Y-119557800D03*
X110109000Y-117017800D03*
X110109000Y-114477800D03*
X110109000Y-111937800D03*
X110109000Y-109397800D03*
X110109000Y-106857800D03*
X110109000Y-104317800D03*
X110109000Y-101777800D03*
X110109000Y-99237800D03*
X110109000Y-96697800D03*
X110109000Y-94157800D03*
X110109000Y-91617800D03*
X110109000Y-89077800D03*
X110109000Y-86537800D03*
X110109000Y-83997800D03*
X110109000Y-81457800D03*
X94869000Y-81457800D03*
X94869000Y-83997800D03*
X94869000Y-86537800D03*
X94869000Y-89077800D03*
X94869000Y-91617800D03*
X94869000Y-94157800D03*
X94869000Y-96697800D03*
X94869000Y-99237800D03*
X94869000Y-101777800D03*
X94869000Y-104317800D03*
X94869000Y-106857800D03*
X94869000Y-109397800D03*
X94869000Y-111937800D03*
X94869000Y-114477800D03*
X94869000Y-117017800D03*
X94869000Y-119557800D03*
X94869000Y-122097800D03*
X94869000Y-124637800D03*
X94869000Y-127177800D03*
X94869000Y-129768600D03*
D24*
X101209000Y-125907800D03*
X103749000Y-125907800D03*
D22*
X134747000Y-129717800D03*
D23*
X134747000Y-127177800D03*
X134747000Y-124637800D03*
X134747000Y-122097800D03*
X134747000Y-119557800D03*
X134747000Y-117017800D03*
X134747000Y-114477800D03*
X134747000Y-111937800D03*
X134747000Y-109397800D03*
X134747000Y-106857800D03*
X134747000Y-104317800D03*
X134747000Y-101777800D03*
X134747000Y-99237800D03*
X134747000Y-96697800D03*
X134747000Y-94157800D03*
X134747000Y-91617800D03*
X134747000Y-89077800D03*
X134747000Y-86537800D03*
X134747000Y-83997800D03*
X134747000Y-81457800D03*
X119507000Y-81457800D03*
X119507000Y-83997800D03*
X119507000Y-86537800D03*
X119507000Y-89077800D03*
X119507000Y-91617800D03*
X119507000Y-94157800D03*
X119507000Y-96697800D03*
X119507000Y-99237800D03*
X119507000Y-101777800D03*
X119507000Y-104317800D03*
X119507000Y-106857800D03*
X119507000Y-109397800D03*
X119507000Y-111937800D03*
X119507000Y-114477800D03*
X119507000Y-117017800D03*
X119507000Y-119557800D03*
X119507000Y-122097800D03*
X119507000Y-124637800D03*
X119507000Y-127177800D03*
X119507000Y-129768600D03*
D24*
X125847000Y-125907800D03*
X128387000Y-125907800D03*
D25*
X111539000Y-56769000D03*
X111539000Y-55499000D03*
X111539000Y-54229000D03*
X111539000Y-52959000D03*
X106139000Y-52959000D03*
X106139000Y-54229000D03*
X106139000Y-55499000D03*
X106139000Y-56769000D03*
X136111000Y-52451000D03*
X136111000Y-53721000D03*
X136111000Y-54991000D03*
X136111000Y-56261000D03*
X141511000Y-56261000D03*
X141511000Y-54991000D03*
X141511000Y-53721000D03*
X141511000Y-52451000D03*
D14*
X86487000Y-133731000D03*
D11*
X138938000Y-63246000D03*
D12*
X138938000Y-60706000D03*
D11*
X159385000Y-76708000D03*
D12*
X156845000Y-76708000D03*
D11*
X91948000Y-72390000D03*
D12*
X91948000Y-69850000D03*
D26*
G36*
X119507000Y-62230000D02*
X116130606Y-62230000D01*
X114808000Y-60907394D01*
X114808000Y-57150000D01*
X119507000Y-57150000D01*
X119507000Y-62230000D01*
X119507000Y-62230000D01*
G37*
X119507000Y-62230000D02*
X116130606Y-62230000D01*
X114808000Y-60907394D01*
X114808000Y-57150000D01*
X119507000Y-57150000D01*
X119507000Y-62230000D01*
G36*
X131191000Y-61595000D02*
X129413000Y-61595000D01*
X129413000Y-57277000D01*
X131191000Y-57277000D01*
X131191000Y-61595000D01*
X131191000Y-61595000D01*
G37*
X131191000Y-61595000D02*
X129413000Y-61595000D01*
X129413000Y-57277000D01*
X131191000Y-57277000D01*
X131191000Y-61595000D01*
D27*
G36*
X138253224Y-48387000D02*
X136727224Y-49913000D01*
X133729000Y-49913000D01*
X133729000Y-49454776D01*
X136525000Y-46658776D01*
X138253224Y-48387000D01*
X138253224Y-48387000D01*
G37*
X138253224Y-48387000D02*
X136727224Y-49913000D01*
X133729000Y-49913000D01*
X133729000Y-49454776D01*
X136525000Y-46658776D01*
X138253224Y-48387000D01*
M02*
